<?xml version="1.0" encoding="utf-8" standalone="no"?>
<!DOCTYPE svg PUBLIC "-//W3C//DTD SVG 1.1//EN"
  "http://www.w3.org/Graphics/SVG/1.1/DTD/svg11.dtd">
<svg xmlns:xlink="http://www.w3.org/1999/xlink" width="844.589375pt" height="342.20625pt" viewBox="0 0 844.589375 342.20625" xmlns="http://www.w3.org/2000/svg" version="1.1">
 <metadata>
  <rdf:RDF xmlns:dc="http://purl.org/dc/elements/1.1/" xmlns:cc="http://creativecommons.org/ns#" xmlns:rdf="http://www.w3.org/1999/02/22-rdf-syntax-ns#">
   <cc:Work>
    <dc:type rdf:resource="http://purl.org/dc/dcmitype/StillImage"/>
    <dc:date>2025-03-03T14:39:20.554242</dc:date>
    <dc:format>image/svg+xml</dc:format>
    <dc:creator>
     <cc:Agent>
      <dc:title>Matplotlib v3.9.0, https://matplotlib.org/</dc:title>
     </cc:Agent>
    </dc:creator>
   </cc:Work>
  </rdf:RDF>
 </metadata>
 <defs>
  <style type="text/css">*{stroke-linejoin: round; stroke-linecap: butt}</style>
 </defs>
 <g id="figure_1">
  <g id="patch_1">
   <path d="M 0 342.20625 
L 844.589375 342.20625 
L 844.589375 0 
L 0 0 
z
" style="fill: #ffffff"/>
  </g>
  <g id="axes_1">
   <g id="patch_2">
    <path d="M 56.189375 302.0575 
L 411.280284 302.0575 
L 411.280284 24.8575 
L 56.189375 24.8575 
z
" style="fill: #ffffff"/>
   </g>
   <g id="matplotlib.axis_1">
    <g id="xtick_1">
     <g id="line2d_1">
      <path d="M 72.329871 302.0575 
L 72.329871 24.8575 
" clip-path="url(#pac6c9bb1a1)" style="fill: none; stroke: #cccccc; stroke-width: 0.8; stroke-linecap: round"/>
     </g>
     <g id="text_1">
      <!-- 0 -->
      <g style="fill: #262626" transform="translate(69.549402 316.215313) scale(0.1 -0.1)">
       <defs>
        <path id="ArialMT-30" d="M 266 2259 
Q 266 3072 433 3567 
Q 600 4063 929 4331 
Q 1259 4600 1759 4600 
Q 2128 4600 2406 4451 
Q 2684 4303 2865 4023 
Q 3047 3744 3150 3342 
Q 3253 2941 3253 2259 
Q 3253 1453 3087 958 
Q 2922 463 2592 192 
Q 2263 -78 1759 -78 
Q 1097 -78 719 397 
Q 266 969 266 2259 
z
M 844 2259 
Q 844 1131 1108 757 
Q 1372 384 1759 384 
Q 2147 384 2411 759 
Q 2675 1134 2675 2259 
Q 2675 3391 2411 3762 
Q 2147 4134 1753 4134 
Q 1366 4134 1134 3806 
Q 844 3388 844 2259 
z
" transform="scale(0.015625)"/>
       </defs>
       <use xlink:href="#ArialMT-30"/>
      </g>
     </g>
    </g>
    <g id="xtick_2">
     <g id="line2d_2">
      <path d="M 131.344481 302.0575 
L 131.344481 24.8575 
" clip-path="url(#pac6c9bb1a1)" style="fill: none; stroke: #cccccc; stroke-width: 0.8; stroke-linecap: round"/>
     </g>
     <g id="text_2">
      <!-- 100 -->
      <g style="fill: #262626" transform="translate(123.003075 316.215313) scale(0.1 -0.1)">
       <defs>
        <path id="ArialMT-31" d="M 2384 0 
L 1822 0 
L 1822 3584 
Q 1619 3391 1289 3197 
Q 959 3003 697 2906 
L 697 3450 
Q 1169 3672 1522 3987 
Q 1875 4303 2022 4600 
L 2384 4600 
L 2384 0 
z
" transform="scale(0.015625)"/>
       </defs>
       <use xlink:href="#ArialMT-31"/>
       <use xlink:href="#ArialMT-30" x="55.615234"/>
       <use xlink:href="#ArialMT-30" x="111.230469"/>
      </g>
     </g>
    </g>
    <g id="xtick_3">
     <g id="line2d_3">
      <path d="M 190.359091 302.0575 
L 190.359091 24.8575 
" clip-path="url(#pac6c9bb1a1)" style="fill: none; stroke: #cccccc; stroke-width: 0.8; stroke-linecap: round"/>
     </g>
     <g id="text_3">
      <!-- 200 -->
      <g style="fill: #262626" transform="translate(182.017685 316.215313) scale(0.1 -0.1)">
       <defs>
        <path id="ArialMT-32" d="M 3222 541 
L 3222 0 
L 194 0 
Q 188 203 259 391 
Q 375 700 629 1000 
Q 884 1300 1366 1694 
Q 2113 2306 2375 2664 
Q 2638 3022 2638 3341 
Q 2638 3675 2398 3904 
Q 2159 4134 1775 4134 
Q 1369 4134 1125 3890 
Q 881 3647 878 3216 
L 300 3275 
Q 359 3922 746 4261 
Q 1134 4600 1788 4600 
Q 2447 4600 2831 4234 
Q 3216 3869 3216 3328 
Q 3216 3053 3103 2787 
Q 2991 2522 2730 2228 
Q 2469 1934 1863 1422 
Q 1356 997 1212 845 
Q 1069 694 975 541 
L 3222 541 
z
" transform="scale(0.015625)"/>
       </defs>
       <use xlink:href="#ArialMT-32"/>
       <use xlink:href="#ArialMT-30" x="55.615234"/>
       <use xlink:href="#ArialMT-30" x="111.230469"/>
      </g>
     </g>
    </g>
    <g id="xtick_4">
     <g id="line2d_4">
      <path d="M 249.373701 302.0575 
L 249.373701 24.8575 
" clip-path="url(#pac6c9bb1a1)" style="fill: none; stroke: #cccccc; stroke-width: 0.8; stroke-linecap: round"/>
     </g>
     <g id="text_4">
      <!-- 300 -->
      <g style="fill: #262626" transform="translate(241.032295 316.215313) scale(0.1 -0.1)">
       <defs>
        <path id="ArialMT-33" d="M 269 1209 
L 831 1284 
Q 928 806 1161 595 
Q 1394 384 1728 384 
Q 2125 384 2398 659 
Q 2672 934 2672 1341 
Q 2672 1728 2419 1979 
Q 2166 2231 1775 2231 
Q 1616 2231 1378 2169 
L 1441 2663 
Q 1497 2656 1531 2656 
Q 1891 2656 2178 2843 
Q 2466 3031 2466 3422 
Q 2466 3731 2256 3934 
Q 2047 4138 1716 4138 
Q 1388 4138 1169 3931 
Q 950 3725 888 3313 
L 325 3413 
Q 428 3978 793 4289 
Q 1159 4600 1703 4600 
Q 2078 4600 2393 4439 
Q 2709 4278 2876 4000 
Q 3044 3722 3044 3409 
Q 3044 3113 2884 2869 
Q 2725 2625 2413 2481 
Q 2819 2388 3044 2092 
Q 3269 1797 3269 1353 
Q 3269 753 2831 336 
Q 2394 -81 1725 -81 
Q 1122 -81 723 278 
Q 325 638 269 1209 
z
" transform="scale(0.015625)"/>
       </defs>
       <use xlink:href="#ArialMT-33"/>
       <use xlink:href="#ArialMT-30" x="55.615234"/>
       <use xlink:href="#ArialMT-30" x="111.230469"/>
      </g>
     </g>
    </g>
    <g id="xtick_5">
     <g id="line2d_5">
      <path d="M 308.388311 302.0575 
L 308.388311 24.8575 
" clip-path="url(#pac6c9bb1a1)" style="fill: none; stroke: #cccccc; stroke-width: 0.8; stroke-linecap: round"/>
     </g>
     <g id="text_5">
      <!-- 400 -->
      <g style="fill: #262626" transform="translate(300.046905 316.215313) scale(0.1 -0.1)">
       <defs>
        <path id="ArialMT-34" d="M 2069 0 
L 2069 1097 
L 81 1097 
L 81 1613 
L 2172 4581 
L 2631 4581 
L 2631 1613 
L 3250 1613 
L 3250 1097 
L 2631 1097 
L 2631 0 
L 2069 0 
z
M 2069 1613 
L 2069 3678 
L 634 1613 
L 2069 1613 
z
" transform="scale(0.015625)"/>
       </defs>
       <use xlink:href="#ArialMT-34"/>
       <use xlink:href="#ArialMT-30" x="55.615234"/>
       <use xlink:href="#ArialMT-30" x="111.230469"/>
      </g>
     </g>
    </g>
    <g id="xtick_6">
     <g id="line2d_6">
      <path d="M 367.402921 302.0575 
L 367.402921 24.8575 
" clip-path="url(#pac6c9bb1a1)" style="fill: none; stroke: #cccccc; stroke-width: 0.8; stroke-linecap: round"/>
     </g>
     <g id="text_6">
      <!-- 500 -->
      <g style="fill: #262626" transform="translate(359.061515 316.215313) scale(0.1 -0.1)">
       <defs>
        <path id="ArialMT-35" d="M 266 1200 
L 856 1250 
Q 922 819 1161 601 
Q 1400 384 1738 384 
Q 2144 384 2425 690 
Q 2706 997 2706 1503 
Q 2706 1984 2436 2262 
Q 2166 2541 1728 2541 
Q 1456 2541 1237 2417 
Q 1019 2294 894 2097 
L 366 2166 
L 809 4519 
L 3088 4519 
L 3088 3981 
L 1259 3981 
L 1013 2750 
Q 1425 3038 1878 3038 
Q 2478 3038 2890 2622 
Q 3303 2206 3303 1553 
Q 3303 931 2941 478 
Q 2500 -78 1738 -78 
Q 1113 -78 717 272 
Q 322 622 266 1200 
z
" transform="scale(0.015625)"/>
       </defs>
       <use xlink:href="#ArialMT-35"/>
       <use xlink:href="#ArialMT-30" x="55.615234"/>
       <use xlink:href="#ArialMT-30" x="111.230469"/>
      </g>
     </g>
    </g>
    <g id="text_7">
     <!-- Value -->
     <g style="fill: #262626" transform="translate(216.34858 332.22375) scale(0.14 -0.14)">
      <defs>
       <path id="ArialMT-56" d="M 1803 0 
L 28 4581 
L 684 4581 
L 1875 1253 
Q 2019 853 2116 503 
Q 2222 878 2363 1253 
L 3600 4581 
L 4219 4581 
L 2425 0 
L 1803 0 
z
" transform="scale(0.015625)"/>
       <path id="ArialMT-61" d="M 2588 409 
Q 2275 144 1986 34 
Q 1697 -75 1366 -75 
Q 819 -75 525 192 
Q 231 459 231 875 
Q 231 1119 342 1320 
Q 453 1522 633 1644 
Q 813 1766 1038 1828 
Q 1203 1872 1538 1913 
Q 2219 1994 2541 2106 
Q 2544 2222 2544 2253 
Q 2544 2597 2384 2738 
Q 2169 2928 1744 2928 
Q 1347 2928 1158 2789 
Q 969 2650 878 2297 
L 328 2372 
Q 403 2725 575 2942 
Q 747 3159 1072 3276 
Q 1397 3394 1825 3394 
Q 2250 3394 2515 3294 
Q 2781 3194 2906 3042 
Q 3031 2891 3081 2659 
Q 3109 2516 3109 2141 
L 3109 1391 
Q 3109 606 3145 398 
Q 3181 191 3288 0 
L 2700 0 
Q 2613 175 2588 409 
z
M 2541 1666 
Q 2234 1541 1622 1453 
Q 1275 1403 1131 1340 
Q 988 1278 909 1158 
Q 831 1038 831 891 
Q 831 666 1001 516 
Q 1172 366 1500 366 
Q 1825 366 2078 508 
Q 2331 650 2450 897 
Q 2541 1088 2541 1459 
L 2541 1666 
z
" transform="scale(0.015625)"/>
       <path id="ArialMT-6c" d="M 409 0 
L 409 4581 
L 972 4581 
L 972 0 
L 409 0 
z
" transform="scale(0.015625)"/>
       <path id="ArialMT-75" d="M 2597 0 
L 2597 488 
Q 2209 -75 1544 -75 
Q 1250 -75 995 37 
Q 741 150 617 320 
Q 494 491 444 738 
Q 409 903 409 1263 
L 409 3319 
L 972 3319 
L 972 1478 
Q 972 1038 1006 884 
Q 1059 663 1231 536 
Q 1403 409 1656 409 
Q 1909 409 2131 539 
Q 2353 669 2445 892 
Q 2538 1116 2538 1541 
L 2538 3319 
L 3100 3319 
L 3100 0 
L 2597 0 
z
" transform="scale(0.015625)"/>
       <path id="ArialMT-65" d="M 2694 1069 
L 3275 997 
Q 3138 488 2766 206 
Q 2394 -75 1816 -75 
Q 1088 -75 661 373 
Q 234 822 234 1631 
Q 234 2469 665 2931 
Q 1097 3394 1784 3394 
Q 2450 3394 2872 2941 
Q 3294 2488 3294 1666 
Q 3294 1616 3291 1516 
L 816 1516 
Q 847 969 1125 678 
Q 1403 388 1819 388 
Q 2128 388 2347 550 
Q 2566 713 2694 1069 
z
M 847 1978 
L 2700 1978 
Q 2663 2397 2488 2606 
Q 2219 2931 1791 2931 
Q 1403 2931 1139 2672 
Q 875 2413 847 1978 
z
" transform="scale(0.015625)"/>
      </defs>
      <use xlink:href="#ArialMT-56"/>
      <use xlink:href="#ArialMT-61" x="59.324219"/>
      <use xlink:href="#ArialMT-6c" x="114.939453"/>
      <use xlink:href="#ArialMT-75" x="137.15625"/>
      <use xlink:href="#ArialMT-65" x="192.771484"/>
     </g>
    </g>
   </g>
   <g id="matplotlib.axis_2">
    <g id="ytick_1">
     <g id="line2d_7">
      <path d="M 56.189375 290.784694 
L 411.280284 290.784694 
" clip-path="url(#pac6c9bb1a1)" style="fill: none; stroke-dasharray: 2.96,1.28; stroke-dashoffset: 0; stroke: #cccccc; stroke-opacity: 0.7; stroke-width: 0.8"/>
     </g>
     <g id="text_8">
      <!-- 0.000 -->
      <g style="fill: #262626" transform="translate(24.1675 294.3636) scale(0.1 -0.1)">
       <defs>
        <path id="ArialMT-2e" d="M 581 0 
L 581 641 
L 1222 641 
L 1222 0 
L 581 0 
z
" transform="scale(0.015625)"/>
       </defs>
       <use xlink:href="#ArialMT-30"/>
       <use xlink:href="#ArialMT-2e" x="55.615234"/>
       <use xlink:href="#ArialMT-30" x="83.398438"/>
       <use xlink:href="#ArialMT-30" x="139.013672"/>
       <use xlink:href="#ArialMT-30" x="194.628906"/>
      </g>
     </g>
    </g>
    <g id="ytick_2">
     <g id="line2d_8">
      <path d="M 56.189375 254.988498 
L 411.280284 254.988498 
" clip-path="url(#pac6c9bb1a1)" style="fill: none; stroke-dasharray: 2.96,1.28; stroke-dashoffset: 0; stroke: #cccccc; stroke-opacity: 0.7; stroke-width: 0.8"/>
     </g>
     <g id="text_9">
      <!-- 0.001 -->
      <g style="fill: #262626" transform="translate(24.1675 258.567404) scale(0.1 -0.1)">
       <use xlink:href="#ArialMT-30"/>
       <use xlink:href="#ArialMT-2e" x="55.615234"/>
       <use xlink:href="#ArialMT-30" x="83.398438"/>
       <use xlink:href="#ArialMT-30" x="139.013672"/>
       <use xlink:href="#ArialMT-31" x="194.628906"/>
      </g>
     </g>
    </g>
    <g id="ytick_3">
     <g id="line2d_9">
      <path d="M 56.189375 219.192301 
L 411.280284 219.192301 
" clip-path="url(#pac6c9bb1a1)" style="fill: none; stroke-dasharray: 2.96,1.28; stroke-dashoffset: 0; stroke: #cccccc; stroke-opacity: 0.7; stroke-width: 0.8"/>
     </g>
     <g id="text_10">
      <!-- 0.002 -->
      <g style="fill: #262626" transform="translate(24.1675 222.771208) scale(0.1 -0.1)">
       <use xlink:href="#ArialMT-30"/>
       <use xlink:href="#ArialMT-2e" x="55.615234"/>
       <use xlink:href="#ArialMT-30" x="83.398438"/>
       <use xlink:href="#ArialMT-30" x="139.013672"/>
       <use xlink:href="#ArialMT-32" x="194.628906"/>
      </g>
     </g>
    </g>
    <g id="ytick_4">
     <g id="line2d_10">
      <path d="M 56.189375 183.396105 
L 411.280284 183.396105 
" clip-path="url(#pac6c9bb1a1)" style="fill: none; stroke-dasharray: 2.96,1.28; stroke-dashoffset: 0; stroke: #cccccc; stroke-opacity: 0.7; stroke-width: 0.8"/>
     </g>
     <g id="text_11">
      <!-- 0.003 -->
      <g style="fill: #262626" transform="translate(24.1675 186.975011) scale(0.1 -0.1)">
       <use xlink:href="#ArialMT-30"/>
       <use xlink:href="#ArialMT-2e" x="55.615234"/>
       <use xlink:href="#ArialMT-30" x="83.398438"/>
       <use xlink:href="#ArialMT-30" x="139.013672"/>
       <use xlink:href="#ArialMT-33" x="194.628906"/>
      </g>
     </g>
    </g>
    <g id="ytick_5">
     <g id="line2d_11">
      <path d="M 56.189375 147.599909 
L 411.280284 147.599909 
" clip-path="url(#pac6c9bb1a1)" style="fill: none; stroke-dasharray: 2.96,1.28; stroke-dashoffset: 0; stroke: #cccccc; stroke-opacity: 0.7; stroke-width: 0.8"/>
     </g>
     <g id="text_12">
      <!-- 0.004 -->
      <g style="fill: #262626" transform="translate(24.1675 151.178815) scale(0.1 -0.1)">
       <use xlink:href="#ArialMT-30"/>
       <use xlink:href="#ArialMT-2e" x="55.615234"/>
       <use xlink:href="#ArialMT-30" x="83.398438"/>
       <use xlink:href="#ArialMT-30" x="139.013672"/>
       <use xlink:href="#ArialMT-34" x="194.628906"/>
      </g>
     </g>
    </g>
    <g id="ytick_6">
     <g id="line2d_12">
      <path d="M 56.189375 111.803713 
L 411.280284 111.803713 
" clip-path="url(#pac6c9bb1a1)" style="fill: none; stroke-dasharray: 2.96,1.28; stroke-dashoffset: 0; stroke: #cccccc; stroke-opacity: 0.7; stroke-width: 0.8"/>
     </g>
     <g id="text_13">
      <!-- 0.005 -->
      <g style="fill: #262626" transform="translate(24.1675 115.382619) scale(0.1 -0.1)">
       <use xlink:href="#ArialMT-30"/>
       <use xlink:href="#ArialMT-2e" x="55.615234"/>
       <use xlink:href="#ArialMT-30" x="83.398438"/>
       <use xlink:href="#ArialMT-30" x="139.013672"/>
       <use xlink:href="#ArialMT-35" x="194.628906"/>
      </g>
     </g>
    </g>
    <g id="ytick_7">
     <g id="line2d_13">
      <path d="M 56.189375 76.007516 
L 411.280284 76.007516 
" clip-path="url(#pac6c9bb1a1)" style="fill: none; stroke-dasharray: 2.96,1.28; stroke-dashoffset: 0; stroke: #cccccc; stroke-opacity: 0.7; stroke-width: 0.8"/>
     </g>
     <g id="text_14">
      <!-- 0.006 -->
      <g style="fill: #262626" transform="translate(24.1675 79.586423) scale(0.1 -0.1)">
       <defs>
        <path id="ArialMT-36" d="M 3184 3459 
L 2625 3416 
Q 2550 3747 2413 3897 
Q 2184 4138 1850 4138 
Q 1581 4138 1378 3988 
Q 1113 3794 959 3422 
Q 806 3050 800 2363 
Q 1003 2672 1297 2822 
Q 1591 2972 1913 2972 
Q 2475 2972 2870 2558 
Q 3266 2144 3266 1488 
Q 3266 1056 3080 686 
Q 2894 316 2569 119 
Q 2244 -78 1831 -78 
Q 1128 -78 684 439 
Q 241 956 241 2144 
Q 241 3472 731 4075 
Q 1159 4600 1884 4600 
Q 2425 4600 2770 4297 
Q 3116 3994 3184 3459 
z
M 888 1484 
Q 888 1194 1011 928 
Q 1134 663 1356 523 
Q 1578 384 1822 384 
Q 2178 384 2434 671 
Q 2691 959 2691 1453 
Q 2691 1928 2437 2201 
Q 2184 2475 1800 2475 
Q 1419 2475 1153 2201 
Q 888 1928 888 1484 
z
" transform="scale(0.015625)"/>
       </defs>
       <use xlink:href="#ArialMT-30"/>
       <use xlink:href="#ArialMT-2e" x="55.615234"/>
       <use xlink:href="#ArialMT-30" x="83.398438"/>
       <use xlink:href="#ArialMT-30" x="139.013672"/>
       <use xlink:href="#ArialMT-36" x="194.628906"/>
      </g>
     </g>
    </g>
    <g id="ytick_8">
     <g id="line2d_14">
      <path d="M 56.189375 40.21132 
L 411.280284 40.21132 
" clip-path="url(#pac6c9bb1a1)" style="fill: none; stroke-dasharray: 2.96,1.28; stroke-dashoffset: 0; stroke: #cccccc; stroke-opacity: 0.7; stroke-width: 0.8"/>
     </g>
     <g id="text_15">
      <!-- 0.007 -->
      <g style="fill: #262626" transform="translate(24.1675 43.790226) scale(0.1 -0.1)">
       <defs>
        <path id="ArialMT-37" d="M 303 3981 
L 303 4522 
L 3269 4522 
L 3269 4084 
Q 2831 3619 2401 2847 
Q 1972 2075 1738 1259 
Q 1569 684 1522 0 
L 944 0 
Q 953 541 1156 1306 
Q 1359 2072 1739 2783 
Q 2119 3494 2547 3981 
L 303 3981 
z
" transform="scale(0.015625)"/>
       </defs>
       <use xlink:href="#ArialMT-30"/>
       <use xlink:href="#ArialMT-2e" x="55.615234"/>
       <use xlink:href="#ArialMT-30" x="83.398438"/>
       <use xlink:href="#ArialMT-30" x="139.013672"/>
       <use xlink:href="#ArialMT-37" x="194.628906"/>
      </g>
     </g>
    </g>
    <g id="text_16">
     <!-- Density -->
     <g style="fill: #262626" transform="translate(17.220937 186.798125) rotate(-90) scale(0.14 -0.14)">
      <defs>
       <path id="ArialMT-44" d="M 494 0 
L 494 4581 
L 2072 4581 
Q 2606 4581 2888 4516 
Q 3281 4425 3559 4188 
Q 3922 3881 4101 3404 
Q 4281 2928 4281 2316 
Q 4281 1794 4159 1391 
Q 4038 988 3847 723 
Q 3656 459 3429 307 
Q 3203 156 2883 78 
Q 2563 0 2147 0 
L 494 0 
z
M 1100 541 
L 2078 541 
Q 2531 541 2789 625 
Q 3047 709 3200 863 
Q 3416 1078 3536 1442 
Q 3656 1806 3656 2325 
Q 3656 3044 3420 3430 
Q 3184 3816 2847 3947 
Q 2603 4041 2063 4041 
L 1100 4041 
L 1100 541 
z
" transform="scale(0.015625)"/>
       <path id="ArialMT-6e" d="M 422 0 
L 422 3319 
L 928 3319 
L 928 2847 
Q 1294 3394 1984 3394 
Q 2284 3394 2536 3286 
Q 2788 3178 2913 3003 
Q 3038 2828 3088 2588 
Q 3119 2431 3119 2041 
L 3119 0 
L 2556 0 
L 2556 2019 
Q 2556 2363 2490 2533 
Q 2425 2703 2258 2804 
Q 2091 2906 1866 2906 
Q 1506 2906 1245 2678 
Q 984 2450 984 1813 
L 984 0 
L 422 0 
z
" transform="scale(0.015625)"/>
       <path id="ArialMT-73" d="M 197 991 
L 753 1078 
Q 800 744 1014 566 
Q 1228 388 1613 388 
Q 2000 388 2187 545 
Q 2375 703 2375 916 
Q 2375 1106 2209 1216 
Q 2094 1291 1634 1406 
Q 1016 1563 777 1677 
Q 538 1791 414 1992 
Q 291 2194 291 2438 
Q 291 2659 392 2848 
Q 494 3038 669 3163 
Q 800 3259 1026 3326 
Q 1253 3394 1513 3394 
Q 1903 3394 2198 3281 
Q 2494 3169 2634 2976 
Q 2775 2784 2828 2463 
L 2278 2388 
Q 2241 2644 2061 2787 
Q 1881 2931 1553 2931 
Q 1166 2931 1000 2803 
Q 834 2675 834 2503 
Q 834 2394 903 2306 
Q 972 2216 1119 2156 
Q 1203 2125 1616 2013 
Q 2213 1853 2448 1751 
Q 2684 1650 2818 1456 
Q 2953 1263 2953 975 
Q 2953 694 2789 445 
Q 2625 197 2315 61 
Q 2006 -75 1616 -75 
Q 969 -75 630 194 
Q 291 463 197 991 
z
" transform="scale(0.015625)"/>
       <path id="ArialMT-69" d="M 425 3934 
L 425 4581 
L 988 4581 
L 988 3934 
L 425 3934 
z
M 425 0 
L 425 3319 
L 988 3319 
L 988 0 
L 425 0 
z
" transform="scale(0.015625)"/>
       <path id="ArialMT-74" d="M 1650 503 
L 1731 6 
Q 1494 -44 1306 -44 
Q 1000 -44 831 53 
Q 663 150 594 308 
Q 525 466 525 972 
L 525 2881 
L 113 2881 
L 113 3319 
L 525 3319 
L 525 4141 
L 1084 4478 
L 1084 3319 
L 1650 3319 
L 1650 2881 
L 1084 2881 
L 1084 941 
Q 1084 700 1114 631 
Q 1144 563 1211 522 
Q 1278 481 1403 481 
Q 1497 481 1650 503 
z
" transform="scale(0.015625)"/>
       <path id="ArialMT-79" d="M 397 -1278 
L 334 -750 
Q 519 -800 656 -800 
Q 844 -800 956 -737 
Q 1069 -675 1141 -563 
Q 1194 -478 1313 -144 
Q 1328 -97 1363 -6 
L 103 3319 
L 709 3319 
L 1400 1397 
Q 1534 1031 1641 628 
Q 1738 1016 1872 1384 
L 2581 3319 
L 3144 3319 
L 1881 -56 
Q 1678 -603 1566 -809 
Q 1416 -1088 1222 -1217 
Q 1028 -1347 759 -1347 
Q 597 -1347 397 -1278 
z
" transform="scale(0.015625)"/>
      </defs>
      <use xlink:href="#ArialMT-44"/>
      <use xlink:href="#ArialMT-65" x="72.216797"/>
      <use xlink:href="#ArialMT-6e" x="127.832031"/>
      <use xlink:href="#ArialMT-73" x="183.447266"/>
      <use xlink:href="#ArialMT-69" x="233.447266"/>
      <use xlink:href="#ArialMT-74" x="255.664062"/>
      <use xlink:href="#ArialMT-79" x="283.447266"/>
     </g>
    </g>
   </g>
   <g id="line2d_15">
    <path d="M 72.920017 61.82683 
L 73.962077 55.830593 
L 74.888352 51.703703 
L 75.698843 49.042123 
L 76.39355 47.467781 
L 76.972472 46.649327 
L 77.435609 46.312108 
L 77.898747 46.251188 
L 78.361885 46.459695 
L 78.825022 46.929529 
L 79.403945 47.870126 
L 80.098651 49.48981 
L 80.909142 52.005927 
L 81.835417 55.621729 
L 82.993262 61.085158 
L 84.498459 69.391898 
L 86.698363 82.970369 
L 90.519249 106.632985 
L 92.3718 116.667763 
L 93.876997 123.717958 
L 95.26641 129.246545 
L 96.540039 133.466882 
L 97.697883 136.614294 
L 98.855727 139.139059 
L 99.897787 140.918335 
L 100.939847 142.274541 
L 101.981906 143.255272 
L 103.023966 143.91107 
L 104.066026 144.29356 
L 105.22387 144.460006 
L 106.497499 144.40577 
L 108.118481 144.100861 
L 111.707798 143.10768 
L 114.370839 142.505885 
L 117.033881 142.141965 
L 123.749377 141.363365 
L 126.065066 140.770216 
L 128.728108 139.837182 
L 133.2437 138.219623 
L 134.980466 137.863269 
L 136.485664 137.783462 
L 137.875077 137.937041 
L 139.26449 138.326499 
L 140.653903 138.950843 
L 142.1591 139.86848 
L 144.011651 141.267546 
L 150.148225 146.163086 
L 151.653423 146.957834 
L 153.042836 147.433636 
L 154.316464 147.637717 
L 155.590093 147.625731 
L 156.979506 147.395039 
L 158.716272 146.871273 
L 162.884512 145.508305 
L 164.15814 145.384769 
L 165.2002 145.492032 
L 166.24226 145.83335 
L 167.168535 146.365175 
L 168.09481 147.137558 
L 169.13687 148.319891 
L 170.17893 149.856775 
L 171.336774 152.000691 
L 172.494618 154.616295 
L 173.768247 158.040842 
L 175.15766 162.417077 
L 176.778642 168.321563 
L 178.515408 175.508966 
L 180.599528 185.114918 
L 183.262569 198.499056 
L 188.588653 226.387178 
L 188.588653 226.387178 
" clip-path="url(#pac6c9bb1a1)" style="fill: none; stroke: #440154; stroke-opacity: 0.8; stroke-width: 2; stroke-linecap: round"/>
   </g>
   <g id="line2d_16">
    <path d="M 72.329871 92.098096 
L 73.371931 86.512728 
L 74.240314 82.967108 
L 74.93502 80.867709 
L 75.629727 79.419967 
L 76.150757 78.754154 
L 76.671787 78.438598 
L 77.192817 78.46152 
L 77.713846 78.808512 
L 78.234876 79.462723 
L 78.929583 80.779612 
L 79.797966 83.068021 
L 80.840026 86.609354 
L 82.055762 91.574331 
L 84.139882 101.221586 
L 86.745031 113.117119 
L 88.134444 118.530703 
L 89.350181 122.435072 
L 90.39224 125.067473 
L 91.260624 126.726669 
L 92.129007 127.893379 
L 92.823713 128.477221 
L 93.51842 128.760703 
L 94.213126 128.758062 
L 94.907833 128.487329 
L 95.602539 127.969686 
L 96.470922 127.011699 
L 97.512982 125.472829 
L 98.728719 123.256806 
L 100.465485 119.583703 
L 104.981077 109.768648 
L 106.544167 106.952781 
L 107.93358 104.867811 
L 109.149317 103.394147 
L 110.365053 102.251432 
L 111.580789 101.427691 
L 112.796526 100.898584 
L 114.012262 100.629839 
L 115.227999 100.579518 
L 116.791088 100.758818 
L 119.048884 101.293015 
L 122.001387 101.970082 
L 123.564477 102.099228 
L 124.95389 101.988275 
L 126.169626 101.680721 
L 127.385363 101.158007 
L 128.774776 100.291299 
L 130.164189 99.15189 
L 131.900955 97.40613 
L 134.679781 94.20177 
L 136.937577 91.710721 
L 138.32699 90.47164 
L 139.542727 89.691793 
L 140.584787 89.313808 
L 141.45317 89.239384 
L 142.321553 89.409365 
L 143.189936 89.844536 
L 144.058319 90.562091 
L 144.926702 91.575352 
L 145.968762 93.19437 
L 147.010822 95.260598 
L 148.226558 98.235911 
L 149.442295 101.806099 
L 150.831708 106.580476 
L 152.394797 112.768167 
L 154.131564 120.537604 
L 156.215683 130.884429 
L 158.994509 145.931052 
L 164.552162 177.715191 
L 168.199371 197.807443 
L 170.80452 210.970187 
L 173.062316 221.276439 
L 175.146436 229.749165 
L 177.056879 236.587517 
L 178.793645 242.029996 
L 180.530412 246.758772 
L 182.267178 250.818021 
L 183.830268 253.948844 
L 185.567034 256.913503 
L 187.3038 259.414585 
L 189.040566 261.535911 
L 190.951009 263.530353 
L 193.208806 265.568336 
L 196.508662 268.216572 
L 206.581906 276.154211 
L 211.271175 279.750659 
L 214.397355 281.876641 
L 217.349857 283.611945 
L 220.128683 284.987917 
L 222.907509 286.119319 
L 225.686335 287.016339 
L 228.465162 287.687923 
L 231.417664 288.166061 
L 234.543844 288.436191 
L 238.36473 288.525921 
L 245.832825 288.563607 
L 245.832825 288.563607 
" clip-path="url(#pac6c9bb1a1)" style="fill: none; stroke: #414487; stroke-opacity: 0.8; stroke-width: 2; stroke-linecap: round"/>
   </g>
   <g id="line2d_17">
    <path d="M 72.329871 101.714073 
L 73.425688 95.908332 
L 74.521505 91.199258 
L 75.398158 88.230577 
L 76.274811 85.962181 
L 77.151465 84.370914 
L 77.808955 83.600764 
L 78.466445 83.172274 
L 79.123935 83.062858 
L 79.781425 83.247099 
L 80.438915 83.697203 
L 81.315569 84.659385 
L 82.192222 85.967289 
L 83.507203 88.410522 
L 85.698836 93.141504 
L 88.109633 98.206548 
L 89.424613 100.524551 
L 90.52043 102.100283 
L 91.616247 103.306884 
L 92.492901 103.991778 
L 93.369554 104.425026 
L 94.246208 104.6119 
L 95.122861 104.563752 
L 95.999514 104.296993 
L 97.095331 103.687516 
L 98.191148 102.814653 
L 99.506128 101.490466 
L 101.259435 99.401686 
L 107.39601 91.751969 
L 109.149317 90.05397 
L 110.68346 88.884999 
L 111.99844 88.149042 
L 113.31342 87.677548 
L 114.409237 87.495985 
L 115.505054 87.511833 
L 116.600871 87.727553 
L 117.696688 88.143074 
L 119.011668 88.901304 
L 120.326648 89.932715 
L 121.860792 91.458849 
L 123.394935 93.297435 
L 125.367406 96.045697 
L 127.778203 99.83966 
L 131.284817 105.835589 
L 136.325574 114.892247 
L 139.174698 120.409471 
L 141.366331 125.097998 
L 143.338802 129.801299 
L 145.311272 135.060968 
L 147.283742 140.920225 
L 149.475376 148.106338 
L 152.3245 158.303425 
L 161.967688 193.744042 
L 164.597648 202.188366 
L 167.227609 209.876359 
L 169.857569 216.876828 
L 172.706693 223.811432 
L 175.77498 230.663156 
L 178.843267 236.96608 
L 181.911554 242.752081 
L 184.760678 247.663666 
L 187.609802 252.131799 
L 190.239762 255.869579 
L 192.869723 259.246788 
L 195.499683 262.274601 
L 198.129643 264.964859 
L 200.759604 267.333002 
L 203.389564 269.401216 
L 206.019525 271.198509 
L 208.868648 272.876633 
L 211.936936 274.41074 
L 215.005223 275.692862 
L 218.292673 276.815539 
L 222.01845 277.830897 
L 233.634109 280.772411 
L 237.359886 282.106504 
L 248.318054 286.252804 
L 251.386342 287.052987 
L 254.454629 287.624019 
L 258.180406 288.073447 
L 264.097817 288.514623 
L 273.741005 289.025436 
L 278.781762 289.067352 
L 286.671644 288.850622 
L 291.274074 288.824921 
L 291.274074 288.824921 
" clip-path="url(#pac6c9bb1a1)" style="fill: none; stroke: #2a788e; stroke-opacity: 0.8; stroke-width: 2; stroke-linecap: round"/>
   </g>
   <g id="line2d_18">
    <path d="M 72.329871 101.151447 
L 73.875238 91.951905 
L 75.420606 84.069779 
L 76.708412 78.535804 
L 77.996219 73.933025 
L 79.284025 70.225413 
L 80.31427 67.865212 
L 81.344515 66.002505 
L 82.37476 64.593375 
L 83.405005 63.590198 
L 84.43525 62.943528 
L 85.465495 62.603931 
L 86.49574 62.5237 
L 87.525985 62.658383 
L 88.813792 63.068675 
L 90.359159 63.831268 
L 92.162088 64.991277 
L 94.222578 66.586597 
L 96.283068 68.452088 
L 98.343558 70.642423 
L 100.146487 72.902445 
L 101.949416 75.55902 
L 103.752345 78.672606 
L 105.555274 82.277826 
L 107.358202 86.374377 
L 109.418693 91.605996 
L 111.994305 98.791035 
L 120.751388 123.886845 
L 123.069439 129.516307 
L 125.129929 133.93226 
L 127.19042 137.802298 
L 129.25091 141.194796 
L 131.568961 144.586342 
L 140.068483 156.569911 
L 142.386534 160.53012 
L 144.704585 164.967189 
L 147.280198 170.432518 
L 150.370933 177.58019 
L 156.552403 192.661391 
L 160.930945 202.984089 
L 164.536802 210.899039 
L 168.14266 218.254015 
L 171.748518 225.113779 
L 175.354375 231.525212 
L 178.702672 237.053701 
L 181.793407 241.729579 
L 184.626581 245.599468 
L 187.202193 248.747187 
L 189.777806 251.54737 
L 192.353419 254.033322 
L 195.186593 256.472353 
L 198.79245 259.269975 
L 204.97392 263.727306 
L 215.276371 270.933334 
L 219.13979 273.364129 
L 222.230525 275.064872 
L 225.063699 276.375993 
L 227.639311 277.333416 
L 230.214924 278.057946 
L 232.790537 278.559426 
L 235.623711 278.890035 
L 239.48713 279.088083 
L 247.213967 279.420331 
L 250.562264 279.827477 
L 253.91056 280.464329 
L 257.773979 281.447494 
L 263.440327 283.161552 
L 270.909603 285.389731 
L 275.545706 286.535131 
L 279.666686 287.330155 
L 283.787666 287.901079 
L 288.423769 288.308546 
L 295.120362 288.640189 
L 312.892089 289.248089 
L 319.588682 289.176887 
L 329.633571 289.055367 
L 329.633571 289.055367 
" clip-path="url(#pac6c9bb1a1)" style="fill: none; stroke: #22a884; stroke-opacity: 0.8; stroke-width: 2; stroke-linecap: round"/>
   </g>
   <g id="line2d_19">
    <path d="M 72.329871 82.388741 
L 74.080815 70.938607 
L 75.831759 60.997692 
L 77.290879 53.981434 
L 78.458175 49.244615 
L 79.625471 45.307878 
L 80.792767 42.178995 
L 81.668239 40.36108 
L 82.543711 38.991078 
L 83.419183 38.060933 
L 84.002831 37.679948 
L 84.586479 37.485825 
L 85.170127 37.474232 
L 85.753775 37.640406 
L 86.337423 37.979181 
L 87.212895 38.798791 
L 88.088367 39.974256 
L 88.963839 41.484223 
L 90.131135 43.978934 
L 91.298431 46.972958 
L 92.757551 51.330861 
L 94.508495 57.314759 
L 96.551263 65.094898 
L 99.469503 77.156615 
L 107.348751 110.203175 
L 109.975167 120.1168 
L 112.309759 128.167551 
L 114.644351 135.445499 
L 116.978943 141.952377 
L 119.313535 147.735286 
L 121.648127 152.875972 
L 123.982719 157.478641 
L 126.609134 162.155531 
L 129.819198 167.37242 
L 134.196558 174.003374 
L 142.36763 185.902676 
L 148.787758 194.935018 
L 154.332414 202.33843 
L 169.507262 222.273089 
L 175.343742 230.633942 
L 181.76387 239.782717 
L 184.973934 243.998295 
L 187.892174 247.470836 
L 190.51859 250.248242 
L 193.145006 252.678827 
L 195.771422 254.776485 
L 198.397838 256.58223 
L 201.316078 258.3223 
L 205.401614 260.479163 
L 212.697214 264.29549 
L 217.074574 266.881026 
L 223.202878 270.821643 
L 228.163886 273.923091 
L 231.37395 275.688188 
L 234.29219 277.042187 
L 236.918606 278.02638 
L 239.545022 278.784374 
L 242.463262 279.381943 
L 245.673326 279.796605 
L 249.758862 280.086222 
L 262.01547 280.820484 
L 270.478366 281.707271 
L 290.906045 284.038078 
L 297.034349 285.11226 
L 309.290957 287.331831 
L 314.543789 287.994655 
L 320.088445 288.455226 
L 327.967693 288.857222 
L 341.683421 289.32942 
L 349.562669 289.367535 
L 363.862045 289.250554 
L 363.862045 289.250554 
" clip-path="url(#pac6c9bb1a1)" style="fill: none; stroke: #7ad151; stroke-opacity: 0.8; stroke-width: 2; stroke-linecap: round"/>
   </g>
   <g id="line2d_20">
    <path d="M 72.329871 64.26179 
L 73.945536 56.234214 
L 75.238068 50.838345 
L 76.530601 46.403537 
L 77.5 43.725878 
L 78.469399 41.611256 
L 79.438798 40.06063 
L 80.085064 39.338396 
L 80.73133 38.86268 
L 81.377596 38.63011 
L 82.023862 38.636403 
L 82.670128 38.876406 
L 83.316395 39.344139 
L 83.962661 40.032846 
L 84.93206 41.463679 
L 85.901459 43.346703 
L 87.193991 46.507003 
L 88.486523 50.336159 
L 90.102189 55.932842 
L 92.040987 63.607581 
L 94.626051 74.972571 
L 104.643176 120.465999 
L 107.22824 130.591234 
L 109.490172 138.598386 
L 111.752103 145.807063 
L 114.014034 152.263982 
L 116.275966 158.048381 
L 118.537897 163.257626 
L 121.122961 168.63835 
L 124.031159 174.132604 
L 127.262489 179.739522 
L 131.140086 185.98766 
L 135.017683 191.83216 
L 138.895279 197.285522 
L 142.449743 201.899547 
L 145.681073 205.739701 
L 148.912404 209.231739 
L 152.143734 212.395652 
L 155.698198 215.558948 
L 160.222061 219.26792 
L 169.592919 226.874881 
L 173.793649 230.640748 
L 177.994378 234.718181 
L 183.48764 240.392482 
L 190.596567 247.703207 
L 194.151031 251.045957 
L 197.382361 253.78013 
L 200.290559 255.954663 
L 203.198756 257.852001 
L 206.106954 259.491336 
L 209.338284 261.059083 
L 213.539014 262.819137 
L 226.787469 268.137764 
L 231.634465 270.449746 
L 238.743392 274.134043 
L 244.559787 277.043526 
L 248.11425 278.586832 
L 251.345581 279.751642 
L 254.253778 280.573125 
L 257.161976 281.170946 
L 260.393306 281.5883 
L 263.94777 281.799114 
L 268.794766 281.824865 
L 277.519358 281.830436 
L 282.366354 282.093277 
L 287.859615 282.630862 
L 300.138671 283.916342 
L 306.278199 284.271732 
L 319.526654 284.944693 
L 325.343049 285.537547 
L 333.098243 286.58737 
L 342.469101 287.805853 
L 348.931762 288.41105 
L 356.686955 288.89793 
L 366.70408 289.297082 
L 375.751805 289.452831 
L 387.384595 289.39557 
L 395.139788 289.402434 
L 395.139788 289.402434 
" clip-path="url(#pac6c9bb1a1)" style="fill: none; stroke: #fde725; stroke-opacity: 0.8; stroke-width: 2; stroke-linecap: round"/>
   </g>
   <g id="patch_3">
    <path d="M 56.189375 302.0575 
L 56.189375 24.8575 
" style="fill: none; stroke: #cccccc; stroke-width: 0.8; stroke-linejoin: miter; stroke-linecap: square"/>
   </g>
   <g id="patch_4">
    <path d="M 411.280284 302.0575 
L 411.280284 24.8575 
" style="fill: none; stroke: #cccccc; stroke-width: 0.8; stroke-linejoin: miter; stroke-linecap: square"/>
   </g>
   <g id="patch_5">
    <path d="M 56.189375 302.0575 
L 411.280284 302.0575 
" style="fill: none; stroke: #cccccc; stroke-width: 0.8; stroke-linejoin: miter; stroke-linecap: square"/>
   </g>
   <g id="patch_6">
    <path d="M 56.189375 24.8575 
L 411.280284 24.8575 
" style="fill: none; stroke: #cccccc; stroke-width: 0.8; stroke-linejoin: miter; stroke-linecap: square"/>
   </g>
   <g id="text_17">
    <!-- Distribution of Capacities - Total (PDF) -->
    <g style="fill: #262626" transform="translate(97.84233 18.8575) scale(0.16 -0.16)">
     <defs>
      <path id="ArialMT-72" d="M 416 0 
L 416 3319 
L 922 3319 
L 922 2816 
Q 1116 3169 1280 3281 
Q 1444 3394 1641 3394 
Q 1925 3394 2219 3213 
L 2025 2691 
Q 1819 2813 1613 2813 
Q 1428 2813 1281 2702 
Q 1134 2591 1072 2394 
Q 978 2094 978 1738 
L 978 0 
L 416 0 
z
" transform="scale(0.015625)"/>
      <path id="ArialMT-62" d="M 941 0 
L 419 0 
L 419 4581 
L 981 4581 
L 981 2947 
Q 1338 3394 1891 3394 
Q 2197 3394 2470 3270 
Q 2744 3147 2920 2923 
Q 3097 2700 3197 2384 
Q 3297 2069 3297 1709 
Q 3297 856 2875 390 
Q 2453 -75 1863 -75 
Q 1275 -75 941 416 
L 941 0 
z
M 934 1684 
Q 934 1088 1097 822 
Q 1363 388 1816 388 
Q 2184 388 2453 708 
Q 2722 1028 2722 1663 
Q 2722 2313 2464 2622 
Q 2206 2931 1841 2931 
Q 1472 2931 1203 2611 
Q 934 2291 934 1684 
z
" transform="scale(0.015625)"/>
      <path id="ArialMT-6f" d="M 213 1659 
Q 213 2581 725 3025 
Q 1153 3394 1769 3394 
Q 2453 3394 2887 2945 
Q 3322 2497 3322 1706 
Q 3322 1066 3130 698 
Q 2938 331 2570 128 
Q 2203 -75 1769 -75 
Q 1072 -75 642 372 
Q 213 819 213 1659 
z
M 791 1659 
Q 791 1022 1069 705 
Q 1347 388 1769 388 
Q 2188 388 2466 706 
Q 2744 1025 2744 1678 
Q 2744 2294 2464 2611 
Q 2184 2928 1769 2928 
Q 1347 2928 1069 2612 
Q 791 2297 791 1659 
z
" transform="scale(0.015625)"/>
      <path id="ArialMT-20" transform="scale(0.015625)"/>
      <path id="ArialMT-66" d="M 556 0 
L 556 2881 
L 59 2881 
L 59 3319 
L 556 3319 
L 556 3672 
Q 556 4006 616 4169 
Q 697 4388 901 4523 
Q 1106 4659 1475 4659 
Q 1713 4659 2000 4603 
L 1916 4113 
Q 1741 4144 1584 4144 
Q 1328 4144 1222 4034 
Q 1116 3925 1116 3625 
L 1116 3319 
L 1763 3319 
L 1763 2881 
L 1116 2881 
L 1116 0 
L 556 0 
z
" transform="scale(0.015625)"/>
      <path id="ArialMT-43" d="M 3763 1606 
L 4369 1453 
Q 4178 706 3683 314 
Q 3188 -78 2472 -78 
Q 1731 -78 1267 223 
Q 803 525 561 1097 
Q 319 1669 319 2325 
Q 319 3041 592 3573 
Q 866 4106 1370 4382 
Q 1875 4659 2481 4659 
Q 3169 4659 3637 4309 
Q 4106 3959 4291 3325 
L 3694 3184 
Q 3534 3684 3231 3912 
Q 2928 4141 2469 4141 
Q 1941 4141 1586 3887 
Q 1231 3634 1087 3207 
Q 944 2781 944 2328 
Q 944 1744 1114 1308 
Q 1284 872 1643 656 
Q 2003 441 2422 441 
Q 2931 441 3284 734 
Q 3638 1028 3763 1606 
z
" transform="scale(0.015625)"/>
      <path id="ArialMT-70" d="M 422 -1272 
L 422 3319 
L 934 3319 
L 934 2888 
Q 1116 3141 1344 3267 
Q 1572 3394 1897 3394 
Q 2322 3394 2647 3175 
Q 2972 2956 3137 2557 
Q 3303 2159 3303 1684 
Q 3303 1175 3120 767 
Q 2938 359 2589 142 
Q 2241 -75 1856 -75 
Q 1575 -75 1351 44 
Q 1128 163 984 344 
L 984 -1272 
L 422 -1272 
z
M 931 1641 
Q 931 1000 1190 694 
Q 1450 388 1819 388 
Q 2194 388 2461 705 
Q 2728 1022 2728 1688 
Q 2728 2322 2467 2637 
Q 2206 2953 1844 2953 
Q 1484 2953 1207 2617 
Q 931 2281 931 1641 
z
" transform="scale(0.015625)"/>
      <path id="ArialMT-63" d="M 2588 1216 
L 3141 1144 
Q 3050 572 2676 248 
Q 2303 -75 1759 -75 
Q 1078 -75 664 370 
Q 250 816 250 1647 
Q 250 2184 428 2587 
Q 606 2991 970 3192 
Q 1334 3394 1763 3394 
Q 2303 3394 2647 3120 
Q 2991 2847 3088 2344 
L 2541 2259 
Q 2463 2594 2264 2762 
Q 2066 2931 1784 2931 
Q 1359 2931 1093 2626 
Q 828 2322 828 1663 
Q 828 994 1084 691 
Q 1341 388 1753 388 
Q 2084 388 2306 591 
Q 2528 794 2588 1216 
z
" transform="scale(0.015625)"/>
      <path id="ArialMT-2d" d="M 203 1375 
L 203 1941 
L 1931 1941 
L 1931 1375 
L 203 1375 
z
" transform="scale(0.015625)"/>
      <path id="ArialMT-54" d="M 1659 0 
L 1659 4041 
L 150 4041 
L 150 4581 
L 3781 4581 
L 3781 4041 
L 2266 4041 
L 2266 0 
L 1659 0 
z
" transform="scale(0.015625)"/>
      <path id="ArialMT-28" d="M 1497 -1347 
Q 1031 -759 709 28 
Q 388 816 388 1659 
Q 388 2403 628 3084 
Q 909 3875 1497 4659 
L 1900 4659 
Q 1522 4009 1400 3731 
Q 1209 3300 1100 2831 
Q 966 2247 966 1656 
Q 966 153 1900 -1347 
L 1497 -1347 
z
" transform="scale(0.015625)"/>
      <path id="ArialMT-50" d="M 494 0 
L 494 4581 
L 2222 4581 
Q 2678 4581 2919 4538 
Q 3256 4481 3484 4323 
Q 3713 4166 3852 3881 
Q 3991 3597 3991 3256 
Q 3991 2672 3619 2267 
Q 3247 1863 2275 1863 
L 1100 1863 
L 1100 0 
L 494 0 
z
M 1100 2403 
L 2284 2403 
Q 2872 2403 3119 2622 
Q 3366 2841 3366 3238 
Q 3366 3525 3220 3729 
Q 3075 3934 2838 4000 
Q 2684 4041 2272 4041 
L 1100 4041 
L 1100 2403 
z
" transform="scale(0.015625)"/>
      <path id="ArialMT-46" d="M 525 0 
L 525 4581 
L 3616 4581 
L 3616 4041 
L 1131 4041 
L 1131 2622 
L 3281 2622 
L 3281 2081 
L 1131 2081 
L 1131 0 
L 525 0 
z
" transform="scale(0.015625)"/>
      <path id="ArialMT-29" d="M 791 -1347 
L 388 -1347 
Q 1322 153 1322 1656 
Q 1322 2244 1188 2822 
Q 1081 3291 891 3722 
Q 769 4003 388 4659 
L 791 4659 
Q 1378 3875 1659 3084 
Q 1900 2403 1900 1659 
Q 1900 816 1576 28 
Q 1253 -759 791 -1347 
z
" transform="scale(0.015625)"/>
     </defs>
     <use xlink:href="#ArialMT-44"/>
     <use xlink:href="#ArialMT-69" x="72.216797"/>
     <use xlink:href="#ArialMT-73" x="94.433594"/>
     <use xlink:href="#ArialMT-74" x="144.433594"/>
     <use xlink:href="#ArialMT-72" x="172.216797"/>
     <use xlink:href="#ArialMT-69" x="205.517578"/>
     <use xlink:href="#ArialMT-62" x="227.734375"/>
     <use xlink:href="#ArialMT-75" x="283.349609"/>
     <use xlink:href="#ArialMT-74" x="338.964844"/>
     <use xlink:href="#ArialMT-69" x="366.748047"/>
     <use xlink:href="#ArialMT-6f" x="388.964844"/>
     <use xlink:href="#ArialMT-6e" x="444.580078"/>
     <use xlink:href="#ArialMT-20" x="500.195312"/>
     <use xlink:href="#ArialMT-6f" x="527.978516"/>
     <use xlink:href="#ArialMT-66" x="583.59375"/>
     <use xlink:href="#ArialMT-20" x="611.376953"/>
     <use xlink:href="#ArialMT-43" x="639.160156"/>
     <use xlink:href="#ArialMT-61" x="711.376953"/>
     <use xlink:href="#ArialMT-70" x="766.992188"/>
     <use xlink:href="#ArialMT-61" x="822.607422"/>
     <use xlink:href="#ArialMT-63" x="878.222656"/>
     <use xlink:href="#ArialMT-69" x="928.222656"/>
     <use xlink:href="#ArialMT-74" x="950.439453"/>
     <use xlink:href="#ArialMT-69" x="978.222656"/>
     <use xlink:href="#ArialMT-65" x="1000.439453"/>
     <use xlink:href="#ArialMT-73" x="1056.054688"/>
     <use xlink:href="#ArialMT-20" x="1106.054688"/>
     <use xlink:href="#ArialMT-2d" x="1133.837891"/>
     <use xlink:href="#ArialMT-20" x="1167.138672"/>
     <use xlink:href="#ArialMT-54" x="1193.171875"/>
     <use xlink:href="#ArialMT-6f" x="1243.130859"/>
     <use xlink:href="#ArialMT-74" x="1298.746094"/>
     <use xlink:href="#ArialMT-61" x="1326.529297"/>
     <use xlink:href="#ArialMT-6c" x="1382.144531"/>
     <use xlink:href="#ArialMT-20" x="1404.361328"/>
     <use xlink:href="#ArialMT-28" x="1432.144531"/>
     <use xlink:href="#ArialMT-50" x="1465.445312"/>
     <use xlink:href="#ArialMT-44" x="1532.144531"/>
     <use xlink:href="#ArialMT-46" x="1604.361328"/>
     <use xlink:href="#ArialMT-29" x="1665.445312"/>
    </g>
   </g>
   <g id="legend_1">
    <g id="patch_7">
     <path d="M 351.134034 151.449063 
L 402.880284 151.449063 
Q 405.280284 151.449063 405.280284 149.049063 
L 405.280284 33.2575 
Q 405.280284 30.8575 402.880284 30.8575 
L 351.134034 30.8575 
Q 348.734034 30.8575 348.734034 33.2575 
L 348.734034 149.049063 
Q 348.734034 151.449063 351.134034 151.449063 
z
" style="fill: #ffffff; opacity: 0.8; stroke: #cccccc; stroke-linejoin: miter"/>
    </g>
    <g id="text_18">
     <!-- median -->
     <g style="fill: #262626" transform="translate(360.609503 42.815313) scale(0.1 -0.1)">
      <defs>
       <path id="ArialMT-6d" d="M 422 0 
L 422 3319 
L 925 3319 
L 925 2853 
Q 1081 3097 1340 3245 
Q 1600 3394 1931 3394 
Q 2300 3394 2536 3241 
Q 2772 3088 2869 2813 
Q 3263 3394 3894 3394 
Q 4388 3394 4653 3120 
Q 4919 2847 4919 2278 
L 4919 0 
L 4359 0 
L 4359 2091 
Q 4359 2428 4304 2576 
Q 4250 2725 4106 2815 
Q 3963 2906 3769 2906 
Q 3419 2906 3187 2673 
Q 2956 2441 2956 1928 
L 2956 0 
L 2394 0 
L 2394 2156 
Q 2394 2531 2256 2718 
Q 2119 2906 1806 2906 
Q 1569 2906 1367 2781 
Q 1166 2656 1075 2415 
Q 984 2175 984 1722 
L 984 0 
L 422 0 
z
" transform="scale(0.015625)"/>
       <path id="ArialMT-64" d="M 2575 0 
L 2575 419 
Q 2259 -75 1647 -75 
Q 1250 -75 917 144 
Q 584 363 401 755 
Q 219 1147 219 1656 
Q 219 2153 384 2558 
Q 550 2963 881 3178 
Q 1213 3394 1622 3394 
Q 1922 3394 2156 3267 
Q 2391 3141 2538 2938 
L 2538 4581 
L 3097 4581 
L 3097 0 
L 2575 0 
z
M 797 1656 
Q 797 1019 1065 703 
Q 1334 388 1700 388 
Q 2069 388 2326 689 
Q 2584 991 2584 1609 
Q 2584 2291 2321 2609 
Q 2059 2928 1675 2928 
Q 1300 2928 1048 2622 
Q 797 2316 797 1656 
z
" transform="scale(0.015625)"/>
      </defs>
      <use xlink:href="#ArialMT-6d"/>
      <use xlink:href="#ArialMT-65" x="83.300781"/>
      <use xlink:href="#ArialMT-64" x="138.916016"/>
      <use xlink:href="#ArialMT-69" x="194.53125"/>
      <use xlink:href="#ArialMT-61" x="216.748047"/>
      <use xlink:href="#ArialMT-6e" x="272.363281"/>
     </g>
    </g>
    <g id="line2d_21">
     <path d="M 353.534034 55.192188 
L 365.534034 55.192188 
L 377.534034 55.192188 
" style="fill: none; stroke: #440154; stroke-opacity: 0.8; stroke-width: 2; stroke-linecap: round"/>
    </g>
    <g id="text_19">
     <!-- 74 -->
     <g style="fill: #262626" transform="translate(387.134034 59.392188) scale(0.12 -0.12)">
      <use xlink:href="#ArialMT-37"/>
      <use xlink:href="#ArialMT-34" x="55.615234"/>
     </g>
    </g>
    <g id="line2d_22">
     <path d="M 353.534034 72.166563 
L 365.534034 72.166563 
L 377.534034 72.166563 
" style="fill: none; stroke: #414487; stroke-opacity: 0.8; stroke-width: 2; stroke-linecap: round"/>
    </g>
    <g id="text_20">
     <!-- 76 -->
     <g style="fill: #262626" transform="translate(387.134034 76.366563) scale(0.12 -0.12)">
      <use xlink:href="#ArialMT-37"/>
      <use xlink:href="#ArialMT-36" x="55.615234"/>
     </g>
    </g>
    <g id="line2d_23">
     <path d="M 353.534034 89.140938 
L 365.534034 89.140938 
L 377.534034 89.140938 
" style="fill: none; stroke: #2a788e; stroke-opacity: 0.8; stroke-width: 2; stroke-linecap: round"/>
    </g>
    <g id="text_21">
     <!-- 73 -->
     <g style="fill: #262626" transform="translate(387.134034 93.340938) scale(0.12 -0.12)">
      <use xlink:href="#ArialMT-37"/>
      <use xlink:href="#ArialMT-33" x="55.615234"/>
     </g>
    </g>
    <g id="line2d_24">
     <path d="M 353.534034 106.115313 
L 365.534034 106.115313 
L 377.534034 106.115313 
" style="fill: none; stroke: #22a884; stroke-opacity: 0.8; stroke-width: 2; stroke-linecap: round"/>
    </g>
    <g id="text_22">
     <!-- 60 -->
     <g style="fill: #262626" transform="translate(387.134034 110.315313) scale(0.12 -0.12)">
      <use xlink:href="#ArialMT-36"/>
      <use xlink:href="#ArialMT-30" x="55.615234"/>
     </g>
    </g>
    <g id="line2d_25">
     <path d="M 353.534034 123.089688 
L 365.534034 123.089688 
L 377.534034 123.089688 
" style="fill: none; stroke: #7ad151; stroke-opacity: 0.8; stroke-width: 2; stroke-linecap: round"/>
    </g>
    <g id="text_23">
     <!-- 49 -->
     <g style="fill: #262626" transform="translate(387.134034 127.289688) scale(0.12 -0.12)">
      <defs>
       <path id="ArialMT-39" d="M 350 1059 
L 891 1109 
Q 959 728 1153 556 
Q 1347 384 1650 384 
Q 1909 384 2104 503 
Q 2300 622 2425 820 
Q 2550 1019 2634 1356 
Q 2719 1694 2719 2044 
Q 2719 2081 2716 2156 
Q 2547 1888 2255 1720 
Q 1963 1553 1622 1553 
Q 1053 1553 659 1965 
Q 266 2378 266 3053 
Q 266 3750 677 4175 
Q 1088 4600 1706 4600 
Q 2153 4600 2523 4359 
Q 2894 4119 3086 3673 
Q 3278 3228 3278 2384 
Q 3278 1506 3087 986 
Q 2897 466 2520 194 
Q 2144 -78 1638 -78 
Q 1100 -78 759 220 
Q 419 519 350 1059 
z
M 2653 3081 
Q 2653 3566 2395 3850 
Q 2138 4134 1775 4134 
Q 1400 4134 1122 3828 
Q 844 3522 844 3034 
Q 844 2597 1108 2323 
Q 1372 2050 1759 2050 
Q 2150 2050 2401 2323 
Q 2653 2597 2653 3081 
z
" transform="scale(0.015625)"/>
      </defs>
      <use xlink:href="#ArialMT-34"/>
      <use xlink:href="#ArialMT-39" x="55.615234"/>
     </g>
    </g>
    <g id="line2d_26">
     <path d="M 353.534034 140.064063 
L 365.534034 140.064063 
L 377.534034 140.064063 
" style="fill: none; stroke: #fde725; stroke-opacity: 0.8; stroke-width: 2; stroke-linecap: round"/>
    </g>
    <g id="text_24">
     <!-- 40 -->
     <g style="fill: #262626" transform="translate(387.134034 144.264063) scale(0.12 -0.12)">
      <use xlink:href="#ArialMT-34"/>
      <use xlink:href="#ArialMT-30" x="55.615234"/>
     </g>
    </g>
   </g>
  </g>
  <g id="axes_2">
   <g id="patch_8">
    <path d="M 482.298466 302.0575 
L 837.389375 302.0575 
L 837.389375 24.8575 
L 482.298466 24.8575 
z
" style="fill: #ffffff"/>
   </g>
   <g id="matplotlib.axis_3">
    <g id="xtick_7">
     <g id="line2d_27">
      <path d="M 498.438962 302.0575 
L 498.438962 24.8575 
" clip-path="url(#p030b0236dd)" style="fill: none; stroke: #cccccc; stroke-width: 0.8; stroke-linecap: round"/>
     </g>
     <g id="text_25">
      <!-- 0 -->
      <g style="fill: #262626" transform="translate(495.658493 316.215313) scale(0.1 -0.1)">
       <use xlink:href="#ArialMT-30"/>
      </g>
     </g>
    </g>
    <g id="xtick_8">
     <g id="line2d_28">
      <path d="M 552.240615 302.0575 
L 552.240615 24.8575 
" clip-path="url(#p030b0236dd)" style="fill: none; stroke: #cccccc; stroke-width: 0.8; stroke-linecap: round"/>
     </g>
     <g id="text_26">
      <!-- 2 -->
      <g style="fill: #262626" transform="translate(549.460146 316.215313) scale(0.1 -0.1)">
       <use xlink:href="#ArialMT-32"/>
      </g>
     </g>
    </g>
    <g id="xtick_9">
     <g id="line2d_29">
      <path d="M 606.042268 302.0575 
L 606.042268 24.8575 
" clip-path="url(#p030b0236dd)" style="fill: none; stroke: #cccccc; stroke-width: 0.8; stroke-linecap: round"/>
     </g>
     <g id="text_27">
      <!-- 4 -->
      <g style="fill: #262626" transform="translate(603.261799 316.215313) scale(0.1 -0.1)">
       <use xlink:href="#ArialMT-34"/>
      </g>
     </g>
    </g>
    <g id="xtick_10">
     <g id="line2d_30">
      <path d="M 659.84392 302.0575 
L 659.84392 24.8575 
" clip-path="url(#p030b0236dd)" style="fill: none; stroke: #cccccc; stroke-width: 0.8; stroke-linecap: round"/>
     </g>
     <g id="text_28">
      <!-- 6 -->
      <g style="fill: #262626" transform="translate(657.063452 316.215313) scale(0.1 -0.1)">
       <use xlink:href="#ArialMT-36"/>
      </g>
     </g>
    </g>
    <g id="xtick_11">
     <g id="line2d_31">
      <path d="M 713.645573 302.0575 
L 713.645573 24.8575 
" clip-path="url(#p030b0236dd)" style="fill: none; stroke: #cccccc; stroke-width: 0.8; stroke-linecap: round"/>
     </g>
     <g id="text_29">
      <!-- 8 -->
      <g style="fill: #262626" transform="translate(710.865105 316.215313) scale(0.1 -0.1)">
       <defs>
        <path id="ArialMT-38" d="M 1131 2484 
Q 781 2613 612 2850 
Q 444 3088 444 3419 
Q 444 3919 803 4259 
Q 1163 4600 1759 4600 
Q 2359 4600 2725 4251 
Q 3091 3903 3091 3403 
Q 3091 3084 2923 2848 
Q 2756 2613 2416 2484 
Q 2838 2347 3058 2040 
Q 3278 1734 3278 1309 
Q 3278 722 2862 322 
Q 2447 -78 1769 -78 
Q 1091 -78 675 323 
Q 259 725 259 1325 
Q 259 1772 486 2073 
Q 713 2375 1131 2484 
z
M 1019 3438 
Q 1019 3113 1228 2906 
Q 1438 2700 1772 2700 
Q 2097 2700 2305 2904 
Q 2513 3109 2513 3406 
Q 2513 3716 2298 3927 
Q 2084 4138 1766 4138 
Q 1444 4138 1231 3931 
Q 1019 3725 1019 3438 
z
M 838 1322 
Q 838 1081 952 856 
Q 1066 631 1291 507 
Q 1516 384 1775 384 
Q 2178 384 2440 643 
Q 2703 903 2703 1303 
Q 2703 1709 2433 1975 
Q 2163 2241 1756 2241 
Q 1359 2241 1098 1978 
Q 838 1716 838 1322 
z
" transform="scale(0.015625)"/>
       </defs>
       <use xlink:href="#ArialMT-38"/>
      </g>
     </g>
    </g>
    <g id="xtick_12">
     <g id="line2d_32">
      <path d="M 767.447226 302.0575 
L 767.447226 24.8575 
" clip-path="url(#p030b0236dd)" style="fill: none; stroke: #cccccc; stroke-width: 0.8; stroke-linecap: round"/>
     </g>
     <g id="text_30">
      <!-- 10 -->
      <g style="fill: #262626" transform="translate(761.886289 316.215313) scale(0.1 -0.1)">
       <use xlink:href="#ArialMT-31"/>
       <use xlink:href="#ArialMT-30" x="55.615234"/>
      </g>
     </g>
    </g>
    <g id="xtick_13">
     <g id="line2d_33">
      <path d="M 821.248879 302.0575 
L 821.248879 24.8575 
" clip-path="url(#p030b0236dd)" style="fill: none; stroke: #cccccc; stroke-width: 0.8; stroke-linecap: round"/>
     </g>
     <g id="text_31">
      <!-- 12 -->
      <g style="fill: #262626" transform="translate(815.687942 316.215313) scale(0.1 -0.1)">
       <use xlink:href="#ArialMT-31"/>
       <use xlink:href="#ArialMT-32" x="55.615234"/>
      </g>
     </g>
    </g>
    <g id="text_32">
     <!-- Value -->
     <g style="fill: #262626" transform="translate(642.45767 332.22375) scale(0.14 -0.14)">
      <use xlink:href="#ArialMT-56"/>
      <use xlink:href="#ArialMT-61" x="59.324219"/>
      <use xlink:href="#ArialMT-6c" x="114.939453"/>
      <use xlink:href="#ArialMT-75" x="137.15625"/>
      <use xlink:href="#ArialMT-65" x="192.771484"/>
     </g>
    </g>
   </g>
   <g id="matplotlib.axis_4">
    <g id="ytick_9">
     <g id="line2d_34">
      <path d="M 482.298466 290.81373 
L 837.389375 290.81373 
" clip-path="url(#p030b0236dd)" style="fill: none; stroke-dasharray: 2.96,1.28; stroke-dashoffset: 0; stroke: #cccccc; stroke-opacity: 0.7; stroke-width: 0.8"/>
     </g>
     <g id="text_33">
      <!-- 0.00 -->
      <g style="fill: #262626" transform="translate(455.837528 294.392637) scale(0.1 -0.1)">
       <use xlink:href="#ArialMT-30"/>
       <use xlink:href="#ArialMT-2e" x="55.615234"/>
       <use xlink:href="#ArialMT-30" x="83.398438"/>
       <use xlink:href="#ArialMT-30" x="139.013672"/>
      </g>
     </g>
    </g>
    <g id="ytick_10">
     <g id="line2d_35">
      <path d="M 482.298466 250.432664 
L 837.389375 250.432664 
" clip-path="url(#p030b0236dd)" style="fill: none; stroke-dasharray: 2.96,1.28; stroke-dashoffset: 0; stroke: #cccccc; stroke-opacity: 0.7; stroke-width: 0.8"/>
     </g>
     <g id="text_34">
      <!-- 0.05 -->
      <g style="fill: #262626" transform="translate(455.837528 254.01157) scale(0.1 -0.1)">
       <use xlink:href="#ArialMT-30"/>
       <use xlink:href="#ArialMT-2e" x="55.615234"/>
       <use xlink:href="#ArialMT-30" x="83.398438"/>
       <use xlink:href="#ArialMT-35" x="139.013672"/>
      </g>
     </g>
    </g>
    <g id="ytick_11">
     <g id="line2d_36">
      <path d="M 482.298466 210.051597 
L 837.389375 210.051597 
" clip-path="url(#p030b0236dd)" style="fill: none; stroke-dasharray: 2.96,1.28; stroke-dashoffset: 0; stroke: #cccccc; stroke-opacity: 0.7; stroke-width: 0.8"/>
     </g>
     <g id="text_35">
      <!-- 0.10 -->
      <g style="fill: #262626" transform="translate(455.837528 213.630503) scale(0.1 -0.1)">
       <use xlink:href="#ArialMT-30"/>
       <use xlink:href="#ArialMT-2e" x="55.615234"/>
       <use xlink:href="#ArialMT-31" x="83.398438"/>
       <use xlink:href="#ArialMT-30" x="139.013672"/>
      </g>
     </g>
    </g>
    <g id="ytick_12">
     <g id="line2d_37">
      <path d="M 482.298466 169.670531 
L 837.389375 169.670531 
" clip-path="url(#p030b0236dd)" style="fill: none; stroke-dasharray: 2.96,1.28; stroke-dashoffset: 0; stroke: #cccccc; stroke-opacity: 0.7; stroke-width: 0.8"/>
     </g>
     <g id="text_36">
      <!-- 0.15 -->
      <g style="fill: #262626" transform="translate(455.837528 173.249437) scale(0.1 -0.1)">
       <use xlink:href="#ArialMT-30"/>
       <use xlink:href="#ArialMT-2e" x="55.615234"/>
       <use xlink:href="#ArialMT-31" x="83.398438"/>
       <use xlink:href="#ArialMT-35" x="139.013672"/>
      </g>
     </g>
    </g>
    <g id="ytick_13">
     <g id="line2d_38">
      <path d="M 482.298466 129.289464 
L 837.389375 129.289464 
" clip-path="url(#p030b0236dd)" style="fill: none; stroke-dasharray: 2.96,1.28; stroke-dashoffset: 0; stroke: #cccccc; stroke-opacity: 0.7; stroke-width: 0.8"/>
     </g>
     <g id="text_37">
      <!-- 0.20 -->
      <g style="fill: #262626" transform="translate(455.837528 132.86837) scale(0.1 -0.1)">
       <use xlink:href="#ArialMT-30"/>
       <use xlink:href="#ArialMT-2e" x="55.615234"/>
       <use xlink:href="#ArialMT-32" x="83.398438"/>
       <use xlink:href="#ArialMT-30" x="139.013672"/>
      </g>
     </g>
    </g>
    <g id="ytick_14">
     <g id="line2d_39">
      <path d="M 482.298466 88.908397 
L 837.389375 88.908397 
" clip-path="url(#p030b0236dd)" style="fill: none; stroke-dasharray: 2.96,1.28; stroke-dashoffset: 0; stroke: #cccccc; stroke-opacity: 0.7; stroke-width: 0.8"/>
     </g>
     <g id="text_38">
      <!-- 0.25 -->
      <g style="fill: #262626" transform="translate(455.837528 92.487304) scale(0.1 -0.1)">
       <use xlink:href="#ArialMT-30"/>
       <use xlink:href="#ArialMT-2e" x="55.615234"/>
       <use xlink:href="#ArialMT-32" x="83.398438"/>
       <use xlink:href="#ArialMT-35" x="139.013672"/>
      </g>
     </g>
    </g>
    <g id="ytick_15">
     <g id="line2d_40">
      <path d="M 482.298466 48.527331 
L 837.389375 48.527331 
" clip-path="url(#p030b0236dd)" style="fill: none; stroke-dasharray: 2.96,1.28; stroke-dashoffset: 0; stroke: #cccccc; stroke-opacity: 0.7; stroke-width: 0.8"/>
     </g>
     <g id="text_39">
      <!-- 0.30 -->
      <g style="fill: #262626" transform="translate(455.837528 52.106237) scale(0.1 -0.1)">
       <use xlink:href="#ArialMT-30"/>
       <use xlink:href="#ArialMT-2e" x="55.615234"/>
       <use xlink:href="#ArialMT-33" x="83.398438"/>
       <use xlink:href="#ArialMT-30" x="139.013672"/>
      </g>
     </g>
    </g>
    <g id="text_40">
     <!-- Density -->
     <g style="fill: #262626" transform="translate(448.890966 186.798125) rotate(-90) scale(0.14 -0.14)">
      <use xlink:href="#ArialMT-44"/>
      <use xlink:href="#ArialMT-65" x="72.216797"/>
      <use xlink:href="#ArialMT-6e" x="127.832031"/>
      <use xlink:href="#ArialMT-73" x="183.447266"/>
      <use xlink:href="#ArialMT-69" x="233.447266"/>
      <use xlink:href="#ArialMT-74" x="255.664062"/>
      <use xlink:href="#ArialMT-79" x="283.447266"/>
     </g>
    </g>
   </g>
   <g id="line2d_41">
    <path d="M 525.339788 65.343194 
L 525.662921 65.171771 
L 525.986054 65.256698 
L 526.309187 65.593768 
L 526.713104 66.361258 
L 527.197803 67.771927 
L 527.844069 70.435634 
L 528.651902 74.902724 
L 529.621301 81.663301 
L 530.913833 92.370024 
L 534.629863 124.179225 
L 535.680046 130.80592 
L 536.487878 134.573201 
L 537.134145 136.62872 
L 537.618844 137.568823 
L 538.02276 137.942585 
L 538.345894 137.967971 
L 538.669027 137.74766 
L 539.072943 137.125638 
L 539.557642 135.87316 
L 540.123125 133.726178 
L 540.850175 129.922737 
L 541.658007 124.41992 
L 542.70819 115.523844 
L 544.081505 101.659772 
L 548.443801 55.671649 
L 549.493984 47.637835 
L 550.301816 42.976723 
L 550.948082 40.320202 
L 551.513565 38.827876 
L 551.917482 38.252089 
L 552.240615 38.089282 
L 552.563748 38.191872 
L 552.886881 38.558874 
L 553.290797 39.385527 
L 553.775497 40.90591 
L 554.421763 43.794188 
L 555.148812 48.138796 
L 556.037428 54.838393 
L 557.168394 65.127334 
L 559.026409 84.464345 
L 561.207557 106.700433 
L 562.419306 116.841726 
L 563.307922 122.64342 
L 564.034971 126.159934 
L 564.681237 128.266843 
L 565.165937 129.186695 
L 565.569853 129.51079 
L 565.892986 129.478159 
L 566.216119 129.186151 
L 566.620035 128.459014 
L 567.104735 127.064182 
L 567.670218 124.739735 
L 568.397267 120.711431 
L 569.285883 114.359459 
L 570.416849 104.41428 
L 572.032514 87.897231 
L 574.779145 59.715226 
L 575.910111 50.321542 
L 576.798727 44.539631 
L 577.525776 41.053852 
L 578.172042 38.986975 
L 578.656742 38.105355 
L 579.060658 37.81841 
L 579.383791 37.884052 
L 579.706924 38.211784 
L 580.11084 38.98698 
L 580.59554 40.443604 
L 581.241806 43.24644 
L 581.968855 47.498904 
L 582.857471 54.098709 
L 583.988437 64.292443 
L 585.765669 82.71227 
L 588.108383 106.692867 
L 589.320132 116.838664 
L 590.208748 122.643165 
L 590.935797 126.162031 
L 591.582064 128.271306 
L 592.066763 129.193239 
L 592.470679 129.519355 
L 592.793812 129.488578 
L 593.116946 129.19868 
L 593.520862 128.474611 
L 594.005561 127.084231 
L 594.571044 124.766306 
L 595.298094 120.749127 
L 596.18671 114.416469 
L 597.317675 104.509142 
L 598.93334 88.08787 
L 601.599188 61.019666 
L 602.730154 51.786746 
L 603.61877 46.198324 
L 604.345819 42.939031 
L 604.911302 41.308364 
L 605.315218 40.656247 
L 605.638351 40.451924 
L 605.961484 40.534931 
L 606.042268 40.601002 
L 606.042268 40.601002 
" clip-path="url(#p030b0236dd)" style="fill: none; stroke: #440154; stroke-opacity: 0.8; stroke-width: 2; stroke-linecap: round"/>
   </g>
   <g id="line2d_42">
    <path d="M 498.438962 258.103222 
L 499.946916 253.698489 
L 501.266376 249.188584 
L 502.585836 243.959525 
L 504.09379 236.983701 
L 505.601744 228.837267 
L 507.109699 219.459648 
L 508.806147 207.449135 
L 510.69109 192.454868 
L 513.141516 171.024562 
L 518.419355 124.240506 
L 520.115804 111.372623 
L 521.623758 101.629476 
L 522.943218 94.644534 
L 524.074184 89.890431 
L 525.016655 86.814428 
L 525.959127 84.528649 
L 526.713104 83.244103 
L 527.467081 82.411651 
L 528.032564 82.061445 
L 528.598046 81.925516 
L 529.163529 81.982935 
L 529.917506 82.320702 
L 530.671484 82.903603 
L 531.802449 84.10299 
L 535.383841 88.249882 
L 536.326312 88.90348 
L 537.080289 89.178857 
L 537.834266 89.203313 
L 538.588243 88.95829 
L 539.34222 88.435075 
L 540.096198 87.634943 
L 541.038669 86.263191 
L 542.169635 84.130649 
L 543.489095 81.117072 
L 548.57844 68.821168 
L 549.520911 67.271578 
L 550.463383 66.163309 
L 551.21736 65.631927 
L 551.782843 65.453373 
L 552.348326 65.468452 
L 552.913809 65.678473 
L 553.667786 66.258328 
L 554.421763 67.168973 
L 555.364234 68.738961 
L 556.4952 71.174142 
L 557.81466 74.598884 
L 560.45358 82.291573 
L 562.338522 87.439201 
L 563.657982 90.40766 
L 564.788948 92.369487 
L 565.73142 93.536985 
L 566.485397 94.151537 
L 567.239374 94.483757 
L 567.993351 94.545053 
L 568.747328 94.3558 
L 569.501305 93.944717 
L 570.443777 93.174697 
L 571.763236 91.773268 
L 574.402156 88.85947 
L 575.344628 88.126949 
L 576.098605 87.766676 
L 576.852582 87.65444 
L 577.418065 87.755764 
L 577.983548 88.030954 
L 578.737525 88.68655 
L 579.491502 89.688346 
L 580.245479 91.046039 
L 581.18795 93.244232 
L 582.318916 96.591611 
L 583.449882 100.647837 
L 584.957836 106.975297 
L 587.031273 116.825764 
L 591.366642 137.720132 
L 593.06309 144.68963 
L 594.571044 149.961727 
L 595.890504 153.828927 
L 597.209964 157.047477 
L 598.529424 159.722876 
L 600.225873 162.61212 
L 603.995758 168.727016 
L 605.315218 171.383011 
L 606.634678 174.54984 
L 607.954138 178.319543 
L 609.273598 182.735589 
L 610.781552 188.564123 
L 612.478001 196.014075 
L 614.739932 207.044055 
L 621.337232 240.020346 
L 623.222175 248.03797 
L 624.918623 254.346051 
L 626.426577 259.184026 
L 627.934532 263.301509 
L 629.442486 266.733296 
L 630.761946 269.216987 
L 632.081406 271.262738 
L 633.400866 272.917428 
L 634.720326 274.226582 
L 636.039786 275.231795 
L 637.359246 275.969225 
L 638.678706 276.469115 
L 639.998166 276.756216 
L 641.50612 276.849764 
L 643.014074 276.718027 
L 644.710523 276.331449 
L 646.595465 275.651229 
L 648.857397 274.574217 
L 656.397168 270.729296 
L 658.282111 270.138352 
L 659.978559 269.823749 
L 661.863502 269.715947 
L 663.936939 269.850949 
L 666.575859 270.27129 
L 671.099722 271.01192 
L 673.361653 271.137417 
L 675.623584 271.035279 
L 678.450999 270.666608 
L 682.409378 270.15723 
L 684.294321 270.14406 
L 685.99077 270.3579 
L 686.744747 270.534006 
L 686.744747 270.534006 
" clip-path="url(#p030b0236dd)" style="fill: none; stroke: #414487; stroke-opacity: 0.8; stroke-width: 2; stroke-linecap: round"/>
   </g>
   <g id="line2d_43">
    <path d="M 498.438962 239.365104 
L 500.37776 231.975444 
L 502.316558 223.728714 
L 504.497706 213.413334 
L 506.921204 200.728921 
L 509.587052 185.520697 
L 513.706998 160.479483 
L 518.311644 132.756971 
L 520.977492 118.019739 
L 523.40099 105.909985 
L 525.582138 96.166295 
L 527.763286 87.481184 
L 529.944434 79.722323 
L 532.367932 71.959394 
L 535.03378 64.168447 
L 537.941977 56.322465 
L 540.607825 49.754943 
L 542.546623 45.520403 
L 544.243072 42.35538 
L 545.454821 40.492296 
L 546.66657 39.026759 
L 547.635969 38.178652 
L 548.605368 37.647786 
L 549.332417 37.472014 
L 550.059467 37.496254 
L 550.786516 37.727346 
L 551.513565 38.170458 
L 552.240615 38.828957 
L 553.210014 40.044281 
L 554.179413 41.643043 
L 555.391162 44.167889 
L 556.602911 47.250146 
L 558.05701 51.624722 
L 559.753458 57.539994 
L 561.692256 65.152443 
L 564.358104 76.598077 
L 573.809746 118.030447 
L 578.172042 135.600715 
L 587.623684 172.40329 
L 591.74363 187.791387 
L 594.651828 197.870497 
L 597.075325 205.548985 
L 599.256474 211.806522 
L 601.437622 217.410949 
L 603.61877 222.367337 
L 605.557568 226.255856 
L 607.496366 229.694649 
L 609.435165 232.724548 
L 611.373963 235.386787 
L 613.555111 237.990932 
L 615.736259 240.231217 
L 617.917407 242.158336 
L 620.340905 243.997647 
L 623.249102 245.900163 
L 632.700744 251.79278 
L 635.366592 253.876049 
L 638.03244 256.24681 
L 641.182987 259.367488 
L 652.088727 270.503406 
L 654.754575 272.73115 
L 657.178073 274.475299 
L 659.601571 275.944478 
L 662.025069 277.148608 
L 664.448566 278.108273 
L 667.114414 278.912965 
L 669.780262 279.491715 
L 672.930809 279.93762 
L 676.566056 280.211792 
L 681.413052 280.33697 
L 697.892837 280.3895 
L 703.224532 280.19368 
L 707.829178 279.80524 
L 712.433824 279.187634 
L 716.796121 278.377678 
L 721.400767 277.284876 
L 733.033556 274.353202 
L 735.457054 274.065772 
L 737.638202 274.016485 
L 739.81935 274.199299 
L 740.5464 274.315388 
L 740.5464 274.315388 
" clip-path="url(#p030b0236dd)" style="fill: none; stroke: #2a788e; stroke-opacity: 0.8; stroke-width: 2; stroke-linecap: round"/>
   </g>
   <g id="line2d_44">
    <path d="M 498.438962 208.66993 
L 501.401015 196.396741 
L 504.901623 180.892631 
L 509.748619 158.276784 
L 515.672724 130.769616 
L 518.634777 117.991016 
L 521.327553 107.364228 
L 523.481773 99.695657 
L 525.635994 92.853298 
L 527.520936 87.580833 
L 529.405879 82.988953 
L 531.021544 79.593761 
L 532.63721 76.690332 
L 534.252875 74.26811 
L 535.599263 72.608634 
L 536.94565 71.268493 
L 538.292038 70.242003 
L 539.638426 69.524837 
L 540.715536 69.171929 
L 541.792646 69.014571 
L 542.869756 69.052739 
L 543.946866 69.286918 
L 545.023977 69.717956 
L 546.370364 70.535129 
L 547.716752 71.663298 
L 549.06314 73.103466 
L 550.409527 74.855116 
L 552.025193 77.364278 
L 553.640858 80.308051 
L 555.525801 84.269387 
L 557.410743 88.76141 
L 559.564964 94.479597 
L 561.988462 101.546566 
L 564.950515 110.884949 
L 569.258955 125.300973 
L 579.491502 159.837885 
L 584.06922 174.36865 
L 588.108383 186.448263 
L 591.608991 196.250742 
L 594.840322 204.669877 
L 597.802375 211.802563 
L 600.764428 218.34248 
L 603.457203 223.763146 
L 606.149979 228.690372 
L 608.842754 233.143283 
L 611.535529 237.150329 
L 614.228305 240.745635 
L 616.92108 243.96595 
L 619.613856 246.84864 
L 622.575909 249.67367 
L 625.537962 252.182491 
L 628.769292 254.611814 
L 632.2699 256.941209 
L 636.039786 259.160441 
L 639.809671 261.128236 
L 643.848834 262.989945 
L 647.887998 264.611215 
L 651.927161 265.999335 
L 656.235601 267.236636 
L 660.81332 268.309676 
L 666.468148 269.383508 
L 678.31636 271.548758 
L 682.355523 272.580144 
L 685.856131 273.703774 
L 689.356739 275.064883 
L 693.126625 276.780926 
L 697.97362 279.263334 
L 706.859779 283.877143 
L 710.629665 285.546697 
L 713.860995 286.734071 
L 716.823048 287.590565 
L 719.785101 288.205684 
L 722.477877 288.544699 
L 725.170652 288.666244 
L 727.863428 288.563135 
L 730.556203 288.227979 
L 733.248978 287.653976 
L 735.941754 286.83708 
L 738.634529 285.779275 
L 741.327305 284.492486 
L 744.558635 282.683426 
L 748.597798 280.131708 
L 755.868292 275.474082 
L 758.561067 274.02191 
L 760.984565 272.964105 
L 763.138786 272.270583 
L 765.023728 271.879957 
L 766.908671 271.705543 
L 767.447226 271.696471 
L 767.447226 271.696471 
" clip-path="url(#p030b0236dd)" style="fill: none; stroke: #22a884; stroke-opacity: 0.8; stroke-width: 2; stroke-linecap: round"/>
   </g>
   <g id="line2d_45">
    <path d="M 498.438962 163.540057 
L 501.104809 156.411158 
L 503.474452 150.68113 
L 505.844094 145.522053 
L 508.213737 140.912516 
L 510.583379 136.814872 
L 512.953021 133.180336 
L 515.322664 129.954418 
L 517.692306 127.082268 
L 520.358154 124.2116 
L 523.024001 121.666993 
L 525.689849 119.409813 
L 528.355697 117.424669 
L 531.021544 115.720851 
L 533.391187 114.468848 
L 535.464624 113.606019 
L 537.538061 112.993288 
L 539.315293 112.694295 
L 541.092524 112.629346 
L 542.573551 112.771358 
L 544.054577 113.105993 
L 545.535604 113.645684 
L 547.01663 114.401481 
L 548.497657 115.382653 
L 549.978683 116.596339 
L 551.755915 118.366149 
L 553.533147 120.480581 
L 555.310379 122.937018 
L 557.383816 126.223541 
L 559.457253 129.940812 
L 561.826895 134.674463 
L 564.492743 140.544529 
L 567.454796 147.62236 
L 571.305465 157.451761 
L 578.414392 176.39824 
L 584.042292 191.113307 
L 588.189167 201.338999 
L 591.74363 209.513368 
L 595.001888 216.444504 
L 597.963941 222.235262 
L 600.925994 227.514306 
L 603.591842 231.81678 
L 606.25769 235.691787 
L 608.923537 239.143824 
L 611.29318 241.86561 
L 613.662822 244.272412 
L 616.032464 246.378089 
L 618.402107 248.198972 
L 620.771749 249.75348 
L 623.141391 251.061813 
L 625.807239 252.26658 
L 628.473087 253.220495 
L 631.43514 254.029237 
L 634.693398 254.673258 
L 638.544067 255.200048 
L 651.873305 256.803033 
L 655.131563 257.522401 
L 658.389822 258.474555 
L 661.64808 259.677015 
L 664.906338 261.123451 
L 668.460802 262.944378 
L 672.903881 265.478352 
L 685.344504 272.738049 
L 689.491378 274.813313 
L 693.342047 276.493261 
L 697.192716 277.937677 
L 701.635795 279.352011 
L 706.96749 280.793112 
L 715.853649 282.914272 
L 731.256325 286.386006 
L 736.58802 287.351597 
L 741.031099 287.928879 
L 744.881768 288.201964 
L 748.436232 288.226542 
L 751.69449 288.030597 
L 754.952748 287.606949 
L 758.211007 286.94487 
L 761.469265 286.043919 
L 764.727523 284.917178 
L 768.578192 283.335988 
L 773.613682 280.996517 
L 781.018814 277.553077 
L 784.277073 276.278909 
L 787.239126 275.358917 
L 789.904973 274.773558 
L 792.274616 274.471882 
L 794.348053 274.387402 
L 794.348053 274.387402 
" clip-path="url(#p030b0236dd)" style="fill: none; stroke: #7ad151; stroke-opacity: 0.8; stroke-width: 2; stroke-linecap: round"/>
   </g>
   <g id="line2d_46">
    <path d="M 498.438962 145.081064 
L 500.700893 139.720533 
L 502.639691 135.650486 
L 504.57849 132.067398 
L 506.517288 128.963295 
L 508.456086 126.32129 
L 510.071752 124.455217 
L 511.687417 122.875967 
L 513.303082 121.564222 
L 514.918747 120.499371 
L 516.534413 119.660283 
L 518.473211 118.922008 
L 520.412009 118.444539 
L 522.350808 118.197102 
L 524.289606 118.153662 
L 526.551537 118.334038 
L 528.813469 118.743289 
L 531.0754 119.372156 
L 533.337331 120.223043 
L 535.599263 121.308715 
L 537.861194 122.650258 
L 540.123125 124.27447 
L 542.385057 126.210863 
L 544.646988 128.488489 
L 546.908919 131.132811 
L 549.170851 134.162837 
L 551.432782 137.588688 
L 553.694713 141.409778 
L 556.279778 146.244227 
L 558.864842 151.540356 
L 562.096173 158.720189 
L 565.973769 167.95473 
L 580.191624 202.531205 
L 583.422954 209.508202 
L 586.331151 215.28157 
L 588.916216 219.972935 
L 591.50128 224.233562 
L 594.086345 228.061934 
L 596.671409 231.468167 
L 599.256474 234.471879 
L 601.841538 237.100011 
L 604.426602 239.384734 
L 607.011667 241.361574 
L 609.596731 243.067789 
L 612.504929 244.710678 
L 615.736259 246.254165 
L 619.290723 247.688086 
L 623.491452 249.136544 
L 630.277246 251.197592 
L 639.324972 253.971373 
L 645.141367 255.996517 
L 650.634629 258.14107 
L 656.774156 260.777345 
L 675.839006 269.163438 
L 680.362869 270.791872 
L 684.563599 272.079644 
L 688.764328 273.147315 
L 693.611324 274.140329 
L 700.073985 275.208876 
L 709.767977 276.813171 
L 714.938106 277.909637 
L 720.108234 279.246549 
L 725.924629 281.00242 
L 743.050681 286.367929 
L 747.897677 287.54185 
L 752.421539 288.399799 
L 756.622269 288.974201 
L 760.822999 289.327954 
L 765.023728 289.457026 
L 769.224458 289.355369 
L 773.102055 289.048288 
L 776.979651 288.52672 
L 780.857248 287.782741 
L 784.734844 286.815034 
L 788.935574 285.527549 
L 793.78257 283.783712 
L 802.184029 280.446633 
L 807.354158 278.52661 
L 810.908622 277.423728 
L 814.139952 276.648568 
L 817.048149 276.17578 
L 819.956347 275.940488 
L 821.248879 275.915684 
L 821.248879 275.915684 
" clip-path="url(#p030b0236dd)" style="fill: none; stroke: #fde725; stroke-opacity: 0.8; stroke-width: 2; stroke-linecap: round"/>
   </g>
   <g id="patch_9">
    <path d="M 482.298466 302.0575 
L 482.298466 24.8575 
" style="fill: none; stroke: #cccccc; stroke-width: 0.8; stroke-linejoin: miter; stroke-linecap: square"/>
   </g>
   <g id="patch_10">
    <path d="M 837.389375 302.0575 
L 837.389375 24.8575 
" style="fill: none; stroke: #cccccc; stroke-width: 0.8; stroke-linejoin: miter; stroke-linecap: square"/>
   </g>
   <g id="patch_11">
    <path d="M 482.298466 302.0575 
L 837.389375 302.0575 
" style="fill: none; stroke: #cccccc; stroke-width: 0.8; stroke-linejoin: miter; stroke-linecap: square"/>
   </g>
   <g id="patch_12">
    <path d="M 482.298466 24.8575 
L 837.389375 24.8575 
" style="fill: none; stroke: #cccccc; stroke-width: 0.8; stroke-linejoin: miter; stroke-linecap: square"/>
   </g>
   <g id="text_41">
    <!-- Distribution of Capacities - SOURCE (PDF) -->
    <g style="fill: #262626" transform="translate(506.47767 18.8575) scale(0.16 -0.16)">
     <defs>
      <path id="ArialMT-53" d="M 288 1472 
L 859 1522 
Q 900 1178 1048 958 
Q 1197 738 1509 602 
Q 1822 466 2213 466 
Q 2559 466 2825 569 
Q 3091 672 3220 851 
Q 3350 1031 3350 1244 
Q 3350 1459 3225 1620 
Q 3100 1781 2813 1891 
Q 2628 1963 1997 2114 
Q 1366 2266 1113 2400 
Q 784 2572 623 2826 
Q 463 3081 463 3397 
Q 463 3744 659 4045 
Q 856 4347 1234 4503 
Q 1613 4659 2075 4659 
Q 2584 4659 2973 4495 
Q 3363 4331 3572 4012 
Q 3781 3694 3797 3291 
L 3216 3247 
Q 3169 3681 2898 3903 
Q 2628 4125 2100 4125 
Q 1550 4125 1298 3923 
Q 1047 3722 1047 3438 
Q 1047 3191 1225 3031 
Q 1400 2872 2139 2705 
Q 2878 2538 3153 2413 
Q 3553 2228 3743 1945 
Q 3934 1663 3934 1294 
Q 3934 928 3725 604 
Q 3516 281 3123 101 
Q 2731 -78 2241 -78 
Q 1619 -78 1198 103 
Q 778 284 539 648 
Q 300 1013 288 1472 
z
" transform="scale(0.015625)"/>
      <path id="ArialMT-4f" d="M 309 2231 
Q 309 3372 921 4017 
Q 1534 4663 2503 4663 
Q 3138 4663 3647 4359 
Q 4156 4056 4423 3514 
Q 4691 2972 4691 2284 
Q 4691 1588 4409 1038 
Q 4128 488 3612 205 
Q 3097 -78 2500 -78 
Q 1853 -78 1343 234 
Q 834 547 571 1087 
Q 309 1628 309 2231 
z
M 934 2222 
Q 934 1394 1379 917 
Q 1825 441 2497 441 
Q 3181 441 3623 922 
Q 4066 1403 4066 2288 
Q 4066 2847 3877 3264 
Q 3688 3681 3323 3911 
Q 2959 4141 2506 4141 
Q 1863 4141 1398 3698 
Q 934 3256 934 2222 
z
" transform="scale(0.015625)"/>
      <path id="ArialMT-55" d="M 3500 4581 
L 4106 4581 
L 4106 1934 
Q 4106 1244 3950 837 
Q 3794 431 3386 176 
Q 2978 -78 2316 -78 
Q 1672 -78 1262 144 
Q 853 366 678 786 
Q 503 1206 503 1934 
L 503 4581 
L 1109 4581 
L 1109 1938 
Q 1109 1341 1220 1058 
Q 1331 775 1601 622 
Q 1872 469 2263 469 
Q 2931 469 3215 772 
Q 3500 1075 3500 1938 
L 3500 4581 
z
" transform="scale(0.015625)"/>
      <path id="ArialMT-52" d="M 503 0 
L 503 4581 
L 2534 4581 
Q 3147 4581 3465 4457 
Q 3784 4334 3975 4021 
Q 4166 3709 4166 3331 
Q 4166 2844 3850 2509 
Q 3534 2175 2875 2084 
Q 3116 1969 3241 1856 
Q 3506 1613 3744 1247 
L 4541 0 
L 3778 0 
L 3172 953 
Q 2906 1366 2734 1584 
Q 2563 1803 2427 1890 
Q 2291 1978 2150 2013 
Q 2047 2034 1813 2034 
L 1109 2034 
L 1109 0 
L 503 0 
z
M 1109 2559 
L 2413 2559 
Q 2828 2559 3062 2645 
Q 3297 2731 3419 2920 
Q 3541 3109 3541 3331 
Q 3541 3656 3305 3865 
Q 3069 4075 2559 4075 
L 1109 4075 
L 1109 2559 
z
" transform="scale(0.015625)"/>
      <path id="ArialMT-45" d="M 506 0 
L 506 4581 
L 3819 4581 
L 3819 4041 
L 1113 4041 
L 1113 2638 
L 3647 2638 
L 3647 2100 
L 1113 2100 
L 1113 541 
L 3925 541 
L 3925 0 
L 506 0 
z
" transform="scale(0.015625)"/>
     </defs>
     <use xlink:href="#ArialMT-44"/>
     <use xlink:href="#ArialMT-69" x="72.216797"/>
     <use xlink:href="#ArialMT-73" x="94.433594"/>
     <use xlink:href="#ArialMT-74" x="144.433594"/>
     <use xlink:href="#ArialMT-72" x="172.216797"/>
     <use xlink:href="#ArialMT-69" x="205.517578"/>
     <use xlink:href="#ArialMT-62" x="227.734375"/>
     <use xlink:href="#ArialMT-75" x="283.349609"/>
     <use xlink:href="#ArialMT-74" x="338.964844"/>
     <use xlink:href="#ArialMT-69" x="366.748047"/>
     <use xlink:href="#ArialMT-6f" x="388.964844"/>
     <use xlink:href="#ArialMT-6e" x="444.580078"/>
     <use xlink:href="#ArialMT-20" x="500.195312"/>
     <use xlink:href="#ArialMT-6f" x="527.978516"/>
     <use xlink:href="#ArialMT-66" x="583.59375"/>
     <use xlink:href="#ArialMT-20" x="611.376953"/>
     <use xlink:href="#ArialMT-43" x="639.160156"/>
     <use xlink:href="#ArialMT-61" x="711.376953"/>
     <use xlink:href="#ArialMT-70" x="766.992188"/>
     <use xlink:href="#ArialMT-61" x="822.607422"/>
     <use xlink:href="#ArialMT-63" x="878.222656"/>
     <use xlink:href="#ArialMT-69" x="928.222656"/>
     <use xlink:href="#ArialMT-74" x="950.439453"/>
     <use xlink:href="#ArialMT-69" x="978.222656"/>
     <use xlink:href="#ArialMT-65" x="1000.439453"/>
     <use xlink:href="#ArialMT-73" x="1056.054688"/>
     <use xlink:href="#ArialMT-20" x="1106.054688"/>
     <use xlink:href="#ArialMT-2d" x="1133.837891"/>
     <use xlink:href="#ArialMT-20" x="1167.138672"/>
     <use xlink:href="#ArialMT-53" x="1194.921875"/>
     <use xlink:href="#ArialMT-4f" x="1261.621094"/>
     <use xlink:href="#ArialMT-55" x="1339.404297"/>
     <use xlink:href="#ArialMT-52" x="1411.621094"/>
     <use xlink:href="#ArialMT-43" x="1483.837891"/>
     <use xlink:href="#ArialMT-45" x="1556.054688"/>
     <use xlink:href="#ArialMT-20" x="1622.753906"/>
     <use xlink:href="#ArialMT-28" x="1650.537109"/>
     <use xlink:href="#ArialMT-50" x="1683.837891"/>
     <use xlink:href="#ArialMT-44" x="1750.537109"/>
     <use xlink:href="#ArialMT-46" x="1822.753906"/>
     <use xlink:href="#ArialMT-29" x="1883.837891"/>
    </g>
   </g>
   <g id="legend_2">
    <g id="patch_13">
     <path d="M 783.91625 151.449063 
L 828.989375 151.449063 
Q 831.389375 151.449063 831.389375 149.049063 
L 831.389375 33.2575 
Q 831.389375 30.8575 828.989375 30.8575 
L 783.91625 30.8575 
Q 781.51625 30.8575 781.51625 33.2575 
L 781.51625 149.049063 
Q 781.51625 151.449063 783.91625 151.449063 
z
" style="fill: #ffffff; opacity: 0.8; stroke: #cccccc; stroke-linejoin: miter"/>
    </g>
    <g id="text_42">
     <!-- median -->
     <g style="fill: #262626" transform="translate(790.055156 42.815313) scale(0.1 -0.1)">
      <use xlink:href="#ArialMT-6d"/>
      <use xlink:href="#ArialMT-65" x="83.300781"/>
      <use xlink:href="#ArialMT-64" x="138.916016"/>
      <use xlink:href="#ArialMT-69" x="194.53125"/>
      <use xlink:href="#ArialMT-61" x="216.748047"/>
      <use xlink:href="#ArialMT-6e" x="272.363281"/>
     </g>
    </g>
    <g id="line2d_47">
     <path d="M 786.31625 55.192188 
L 798.31625 55.192188 
L 810.31625 55.192188 
" style="fill: none; stroke: #440154; stroke-opacity: 0.8; stroke-width: 2; stroke-linecap: round"/>
    </g>
    <g id="text_43">
     <!-- 3 -->
     <g style="fill: #262626" transform="translate(819.91625 59.392188) scale(0.12 -0.12)">
      <use xlink:href="#ArialMT-33"/>
     </g>
    </g>
    <g id="line2d_48">
     <path d="M 786.31625 72.166563 
L 798.31625 72.166563 
L 810.31625 72.166563 
" style="fill: none; stroke: #414487; stroke-opacity: 0.8; stroke-width: 2; stroke-linecap: round"/>
    </g>
    <g id="text_44">
     <!-- 2 -->
     <g style="fill: #262626" transform="translate(819.91625 76.366563) scale(0.12 -0.12)">
      <use xlink:href="#ArialMT-32"/>
     </g>
    </g>
    <g id="line2d_49">
     <path d="M 786.31625 89.140938 
L 798.31625 89.140938 
L 810.31625 89.140938 
" style="fill: none; stroke: #2a788e; stroke-opacity: 0.8; stroke-width: 2; stroke-linecap: round"/>
    </g>
    <g id="text_45">
     <!-- 2 -->
     <g style="fill: #262626" transform="translate(819.91625 93.340938) scale(0.12 -0.12)">
      <use xlink:href="#ArialMT-32"/>
     </g>
    </g>
    <g id="line2d_50">
     <path d="M 786.31625 106.115313 
L 798.31625 106.115313 
L 810.31625 106.115313 
" style="fill: none; stroke: #22a884; stroke-opacity: 0.8; stroke-width: 2; stroke-linecap: round"/>
    </g>
    <g id="text_46">
     <!-- 2 -->
     <g style="fill: #262626" transform="translate(819.91625 110.315313) scale(0.12 -0.12)">
      <use xlink:href="#ArialMT-32"/>
     </g>
    </g>
    <g id="line2d_51">
     <path d="M 786.31625 123.089688 
L 798.31625 123.089688 
L 810.31625 123.089688 
" style="fill: none; stroke: #7ad151; stroke-opacity: 0.8; stroke-width: 2; stroke-linecap: round"/>
    </g>
    <g id="text_47">
     <!-- 2 -->
     <g style="fill: #262626" transform="translate(819.91625 127.289688) scale(0.12 -0.12)">
      <use xlink:href="#ArialMT-32"/>
     </g>
    </g>
    <g id="line2d_52">
     <path d="M 786.31625 140.064063 
L 798.31625 140.064063 
L 810.31625 140.064063 
" style="fill: none; stroke: #fde725; stroke-opacity: 0.8; stroke-width: 2; stroke-linecap: round"/>
    </g>
    <g id="text_48">
     <!-- 2 -->
     <g style="fill: #262626" transform="translate(819.91625 144.264063) scale(0.12 -0.12)">
      <use xlink:href="#ArialMT-32"/>
     </g>
    </g>
   </g>
  </g>
 </g>
 <defs>
  <clipPath id="pac6c9bb1a1">
   <rect x="56.189375" y="24.8575" width="355.090909" height="277.2"/>
  </clipPath>
  <clipPath id="p030b0236dd">
   <rect x="482.298466" y="24.8575" width="355.090909" height="277.2"/>
  </clipPath>
 </defs>
</svg>
