<?xml version="1.0" encoding="utf-8" standalone="no"?>
<!DOCTYPE svg PUBLIC "-//W3C//DTD SVG 1.1//EN"
  "http://www.w3.org/Graphics/SVG/1.1/DTD/svg11.dtd">
<svg xmlns:xlink="http://www.w3.org/1999/xlink" width="844.589375pt" height="342.20625pt" viewBox="0 0 844.589375 342.20625" xmlns="http://www.w3.org/2000/svg" version="1.1">
 <metadata>
  <rdf:RDF xmlns:dc="http://purl.org/dc/elements/1.1/" xmlns:cc="http://creativecommons.org/ns#" xmlns:rdf="http://www.w3.org/1999/02/22-rdf-syntax-ns#">
   <cc:Work>
    <dc:type rdf:resource="http://purl.org/dc/dcmitype/StillImage"/>
    <dc:date>2025-03-03T14:28:53.861498</dc:date>
    <dc:format>image/svg+xml</dc:format>
    <dc:creator>
     <cc:Agent>
      <dc:title>Matplotlib v3.9.0, https://matplotlib.org/</dc:title>
     </cc:Agent>
    </dc:creator>
   </cc:Work>
  </rdf:RDF>
 </metadata>
 <defs>
  <style type="text/css">*{stroke-linejoin: round; stroke-linecap: butt}</style>
 </defs>
 <g id="figure_1">
  <g id="patch_1">
   <path d="M 0 342.20625 
L 844.589375 342.20625 
L 844.589375 0 
L 0 0 
z
" style="fill: #ffffff"/>
  </g>
  <g id="axes_1">
   <g id="patch_2">
    <path d="M 56.189375 302.0575 
L 411.280284 302.0575 
L 411.280284 24.8575 
L 56.189375 24.8575 
z
" style="fill: #ffffff"/>
   </g>
   <g id="matplotlib.axis_1">
    <g id="xtick_1">
     <g id="line2d_1">
      <path d="M 72.329871 302.0575 
L 72.329871 24.8575 
" clip-path="url(#p350dfc521d)" style="fill: none; stroke: #cccccc; stroke-width: 0.8; stroke-linecap: round"/>
     </g>
     <g id="text_1">
      <!-- 0 -->
      <g style="fill: #262626" transform="translate(69.549402 316.215313) scale(0.1 -0.1)">
       <defs>
        <path id="ArialMT-30" d="M 266 2259 
Q 266 3072 433 3567 
Q 600 4063 929 4331 
Q 1259 4600 1759 4600 
Q 2128 4600 2406 4451 
Q 2684 4303 2865 4023 
Q 3047 3744 3150 3342 
Q 3253 2941 3253 2259 
Q 3253 1453 3087 958 
Q 2922 463 2592 192 
Q 2263 -78 1759 -78 
Q 1097 -78 719 397 
Q 266 969 266 2259 
z
M 844 2259 
Q 844 1131 1108 757 
Q 1372 384 1759 384 
Q 2147 384 2411 759 
Q 2675 1134 2675 2259 
Q 2675 3391 2411 3762 
Q 2147 4134 1753 4134 
Q 1366 4134 1134 3806 
Q 844 3388 844 2259 
z
" transform="scale(0.015625)"/>
       </defs>
       <use xlink:href="#ArialMT-30"/>
      </g>
     </g>
    </g>
    <g id="xtick_2">
     <g id="line2d_2">
      <path d="M 127.511053 302.0575 
L 127.511053 24.8575 
" clip-path="url(#p350dfc521d)" style="fill: none; stroke: #cccccc; stroke-width: 0.8; stroke-linecap: round"/>
     </g>
     <g id="text_2">
      <!-- 100 -->
      <g style="fill: #262626" transform="translate(119.169647 316.215313) scale(0.1 -0.1)">
       <defs>
        <path id="ArialMT-31" d="M 2384 0 
L 1822 0 
L 1822 3584 
Q 1619 3391 1289 3197 
Q 959 3003 697 2906 
L 697 3450 
Q 1169 3672 1522 3987 
Q 1875 4303 2022 4600 
L 2384 4600 
L 2384 0 
z
" transform="scale(0.015625)"/>
       </defs>
       <use xlink:href="#ArialMT-31"/>
       <use xlink:href="#ArialMT-30" x="55.615234"/>
       <use xlink:href="#ArialMT-30" x="111.230469"/>
      </g>
     </g>
    </g>
    <g id="xtick_3">
     <g id="line2d_3">
      <path d="M 182.692236 302.0575 
L 182.692236 24.8575 
" clip-path="url(#p350dfc521d)" style="fill: none; stroke: #cccccc; stroke-width: 0.8; stroke-linecap: round"/>
     </g>
     <g id="text_3">
      <!-- 200 -->
      <g style="fill: #262626" transform="translate(174.35083 316.215313) scale(0.1 -0.1)">
       <defs>
        <path id="ArialMT-32" d="M 3222 541 
L 3222 0 
L 194 0 
Q 188 203 259 391 
Q 375 700 629 1000 
Q 884 1300 1366 1694 
Q 2113 2306 2375 2664 
Q 2638 3022 2638 3341 
Q 2638 3675 2398 3904 
Q 2159 4134 1775 4134 
Q 1369 4134 1125 3890 
Q 881 3647 878 3216 
L 300 3275 
Q 359 3922 746 4261 
Q 1134 4600 1788 4600 
Q 2447 4600 2831 4234 
Q 3216 3869 3216 3328 
Q 3216 3053 3103 2787 
Q 2991 2522 2730 2228 
Q 2469 1934 1863 1422 
Q 1356 997 1212 845 
Q 1069 694 975 541 
L 3222 541 
z
" transform="scale(0.015625)"/>
       </defs>
       <use xlink:href="#ArialMT-32"/>
       <use xlink:href="#ArialMT-30" x="55.615234"/>
       <use xlink:href="#ArialMT-30" x="111.230469"/>
      </g>
     </g>
    </g>
    <g id="xtick_4">
     <g id="line2d_4">
      <path d="M 237.873418 302.0575 
L 237.873418 24.8575 
" clip-path="url(#p350dfc521d)" style="fill: none; stroke: #cccccc; stroke-width: 0.8; stroke-linecap: round"/>
     </g>
     <g id="text_4">
      <!-- 300 -->
      <g style="fill: #262626" transform="translate(229.532012 316.215313) scale(0.1 -0.1)">
       <defs>
        <path id="ArialMT-33" d="M 269 1209 
L 831 1284 
Q 928 806 1161 595 
Q 1394 384 1728 384 
Q 2125 384 2398 659 
Q 2672 934 2672 1341 
Q 2672 1728 2419 1979 
Q 2166 2231 1775 2231 
Q 1616 2231 1378 2169 
L 1441 2663 
Q 1497 2656 1531 2656 
Q 1891 2656 2178 2843 
Q 2466 3031 2466 3422 
Q 2466 3731 2256 3934 
Q 2047 4138 1716 4138 
Q 1388 4138 1169 3931 
Q 950 3725 888 3313 
L 325 3413 
Q 428 3978 793 4289 
Q 1159 4600 1703 4600 
Q 2078 4600 2393 4439 
Q 2709 4278 2876 4000 
Q 3044 3722 3044 3409 
Q 3044 3113 2884 2869 
Q 2725 2625 2413 2481 
Q 2819 2388 3044 2092 
Q 3269 1797 3269 1353 
Q 3269 753 2831 336 
Q 2394 -81 1725 -81 
Q 1122 -81 723 278 
Q 325 638 269 1209 
z
" transform="scale(0.015625)"/>
       </defs>
       <use xlink:href="#ArialMT-33"/>
       <use xlink:href="#ArialMT-30" x="55.615234"/>
       <use xlink:href="#ArialMT-30" x="111.230469"/>
      </g>
     </g>
    </g>
    <g id="xtick_5">
     <g id="line2d_5">
      <path d="M 293.054601 302.0575 
L 293.054601 24.8575 
" clip-path="url(#p350dfc521d)" style="fill: none; stroke: #cccccc; stroke-width: 0.8; stroke-linecap: round"/>
     </g>
     <g id="text_5">
      <!-- 400 -->
      <g style="fill: #262626" transform="translate(284.713194 316.215313) scale(0.1 -0.1)">
       <defs>
        <path id="ArialMT-34" d="M 2069 0 
L 2069 1097 
L 81 1097 
L 81 1613 
L 2172 4581 
L 2631 4581 
L 2631 1613 
L 3250 1613 
L 3250 1097 
L 2631 1097 
L 2631 0 
L 2069 0 
z
M 2069 1613 
L 2069 3678 
L 634 1613 
L 2069 1613 
z
" transform="scale(0.015625)"/>
       </defs>
       <use xlink:href="#ArialMT-34"/>
       <use xlink:href="#ArialMT-30" x="55.615234"/>
       <use xlink:href="#ArialMT-30" x="111.230469"/>
      </g>
     </g>
    </g>
    <g id="xtick_6">
     <g id="line2d_6">
      <path d="M 348.235783 302.0575 
L 348.235783 24.8575 
" clip-path="url(#p350dfc521d)" style="fill: none; stroke: #cccccc; stroke-width: 0.8; stroke-linecap: round"/>
     </g>
     <g id="text_6">
      <!-- 500 -->
      <g style="fill: #262626" transform="translate(339.894377 316.215313) scale(0.1 -0.1)">
       <defs>
        <path id="ArialMT-35" d="M 266 1200 
L 856 1250 
Q 922 819 1161 601 
Q 1400 384 1738 384 
Q 2144 384 2425 690 
Q 2706 997 2706 1503 
Q 2706 1984 2436 2262 
Q 2166 2541 1728 2541 
Q 1456 2541 1237 2417 
Q 1019 2294 894 2097 
L 366 2166 
L 809 4519 
L 3088 4519 
L 3088 3981 
L 1259 3981 
L 1013 2750 
Q 1425 3038 1878 3038 
Q 2478 3038 2890 2622 
Q 3303 2206 3303 1553 
Q 3303 931 2941 478 
Q 2500 -78 1738 -78 
Q 1113 -78 717 272 
Q 322 622 266 1200 
z
" transform="scale(0.015625)"/>
       </defs>
       <use xlink:href="#ArialMT-35"/>
       <use xlink:href="#ArialMT-30" x="55.615234"/>
       <use xlink:href="#ArialMT-30" x="111.230469"/>
      </g>
     </g>
    </g>
    <g id="xtick_7">
     <g id="line2d_7">
      <path d="M 403.416966 302.0575 
L 403.416966 24.8575 
" clip-path="url(#p350dfc521d)" style="fill: none; stroke: #cccccc; stroke-width: 0.8; stroke-linecap: round"/>
     </g>
     <g id="text_7">
      <!-- 600 -->
      <g style="fill: #262626" transform="translate(395.075559 316.215313) scale(0.1 -0.1)">
       <defs>
        <path id="ArialMT-36" d="M 3184 3459 
L 2625 3416 
Q 2550 3747 2413 3897 
Q 2184 4138 1850 4138 
Q 1581 4138 1378 3988 
Q 1113 3794 959 3422 
Q 806 3050 800 2363 
Q 1003 2672 1297 2822 
Q 1591 2972 1913 2972 
Q 2475 2972 2870 2558 
Q 3266 2144 3266 1488 
Q 3266 1056 3080 686 
Q 2894 316 2569 119 
Q 2244 -78 1831 -78 
Q 1128 -78 684 439 
Q 241 956 241 2144 
Q 241 3472 731 4075 
Q 1159 4600 1884 4600 
Q 2425 4600 2770 4297 
Q 3116 3994 3184 3459 
z
M 888 1484 
Q 888 1194 1011 928 
Q 1134 663 1356 523 
Q 1578 384 1822 384 
Q 2178 384 2434 671 
Q 2691 959 2691 1453 
Q 2691 1928 2437 2201 
Q 2184 2475 1800 2475 
Q 1419 2475 1153 2201 
Q 888 1928 888 1484 
z
" transform="scale(0.015625)"/>
       </defs>
       <use xlink:href="#ArialMT-36"/>
       <use xlink:href="#ArialMT-30" x="55.615234"/>
       <use xlink:href="#ArialMT-30" x="111.230469"/>
      </g>
     </g>
    </g>
    <g id="text_8">
     <!-- Value -->
     <g style="fill: #262626" transform="translate(216.34858 332.22375) scale(0.14 -0.14)">
      <defs>
       <path id="ArialMT-56" d="M 1803 0 
L 28 4581 
L 684 4581 
L 1875 1253 
Q 2019 853 2116 503 
Q 2222 878 2363 1253 
L 3600 4581 
L 4219 4581 
L 2425 0 
L 1803 0 
z
" transform="scale(0.015625)"/>
       <path id="ArialMT-61" d="M 2588 409 
Q 2275 144 1986 34 
Q 1697 -75 1366 -75 
Q 819 -75 525 192 
Q 231 459 231 875 
Q 231 1119 342 1320 
Q 453 1522 633 1644 
Q 813 1766 1038 1828 
Q 1203 1872 1538 1913 
Q 2219 1994 2541 2106 
Q 2544 2222 2544 2253 
Q 2544 2597 2384 2738 
Q 2169 2928 1744 2928 
Q 1347 2928 1158 2789 
Q 969 2650 878 2297 
L 328 2372 
Q 403 2725 575 2942 
Q 747 3159 1072 3276 
Q 1397 3394 1825 3394 
Q 2250 3394 2515 3294 
Q 2781 3194 2906 3042 
Q 3031 2891 3081 2659 
Q 3109 2516 3109 2141 
L 3109 1391 
Q 3109 606 3145 398 
Q 3181 191 3288 0 
L 2700 0 
Q 2613 175 2588 409 
z
M 2541 1666 
Q 2234 1541 1622 1453 
Q 1275 1403 1131 1340 
Q 988 1278 909 1158 
Q 831 1038 831 891 
Q 831 666 1001 516 
Q 1172 366 1500 366 
Q 1825 366 2078 508 
Q 2331 650 2450 897 
Q 2541 1088 2541 1459 
L 2541 1666 
z
" transform="scale(0.015625)"/>
       <path id="ArialMT-6c" d="M 409 0 
L 409 4581 
L 972 4581 
L 972 0 
L 409 0 
z
" transform="scale(0.015625)"/>
       <path id="ArialMT-75" d="M 2597 0 
L 2597 488 
Q 2209 -75 1544 -75 
Q 1250 -75 995 37 
Q 741 150 617 320 
Q 494 491 444 738 
Q 409 903 409 1263 
L 409 3319 
L 972 3319 
L 972 1478 
Q 972 1038 1006 884 
Q 1059 663 1231 536 
Q 1403 409 1656 409 
Q 1909 409 2131 539 
Q 2353 669 2445 892 
Q 2538 1116 2538 1541 
L 2538 3319 
L 3100 3319 
L 3100 0 
L 2597 0 
z
" transform="scale(0.015625)"/>
       <path id="ArialMT-65" d="M 2694 1069 
L 3275 997 
Q 3138 488 2766 206 
Q 2394 -75 1816 -75 
Q 1088 -75 661 373 
Q 234 822 234 1631 
Q 234 2469 665 2931 
Q 1097 3394 1784 3394 
Q 2450 3394 2872 2941 
Q 3294 2488 3294 1666 
Q 3294 1616 3291 1516 
L 816 1516 
Q 847 969 1125 678 
Q 1403 388 1819 388 
Q 2128 388 2347 550 
Q 2566 713 2694 1069 
z
M 847 1978 
L 2700 1978 
Q 2663 2397 2488 2606 
Q 2219 2931 1791 2931 
Q 1403 2931 1139 2672 
Q 875 2413 847 1978 
z
" transform="scale(0.015625)"/>
      </defs>
      <use xlink:href="#ArialMT-56"/>
      <use xlink:href="#ArialMT-61" x="59.324219"/>
      <use xlink:href="#ArialMT-6c" x="114.939453"/>
      <use xlink:href="#ArialMT-75" x="137.15625"/>
      <use xlink:href="#ArialMT-65" x="192.771484"/>
     </g>
    </g>
   </g>
   <g id="matplotlib.axis_2">
    <g id="ytick_1">
     <g id="line2d_8">
      <path d="M 56.189375 289.769725 
L 411.280284 289.769725 
" clip-path="url(#p350dfc521d)" style="fill: none; stroke-dasharray: 2.96,1.28; stroke-dashoffset: 0; stroke: #cccccc; stroke-opacity: 0.7; stroke-width: 0.8"/>
     </g>
     <g id="text_9">
      <!-- 0.000 -->
      <g style="fill: #262626" transform="translate(24.1675 293.348631) scale(0.1 -0.1)">
       <defs>
        <path id="ArialMT-2e" d="M 581 0 
L 581 641 
L 1222 641 
L 1222 0 
L 581 0 
z
" transform="scale(0.015625)"/>
       </defs>
       <use xlink:href="#ArialMT-30"/>
       <use xlink:href="#ArialMT-2e" x="55.615234"/>
       <use xlink:href="#ArialMT-30" x="83.398438"/>
       <use xlink:href="#ArialMT-30" x="139.013672"/>
       <use xlink:href="#ArialMT-30" x="194.628906"/>
      </g>
     </g>
    </g>
    <g id="ytick_2">
     <g id="line2d_9">
      <path d="M 56.189375 254.611216 
L 411.280284 254.611216 
" clip-path="url(#p350dfc521d)" style="fill: none; stroke-dasharray: 2.96,1.28; stroke-dashoffset: 0; stroke: #cccccc; stroke-opacity: 0.7; stroke-width: 0.8"/>
     </g>
     <g id="text_10">
      <!-- 0.001 -->
      <g style="fill: #262626" transform="translate(24.1675 258.190122) scale(0.1 -0.1)">
       <use xlink:href="#ArialMT-30"/>
       <use xlink:href="#ArialMT-2e" x="55.615234"/>
       <use xlink:href="#ArialMT-30" x="83.398438"/>
       <use xlink:href="#ArialMT-30" x="139.013672"/>
       <use xlink:href="#ArialMT-31" x="194.628906"/>
      </g>
     </g>
    </g>
    <g id="ytick_3">
     <g id="line2d_10">
      <path d="M 56.189375 219.452707 
L 411.280284 219.452707 
" clip-path="url(#p350dfc521d)" style="fill: none; stroke-dasharray: 2.96,1.28; stroke-dashoffset: 0; stroke: #cccccc; stroke-opacity: 0.7; stroke-width: 0.8"/>
     </g>
     <g id="text_11">
      <!-- 0.002 -->
      <g style="fill: #262626" transform="translate(24.1675 223.031613) scale(0.1 -0.1)">
       <use xlink:href="#ArialMT-30"/>
       <use xlink:href="#ArialMT-2e" x="55.615234"/>
       <use xlink:href="#ArialMT-30" x="83.398438"/>
       <use xlink:href="#ArialMT-30" x="139.013672"/>
       <use xlink:href="#ArialMT-32" x="194.628906"/>
      </g>
     </g>
    </g>
    <g id="ytick_4">
     <g id="line2d_11">
      <path d="M 56.189375 184.294198 
L 411.280284 184.294198 
" clip-path="url(#p350dfc521d)" style="fill: none; stroke-dasharray: 2.96,1.28; stroke-dashoffset: 0; stroke: #cccccc; stroke-opacity: 0.7; stroke-width: 0.8"/>
     </g>
     <g id="text_12">
      <!-- 0.003 -->
      <g style="fill: #262626" transform="translate(24.1675 187.873105) scale(0.1 -0.1)">
       <use xlink:href="#ArialMT-30"/>
       <use xlink:href="#ArialMT-2e" x="55.615234"/>
       <use xlink:href="#ArialMT-30" x="83.398438"/>
       <use xlink:href="#ArialMT-30" x="139.013672"/>
       <use xlink:href="#ArialMT-33" x="194.628906"/>
      </g>
     </g>
    </g>
    <g id="ytick_5">
     <g id="line2d_12">
      <path d="M 56.189375 149.135689 
L 411.280284 149.135689 
" clip-path="url(#p350dfc521d)" style="fill: none; stroke-dasharray: 2.96,1.28; stroke-dashoffset: 0; stroke: #cccccc; stroke-opacity: 0.7; stroke-width: 0.8"/>
     </g>
     <g id="text_13">
      <!-- 0.004 -->
      <g style="fill: #262626" transform="translate(24.1675 152.714596) scale(0.1 -0.1)">
       <use xlink:href="#ArialMT-30"/>
       <use xlink:href="#ArialMT-2e" x="55.615234"/>
       <use xlink:href="#ArialMT-30" x="83.398438"/>
       <use xlink:href="#ArialMT-30" x="139.013672"/>
       <use xlink:href="#ArialMT-34" x="194.628906"/>
      </g>
     </g>
    </g>
    <g id="ytick_6">
     <g id="line2d_13">
      <path d="M 56.189375 113.97718 
L 411.280284 113.97718 
" clip-path="url(#p350dfc521d)" style="fill: none; stroke-dasharray: 2.96,1.28; stroke-dashoffset: 0; stroke: #cccccc; stroke-opacity: 0.7; stroke-width: 0.8"/>
     </g>
     <g id="text_14">
      <!-- 0.005 -->
      <g style="fill: #262626" transform="translate(24.1675 117.556087) scale(0.1 -0.1)">
       <use xlink:href="#ArialMT-30"/>
       <use xlink:href="#ArialMT-2e" x="55.615234"/>
       <use xlink:href="#ArialMT-30" x="83.398438"/>
       <use xlink:href="#ArialMT-30" x="139.013672"/>
       <use xlink:href="#ArialMT-35" x="194.628906"/>
      </g>
     </g>
    </g>
    <g id="ytick_7">
     <g id="line2d_14">
      <path d="M 56.189375 78.818671 
L 411.280284 78.818671 
" clip-path="url(#p350dfc521d)" style="fill: none; stroke-dasharray: 2.96,1.28; stroke-dashoffset: 0; stroke: #cccccc; stroke-opacity: 0.7; stroke-width: 0.8"/>
     </g>
     <g id="text_15">
      <!-- 0.006 -->
      <g style="fill: #262626" transform="translate(24.1675 82.397578) scale(0.1 -0.1)">
       <use xlink:href="#ArialMT-30"/>
       <use xlink:href="#ArialMT-2e" x="55.615234"/>
       <use xlink:href="#ArialMT-30" x="83.398438"/>
       <use xlink:href="#ArialMT-30" x="139.013672"/>
       <use xlink:href="#ArialMT-36" x="194.628906"/>
      </g>
     </g>
    </g>
    <g id="ytick_8">
     <g id="line2d_15">
      <path d="M 56.189375 43.660163 
L 411.280284 43.660163 
" clip-path="url(#p350dfc521d)" style="fill: none; stroke-dasharray: 2.96,1.28; stroke-dashoffset: 0; stroke: #cccccc; stroke-opacity: 0.7; stroke-width: 0.8"/>
     </g>
     <g id="text_16">
      <!-- 0.007 -->
      <g style="fill: #262626" transform="translate(24.1675 47.239069) scale(0.1 -0.1)">
       <defs>
        <path id="ArialMT-37" d="M 303 3981 
L 303 4522 
L 3269 4522 
L 3269 4084 
Q 2831 3619 2401 2847 
Q 1972 2075 1738 1259 
Q 1569 684 1522 0 
L 944 0 
Q 953 541 1156 1306 
Q 1359 2072 1739 2783 
Q 2119 3494 2547 3981 
L 303 3981 
z
" transform="scale(0.015625)"/>
       </defs>
       <use xlink:href="#ArialMT-30"/>
       <use xlink:href="#ArialMT-2e" x="55.615234"/>
       <use xlink:href="#ArialMT-30" x="83.398438"/>
       <use xlink:href="#ArialMT-30" x="139.013672"/>
       <use xlink:href="#ArialMT-37" x="194.628906"/>
      </g>
     </g>
    </g>
    <g id="text_17">
     <!-- Density -->
     <g style="fill: #262626" transform="translate(17.220937 186.798125) rotate(-90) scale(0.14 -0.14)">
      <defs>
       <path id="ArialMT-44" d="M 494 0 
L 494 4581 
L 2072 4581 
Q 2606 4581 2888 4516 
Q 3281 4425 3559 4188 
Q 3922 3881 4101 3404 
Q 4281 2928 4281 2316 
Q 4281 1794 4159 1391 
Q 4038 988 3847 723 
Q 3656 459 3429 307 
Q 3203 156 2883 78 
Q 2563 0 2147 0 
L 494 0 
z
M 1100 541 
L 2078 541 
Q 2531 541 2789 625 
Q 3047 709 3200 863 
Q 3416 1078 3536 1442 
Q 3656 1806 3656 2325 
Q 3656 3044 3420 3430 
Q 3184 3816 2847 3947 
Q 2603 4041 2063 4041 
L 1100 4041 
L 1100 541 
z
" transform="scale(0.015625)"/>
       <path id="ArialMT-6e" d="M 422 0 
L 422 3319 
L 928 3319 
L 928 2847 
Q 1294 3394 1984 3394 
Q 2284 3394 2536 3286 
Q 2788 3178 2913 3003 
Q 3038 2828 3088 2588 
Q 3119 2431 3119 2041 
L 3119 0 
L 2556 0 
L 2556 2019 
Q 2556 2363 2490 2533 
Q 2425 2703 2258 2804 
Q 2091 2906 1866 2906 
Q 1506 2906 1245 2678 
Q 984 2450 984 1813 
L 984 0 
L 422 0 
z
" transform="scale(0.015625)"/>
       <path id="ArialMT-73" d="M 197 991 
L 753 1078 
Q 800 744 1014 566 
Q 1228 388 1613 388 
Q 2000 388 2187 545 
Q 2375 703 2375 916 
Q 2375 1106 2209 1216 
Q 2094 1291 1634 1406 
Q 1016 1563 777 1677 
Q 538 1791 414 1992 
Q 291 2194 291 2438 
Q 291 2659 392 2848 
Q 494 3038 669 3163 
Q 800 3259 1026 3326 
Q 1253 3394 1513 3394 
Q 1903 3394 2198 3281 
Q 2494 3169 2634 2976 
Q 2775 2784 2828 2463 
L 2278 2388 
Q 2241 2644 2061 2787 
Q 1881 2931 1553 2931 
Q 1166 2931 1000 2803 
Q 834 2675 834 2503 
Q 834 2394 903 2306 
Q 972 2216 1119 2156 
Q 1203 2125 1616 2013 
Q 2213 1853 2448 1751 
Q 2684 1650 2818 1456 
Q 2953 1263 2953 975 
Q 2953 694 2789 445 
Q 2625 197 2315 61 
Q 2006 -75 1616 -75 
Q 969 -75 630 194 
Q 291 463 197 991 
z
" transform="scale(0.015625)"/>
       <path id="ArialMT-69" d="M 425 3934 
L 425 4581 
L 988 4581 
L 988 3934 
L 425 3934 
z
M 425 0 
L 425 3319 
L 988 3319 
L 988 0 
L 425 0 
z
" transform="scale(0.015625)"/>
       <path id="ArialMT-74" d="M 1650 503 
L 1731 6 
Q 1494 -44 1306 -44 
Q 1000 -44 831 53 
Q 663 150 594 308 
Q 525 466 525 972 
L 525 2881 
L 113 2881 
L 113 3319 
L 525 3319 
L 525 4141 
L 1084 4478 
L 1084 3319 
L 1650 3319 
L 1650 2881 
L 1084 2881 
L 1084 941 
Q 1084 700 1114 631 
Q 1144 563 1211 522 
Q 1278 481 1403 481 
Q 1497 481 1650 503 
z
" transform="scale(0.015625)"/>
       <path id="ArialMT-79" d="M 397 -1278 
L 334 -750 
Q 519 -800 656 -800 
Q 844 -800 956 -737 
Q 1069 -675 1141 -563 
Q 1194 -478 1313 -144 
Q 1328 -97 1363 -6 
L 103 3319 
L 709 3319 
L 1400 1397 
Q 1534 1031 1641 628 
Q 1738 1016 1872 1384 
L 2581 3319 
L 3144 3319 
L 1881 -56 
Q 1678 -603 1566 -809 
Q 1416 -1088 1222 -1217 
Q 1028 -1347 759 -1347 
Q 597 -1347 397 -1278 
z
" transform="scale(0.015625)"/>
      </defs>
      <use xlink:href="#ArialMT-44"/>
      <use xlink:href="#ArialMT-65" x="72.216797"/>
      <use xlink:href="#ArialMT-6e" x="127.832031"/>
      <use xlink:href="#ArialMT-73" x="183.447266"/>
      <use xlink:href="#ArialMT-69" x="233.447266"/>
      <use xlink:href="#ArialMT-74" x="255.664062"/>
      <use xlink:href="#ArialMT-79" x="283.447266"/>
     </g>
    </g>
   </g>
   <g id="line2d_16">
    <path d="M 72.881683 64.276767 
L 73.865996 58.272947 
L 74.740941 54.136135 
L 75.506517 51.464297 
L 76.162726 49.88047 
L 76.709567 49.053862 
L 77.147039 48.710063 
L 77.584511 48.642585 
L 78.021984 48.844605 
L 78.459456 49.30807 
L 79.006297 50.24093 
L 79.662505 51.85174 
L 80.428082 54.358189 
L 81.412395 58.46513 
L 82.615444 64.615117 
L 84.146598 73.774011 
L 86.662064 90.465697 
L 89.615003 109.707301 
L 91.364893 119.757182 
L 92.896047 127.347757 
L 94.317832 133.283105 
L 95.630249 137.7959 
L 96.833299 141.146395 
L 97.92698 143.58296 
L 99.020661 145.491091 
L 100.004974 146.804649 
L 100.989287 147.782866 
L 101.9736 148.472241 
L 103.067281 148.955078 
L 104.160962 149.197429 
L 105.473379 149.246945 
L 107.004533 149.072624 
L 109.082527 148.600245 
L 112.254202 147.631271 
L 115.207141 146.513548 
L 117.394503 145.456682 
L 119.363129 144.267841 
L 121.441123 142.7496 
L 124.175326 140.443318 
L 127.565737 137.61381 
L 129.206259 136.535396 
L 130.518676 135.923809 
L 131.721726 135.610155 
L 132.815407 135.557999 
L 133.909088 135.74344 
L 135.002769 136.171566 
L 136.09645 136.836767 
L 137.299499 137.822329 
L 138.721285 139.280331 
L 140.580542 141.529879 
L 145.502107 147.65835 
L 147.033261 149.126214 
L 148.345678 150.096489 
L 149.548727 150.734219 
L 150.751777 151.13589 
L 152.064194 151.332908 
L 153.595347 151.316494 
L 158.516912 151.026086 
L 159.610593 151.283751 
L 160.594906 151.723495 
L 161.579219 152.399551 
L 162.563532 153.345302 
L 163.547845 154.588842 
L 164.641526 156.346654 
L 165.735208 158.520906 
L 166.938257 161.407339 
L 168.250674 165.14912 
L 169.672459 169.882635 
L 171.312981 176.166664 
L 173.172239 184.228694 
L 175.468969 195.281951 
L 178.750013 212.323622 
L 182.140424 230.105412 
L 182.140424 230.105412 
" clip-path="url(#p350dfc521d)" style="fill: none; stroke: #440154; stroke-opacity: 0.8; stroke-width: 2; stroke-linecap: round"/>
   </g>
   <g id="line2d_17">
    <path d="M 72.329871 91.817155 
L 73.366106 85.727582 
L 74.254308 81.852728 
L 74.994476 79.585776 
L 75.58661 78.39643 
L 76.030711 77.861095 
L 76.474812 77.623384 
L 76.918913 77.673966 
L 77.363013 78.001754 
L 77.807114 78.594034 
L 78.399249 79.770466 
L 79.139417 81.809622 
L 80.027618 84.984335 
L 81.211887 90.20664 
L 82.840257 98.610078 
L 87.281265 122.228007 
L 88.761601 128.694452 
L 90.093903 133.540968 
L 91.278172 137.031662 
L 92.314407 139.463554 
L 93.350642 141.34377 
L 94.238844 142.54699 
L 95.127046 143.4044 
L 96.015247 143.946703 
L 96.903449 144.203594 
L 97.791651 144.202108 
L 98.679852 143.965389 
L 99.568054 143.51192 
L 100.604289 142.726585 
L 101.788558 141.505998 
L 102.972827 139.946032 
L 104.305129 137.778506 
L 105.637431 135.156808 
L 106.969734 132.060438 
L 108.45007 128.045837 
L 110.07844 122.932928 
L 111.854843 116.573439 
L 113.927313 108.292927 
L 117.184052 94.202485 
L 120.588825 79.739973 
L 122.513262 72.481778 
L 124.141632 67.192276 
L 125.473934 63.584402 
L 126.658203 60.999324 
L 127.694438 59.263139 
L 128.58264 58.191974 
L 129.322808 57.607673 
L 130.062976 57.313979 
L 130.65511 57.294009 
L 131.247245 57.469272 
L 131.839379 57.842992 
L 132.579547 58.593128 
L 133.319715 59.660933 
L 134.207917 61.363805 
L 135.244152 63.929603 
L 136.280387 67.108685 
L 137.464656 71.465811 
L 138.796958 77.231534 
L 140.425328 85.3814 
L 142.349765 96.272773 
L 145.01437 112.770659 
L 150.343579 145.957704 
L 152.712117 159.18653 
L 154.932621 170.367825 
L 157.153125 180.436765 
L 159.669696 190.780107 
L 162.778402 202.553883 
L 167.515477 219.526901 
L 171.956485 234.699091 
L 174.917157 244.074001 
L 177.433729 251.32936 
L 179.654233 257.081449 
L 181.726703 261.8647 
L 183.799174 266.084325 
L 185.72361 269.519346 
L 187.648047 272.519597 
L 189.572484 275.117716 
L 191.496921 277.344054 
L 193.421358 279.224105 
L 195.345795 280.778534 
L 197.122198 281.939984 
L 198.898601 282.854127 
L 200.823038 283.586363 
L 202.747475 284.079525 
L 204.819945 284.387913 
L 207.336516 284.536135 
L 217.254768 284.859094 
L 220.067406 285.32948 
L 220.21544 285.360096 
L 220.21544 285.360096 
" clip-path="url(#p350dfc521d)" style="fill: none; stroke: #414487; stroke-opacity: 0.8; stroke-width: 2; stroke-linecap: round"/>
   </g>
   <g id="line2d_18">
    <path d="M 72.329871 102.437545 
L 73.539548 95.79755 
L 74.547613 91.499065 
L 75.354065 88.878818 
L 76.160517 86.976898 
L 76.765355 86.008967 
L 77.370194 85.419031 
L 77.975033 85.189753 
L 78.579872 85.300611 
L 79.18471 85.728264 
L 79.789549 86.446952 
L 80.596001 87.809719 
L 81.604066 90.064351 
L 82.813743 93.389409 
L 84.62826 99.127113 
L 87.854066 109.381518 
L 89.265357 113.154251 
L 90.475034 115.811447 
L 91.483099 117.556261 
L 92.491164 118.843115 
L 93.297615 119.533164 
L 94.104067 119.920106 
L 94.910519 120.007781 
L 95.716971 119.804257 
L 96.523422 119.321266 
L 97.329874 118.573668 
L 98.337939 117.293911 
L 99.547616 115.303563 
L 100.958907 112.449209 
L 102.57181 108.641222 
L 104.991165 102.253464 
L 109.42665 90.401362 
L 111.241166 86.181241 
L 112.85407 82.991787 
L 114.063747 81.022078 
L 115.273425 79.461468 
L 116.281489 78.498764 
L 117.289554 77.860791 
L 118.096006 77.593012 
L 118.902457 77.546401 
L 119.708909 77.724539 
L 120.515361 78.129572 
L 121.321813 78.762215 
L 122.329877 79.871858 
L 123.337942 81.331375 
L 124.547619 83.533174 
L 125.757297 86.207029 
L 127.168588 89.887113 
L 128.781491 94.766226 
L 130.596007 100.998519 
L 132.81375 109.461547 
L 135.837943 121.957467 
L 142.49117 149.682958 
L 145.313751 160.303854 
L 147.733106 168.586364 
L 150.152461 176.131021 
L 152.975042 184.172387 
L 156.805688 194.313463 
L 164.063754 213.427453 
L 171.725045 233.881549 
L 174.346013 240.172805 
L 176.563755 244.951614 
L 178.579884 248.801457 
L 180.596014 252.170584 
L 182.612143 255.087807 
L 184.628272 257.61244 
L 186.846014 260.031077 
L 189.466983 262.558645 
L 193.700854 266.286912 
L 202.37021 273.614273 
L 205.79763 276.21503 
L 208.620211 278.093377 
L 211.442792 279.711667 
L 214.466986 281.185953 
L 217.894406 282.603217 
L 221.725051 283.940151 
L 225.152471 284.911725 
L 228.176665 285.548438 
L 230.999246 285.926165 
L 234.02344 286.107647 
L 238.257311 286.105307 
L 243.902473 286.122167 
L 247.531506 286.381603 
L 251.765378 286.927494 
L 258.418604 287.792738 
L 262.047637 288.02025 
L 266.281508 288.047672 
L 273.741187 287.988394 
L 273.741187 287.988394 
" clip-path="url(#p350dfc521d)" style="fill: none; stroke: #2a788e; stroke-opacity: 0.8; stroke-width: 2; stroke-linecap: round"/>
   </g>
   <g id="line2d_19">
    <path d="M 72.329871 105.181074 
L 73.807997 96.245654 
L 75.286124 88.717298 
L 76.517896 83.534809 
L 77.749668 79.318901 
L 78.735086 76.605584 
L 79.720504 74.435151 
L 80.705921 72.75846 
L 81.691339 71.51999 
L 82.676757 70.660168 
L 83.662175 70.11775 
L 84.647592 69.832137 
L 85.879364 69.748628 
L 87.357491 69.916733 
L 89.821035 70.493533 
L 97.458023 72.582237 
L 98.936149 73.323659 
L 100.167921 74.169097 
L 101.399693 75.27433 
L 102.631466 76.682406 
L 103.863238 78.427506 
L 105.09501 80.533176 
L 106.573136 83.551815 
L 108.051263 87.103938 
L 109.775744 91.886332 
L 111.746579 98.095164 
L 114.210124 106.721963 
L 118.151795 121.567633 
L 122.33982 137.076421 
L 124.803364 145.395097 
L 127.020554 152.132958 
L 128.991389 157.456298 
L 130.962225 162.142276 
L 132.93306 166.22218 
L 134.903896 169.760995 
L 136.874731 172.849203 
L 139.091921 175.918138 
L 142.048174 179.612554 
L 147.96068 186.930377 
L 150.670579 190.685943 
L 153.380478 194.823144 
L 156.336731 199.770804 
L 159.785693 206.023726 
L 164.466427 215.039741 
L 174.813313 235.119112 
L 178.508629 241.729805 
L 181.464883 246.60457 
L 184.174781 250.679773 
L 186.88468 254.34345 
L 189.348224 257.312542 
L 191.811769 259.955639 
L 194.521667 262.529392 
L 197.47792 265.010236 
L 200.680528 267.408978 
L 204.622199 270.0744 
L 208.810224 272.642751 
L 212.50554 274.67138 
L 215.954502 276.309054 
L 218.910756 277.47723 
L 221.867009 278.413192 
L 225.069616 279.180409 
L 228.764933 279.813957 
L 235.170148 280.623418 
L 240.8363 281.448124 
L 245.763388 282.404801 
L 260.051945 285.375653 
L 264.979034 286.036788 
L 272.123312 286.729321 
L 281.977489 287.729918 
L 291.831666 288.734678 
L 296.512401 288.974578 
L 301.193135 288.983499 
L 306.612932 288.756853 
L 316.713464 288.28589 
L 318.437945 288.273968 
L 318.437945 288.273968 
" clip-path="url(#p350dfc521d)" style="fill: none; stroke: #22a884; stroke-opacity: 0.8; stroke-width: 2; stroke-linecap: round"/>
   </g>
   <g id="line2d_20">
    <path d="M 72.329871 85.829022 
L 74.046619 73.787329 
L 75.763367 63.282267 
L 77.19399 55.826687 
L 78.624613 49.625135 
L 79.769112 45.59371 
L 80.91361 42.397045 
L 81.771984 40.54543 
L 82.630358 39.156095 
L 83.488732 38.220829 
L 84.060982 37.844322 
L 84.633231 37.66104 
L 85.20548 37.666742 
L 85.777729 37.856794 
L 86.349979 38.226201 
L 87.208353 39.1049 
L 88.066727 40.356012 
L 88.925101 41.959224 
L 90.069599 44.607675 
L 91.214098 47.791809 
L 92.644721 52.443141 
L 94.361469 58.868185 
L 96.364341 67.294777 
L 98.939463 79.165549 
L 104.089707 104.326039 
L 107.809327 121.974314 
L 110.670574 134.515058 
L 113.245696 144.771503 
L 115.534693 152.980585 
L 117.82369 160.315037 
L 119.826563 166.03061 
L 121.829435 171.122884 
L 123.832308 175.632883 
L 125.83518 179.606743 
L 127.838053 183.092115 
L 129.840925 186.136003 
L 131.843798 188.783994 
L 133.846671 191.080656 
L 135.849543 193.070726 
L 138.13854 195.02942 
L 140.713662 196.920148 
L 144.147158 199.123842 
L 149.583526 202.574013 
L 152.158648 204.49006 
L 154.447645 206.466794 
L 156.736643 208.751779 
L 159.02564 211.365255 
L 161.600762 214.68431 
L 164.462008 218.771142 
L 168.467753 224.938845 
L 174.762495 234.641584 
L 177.909867 239.068076 
L 180.771113 242.710201 
L 183.63236 245.969434 
L 186.493606 248.877448 
L 189.640977 251.751314 
L 193.646722 255.092723 
L 213.103199 270.652033 
L 216.536694 273.038157 
L 219.397941 274.757322 
L 221.973063 276.062556 
L 224.548185 277.131973 
L 227.409431 278.06073 
L 230.270678 278.757518 
L 233.704173 279.36874 
L 238.854417 280.036459 
L 251.443902 281.382963 
L 257.738644 281.840796 
L 274.619998 282.857758 
L 279.197993 283.505869 
L 285.20661 284.605217 
L 294.648724 286.335661 
L 300.371217 287.129172 
L 307.524333 287.86942 
L 318.969319 288.803351 
L 326.40856 289.211626 
L 332.417178 289.323748 
L 338.71192 289.208134 
L 347.867909 288.772364 
L 355.593274 288.488708 
L 358.168396 288.467202 
L 358.168396 288.467202 
" clip-path="url(#p350dfc521d)" style="fill: none; stroke: #7ad151; stroke-opacity: 0.8; stroke-width: 2; stroke-linecap: round"/>
   </g>
   <g id="line2d_21">
    <path d="M 72.329871 64.00583 
L 73.945536 55.339702 
L 75.238068 49.565996 
L 76.530601 44.884909 
L 77.5 42.114056 
L 78.469399 39.98714 
L 79.438798 38.506012 
L 80.085064 37.875445 
L 80.73133 37.527262 
L 81.377596 37.4575 
L 82.023862 37.661084 
L 82.670128 38.131877 
L 83.316395 38.86274 
L 84.285794 40.428758 
L 85.255193 42.530712 
L 86.224592 45.133938 
L 87.517124 49.318802 
L 88.809656 54.230523 
L 90.425322 61.236404 
L 92.36412 70.642902 
L 95.272317 86.068669 
L 102.704378 126.173845 
L 105.289442 138.664583 
L 107.551373 148.579491 
L 109.813305 157.468488 
L 111.752103 164.262471 
L 113.690901 170.318151 
L 115.6297 175.678343 
L 117.568498 180.399101 
L 119.507296 184.544028 
L 121.446095 188.179445 
L 123.384893 191.370529 
L 125.323691 194.178451 
L 127.585622 197.043426 
L 129.847554 199.53762 
L 132.109485 201.723785 
L 134.69455 203.910015 
L 137.279614 205.821738 
L 140.187811 207.708861 
L 143.742275 209.735267 
L 155.698198 216.252559 
L 158.283262 218.049692 
L 160.868327 220.116182 
L 163.453391 222.478058 
L 166.038455 225.132731 
L 168.946653 228.426587 
L 173.147383 233.571289 
L 179.933177 241.917071 
L 183.164507 245.494846 
L 185.749572 248.052723 
L 188.334636 250.312797 
L 190.9197 252.282066 
L 193.827898 254.192544 
L 197.059228 256.028246 
L 201.906224 258.485415 
L 208.368885 261.792684 
L 212.892748 264.374287 
L 218.062877 267.603207 
L 228.726267 274.355436 
L 232.280731 276.302825 
L 235.512061 277.819299 
L 238.420259 278.940775 
L 241.328456 279.817493 
L 244.236654 280.455549 
L 247.467984 280.916492 
L 251.022448 281.191654 
L 256.838843 281.373311 
L 264.270903 281.645072 
L 271.37983 282.166086 
L 279.458156 282.722834 
L 285.274551 282.885821 
L 298.199873 283.136537 
L 302.723736 283.525369 
L 307.570732 284.179495 
L 315.002792 285.457263 
L 322.757985 286.725341 
L 328.897513 287.495668 
L 336.329573 288.181138 
L 346.669831 288.894375 
L 355.717556 289.31801 
L 363.472749 289.456676 
L 371.227942 289.36107 
L 381.245067 288.987892 
L 391.908458 288.642457 
L 395.139788 288.618396 
L 395.139788 288.618396 
" clip-path="url(#p350dfc521d)" style="fill: none; stroke: #fde725; stroke-opacity: 0.8; stroke-width: 2; stroke-linecap: round"/>
   </g>
   <g id="patch_3">
    <path d="M 56.189375 302.0575 
L 56.189375 24.8575 
" style="fill: none; stroke: #cccccc; stroke-width: 0.8; stroke-linejoin: miter; stroke-linecap: square"/>
   </g>
   <g id="patch_4">
    <path d="M 411.280284 302.0575 
L 411.280284 24.8575 
" style="fill: none; stroke: #cccccc; stroke-width: 0.8; stroke-linejoin: miter; stroke-linecap: square"/>
   </g>
   <g id="patch_5">
    <path d="M 56.189375 302.0575 
L 411.280284 302.0575 
" style="fill: none; stroke: #cccccc; stroke-width: 0.8; stroke-linejoin: miter; stroke-linecap: square"/>
   </g>
   <g id="patch_6">
    <path d="M 56.189375 24.8575 
L 411.280284 24.8575 
" style="fill: none; stroke: #cccccc; stroke-width: 0.8; stroke-linejoin: miter; stroke-linecap: square"/>
   </g>
   <g id="text_18">
    <!-- Distribution of Capacities - Total (PDF) -->
    <g style="fill: #262626" transform="translate(97.84233 18.8575) scale(0.16 -0.16)">
     <defs>
      <path id="ArialMT-72" d="M 416 0 
L 416 3319 
L 922 3319 
L 922 2816 
Q 1116 3169 1280 3281 
Q 1444 3394 1641 3394 
Q 1925 3394 2219 3213 
L 2025 2691 
Q 1819 2813 1613 2813 
Q 1428 2813 1281 2702 
Q 1134 2591 1072 2394 
Q 978 2094 978 1738 
L 978 0 
L 416 0 
z
" transform="scale(0.015625)"/>
      <path id="ArialMT-62" d="M 941 0 
L 419 0 
L 419 4581 
L 981 4581 
L 981 2947 
Q 1338 3394 1891 3394 
Q 2197 3394 2470 3270 
Q 2744 3147 2920 2923 
Q 3097 2700 3197 2384 
Q 3297 2069 3297 1709 
Q 3297 856 2875 390 
Q 2453 -75 1863 -75 
Q 1275 -75 941 416 
L 941 0 
z
M 934 1684 
Q 934 1088 1097 822 
Q 1363 388 1816 388 
Q 2184 388 2453 708 
Q 2722 1028 2722 1663 
Q 2722 2313 2464 2622 
Q 2206 2931 1841 2931 
Q 1472 2931 1203 2611 
Q 934 2291 934 1684 
z
" transform="scale(0.015625)"/>
      <path id="ArialMT-6f" d="M 213 1659 
Q 213 2581 725 3025 
Q 1153 3394 1769 3394 
Q 2453 3394 2887 2945 
Q 3322 2497 3322 1706 
Q 3322 1066 3130 698 
Q 2938 331 2570 128 
Q 2203 -75 1769 -75 
Q 1072 -75 642 372 
Q 213 819 213 1659 
z
M 791 1659 
Q 791 1022 1069 705 
Q 1347 388 1769 388 
Q 2188 388 2466 706 
Q 2744 1025 2744 1678 
Q 2744 2294 2464 2611 
Q 2184 2928 1769 2928 
Q 1347 2928 1069 2612 
Q 791 2297 791 1659 
z
" transform="scale(0.015625)"/>
      <path id="ArialMT-20" transform="scale(0.015625)"/>
      <path id="ArialMT-66" d="M 556 0 
L 556 2881 
L 59 2881 
L 59 3319 
L 556 3319 
L 556 3672 
Q 556 4006 616 4169 
Q 697 4388 901 4523 
Q 1106 4659 1475 4659 
Q 1713 4659 2000 4603 
L 1916 4113 
Q 1741 4144 1584 4144 
Q 1328 4144 1222 4034 
Q 1116 3925 1116 3625 
L 1116 3319 
L 1763 3319 
L 1763 2881 
L 1116 2881 
L 1116 0 
L 556 0 
z
" transform="scale(0.015625)"/>
      <path id="ArialMT-43" d="M 3763 1606 
L 4369 1453 
Q 4178 706 3683 314 
Q 3188 -78 2472 -78 
Q 1731 -78 1267 223 
Q 803 525 561 1097 
Q 319 1669 319 2325 
Q 319 3041 592 3573 
Q 866 4106 1370 4382 
Q 1875 4659 2481 4659 
Q 3169 4659 3637 4309 
Q 4106 3959 4291 3325 
L 3694 3184 
Q 3534 3684 3231 3912 
Q 2928 4141 2469 4141 
Q 1941 4141 1586 3887 
Q 1231 3634 1087 3207 
Q 944 2781 944 2328 
Q 944 1744 1114 1308 
Q 1284 872 1643 656 
Q 2003 441 2422 441 
Q 2931 441 3284 734 
Q 3638 1028 3763 1606 
z
" transform="scale(0.015625)"/>
      <path id="ArialMT-70" d="M 422 -1272 
L 422 3319 
L 934 3319 
L 934 2888 
Q 1116 3141 1344 3267 
Q 1572 3394 1897 3394 
Q 2322 3394 2647 3175 
Q 2972 2956 3137 2557 
Q 3303 2159 3303 1684 
Q 3303 1175 3120 767 
Q 2938 359 2589 142 
Q 2241 -75 1856 -75 
Q 1575 -75 1351 44 
Q 1128 163 984 344 
L 984 -1272 
L 422 -1272 
z
M 931 1641 
Q 931 1000 1190 694 
Q 1450 388 1819 388 
Q 2194 388 2461 705 
Q 2728 1022 2728 1688 
Q 2728 2322 2467 2637 
Q 2206 2953 1844 2953 
Q 1484 2953 1207 2617 
Q 931 2281 931 1641 
z
" transform="scale(0.015625)"/>
      <path id="ArialMT-63" d="M 2588 1216 
L 3141 1144 
Q 3050 572 2676 248 
Q 2303 -75 1759 -75 
Q 1078 -75 664 370 
Q 250 816 250 1647 
Q 250 2184 428 2587 
Q 606 2991 970 3192 
Q 1334 3394 1763 3394 
Q 2303 3394 2647 3120 
Q 2991 2847 3088 2344 
L 2541 2259 
Q 2463 2594 2264 2762 
Q 2066 2931 1784 2931 
Q 1359 2931 1093 2626 
Q 828 2322 828 1663 
Q 828 994 1084 691 
Q 1341 388 1753 388 
Q 2084 388 2306 591 
Q 2528 794 2588 1216 
z
" transform="scale(0.015625)"/>
      <path id="ArialMT-2d" d="M 203 1375 
L 203 1941 
L 1931 1941 
L 1931 1375 
L 203 1375 
z
" transform="scale(0.015625)"/>
      <path id="ArialMT-54" d="M 1659 0 
L 1659 4041 
L 150 4041 
L 150 4581 
L 3781 4581 
L 3781 4041 
L 2266 4041 
L 2266 0 
L 1659 0 
z
" transform="scale(0.015625)"/>
      <path id="ArialMT-28" d="M 1497 -1347 
Q 1031 -759 709 28 
Q 388 816 388 1659 
Q 388 2403 628 3084 
Q 909 3875 1497 4659 
L 1900 4659 
Q 1522 4009 1400 3731 
Q 1209 3300 1100 2831 
Q 966 2247 966 1656 
Q 966 153 1900 -1347 
L 1497 -1347 
z
" transform="scale(0.015625)"/>
      <path id="ArialMT-50" d="M 494 0 
L 494 4581 
L 2222 4581 
Q 2678 4581 2919 4538 
Q 3256 4481 3484 4323 
Q 3713 4166 3852 3881 
Q 3991 3597 3991 3256 
Q 3991 2672 3619 2267 
Q 3247 1863 2275 1863 
L 1100 1863 
L 1100 0 
L 494 0 
z
M 1100 2403 
L 2284 2403 
Q 2872 2403 3119 2622 
Q 3366 2841 3366 3238 
Q 3366 3525 3220 3729 
Q 3075 3934 2838 4000 
Q 2684 4041 2272 4041 
L 1100 4041 
L 1100 2403 
z
" transform="scale(0.015625)"/>
      <path id="ArialMT-46" d="M 525 0 
L 525 4581 
L 3616 4581 
L 3616 4041 
L 1131 4041 
L 1131 2622 
L 3281 2622 
L 3281 2081 
L 1131 2081 
L 1131 0 
L 525 0 
z
" transform="scale(0.015625)"/>
      <path id="ArialMT-29" d="M 791 -1347 
L 388 -1347 
Q 1322 153 1322 1656 
Q 1322 2244 1188 2822 
Q 1081 3291 891 3722 
Q 769 4003 388 4659 
L 791 4659 
Q 1378 3875 1659 3084 
Q 1900 2403 1900 1659 
Q 1900 816 1576 28 
Q 1253 -759 791 -1347 
z
" transform="scale(0.015625)"/>
     </defs>
     <use xlink:href="#ArialMT-44"/>
     <use xlink:href="#ArialMT-69" x="72.216797"/>
     <use xlink:href="#ArialMT-73" x="94.433594"/>
     <use xlink:href="#ArialMT-74" x="144.433594"/>
     <use xlink:href="#ArialMT-72" x="172.216797"/>
     <use xlink:href="#ArialMT-69" x="205.517578"/>
     <use xlink:href="#ArialMT-62" x="227.734375"/>
     <use xlink:href="#ArialMT-75" x="283.349609"/>
     <use xlink:href="#ArialMT-74" x="338.964844"/>
     <use xlink:href="#ArialMT-69" x="366.748047"/>
     <use xlink:href="#ArialMT-6f" x="388.964844"/>
     <use xlink:href="#ArialMT-6e" x="444.580078"/>
     <use xlink:href="#ArialMT-20" x="500.195312"/>
     <use xlink:href="#ArialMT-6f" x="527.978516"/>
     <use xlink:href="#ArialMT-66" x="583.59375"/>
     <use xlink:href="#ArialMT-20" x="611.376953"/>
     <use xlink:href="#ArialMT-43" x="639.160156"/>
     <use xlink:href="#ArialMT-61" x="711.376953"/>
     <use xlink:href="#ArialMT-70" x="766.992188"/>
     <use xlink:href="#ArialMT-61" x="822.607422"/>
     <use xlink:href="#ArialMT-63" x="878.222656"/>
     <use xlink:href="#ArialMT-69" x="928.222656"/>
     <use xlink:href="#ArialMT-74" x="950.439453"/>
     <use xlink:href="#ArialMT-69" x="978.222656"/>
     <use xlink:href="#ArialMT-65" x="1000.439453"/>
     <use xlink:href="#ArialMT-73" x="1056.054688"/>
     <use xlink:href="#ArialMT-20" x="1106.054688"/>
     <use xlink:href="#ArialMT-2d" x="1133.837891"/>
     <use xlink:href="#ArialMT-20" x="1167.138672"/>
     <use xlink:href="#ArialMT-54" x="1193.171875"/>
     <use xlink:href="#ArialMT-6f" x="1243.130859"/>
     <use xlink:href="#ArialMT-74" x="1298.746094"/>
     <use xlink:href="#ArialMT-61" x="1326.529297"/>
     <use xlink:href="#ArialMT-6c" x="1382.144531"/>
     <use xlink:href="#ArialMT-20" x="1404.361328"/>
     <use xlink:href="#ArialMT-28" x="1432.144531"/>
     <use xlink:href="#ArialMT-50" x="1465.445312"/>
     <use xlink:href="#ArialMT-44" x="1532.144531"/>
     <use xlink:href="#ArialMT-46" x="1604.361328"/>
     <use xlink:href="#ArialMT-29" x="1665.445312"/>
    </g>
   </g>
   <g id="legend_1">
    <g id="patch_7">
     <path d="M 351.134034 151.449063 
L 402.880284 151.449063 
Q 405.280284 151.449063 405.280284 149.049063 
L 405.280284 33.2575 
Q 405.280284 30.8575 402.880284 30.8575 
L 351.134034 30.8575 
Q 348.734034 30.8575 348.734034 33.2575 
L 348.734034 149.049063 
Q 348.734034 151.449063 351.134034 151.449063 
z
" style="fill: #ffffff; opacity: 0.8; stroke: #cccccc; stroke-linejoin: miter"/>
    </g>
    <g id="text_19">
     <!-- median -->
     <g style="fill: #262626" transform="translate(360.609503 42.815313) scale(0.1 -0.1)">
      <defs>
       <path id="ArialMT-6d" d="M 422 0 
L 422 3319 
L 925 3319 
L 925 2853 
Q 1081 3097 1340 3245 
Q 1600 3394 1931 3394 
Q 2300 3394 2536 3241 
Q 2772 3088 2869 2813 
Q 3263 3394 3894 3394 
Q 4388 3394 4653 3120 
Q 4919 2847 4919 2278 
L 4919 0 
L 4359 0 
L 4359 2091 
Q 4359 2428 4304 2576 
Q 4250 2725 4106 2815 
Q 3963 2906 3769 2906 
Q 3419 2906 3187 2673 
Q 2956 2441 2956 1928 
L 2956 0 
L 2394 0 
L 2394 2156 
Q 2394 2531 2256 2718 
Q 2119 2906 1806 2906 
Q 1569 2906 1367 2781 
Q 1166 2656 1075 2415 
Q 984 2175 984 1722 
L 984 0 
L 422 0 
z
" transform="scale(0.015625)"/>
       <path id="ArialMT-64" d="M 2575 0 
L 2575 419 
Q 2259 -75 1647 -75 
Q 1250 -75 917 144 
Q 584 363 401 755 
Q 219 1147 219 1656 
Q 219 2153 384 2558 
Q 550 2963 881 3178 
Q 1213 3394 1622 3394 
Q 1922 3394 2156 3267 
Q 2391 3141 2538 2938 
L 2538 4581 
L 3097 4581 
L 3097 0 
L 2575 0 
z
M 797 1656 
Q 797 1019 1065 703 
Q 1334 388 1700 388 
Q 2069 388 2326 689 
Q 2584 991 2584 1609 
Q 2584 2291 2321 2609 
Q 2059 2928 1675 2928 
Q 1300 2928 1048 2622 
Q 797 2316 797 1656 
z
" transform="scale(0.015625)"/>
      </defs>
      <use xlink:href="#ArialMT-6d"/>
      <use xlink:href="#ArialMT-65" x="83.300781"/>
      <use xlink:href="#ArialMT-64" x="138.916016"/>
      <use xlink:href="#ArialMT-69" x="194.53125"/>
      <use xlink:href="#ArialMT-61" x="216.748047"/>
      <use xlink:href="#ArialMT-6e" x="272.363281"/>
     </g>
    </g>
    <g id="line2d_22">
     <path d="M 353.534034 55.192188 
L 365.534034 55.192188 
L 377.534034 55.192188 
" style="fill: none; stroke: #440154; stroke-opacity: 0.8; stroke-width: 2; stroke-linecap: round"/>
    </g>
    <g id="text_20">
     <!-- 74 -->
     <g style="fill: #262626" transform="translate(387.134034 59.392188) scale(0.12 -0.12)">
      <use xlink:href="#ArialMT-37"/>
      <use xlink:href="#ArialMT-34" x="55.615234"/>
     </g>
    </g>
    <g id="line2d_23">
     <path d="M 353.534034 72.166563 
L 365.534034 72.166563 
L 377.534034 72.166563 
" style="fill: none; stroke: #414487; stroke-opacity: 0.8; stroke-width: 2; stroke-linecap: round"/>
    </g>
    <g id="text_21">
     <!-- 84 -->
     <g style="fill: #262626" transform="translate(387.134034 76.366563) scale(0.12 -0.12)">
      <defs>
       <path id="ArialMT-38" d="M 1131 2484 
Q 781 2613 612 2850 
Q 444 3088 444 3419 
Q 444 3919 803 4259 
Q 1163 4600 1759 4600 
Q 2359 4600 2725 4251 
Q 3091 3903 3091 3403 
Q 3091 3084 2923 2848 
Q 2756 2613 2416 2484 
Q 2838 2347 3058 2040 
Q 3278 1734 3278 1309 
Q 3278 722 2862 322 
Q 2447 -78 1769 -78 
Q 1091 -78 675 323 
Q 259 725 259 1325 
Q 259 1772 486 2073 
Q 713 2375 1131 2484 
z
M 1019 3438 
Q 1019 3113 1228 2906 
Q 1438 2700 1772 2700 
Q 2097 2700 2305 2904 
Q 2513 3109 2513 3406 
Q 2513 3716 2298 3927 
Q 2084 4138 1766 4138 
Q 1444 4138 1231 3931 
Q 1019 3725 1019 3438 
z
M 838 1322 
Q 838 1081 952 856 
Q 1066 631 1291 507 
Q 1516 384 1775 384 
Q 2178 384 2440 643 
Q 2703 903 2703 1303 
Q 2703 1709 2433 1975 
Q 2163 2241 1756 2241 
Q 1359 2241 1098 1978 
Q 838 1716 838 1322 
z
" transform="scale(0.015625)"/>
      </defs>
      <use xlink:href="#ArialMT-38"/>
      <use xlink:href="#ArialMT-34" x="55.615234"/>
     </g>
    </g>
    <g id="line2d_24">
     <path d="M 353.534034 89.140938 
L 365.534034 89.140938 
L 377.534034 89.140938 
" style="fill: none; stroke: #2a788e; stroke-opacity: 0.8; stroke-width: 2; stroke-linecap: round"/>
    </g>
    <g id="text_22">
     <!-- 76 -->
     <g style="fill: #262626" transform="translate(387.134034 93.340938) scale(0.12 -0.12)">
      <use xlink:href="#ArialMT-37"/>
      <use xlink:href="#ArialMT-36" x="55.615234"/>
     </g>
    </g>
    <g id="line2d_25">
     <path d="M 353.534034 106.115313 
L 365.534034 106.115313 
L 377.534034 106.115313 
" style="fill: none; stroke: #22a884; stroke-opacity: 0.8; stroke-width: 2; stroke-linecap: round"/>
    </g>
    <g id="text_23">
     <!-- 60 -->
     <g style="fill: #262626" transform="translate(387.134034 110.315313) scale(0.12 -0.12)">
      <use xlink:href="#ArialMT-36"/>
      <use xlink:href="#ArialMT-30" x="55.615234"/>
     </g>
    </g>
    <g id="line2d_26">
     <path d="M 353.534034 123.089688 
L 365.534034 123.089688 
L 377.534034 123.089688 
" style="fill: none; stroke: #7ad151; stroke-opacity: 0.8; stroke-width: 2; stroke-linecap: round"/>
    </g>
    <g id="text_24">
     <!-- 49 -->
     <g style="fill: #262626" transform="translate(387.134034 127.289688) scale(0.12 -0.12)">
      <defs>
       <path id="ArialMT-39" d="M 350 1059 
L 891 1109 
Q 959 728 1153 556 
Q 1347 384 1650 384 
Q 1909 384 2104 503 
Q 2300 622 2425 820 
Q 2550 1019 2634 1356 
Q 2719 1694 2719 2044 
Q 2719 2081 2716 2156 
Q 2547 1888 2255 1720 
Q 1963 1553 1622 1553 
Q 1053 1553 659 1965 
Q 266 2378 266 3053 
Q 266 3750 677 4175 
Q 1088 4600 1706 4600 
Q 2153 4600 2523 4359 
Q 2894 4119 3086 3673 
Q 3278 3228 3278 2384 
Q 3278 1506 3087 986 
Q 2897 466 2520 194 
Q 2144 -78 1638 -78 
Q 1100 -78 759 220 
Q 419 519 350 1059 
z
M 2653 3081 
Q 2653 3566 2395 3850 
Q 2138 4134 1775 4134 
Q 1400 4134 1122 3828 
Q 844 3522 844 3034 
Q 844 2597 1108 2323 
Q 1372 2050 1759 2050 
Q 2150 2050 2401 2323 
Q 2653 2597 2653 3081 
z
" transform="scale(0.015625)"/>
      </defs>
      <use xlink:href="#ArialMT-34"/>
      <use xlink:href="#ArialMT-39" x="55.615234"/>
     </g>
    </g>
    <g id="line2d_27">
     <path d="M 353.534034 140.064063 
L 365.534034 140.064063 
L 377.534034 140.064063 
" style="fill: none; stroke: #fde725; stroke-opacity: 0.8; stroke-width: 2; stroke-linecap: round"/>
    </g>
    <g id="text_25">
     <!-- 38 -->
     <g style="fill: #262626" transform="translate(387.134034 144.264063) scale(0.12 -0.12)">
      <use xlink:href="#ArialMT-33"/>
      <use xlink:href="#ArialMT-38" x="55.615234"/>
     </g>
    </g>
   </g>
  </g>
  <g id="axes_2">
   <g id="patch_8">
    <path d="M 482.298466 302.0575 
L 837.389375 302.0575 
L 837.389375 24.8575 
L 482.298466 24.8575 
z
" style="fill: #ffffff"/>
   </g>
   <g id="matplotlib.axis_3">
    <g id="xtick_8">
     <g id="line2d_28">
      <path d="M 498.438962 302.0575 
L 498.438962 24.8575 
" clip-path="url(#p6a387eec60)" style="fill: none; stroke: #cccccc; stroke-width: 0.8; stroke-linecap: round"/>
     </g>
     <g id="text_26">
      <!-- 0 -->
      <g style="fill: #262626" transform="translate(495.658493 316.215313) scale(0.1 -0.1)">
       <use xlink:href="#ArialMT-30"/>
      </g>
     </g>
    </g>
    <g id="xtick_9">
     <g id="line2d_29">
      <path d="M 552.240615 302.0575 
L 552.240615 24.8575 
" clip-path="url(#p6a387eec60)" style="fill: none; stroke: #cccccc; stroke-width: 0.8; stroke-linecap: round"/>
     </g>
     <g id="text_27">
      <!-- 2 -->
      <g style="fill: #262626" transform="translate(549.460146 316.215313) scale(0.1 -0.1)">
       <use xlink:href="#ArialMT-32"/>
      </g>
     </g>
    </g>
    <g id="xtick_10">
     <g id="line2d_30">
      <path d="M 606.042268 302.0575 
L 606.042268 24.8575 
" clip-path="url(#p6a387eec60)" style="fill: none; stroke: #cccccc; stroke-width: 0.8; stroke-linecap: round"/>
     </g>
     <g id="text_28">
      <!-- 4 -->
      <g style="fill: #262626" transform="translate(603.261799 316.215313) scale(0.1 -0.1)">
       <use xlink:href="#ArialMT-34"/>
      </g>
     </g>
    </g>
    <g id="xtick_11">
     <g id="line2d_31">
      <path d="M 659.84392 302.0575 
L 659.84392 24.8575 
" clip-path="url(#p6a387eec60)" style="fill: none; stroke: #cccccc; stroke-width: 0.8; stroke-linecap: round"/>
     </g>
     <g id="text_29">
      <!-- 6 -->
      <g style="fill: #262626" transform="translate(657.063452 316.215313) scale(0.1 -0.1)">
       <use xlink:href="#ArialMT-36"/>
      </g>
     </g>
    </g>
    <g id="xtick_12">
     <g id="line2d_32">
      <path d="M 713.645573 302.0575 
L 713.645573 24.8575 
" clip-path="url(#p6a387eec60)" style="fill: none; stroke: #cccccc; stroke-width: 0.8; stroke-linecap: round"/>
     </g>
     <g id="text_30">
      <!-- 8 -->
      <g style="fill: #262626" transform="translate(710.865105 316.215313) scale(0.1 -0.1)">
       <use xlink:href="#ArialMT-38"/>
      </g>
     </g>
    </g>
    <g id="xtick_13">
     <g id="line2d_33">
      <path d="M 767.447226 302.0575 
L 767.447226 24.8575 
" clip-path="url(#p6a387eec60)" style="fill: none; stroke: #cccccc; stroke-width: 0.8; stroke-linecap: round"/>
     </g>
     <g id="text_31">
      <!-- 10 -->
      <g style="fill: #262626" transform="translate(761.886289 316.215313) scale(0.1 -0.1)">
       <use xlink:href="#ArialMT-31"/>
       <use xlink:href="#ArialMT-30" x="55.615234"/>
      </g>
     </g>
    </g>
    <g id="xtick_14">
     <g id="line2d_34">
      <path d="M 821.248879 302.0575 
L 821.248879 24.8575 
" clip-path="url(#p6a387eec60)" style="fill: none; stroke: #cccccc; stroke-width: 0.8; stroke-linecap: round"/>
     </g>
     <g id="text_32">
      <!-- 12 -->
      <g style="fill: #262626" transform="translate(815.687942 316.215313) scale(0.1 -0.1)">
       <use xlink:href="#ArialMT-31"/>
       <use xlink:href="#ArialMT-32" x="55.615234"/>
      </g>
     </g>
    </g>
    <g id="text_33">
     <!-- Value -->
     <g style="fill: #262626" transform="translate(642.45767 332.22375) scale(0.14 -0.14)">
      <use xlink:href="#ArialMT-56"/>
      <use xlink:href="#ArialMT-61" x="59.324219"/>
      <use xlink:href="#ArialMT-6c" x="114.939453"/>
      <use xlink:href="#ArialMT-75" x="137.15625"/>
      <use xlink:href="#ArialMT-65" x="192.771484"/>
     </g>
    </g>
   </g>
   <g id="matplotlib.axis_4">
    <g id="ytick_9">
     <g id="line2d_35">
      <path d="M 482.298466 289.989348 
L 837.389375 289.989348 
" clip-path="url(#p6a387eec60)" style="fill: none; stroke-dasharray: 2.96,1.28; stroke-dashoffset: 0; stroke: #cccccc; stroke-opacity: 0.7; stroke-width: 0.8"/>
     </g>
     <g id="text_34">
      <!-- 0.00 -->
      <g style="fill: #262626" transform="translate(455.837528 293.568254) scale(0.1 -0.1)">
       <use xlink:href="#ArialMT-30"/>
       <use xlink:href="#ArialMT-2e" x="55.615234"/>
       <use xlink:href="#ArialMT-30" x="83.398438"/>
       <use xlink:href="#ArialMT-30" x="139.013672"/>
      </g>
     </g>
    </g>
    <g id="ytick_10">
     <g id="line2d_36">
      <path d="M 482.298466 254.776031 
L 837.389375 254.776031 
" clip-path="url(#p6a387eec60)" style="fill: none; stroke-dasharray: 2.96,1.28; stroke-dashoffset: 0; stroke: #cccccc; stroke-opacity: 0.7; stroke-width: 0.8"/>
     </g>
     <g id="text_35">
      <!-- 0.05 -->
      <g style="fill: #262626" transform="translate(455.837528 258.354937) scale(0.1 -0.1)">
       <use xlink:href="#ArialMT-30"/>
       <use xlink:href="#ArialMT-2e" x="55.615234"/>
       <use xlink:href="#ArialMT-30" x="83.398438"/>
       <use xlink:href="#ArialMT-35" x="139.013672"/>
      </g>
     </g>
    </g>
    <g id="ytick_11">
     <g id="line2d_37">
      <path d="M 482.298466 219.562714 
L 837.389375 219.562714 
" clip-path="url(#p6a387eec60)" style="fill: none; stroke-dasharray: 2.96,1.28; stroke-dashoffset: 0; stroke: #cccccc; stroke-opacity: 0.7; stroke-width: 0.8"/>
     </g>
     <g id="text_36">
      <!-- 0.10 -->
      <g style="fill: #262626" transform="translate(455.837528 223.14162) scale(0.1 -0.1)">
       <use xlink:href="#ArialMT-30"/>
       <use xlink:href="#ArialMT-2e" x="55.615234"/>
       <use xlink:href="#ArialMT-31" x="83.398438"/>
       <use xlink:href="#ArialMT-30" x="139.013672"/>
      </g>
     </g>
    </g>
    <g id="ytick_12">
     <g id="line2d_38">
      <path d="M 482.298466 184.349397 
L 837.389375 184.349397 
" clip-path="url(#p6a387eec60)" style="fill: none; stroke-dasharray: 2.96,1.28; stroke-dashoffset: 0; stroke: #cccccc; stroke-opacity: 0.7; stroke-width: 0.8"/>
     </g>
     <g id="text_37">
      <!-- 0.15 -->
      <g style="fill: #262626" transform="translate(455.837528 187.928303) scale(0.1 -0.1)">
       <use xlink:href="#ArialMT-30"/>
       <use xlink:href="#ArialMT-2e" x="55.615234"/>
       <use xlink:href="#ArialMT-31" x="83.398438"/>
       <use xlink:href="#ArialMT-35" x="139.013672"/>
      </g>
     </g>
    </g>
    <g id="ytick_13">
     <g id="line2d_39">
      <path d="M 482.298466 149.13608 
L 837.389375 149.13608 
" clip-path="url(#p6a387eec60)" style="fill: none; stroke-dasharray: 2.96,1.28; stroke-dashoffset: 0; stroke: #cccccc; stroke-opacity: 0.7; stroke-width: 0.8"/>
     </g>
     <g id="text_38">
      <!-- 0.20 -->
      <g style="fill: #262626" transform="translate(455.837528 152.714986) scale(0.1 -0.1)">
       <use xlink:href="#ArialMT-30"/>
       <use xlink:href="#ArialMT-2e" x="55.615234"/>
       <use xlink:href="#ArialMT-32" x="83.398438"/>
       <use xlink:href="#ArialMT-30" x="139.013672"/>
      </g>
     </g>
    </g>
    <g id="ytick_14">
     <g id="line2d_40">
      <path d="M 482.298466 113.922763 
L 837.389375 113.922763 
" clip-path="url(#p6a387eec60)" style="fill: none; stroke-dasharray: 2.96,1.28; stroke-dashoffset: 0; stroke: #cccccc; stroke-opacity: 0.7; stroke-width: 0.8"/>
     </g>
     <g id="text_39">
      <!-- 0.25 -->
      <g style="fill: #262626" transform="translate(455.837528 117.501669) scale(0.1 -0.1)">
       <use xlink:href="#ArialMT-30"/>
       <use xlink:href="#ArialMT-2e" x="55.615234"/>
       <use xlink:href="#ArialMT-32" x="83.398438"/>
       <use xlink:href="#ArialMT-35" x="139.013672"/>
      </g>
     </g>
    </g>
    <g id="ytick_15">
     <g id="line2d_41">
      <path d="M 482.298466 78.709446 
L 837.389375 78.709446 
" clip-path="url(#p6a387eec60)" style="fill: none; stroke-dasharray: 2.96,1.28; stroke-dashoffset: 0; stroke: #cccccc; stroke-opacity: 0.7; stroke-width: 0.8"/>
     </g>
     <g id="text_40">
      <!-- 0.30 -->
      <g style="fill: #262626" transform="translate(455.837528 82.288352) scale(0.1 -0.1)">
       <use xlink:href="#ArialMT-30"/>
       <use xlink:href="#ArialMT-2e" x="55.615234"/>
       <use xlink:href="#ArialMT-33" x="83.398438"/>
       <use xlink:href="#ArialMT-30" x="139.013672"/>
      </g>
     </g>
    </g>
    <g id="ytick_16">
     <g id="line2d_42">
      <path d="M 482.298466 43.496129 
L 837.389375 43.496129 
" clip-path="url(#p6a387eec60)" style="fill: none; stroke-dasharray: 2.96,1.28; stroke-dashoffset: 0; stroke: #cccccc; stroke-opacity: 0.7; stroke-width: 0.8"/>
     </g>
     <g id="text_41">
      <!-- 0.35 -->
      <g style="fill: #262626" transform="translate(455.837528 47.075035) scale(0.1 -0.1)">
       <use xlink:href="#ArialMT-30"/>
       <use xlink:href="#ArialMT-2e" x="55.615234"/>
       <use xlink:href="#ArialMT-33" x="83.398438"/>
       <use xlink:href="#ArialMT-35" x="139.013672"/>
      </g>
     </g>
    </g>
    <g id="text_42">
     <!-- Density -->
     <g style="fill: #262626" transform="translate(448.890966 186.798125) rotate(-90) scale(0.14 -0.14)">
      <use xlink:href="#ArialMT-44"/>
      <use xlink:href="#ArialMT-65" x="72.216797"/>
      <use xlink:href="#ArialMT-6e" x="127.832031"/>
      <use xlink:href="#ArialMT-73" x="183.447266"/>
      <use xlink:href="#ArialMT-69" x="233.447266"/>
      <use xlink:href="#ArialMT-74" x="255.664062"/>
      <use xlink:href="#ArialMT-79" x="283.447266"/>
     </g>
    </g>
   </g>
   <g id="line2d_43">
    <path d="M 525.339788 98.368212 
L 525.662921 98.239394 
L 525.986054 98.338113 
L 526.309187 98.660564 
L 526.713104 99.37059 
L 527.278587 100.915075 
L 527.924853 103.41603 
L 528.732685 107.528557 
L 529.782868 114.218414 
L 531.236966 125.125202 
L 534.064381 146.55985 
L 535.114563 152.829965 
L 535.922396 156.521396 
L 536.568662 158.631239 
L 537.134145 159.799342 
L 537.538061 160.223933 
L 537.861194 160.309695 
L 538.184327 160.16562 
L 538.588243 159.65867 
L 539.072943 158.568717 
L 539.638426 156.637029 
L 540.284692 153.578945 
L 541.092524 148.545494 
L 542.061924 140.902119 
L 543.273673 129.338227 
L 545.050904 109.888097 
L 547.635969 81.800845 
L 548.847718 71.007348 
L 549.817117 64.255397 
L 550.624949 60.165052 
L 551.271216 57.997632 
L 551.755915 57.047083 
L 552.159831 56.705727 
L 552.482964 56.729269 
L 552.806098 57.015788 
L 553.210014 57.740235 
L 553.694713 59.136376 
L 554.260196 61.465862 
L 554.987246 65.500736 
L 555.875861 71.850724 
L 557.006827 81.759035 
L 558.703276 98.974552 
L 561.207557 124.314585 
L 562.419306 134.311717 
L 563.307922 140.029587 
L 564.034971 143.494825 
L 564.681237 145.570868 
L 565.165937 146.477242 
L 565.569853 146.79663 
L 565.892986 146.764552 
L 566.216119 146.476932 
L 566.620035 145.76063 
L 567.104735 144.38648 
L 567.670218 142.096331 
L 568.397267 138.127061 
L 569.285883 131.867234 
L 570.416849 122.064188 
L 572.032514 105.778245 
L 574.779145 77.985241 
L 575.910111 68.72794 
L 576.798727 63.039122 
L 577.525776 59.620054 
L 578.172042 57.605729 
L 578.656742 56.759791 
L 578.979875 56.519707 
L 579.303008 56.540895 
L 579.626141 56.823533 
L 580.030057 57.542351 
L 580.514757 58.932865 
L 581.080239 61.261009 
L 581.807289 65.309274 
L 582.695905 71.710942 
L 583.746087 80.987435 
L 585.280969 96.788219 
L 588.5123 130.642474 
L 589.643265 140.096135 
L 590.612664 146.405351 
L 591.339714 149.868834 
L 591.98598 151.959818 
L 592.470679 152.89567 
L 592.874596 153.255824 
L 593.197729 153.269054 
L 593.520862 153.039563 
L 593.924778 152.415981 
L 594.409478 151.185701 
L 594.974961 149.113057 
L 595.70201 145.509615 
L 596.590626 139.838986 
L 597.721592 131.022346 
L 599.498823 115.106708 
L 601.679971 96.016432 
L 602.810937 87.980495 
L 603.699553 83.141079 
L 604.426602 80.346411 
L 604.992085 78.975123 
L 605.396001 78.450146 
L 605.719135 78.311294 
L 606.042268 78.426717 
L 606.042268 78.426717 
" clip-path="url(#p6a387eec60)" style="fill: none; stroke: #440154; stroke-opacity: 0.8; stroke-width: 2; stroke-linecap: round"/>
   </g>
   <g id="line2d_44">
    <path d="M 498.438962 276.100861 
L 499.758422 274.088 
L 500.889387 271.95758 
L 502.020353 269.356046 
L 503.151319 266.185286 
L 504.282284 262.346297 
L 505.41325 257.7452 
L 506.73271 251.306044 
L 508.05217 243.624713 
L 509.37163 234.660581 
L 510.879584 222.885856 
L 512.576033 207.908936 
L 515.026458 184.045773 
L 518.796344 147.277808 
L 520.492792 133.120714 
L 521.812252 123.976563 
L 522.943218 117.706053 
L 523.885689 113.683593 
L 524.639667 111.276199 
L 525.393644 109.585174 
L 525.959127 108.774039 
L 526.524609 108.33731 
L 527.090092 108.253324 
L 527.655575 108.495118 
L 528.221058 109.030741 
L 528.975035 110.138223 
L 529.917506 112.015318 
L 531.425461 115.646634 
L 533.121909 119.61132 
L 534.064381 121.282023 
L 534.818358 122.159642 
L 535.383841 122.48705 
L 535.949323 122.492092 
L 536.326312 122.301694 
L 536.891795 121.707406 
L 537.457278 120.726132 
L 538.02276 119.345328 
L 538.776738 116.874045 
L 539.719209 112.784958 
L 540.66168 107.645165 
L 541.792646 100.256559 
L 543.3006 88.831792 
L 547.824463 53.295395 
L 548.955429 46.560654 
L 549.8979 42.220429 
L 550.651877 39.704478 
L 551.21736 38.417653 
L 551.782843 37.665384 
L 552.159831 37.466023 
L 552.53682 37.509748 
L 552.913809 37.795972 
L 553.290797 38.322547 
L 553.85628 39.554577 
L 554.421763 41.299922 
L 555.17574 44.379309 
L 556.118211 49.320198 
L 557.249177 56.581156 
L 558.757131 67.828825 
L 562.527017 96.829372 
L 563.846477 105.00288 
L 564.788948 109.700799 
L 565.73142 113.31565 
L 566.485397 115.387117 
L 567.050879 116.457812 
L 567.616362 117.121501 
L 568.181845 117.391968 
L 568.558834 117.363648 
L 569.124317 117.027212 
L 569.689799 116.36554 
L 570.443777 115.039832 
L 571.386248 112.80869 
L 572.705708 109.001634 
L 575.156133 101.832746 
L 576.098605 99.721684 
L 576.852582 98.502775 
L 577.418065 97.917329 
L 577.983548 97.645708 
L 578.360536 97.650506 
L 578.737525 97.810405 
L 579.303008 98.349821 
L 579.86849 99.256181 
L 580.622468 101.039333 
L 581.376445 103.468692 
L 582.318916 107.368463 
L 583.449882 113.18489 
L 584.769342 121.239821 
L 586.842779 135.563625 
L 589.858687 156.292345 
L 591.366642 165.048858 
L 592.497607 170.483925 
L 593.628573 174.816759 
L 594.571044 177.557616 
L 595.325021 179.19275 
L 596.078999 180.359764 
L 596.832976 181.097833 
L 597.398458 181.39993 
L 598.152436 181.51484 
L 598.906413 181.361625 
L 599.848884 180.902826 
L 603.053287 179.034663 
L 603.807264 178.935247 
L 604.561241 179.094654 
L 605.315218 179.560227 
L 606.069195 180.369228 
L 606.823172 181.548149 
L 607.57715 183.112373 
L 608.519621 185.614973 
L 609.650587 189.397518 
L 610.970047 194.789889 
L 612.478001 202.01197 
L 614.739932 214.178798 
L 618.509818 234.632019 
L 620.206266 242.691731 
L 621.714221 248.888417 
L 623.03368 253.488857 
L 624.35314 257.322924 
L 625.6726 260.439793 
L 626.99206 262.924336 
L 628.31152 264.884627 
L 629.63098 266.439321 
L 631.138934 267.869931 
L 633.212372 269.506374 
L 639.244188 274.111086 
L 643.391063 277.330048 
L 645.4645 278.643799 
L 647.160948 279.472944 
L 648.857397 280.057384 
L 650.553845 280.408057 
L 652.438788 280.571904 
L 655.077708 280.559197 
L 659.224582 280.531606 
L 661.675008 280.756323 
L 664.313928 281.237755 
L 671.099722 282.639571 
L 673.173159 282.76978 
L 675.246596 282.676883 
L 677.508527 282.352612 
L 684.859804 281.080409 
L 686.744747 281.092215 
L 686.744747 281.092215 
" clip-path="url(#p6a387eec60)" style="fill: none; stroke: #414487; stroke-opacity: 0.8; stroke-width: 2; stroke-linecap: round"/>
   </g>
   <g id="line2d_45">
    <path d="M 498.438962 239.907489 
L 500.162338 233.365169 
L 501.885714 225.968079 
L 503.609091 217.64349 
L 505.547889 207.131428 
L 507.702109 194.079398 
L 510.071752 178.310325 
L 514.380192 147.730371 
L 517.396101 127.134675 
L 519.334899 115.309312 
L 521.058275 106.184107 
L 522.56623 99.478802 
L 523.858762 94.77066 
L 524.935872 91.605321 
L 526.012982 89.128123 
L 526.87467 87.629458 
L 527.736358 86.54173 
L 528.598046 85.841263 
L 529.244313 85.552691 
L 529.890579 85.451584 
L 530.752267 85.581806 
L 531.613955 85.979137 
L 532.691065 86.789088 
L 533.983597 88.113193 
L 535.706974 90.253134 
L 540.446258 96.355573 
L 542.385057 98.419629 
L 544.539277 100.382227 
L 549.06314 104.357812 
L 550.786516 106.26995 
L 552.29447 108.283235 
L 553.802424 110.660803 
L 555.525801 113.82949 
L 557.464599 117.902511 
L 560.265085 124.407901 
L 564.573526 134.456793 
L 566.727746 138.931758 
L 568.666545 142.502562 
L 570.820765 146.00398 
L 573.836674 150.417974 
L 576.852582 154.92606 
L 578.79138 158.216609 
L 580.730179 161.9793 
L 582.668977 166.267629 
L 584.823197 171.608087 
L 587.623684 179.198595 
L 593.440079 195.106844 
L 595.809721 200.852273 
L 597.963941 205.508726 
L 600.118162 209.638212 
L 602.487804 213.675535 
L 605.28829 217.986374 
L 610.027575 224.800677 
L 615.413126 232.219448 
L 618.429034 236.001336 
L 621.014099 238.881039 
L 623.599163 241.4038 
L 626.615072 243.99746 
L 632.862311 249.25251 
L 635.447375 251.81222 
L 638.03244 254.719621 
L 641.048348 258.494012 
L 649.665229 269.575506 
L 652.034872 272.147584 
L 654.189092 274.182966 
L 656.343312 275.917008 
L 658.497533 277.359418 
L 660.651753 278.534138 
L 663.021395 279.553764 
L 665.391038 280.32783 
L 667.976102 280.934592 
L 670.776589 281.35456 
L 673.792497 281.574514 
L 677.23925 281.587124 
L 681.332268 281.359045 
L 686.286975 280.8486 
L 691.02626 280.151792 
L 695.119278 279.333928 
L 699.427719 278.239365 
L 706.321224 276.44228 
L 708.906289 276.021758 
L 711.060509 275.885373 
L 712.999307 275.966343 
L 713.645573 276.039861 
L 713.645573 276.039861 
" clip-path="url(#p6a387eec60)" style="fill: none; stroke: #2a788e; stroke-opacity: 0.8; stroke-width: 2; stroke-linecap: round"/>
   </g>
   <g id="line2d_46">
    <path d="M 498.438962 222.327514 
L 500.86246 211.770189 
L 503.555235 198.923763 
L 506.517288 183.671668 
L 517.019112 128.385331 
L 519.173333 118.85226 
L 521.058275 111.539117 
L 522.673941 106.143754 
L 524.020328 102.309902 
L 525.366716 99.100505 
L 526.713104 96.522963 
L 527.790214 94.912721 
L 528.867324 93.695461 
L 529.944434 92.858448 
L 530.752267 92.470307 
L 531.560099 92.278403 
L 532.367932 92.273504 
L 533.175765 92.445635 
L 534.252875 92.932234 
L 535.329985 93.688737 
L 536.676373 94.973429 
L 538.02276 96.586846 
L 539.638426 98.887557 
L 541.523368 101.976396 
L 543.946866 106.426917 
L 546.908919 112.368417 
L 550.948082 121.022188 
L 556.602911 133.733666 
L 566.56618 156.22014 
L 571.143898 165.920254 
L 575.990894 175.654415 
L 582.722832 188.63215 
L 589.185493 200.663018 
L 593.224657 207.724478 
L 596.455987 212.938667 
L 599.41804 217.293133 
L 602.110815 220.866077 
L 604.803591 224.067132 
L 607.496366 226.910202 
L 610.189142 229.421161 
L 612.881917 231.633211 
L 615.84397 233.767438 
L 619.075301 235.807142 
L 623.114464 238.073462 
L 632.000623 242.967657 
L 635.501231 245.205504 
L 639.001839 247.708251 
L 643.041002 250.889772 
L 648.69583 255.673063 
L 675.354307 278.580303 
L 678.854915 281.149276 
L 681.816968 283.067023 
L 684.779021 284.713673 
L 687.471796 285.962392 
L 690.164572 286.97629 
L 692.857347 287.767425 
L 695.8194 288.403055 
L 699.050731 288.849667 
L 702.282061 289.074621 
L 705.782669 289.103487 
L 709.552555 288.915243 
L 713.591718 288.485262 
L 717.900159 287.788598 
L 722.477877 286.81334 
L 728.132705 285.35963 
L 741.058027 281.694796 
L 748.867076 279.632127 
L 753.983349 278.498606 
L 757.753235 277.886707 
L 760.984565 277.591639 
L 763.946618 277.558831 
L 766.639394 277.754525 
L 767.447226 277.857166 
L 767.447226 277.857166 
" clip-path="url(#p6a387eec60)" style="fill: none; stroke: #22a884; stroke-opacity: 0.8; stroke-width: 2; stroke-linecap: round"/>
   </g>
   <g id="line2d_47">
    <path d="M 498.438962 172.018256 
L 500.512399 167.800744 
L 502.585836 164.138387 
L 504.363068 161.426939 
L 506.140299 159.086302 
L 507.917531 157.084718 
L 509.694763 155.383561 
L 511.7682 153.720332 
L 513.841637 152.332982 
L 516.507485 150.835381 
L 520.358154 148.967185 
L 526.87467 145.804283 
L 538.130471 140.042282 
L 540.203909 139.338935 
L 541.98114 138.950679 
L 543.758372 138.807089 
L 545.239399 138.904262 
L 546.720425 139.221667 
L 548.201452 139.777961 
L 549.682478 140.58831 
L 551.163505 141.6639 
L 552.644531 143.011572 
L 554.125557 144.633589 
L 555.902789 146.938439 
L 557.680021 149.62177 
L 559.753458 153.201013 
L 561.826895 157.216711 
L 564.492743 162.921889 
L 567.751001 170.515925 
L 572.786491 182.93691 
L 578.414392 196.67129 
L 581.968855 204.756442 
L 584.930908 210.967324 
L 587.596756 216.083184 
L 590.262604 220.719059 
L 592.632246 224.426992 
L 595.001888 227.74745 
L 597.371531 230.68914 
L 599.741173 233.2669 
L 602.110815 235.500735 
L 604.480458 237.415109 
L 606.8501 239.038411 
L 609.219743 240.402516 
L 611.88559 241.670874 
L 614.847643 242.812355 
L 618.402107 243.915261 
L 624.030007 245.37732 
L 629.657908 246.909431 
L 633.508577 248.183057 
L 637.06304 249.582687 
L 640.913709 251.349046 
L 645.060583 253.50326 
L 650.688484 256.69985 
L 662.832901 263.662777 
L 668.757007 266.7542 
L 675.569729 270.039295 
L 688.898967 276.132721 
L 701.33959 281.684034 
L 706.671285 283.815783 
L 711.114364 285.366848 
L 715.261239 286.588315 
L 719.408113 287.575657 
L 723.554987 288.332546 
L 727.998066 288.907834 
L 732.737351 289.284955 
L 737.772841 289.451317 
L 742.808331 289.3903 
L 747.547616 289.11053 
L 751.990695 288.618833 
L 756.137569 287.923551 
L 759.988238 287.048365 
L 763.838907 285.943478 
L 767.985781 284.515289 
L 773.317477 282.417351 
L 781.611225 279.138317 
L 785.165689 277.995784 
L 788.127741 277.271651 
L 790.793589 276.838605 
L 793.459437 276.636922 
L 794.348053 276.623368 
L 794.348053 276.623368 
" clip-path="url(#p6a387eec60)" style="fill: none; stroke: #7ad151; stroke-opacity: 0.8; stroke-width: 2; stroke-linecap: round"/>
   </g>
   <g id="line2d_48">
    <path d="M 498.438962 160.992728 
L 500.37776 157.203432 
L 502.316558 153.890251 
L 504.255357 151.048345 
L 505.871022 149.028998 
L 507.486687 147.311798 
L 509.102352 145.878424 
L 510.718018 144.707344 
L 512.333683 143.774675 
L 514.272481 142.93446 
L 516.21128 142.356456 
L 518.150078 141.997225 
L 520.412009 141.801271 
L 522.997074 141.805431 
L 525.905271 142.029335 
L 529.136602 142.496202 
L 532.367932 143.190528 
L 535.27613 144.05634 
L 537.861194 145.079971 
L 540.123125 146.226247 
L 542.061924 147.433226 
L 544.000722 148.878788 
L 545.93952 150.589957 
L 547.878318 152.589304 
L 549.817117 154.893382 
L 551.755915 157.511458 
L 554.017846 160.963688 
L 556.279778 164.8311 
L 558.864842 169.720778 
L 561.77304 175.737012 
L 565.327503 183.643424 
L 577.929692 212.257264 
L 580.83789 218.070775 
L 583.422954 222.781927 
L 586.008018 227.01653 
L 588.26995 230.311989 
L 590.531881 233.221133 
L 592.793812 235.751135 
L 595.055744 237.918131 
L 597.317675 239.745599 
L 599.579607 241.262707 
L 601.841538 242.502703 
L 604.103469 243.501434 
L 606.688534 244.395075 
L 609.596731 245.15097 
L 613.151195 245.824075 
L 618.96759 246.648114 
L 624.783984 247.537121 
L 628.661581 248.342035 
L 632.216045 249.297552 
L 635.770508 250.488668 
L 639.324972 251.920071 
L 643.202568 253.737945 
L 647.403298 255.962173 
L 652.89656 259.148492 
L 666.791281 267.352781 
L 671.315144 269.700269 
L 675.515873 271.62112 
L 679.39347 273.142425 
L 683.271067 274.412365 
L 687.148663 275.440067 
L 691.349393 276.312224 
L 696.196389 277.080137 
L 704.920981 278.174215 
L 711.706775 279.130171 
L 717.200037 280.135292 
L 722.693299 281.373143 
L 730.125359 283.304785 
L 740.465617 285.974275 
L 745.958878 287.147649 
L 750.805874 287.96364 
L 755.65287 288.552028 
L 760.499866 288.907234 
L 765.346861 289.027903 
L 769.870724 288.923843 
L 774.394587 288.599148 
L 778.595316 288.086672 
L 782.796046 287.360446 
L 786.996776 286.419611 
L 791.520638 285.185962 
L 797.337033 283.351627 
L 807.677291 280.049331 
L 811.554888 279.068422 
L 814.786218 278.457031 
L 818.017549 278.073863 
L 820.925746 277.944656 
L 821.248879 277.943347 
L 821.248879 277.943347 
" clip-path="url(#p6a387eec60)" style="fill: none; stroke: #fde725; stroke-opacity: 0.8; stroke-width: 2; stroke-linecap: round"/>
   </g>
   <g id="patch_9">
    <path d="M 482.298466 302.0575 
L 482.298466 24.8575 
" style="fill: none; stroke: #cccccc; stroke-width: 0.8; stroke-linejoin: miter; stroke-linecap: square"/>
   </g>
   <g id="patch_10">
    <path d="M 837.389375 302.0575 
L 837.389375 24.8575 
" style="fill: none; stroke: #cccccc; stroke-width: 0.8; stroke-linejoin: miter; stroke-linecap: square"/>
   </g>
   <g id="patch_11">
    <path d="M 482.298466 302.0575 
L 837.389375 302.0575 
" style="fill: none; stroke: #cccccc; stroke-width: 0.8; stroke-linejoin: miter; stroke-linecap: square"/>
   </g>
   <g id="patch_12">
    <path d="M 482.298466 24.8575 
L 837.389375 24.8575 
" style="fill: none; stroke: #cccccc; stroke-width: 0.8; stroke-linejoin: miter; stroke-linecap: square"/>
   </g>
   <g id="text_43">
    <!-- Distribution of Capacities - SOURCE (PDF) -->
    <g style="fill: #262626" transform="translate(506.47767 18.8575) scale(0.16 -0.16)">
     <defs>
      <path id="ArialMT-53" d="M 288 1472 
L 859 1522 
Q 900 1178 1048 958 
Q 1197 738 1509 602 
Q 1822 466 2213 466 
Q 2559 466 2825 569 
Q 3091 672 3220 851 
Q 3350 1031 3350 1244 
Q 3350 1459 3225 1620 
Q 3100 1781 2813 1891 
Q 2628 1963 1997 2114 
Q 1366 2266 1113 2400 
Q 784 2572 623 2826 
Q 463 3081 463 3397 
Q 463 3744 659 4045 
Q 856 4347 1234 4503 
Q 1613 4659 2075 4659 
Q 2584 4659 2973 4495 
Q 3363 4331 3572 4012 
Q 3781 3694 3797 3291 
L 3216 3247 
Q 3169 3681 2898 3903 
Q 2628 4125 2100 4125 
Q 1550 4125 1298 3923 
Q 1047 3722 1047 3438 
Q 1047 3191 1225 3031 
Q 1400 2872 2139 2705 
Q 2878 2538 3153 2413 
Q 3553 2228 3743 1945 
Q 3934 1663 3934 1294 
Q 3934 928 3725 604 
Q 3516 281 3123 101 
Q 2731 -78 2241 -78 
Q 1619 -78 1198 103 
Q 778 284 539 648 
Q 300 1013 288 1472 
z
" transform="scale(0.015625)"/>
      <path id="ArialMT-4f" d="M 309 2231 
Q 309 3372 921 4017 
Q 1534 4663 2503 4663 
Q 3138 4663 3647 4359 
Q 4156 4056 4423 3514 
Q 4691 2972 4691 2284 
Q 4691 1588 4409 1038 
Q 4128 488 3612 205 
Q 3097 -78 2500 -78 
Q 1853 -78 1343 234 
Q 834 547 571 1087 
Q 309 1628 309 2231 
z
M 934 2222 
Q 934 1394 1379 917 
Q 1825 441 2497 441 
Q 3181 441 3623 922 
Q 4066 1403 4066 2288 
Q 4066 2847 3877 3264 
Q 3688 3681 3323 3911 
Q 2959 4141 2506 4141 
Q 1863 4141 1398 3698 
Q 934 3256 934 2222 
z
" transform="scale(0.015625)"/>
      <path id="ArialMT-55" d="M 3500 4581 
L 4106 4581 
L 4106 1934 
Q 4106 1244 3950 837 
Q 3794 431 3386 176 
Q 2978 -78 2316 -78 
Q 1672 -78 1262 144 
Q 853 366 678 786 
Q 503 1206 503 1934 
L 503 4581 
L 1109 4581 
L 1109 1938 
Q 1109 1341 1220 1058 
Q 1331 775 1601 622 
Q 1872 469 2263 469 
Q 2931 469 3215 772 
Q 3500 1075 3500 1938 
L 3500 4581 
z
" transform="scale(0.015625)"/>
      <path id="ArialMT-52" d="M 503 0 
L 503 4581 
L 2534 4581 
Q 3147 4581 3465 4457 
Q 3784 4334 3975 4021 
Q 4166 3709 4166 3331 
Q 4166 2844 3850 2509 
Q 3534 2175 2875 2084 
Q 3116 1969 3241 1856 
Q 3506 1613 3744 1247 
L 4541 0 
L 3778 0 
L 3172 953 
Q 2906 1366 2734 1584 
Q 2563 1803 2427 1890 
Q 2291 1978 2150 2013 
Q 2047 2034 1813 2034 
L 1109 2034 
L 1109 0 
L 503 0 
z
M 1109 2559 
L 2413 2559 
Q 2828 2559 3062 2645 
Q 3297 2731 3419 2920 
Q 3541 3109 3541 3331 
Q 3541 3656 3305 3865 
Q 3069 4075 2559 4075 
L 1109 4075 
L 1109 2559 
z
" transform="scale(0.015625)"/>
      <path id="ArialMT-45" d="M 506 0 
L 506 4581 
L 3819 4581 
L 3819 4041 
L 1113 4041 
L 1113 2638 
L 3647 2638 
L 3647 2100 
L 1113 2100 
L 1113 541 
L 3925 541 
L 3925 0 
L 506 0 
z
" transform="scale(0.015625)"/>
     </defs>
     <use xlink:href="#ArialMT-44"/>
     <use xlink:href="#ArialMT-69" x="72.216797"/>
     <use xlink:href="#ArialMT-73" x="94.433594"/>
     <use xlink:href="#ArialMT-74" x="144.433594"/>
     <use xlink:href="#ArialMT-72" x="172.216797"/>
     <use xlink:href="#ArialMT-69" x="205.517578"/>
     <use xlink:href="#ArialMT-62" x="227.734375"/>
     <use xlink:href="#ArialMT-75" x="283.349609"/>
     <use xlink:href="#ArialMT-74" x="338.964844"/>
     <use xlink:href="#ArialMT-69" x="366.748047"/>
     <use xlink:href="#ArialMT-6f" x="388.964844"/>
     <use xlink:href="#ArialMT-6e" x="444.580078"/>
     <use xlink:href="#ArialMT-20" x="500.195312"/>
     <use xlink:href="#ArialMT-6f" x="527.978516"/>
     <use xlink:href="#ArialMT-66" x="583.59375"/>
     <use xlink:href="#ArialMT-20" x="611.376953"/>
     <use xlink:href="#ArialMT-43" x="639.160156"/>
     <use xlink:href="#ArialMT-61" x="711.376953"/>
     <use xlink:href="#ArialMT-70" x="766.992188"/>
     <use xlink:href="#ArialMT-61" x="822.607422"/>
     <use xlink:href="#ArialMT-63" x="878.222656"/>
     <use xlink:href="#ArialMT-69" x="928.222656"/>
     <use xlink:href="#ArialMT-74" x="950.439453"/>
     <use xlink:href="#ArialMT-69" x="978.222656"/>
     <use xlink:href="#ArialMT-65" x="1000.439453"/>
     <use xlink:href="#ArialMT-73" x="1056.054688"/>
     <use xlink:href="#ArialMT-20" x="1106.054688"/>
     <use xlink:href="#ArialMT-2d" x="1133.837891"/>
     <use xlink:href="#ArialMT-20" x="1167.138672"/>
     <use xlink:href="#ArialMT-53" x="1194.921875"/>
     <use xlink:href="#ArialMT-4f" x="1261.621094"/>
     <use xlink:href="#ArialMT-55" x="1339.404297"/>
     <use xlink:href="#ArialMT-52" x="1411.621094"/>
     <use xlink:href="#ArialMT-43" x="1483.837891"/>
     <use xlink:href="#ArialMT-45" x="1556.054688"/>
     <use xlink:href="#ArialMT-20" x="1622.753906"/>
     <use xlink:href="#ArialMT-28" x="1650.537109"/>
     <use xlink:href="#ArialMT-50" x="1683.837891"/>
     <use xlink:href="#ArialMT-44" x="1750.537109"/>
     <use xlink:href="#ArialMT-46" x="1822.753906"/>
     <use xlink:href="#ArialMT-29" x="1883.837891"/>
    </g>
   </g>
   <g id="legend_2">
    <g id="patch_13">
     <path d="M 783.91625 151.449063 
L 828.989375 151.449063 
Q 831.389375 151.449063 831.389375 149.049063 
L 831.389375 33.2575 
Q 831.389375 30.8575 828.989375 30.8575 
L 783.91625 30.8575 
Q 781.51625 30.8575 781.51625 33.2575 
L 781.51625 149.049063 
Q 781.51625 151.449063 783.91625 151.449063 
z
" style="fill: #ffffff; opacity: 0.8; stroke: #cccccc; stroke-linejoin: miter"/>
    </g>
    <g id="text_44">
     <!-- median -->
     <g style="fill: #262626" transform="translate(790.055156 42.815313) scale(0.1 -0.1)">
      <use xlink:href="#ArialMT-6d"/>
      <use xlink:href="#ArialMT-65" x="83.300781"/>
      <use xlink:href="#ArialMT-64" x="138.916016"/>
      <use xlink:href="#ArialMT-69" x="194.53125"/>
      <use xlink:href="#ArialMT-61" x="216.748047"/>
      <use xlink:href="#ArialMT-6e" x="272.363281"/>
     </g>
    </g>
    <g id="line2d_49">
     <path d="M 786.31625 55.192188 
L 798.31625 55.192188 
L 810.31625 55.192188 
" style="fill: none; stroke: #440154; stroke-opacity: 0.8; stroke-width: 2; stroke-linecap: round"/>
    </g>
    <g id="text_45">
     <!-- 3 -->
     <g style="fill: #262626" transform="translate(819.91625 59.392188) scale(0.12 -0.12)">
      <use xlink:href="#ArialMT-33"/>
     </g>
    </g>
    <g id="line2d_50">
     <path d="M 786.31625 72.166563 
L 798.31625 72.166563 
L 810.31625 72.166563 
" style="fill: none; stroke: #414487; stroke-opacity: 0.8; stroke-width: 2; stroke-linecap: round"/>
    </g>
    <g id="text_46">
     <!-- 2 -->
     <g style="fill: #262626" transform="translate(819.91625 76.366563) scale(0.12 -0.12)">
      <use xlink:href="#ArialMT-32"/>
     </g>
    </g>
    <g id="line2d_51">
     <path d="M 786.31625 89.140938 
L 798.31625 89.140938 
L 810.31625 89.140938 
" style="fill: none; stroke: #2a788e; stroke-opacity: 0.8; stroke-width: 2; stroke-linecap: round"/>
    </g>
    <g id="text_47">
     <!-- 2 -->
     <g style="fill: #262626" transform="translate(819.91625 93.340938) scale(0.12 -0.12)">
      <use xlink:href="#ArialMT-32"/>
     </g>
    </g>
    <g id="line2d_52">
     <path d="M 786.31625 106.115313 
L 798.31625 106.115313 
L 810.31625 106.115313 
" style="fill: none; stroke: #22a884; stroke-opacity: 0.8; stroke-width: 2; stroke-linecap: round"/>
    </g>
    <g id="text_48">
     <!-- 2 -->
     <g style="fill: #262626" transform="translate(819.91625 110.315313) scale(0.12 -0.12)">
      <use xlink:href="#ArialMT-32"/>
     </g>
    </g>
    <g id="line2d_53">
     <path d="M 786.31625 123.089688 
L 798.31625 123.089688 
L 810.31625 123.089688 
" style="fill: none; stroke: #7ad151; stroke-opacity: 0.8; stroke-width: 2; stroke-linecap: round"/>
    </g>
    <g id="text_49">
     <!-- 2 -->
     <g style="fill: #262626" transform="translate(819.91625 127.289688) scale(0.12 -0.12)">
      <use xlink:href="#ArialMT-32"/>
     </g>
    </g>
    <g id="line2d_54">
     <path d="M 786.31625 140.064063 
L 798.31625 140.064063 
L 810.31625 140.064063 
" style="fill: none; stroke: #fde725; stroke-opacity: 0.8; stroke-width: 2; stroke-linecap: round"/>
    </g>
    <g id="text_50">
     <!-- 2 -->
     <g style="fill: #262626" transform="translate(819.91625 144.264063) scale(0.12 -0.12)">
      <use xlink:href="#ArialMT-32"/>
     </g>
    </g>
   </g>
  </g>
 </g>
 <defs>
  <clipPath id="p350dfc521d">
   <rect x="56.189375" y="24.8575" width="355.090909" height="277.2"/>
  </clipPath>
  <clipPath id="p6a387eec60">
   <rect x="482.298466" y="24.8575" width="355.090909" height="277.2"/>
  </clipPath>
 </defs>
</svg>
