<?xml version="1.0" encoding="utf-8" standalone="no"?>
<!DOCTYPE svg PUBLIC "-//W3C//DTD SVG 1.1//EN"
  "http://www.w3.org/Graphics/SVG/1.1/DTD/svg11.dtd">
<svg xmlns:xlink="http://www.w3.org/1999/xlink" width="844.589375pt" height="342.20625pt" viewBox="0 0 844.589375 342.20625" xmlns="http://www.w3.org/2000/svg" version="1.1">
 <metadata>
  <rdf:RDF xmlns:dc="http://purl.org/dc/elements/1.1/" xmlns:cc="http://creativecommons.org/ns#" xmlns:rdf="http://www.w3.org/1999/02/22-rdf-syntax-ns#">
   <cc:Work>
    <dc:type rdf:resource="http://purl.org/dc/dcmitype/StillImage"/>
    <dc:date>2025-03-03T14:37:32.904178</dc:date>
    <dc:format>image/svg+xml</dc:format>
    <dc:creator>
     <cc:Agent>
      <dc:title>Matplotlib v3.9.0, https://matplotlib.org/</dc:title>
     </cc:Agent>
    </dc:creator>
   </cc:Work>
  </rdf:RDF>
 </metadata>
 <defs>
  <style type="text/css">*{stroke-linejoin: round; stroke-linecap: butt}</style>
 </defs>
 <g id="figure_1">
  <g id="patch_1">
   <path d="M 0 342.20625 
L 844.589375 342.20625 
L 844.589375 0 
L 0 0 
z
" style="fill: #ffffff"/>
  </g>
  <g id="axes_1">
   <g id="patch_2">
    <path d="M 56.189375 302.0575 
L 411.280284 302.0575 
L 411.280284 24.8575 
L 56.189375 24.8575 
z
" style="fill: #ffffff"/>
   </g>
   <g id="matplotlib.axis_1">
    <g id="xtick_1">
     <g id="line2d_1">
      <path d="M 72.329871 302.0575 
L 72.329871 24.8575 
" clip-path="url(#p2129c54b21)" style="fill: none; stroke: #cccccc; stroke-width: 0.8; stroke-linecap: round"/>
     </g>
     <g id="text_1">
      <!-- 0 -->
      <g style="fill: #262626" transform="translate(69.549402 316.215313) scale(0.1 -0.1)">
       <defs>
        <path id="ArialMT-30" d="M 266 2259 
Q 266 3072 433 3567 
Q 600 4063 929 4331 
Q 1259 4600 1759 4600 
Q 2128 4600 2406 4451 
Q 2684 4303 2865 4023 
Q 3047 3744 3150 3342 
Q 3253 2941 3253 2259 
Q 3253 1453 3087 958 
Q 2922 463 2592 192 
Q 2263 -78 1759 -78 
Q 1097 -78 719 397 
Q 266 969 266 2259 
z
M 844 2259 
Q 844 1131 1108 757 
Q 1372 384 1759 384 
Q 2147 384 2411 759 
Q 2675 1134 2675 2259 
Q 2675 3391 2411 3762 
Q 2147 4134 1753 4134 
Q 1366 4134 1134 3806 
Q 844 3388 844 2259 
z
" transform="scale(0.015625)"/>
       </defs>
       <use xlink:href="#ArialMT-30"/>
      </g>
     </g>
    </g>
    <g id="xtick_2">
     <g id="line2d_2">
      <path d="M 123.732724 302.0575 
L 123.732724 24.8575 
" clip-path="url(#p2129c54b21)" style="fill: none; stroke: #cccccc; stroke-width: 0.8; stroke-linecap: round"/>
     </g>
     <g id="text_2">
      <!-- 100 -->
      <g style="fill: #262626" transform="translate(115.391318 316.215313) scale(0.1 -0.1)">
       <defs>
        <path id="ArialMT-31" d="M 2384 0 
L 1822 0 
L 1822 3584 
Q 1619 3391 1289 3197 
Q 959 3003 697 2906 
L 697 3450 
Q 1169 3672 1522 3987 
Q 1875 4303 2022 4600 
L 2384 4600 
L 2384 0 
z
" transform="scale(0.015625)"/>
       </defs>
       <use xlink:href="#ArialMT-31"/>
       <use xlink:href="#ArialMT-30" x="55.615234"/>
       <use xlink:href="#ArialMT-30" x="111.230469"/>
      </g>
     </g>
    </g>
    <g id="xtick_3">
     <g id="line2d_3">
      <path d="M 175.135577 302.0575 
L 175.135577 24.8575 
" clip-path="url(#p2129c54b21)" style="fill: none; stroke: #cccccc; stroke-width: 0.8; stroke-linecap: round"/>
     </g>
     <g id="text_3">
      <!-- 200 -->
      <g style="fill: #262626" transform="translate(166.794171 316.215313) scale(0.1 -0.1)">
       <defs>
        <path id="ArialMT-32" d="M 3222 541 
L 3222 0 
L 194 0 
Q 188 203 259 391 
Q 375 700 629 1000 
Q 884 1300 1366 1694 
Q 2113 2306 2375 2664 
Q 2638 3022 2638 3341 
Q 2638 3675 2398 3904 
Q 2159 4134 1775 4134 
Q 1369 4134 1125 3890 
Q 881 3647 878 3216 
L 300 3275 
Q 359 3922 746 4261 
Q 1134 4600 1788 4600 
Q 2447 4600 2831 4234 
Q 3216 3869 3216 3328 
Q 3216 3053 3103 2787 
Q 2991 2522 2730 2228 
Q 2469 1934 1863 1422 
Q 1356 997 1212 845 
Q 1069 694 975 541 
L 3222 541 
z
" transform="scale(0.015625)"/>
       </defs>
       <use xlink:href="#ArialMT-32"/>
       <use xlink:href="#ArialMT-30" x="55.615234"/>
       <use xlink:href="#ArialMT-30" x="111.230469"/>
      </g>
     </g>
    </g>
    <g id="xtick_4">
     <g id="line2d_4">
      <path d="M 226.53843 302.0575 
L 226.53843 24.8575 
" clip-path="url(#p2129c54b21)" style="fill: none; stroke: #cccccc; stroke-width: 0.8; stroke-linecap: round"/>
     </g>
     <g id="text_4">
      <!-- 300 -->
      <g style="fill: #262626" transform="translate(218.197024 316.215313) scale(0.1 -0.1)">
       <defs>
        <path id="ArialMT-33" d="M 269 1209 
L 831 1284 
Q 928 806 1161 595 
Q 1394 384 1728 384 
Q 2125 384 2398 659 
Q 2672 934 2672 1341 
Q 2672 1728 2419 1979 
Q 2166 2231 1775 2231 
Q 1616 2231 1378 2169 
L 1441 2663 
Q 1497 2656 1531 2656 
Q 1891 2656 2178 2843 
Q 2466 3031 2466 3422 
Q 2466 3731 2256 3934 
Q 2047 4138 1716 4138 
Q 1388 4138 1169 3931 
Q 950 3725 888 3313 
L 325 3413 
Q 428 3978 793 4289 
Q 1159 4600 1703 4600 
Q 2078 4600 2393 4439 
Q 2709 4278 2876 4000 
Q 3044 3722 3044 3409 
Q 3044 3113 2884 2869 
Q 2725 2625 2413 2481 
Q 2819 2388 3044 2092 
Q 3269 1797 3269 1353 
Q 3269 753 2831 336 
Q 2394 -81 1725 -81 
Q 1122 -81 723 278 
Q 325 638 269 1209 
z
" transform="scale(0.015625)"/>
       </defs>
       <use xlink:href="#ArialMT-33"/>
       <use xlink:href="#ArialMT-30" x="55.615234"/>
       <use xlink:href="#ArialMT-30" x="111.230469"/>
      </g>
     </g>
    </g>
    <g id="xtick_5">
     <g id="line2d_5">
      <path d="M 277.941283 302.0575 
L 277.941283 24.8575 
" clip-path="url(#p2129c54b21)" style="fill: none; stroke: #cccccc; stroke-width: 0.8; stroke-linecap: round"/>
     </g>
     <g id="text_5">
      <!-- 400 -->
      <g style="fill: #262626" transform="translate(269.599877 316.215313) scale(0.1 -0.1)">
       <defs>
        <path id="ArialMT-34" d="M 2069 0 
L 2069 1097 
L 81 1097 
L 81 1613 
L 2172 4581 
L 2631 4581 
L 2631 1613 
L 3250 1613 
L 3250 1097 
L 2631 1097 
L 2631 0 
L 2069 0 
z
M 2069 1613 
L 2069 3678 
L 634 1613 
L 2069 1613 
z
" transform="scale(0.015625)"/>
       </defs>
       <use xlink:href="#ArialMT-34"/>
       <use xlink:href="#ArialMT-30" x="55.615234"/>
       <use xlink:href="#ArialMT-30" x="111.230469"/>
      </g>
     </g>
    </g>
    <g id="xtick_6">
     <g id="line2d_6">
      <path d="M 329.344136 302.0575 
L 329.344136 24.8575 
" clip-path="url(#p2129c54b21)" style="fill: none; stroke: #cccccc; stroke-width: 0.8; stroke-linecap: round"/>
     </g>
     <g id="text_6">
      <!-- 500 -->
      <g style="fill: #262626" transform="translate(321.00273 316.215313) scale(0.1 -0.1)">
       <defs>
        <path id="ArialMT-35" d="M 266 1200 
L 856 1250 
Q 922 819 1161 601 
Q 1400 384 1738 384 
Q 2144 384 2425 690 
Q 2706 997 2706 1503 
Q 2706 1984 2436 2262 
Q 2166 2541 1728 2541 
Q 1456 2541 1237 2417 
Q 1019 2294 894 2097 
L 366 2166 
L 809 4519 
L 3088 4519 
L 3088 3981 
L 1259 3981 
L 1013 2750 
Q 1425 3038 1878 3038 
Q 2478 3038 2890 2622 
Q 3303 2206 3303 1553 
Q 3303 931 2941 478 
Q 2500 -78 1738 -78 
Q 1113 -78 717 272 
Q 322 622 266 1200 
z
" transform="scale(0.015625)"/>
       </defs>
       <use xlink:href="#ArialMT-35"/>
       <use xlink:href="#ArialMT-30" x="55.615234"/>
       <use xlink:href="#ArialMT-30" x="111.230469"/>
      </g>
     </g>
    </g>
    <g id="xtick_7">
     <g id="line2d_7">
      <path d="M 380.746989 302.0575 
L 380.746989 24.8575 
" clip-path="url(#p2129c54b21)" style="fill: none; stroke: #cccccc; stroke-width: 0.8; stroke-linecap: round"/>
     </g>
     <g id="text_7">
      <!-- 600 -->
      <g style="fill: #262626" transform="translate(372.405583 316.215313) scale(0.1 -0.1)">
       <defs>
        <path id="ArialMT-36" d="M 3184 3459 
L 2625 3416 
Q 2550 3747 2413 3897 
Q 2184 4138 1850 4138 
Q 1581 4138 1378 3988 
Q 1113 3794 959 3422 
Q 806 3050 800 2363 
Q 1003 2672 1297 2822 
Q 1591 2972 1913 2972 
Q 2475 2972 2870 2558 
Q 3266 2144 3266 1488 
Q 3266 1056 3080 686 
Q 2894 316 2569 119 
Q 2244 -78 1831 -78 
Q 1128 -78 684 439 
Q 241 956 241 2144 
Q 241 3472 731 4075 
Q 1159 4600 1884 4600 
Q 2425 4600 2770 4297 
Q 3116 3994 3184 3459 
z
M 888 1484 
Q 888 1194 1011 928 
Q 1134 663 1356 523 
Q 1578 384 1822 384 
Q 2178 384 2434 671 
Q 2691 959 2691 1453 
Q 2691 1928 2437 2201 
Q 2184 2475 1800 2475 
Q 1419 2475 1153 2201 
Q 888 1928 888 1484 
z
" transform="scale(0.015625)"/>
       </defs>
       <use xlink:href="#ArialMT-36"/>
       <use xlink:href="#ArialMT-30" x="55.615234"/>
       <use xlink:href="#ArialMT-30" x="111.230469"/>
      </g>
     </g>
    </g>
    <g id="text_8">
     <!-- Value -->
     <g style="fill: #262626" transform="translate(216.34858 332.22375) scale(0.14 -0.14)">
      <defs>
       <path id="ArialMT-56" d="M 1803 0 
L 28 4581 
L 684 4581 
L 1875 1253 
Q 2019 853 2116 503 
Q 2222 878 2363 1253 
L 3600 4581 
L 4219 4581 
L 2425 0 
L 1803 0 
z
" transform="scale(0.015625)"/>
       <path id="ArialMT-61" d="M 2588 409 
Q 2275 144 1986 34 
Q 1697 -75 1366 -75 
Q 819 -75 525 192 
Q 231 459 231 875 
Q 231 1119 342 1320 
Q 453 1522 633 1644 
Q 813 1766 1038 1828 
Q 1203 1872 1538 1913 
Q 2219 1994 2541 2106 
Q 2544 2222 2544 2253 
Q 2544 2597 2384 2738 
Q 2169 2928 1744 2928 
Q 1347 2928 1158 2789 
Q 969 2650 878 2297 
L 328 2372 
Q 403 2725 575 2942 
Q 747 3159 1072 3276 
Q 1397 3394 1825 3394 
Q 2250 3394 2515 3294 
Q 2781 3194 2906 3042 
Q 3031 2891 3081 2659 
Q 3109 2516 3109 2141 
L 3109 1391 
Q 3109 606 3145 398 
Q 3181 191 3288 0 
L 2700 0 
Q 2613 175 2588 409 
z
M 2541 1666 
Q 2234 1541 1622 1453 
Q 1275 1403 1131 1340 
Q 988 1278 909 1158 
Q 831 1038 831 891 
Q 831 666 1001 516 
Q 1172 366 1500 366 
Q 1825 366 2078 508 
Q 2331 650 2450 897 
Q 2541 1088 2541 1459 
L 2541 1666 
z
" transform="scale(0.015625)"/>
       <path id="ArialMT-6c" d="M 409 0 
L 409 4581 
L 972 4581 
L 972 0 
L 409 0 
z
" transform="scale(0.015625)"/>
       <path id="ArialMT-75" d="M 2597 0 
L 2597 488 
Q 2209 -75 1544 -75 
Q 1250 -75 995 37 
Q 741 150 617 320 
Q 494 491 444 738 
Q 409 903 409 1263 
L 409 3319 
L 972 3319 
L 972 1478 
Q 972 1038 1006 884 
Q 1059 663 1231 536 
Q 1403 409 1656 409 
Q 1909 409 2131 539 
Q 2353 669 2445 892 
Q 2538 1116 2538 1541 
L 2538 3319 
L 3100 3319 
L 3100 0 
L 2597 0 
z
" transform="scale(0.015625)"/>
       <path id="ArialMT-65" d="M 2694 1069 
L 3275 997 
Q 3138 488 2766 206 
Q 2394 -75 1816 -75 
Q 1088 -75 661 373 
Q 234 822 234 1631 
Q 234 2469 665 2931 
Q 1097 3394 1784 3394 
Q 2450 3394 2872 2941 
Q 3294 2488 3294 1666 
Q 3294 1616 3291 1516 
L 816 1516 
Q 847 969 1125 678 
Q 1403 388 1819 388 
Q 2128 388 2347 550 
Q 2566 713 2694 1069 
z
M 847 1978 
L 2700 1978 
Q 2663 2397 2488 2606 
Q 2219 2931 1791 2931 
Q 1403 2931 1139 2672 
Q 875 2413 847 1978 
z
" transform="scale(0.015625)"/>
      </defs>
      <use xlink:href="#ArialMT-56"/>
      <use xlink:href="#ArialMT-61" x="59.324219"/>
      <use xlink:href="#ArialMT-6c" x="114.939453"/>
      <use xlink:href="#ArialMT-75" x="137.15625"/>
      <use xlink:href="#ArialMT-65" x="192.771484"/>
     </g>
    </g>
   </g>
   <g id="matplotlib.axis_2">
    <g id="ytick_1">
     <g id="line2d_8">
      <path d="M 56.189375 289.771039 
L 411.280284 289.771039 
" clip-path="url(#p2129c54b21)" style="fill: none; stroke-dasharray: 2.96,1.28; stroke-dashoffset: 0; stroke: #cccccc; stroke-opacity: 0.7; stroke-width: 0.8"/>
     </g>
     <g id="text_9">
      <!-- 0.000 -->
      <g style="fill: #262626" transform="translate(24.1675 293.349945) scale(0.1 -0.1)">
       <defs>
        <path id="ArialMT-2e" d="M 581 0 
L 581 641 
L 1222 641 
L 1222 0 
L 581 0 
z
" transform="scale(0.015625)"/>
       </defs>
       <use xlink:href="#ArialMT-30"/>
       <use xlink:href="#ArialMT-2e" x="55.615234"/>
       <use xlink:href="#ArialMT-30" x="83.398438"/>
       <use xlink:href="#ArialMT-30" x="139.013672"/>
       <use xlink:href="#ArialMT-30" x="194.628906"/>
      </g>
     </g>
    </g>
    <g id="ytick_2">
     <g id="line2d_9">
      <path d="M 56.189375 254.555021 
L 411.280284 254.555021 
" clip-path="url(#p2129c54b21)" style="fill: none; stroke-dasharray: 2.96,1.28; stroke-dashoffset: 0; stroke: #cccccc; stroke-opacity: 0.7; stroke-width: 0.8"/>
     </g>
     <g id="text_10">
      <!-- 0.001 -->
      <g style="fill: #262626" transform="translate(24.1675 258.133927) scale(0.1 -0.1)">
       <use xlink:href="#ArialMT-30"/>
       <use xlink:href="#ArialMT-2e" x="55.615234"/>
       <use xlink:href="#ArialMT-30" x="83.398438"/>
       <use xlink:href="#ArialMT-30" x="139.013672"/>
       <use xlink:href="#ArialMT-31" x="194.628906"/>
      </g>
     </g>
    </g>
    <g id="ytick_3">
     <g id="line2d_10">
      <path d="M 56.189375 219.339002 
L 411.280284 219.339002 
" clip-path="url(#p2129c54b21)" style="fill: none; stroke-dasharray: 2.96,1.28; stroke-dashoffset: 0; stroke: #cccccc; stroke-opacity: 0.7; stroke-width: 0.8"/>
     </g>
     <g id="text_11">
      <!-- 0.002 -->
      <g style="fill: #262626" transform="translate(24.1675 222.917909) scale(0.1 -0.1)">
       <use xlink:href="#ArialMT-30"/>
       <use xlink:href="#ArialMT-2e" x="55.615234"/>
       <use xlink:href="#ArialMT-30" x="83.398438"/>
       <use xlink:href="#ArialMT-30" x="139.013672"/>
       <use xlink:href="#ArialMT-32" x="194.628906"/>
      </g>
     </g>
    </g>
    <g id="ytick_4">
     <g id="line2d_11">
      <path d="M 56.189375 184.122984 
L 411.280284 184.122984 
" clip-path="url(#p2129c54b21)" style="fill: none; stroke-dasharray: 2.96,1.28; stroke-dashoffset: 0; stroke: #cccccc; stroke-opacity: 0.7; stroke-width: 0.8"/>
     </g>
     <g id="text_12">
      <!-- 0.003 -->
      <g style="fill: #262626" transform="translate(24.1675 187.70189) scale(0.1 -0.1)">
       <use xlink:href="#ArialMT-30"/>
       <use xlink:href="#ArialMT-2e" x="55.615234"/>
       <use xlink:href="#ArialMT-30" x="83.398438"/>
       <use xlink:href="#ArialMT-30" x="139.013672"/>
       <use xlink:href="#ArialMT-33" x="194.628906"/>
      </g>
     </g>
    </g>
    <g id="ytick_5">
     <g id="line2d_12">
      <path d="M 56.189375 148.906966 
L 411.280284 148.906966 
" clip-path="url(#p2129c54b21)" style="fill: none; stroke-dasharray: 2.96,1.28; stroke-dashoffset: 0; stroke: #cccccc; stroke-opacity: 0.7; stroke-width: 0.8"/>
     </g>
     <g id="text_13">
      <!-- 0.004 -->
      <g style="fill: #262626" transform="translate(24.1675 152.485872) scale(0.1 -0.1)">
       <use xlink:href="#ArialMT-30"/>
       <use xlink:href="#ArialMT-2e" x="55.615234"/>
       <use xlink:href="#ArialMT-30" x="83.398438"/>
       <use xlink:href="#ArialMT-30" x="139.013672"/>
       <use xlink:href="#ArialMT-34" x="194.628906"/>
      </g>
     </g>
    </g>
    <g id="ytick_6">
     <g id="line2d_13">
      <path d="M 56.189375 113.690948 
L 411.280284 113.690948 
" clip-path="url(#p2129c54b21)" style="fill: none; stroke-dasharray: 2.96,1.28; stroke-dashoffset: 0; stroke: #cccccc; stroke-opacity: 0.7; stroke-width: 0.8"/>
     </g>
     <g id="text_14">
      <!-- 0.005 -->
      <g style="fill: #262626" transform="translate(24.1675 117.269854) scale(0.1 -0.1)">
       <use xlink:href="#ArialMT-30"/>
       <use xlink:href="#ArialMT-2e" x="55.615234"/>
       <use xlink:href="#ArialMT-30" x="83.398438"/>
       <use xlink:href="#ArialMT-30" x="139.013672"/>
       <use xlink:href="#ArialMT-35" x="194.628906"/>
      </g>
     </g>
    </g>
    <g id="ytick_7">
     <g id="line2d_14">
      <path d="M 56.189375 78.47493 
L 411.280284 78.47493 
" clip-path="url(#p2129c54b21)" style="fill: none; stroke-dasharray: 2.96,1.28; stroke-dashoffset: 0; stroke: #cccccc; stroke-opacity: 0.7; stroke-width: 0.8"/>
     </g>
     <g id="text_15">
      <!-- 0.006 -->
      <g style="fill: #262626" transform="translate(24.1675 82.053836) scale(0.1 -0.1)">
       <use xlink:href="#ArialMT-30"/>
       <use xlink:href="#ArialMT-2e" x="55.615234"/>
       <use xlink:href="#ArialMT-30" x="83.398438"/>
       <use xlink:href="#ArialMT-30" x="139.013672"/>
       <use xlink:href="#ArialMT-36" x="194.628906"/>
      </g>
     </g>
    </g>
    <g id="ytick_8">
     <g id="line2d_15">
      <path d="M 56.189375 43.258912 
L 411.280284 43.258912 
" clip-path="url(#p2129c54b21)" style="fill: none; stroke-dasharray: 2.96,1.28; stroke-dashoffset: 0; stroke: #cccccc; stroke-opacity: 0.7; stroke-width: 0.8"/>
     </g>
     <g id="text_16">
      <!-- 0.007 -->
      <g style="fill: #262626" transform="translate(24.1675 46.837818) scale(0.1 -0.1)">
       <defs>
        <path id="ArialMT-37" d="M 303 3981 
L 303 4522 
L 3269 4522 
L 3269 4084 
Q 2831 3619 2401 2847 
Q 1972 2075 1738 1259 
Q 1569 684 1522 0 
L 944 0 
Q 953 541 1156 1306 
Q 1359 2072 1739 2783 
Q 2119 3494 2547 3981 
L 303 3981 
z
" transform="scale(0.015625)"/>
       </defs>
       <use xlink:href="#ArialMT-30"/>
       <use xlink:href="#ArialMT-2e" x="55.615234"/>
       <use xlink:href="#ArialMT-30" x="83.398438"/>
       <use xlink:href="#ArialMT-30" x="139.013672"/>
       <use xlink:href="#ArialMT-37" x="194.628906"/>
      </g>
     </g>
    </g>
    <g id="text_17">
     <!-- Density -->
     <g style="fill: #262626" transform="translate(17.220937 186.798125) rotate(-90) scale(0.14 -0.14)">
      <defs>
       <path id="ArialMT-44" d="M 494 0 
L 494 4581 
L 2072 4581 
Q 2606 4581 2888 4516 
Q 3281 4425 3559 4188 
Q 3922 3881 4101 3404 
Q 4281 2928 4281 2316 
Q 4281 1794 4159 1391 
Q 4038 988 3847 723 
Q 3656 459 3429 307 
Q 3203 156 2883 78 
Q 2563 0 2147 0 
L 494 0 
z
M 1100 541 
L 2078 541 
Q 2531 541 2789 625 
Q 3047 709 3200 863 
Q 3416 1078 3536 1442 
Q 3656 1806 3656 2325 
Q 3656 3044 3420 3430 
Q 3184 3816 2847 3947 
Q 2603 4041 2063 4041 
L 1100 4041 
L 1100 541 
z
" transform="scale(0.015625)"/>
       <path id="ArialMT-6e" d="M 422 0 
L 422 3319 
L 928 3319 
L 928 2847 
Q 1294 3394 1984 3394 
Q 2284 3394 2536 3286 
Q 2788 3178 2913 3003 
Q 3038 2828 3088 2588 
Q 3119 2431 3119 2041 
L 3119 0 
L 2556 0 
L 2556 2019 
Q 2556 2363 2490 2533 
Q 2425 2703 2258 2804 
Q 2091 2906 1866 2906 
Q 1506 2906 1245 2678 
Q 984 2450 984 1813 
L 984 0 
L 422 0 
z
" transform="scale(0.015625)"/>
       <path id="ArialMT-73" d="M 197 991 
L 753 1078 
Q 800 744 1014 566 
Q 1228 388 1613 388 
Q 2000 388 2187 545 
Q 2375 703 2375 916 
Q 2375 1106 2209 1216 
Q 2094 1291 1634 1406 
Q 1016 1563 777 1677 
Q 538 1791 414 1992 
Q 291 2194 291 2438 
Q 291 2659 392 2848 
Q 494 3038 669 3163 
Q 800 3259 1026 3326 
Q 1253 3394 1513 3394 
Q 1903 3394 2198 3281 
Q 2494 3169 2634 2976 
Q 2775 2784 2828 2463 
L 2278 2388 
Q 2241 2644 2061 2787 
Q 1881 2931 1553 2931 
Q 1166 2931 1000 2803 
Q 834 2675 834 2503 
Q 834 2394 903 2306 
Q 972 2216 1119 2156 
Q 1203 2125 1616 2013 
Q 2213 1853 2448 1751 
Q 2684 1650 2818 1456 
Q 2953 1263 2953 975 
Q 2953 694 2789 445 
Q 2625 197 2315 61 
Q 2006 -75 1616 -75 
Q 969 -75 630 194 
Q 291 463 197 991 
z
" transform="scale(0.015625)"/>
       <path id="ArialMT-69" d="M 425 3934 
L 425 4581 
L 988 4581 
L 988 3934 
L 425 3934 
z
M 425 0 
L 425 3319 
L 988 3319 
L 988 0 
L 425 0 
z
" transform="scale(0.015625)"/>
       <path id="ArialMT-74" d="M 1650 503 
L 1731 6 
Q 1494 -44 1306 -44 
Q 1000 -44 831 53 
Q 663 150 594 308 
Q 525 466 525 972 
L 525 2881 
L 113 2881 
L 113 3319 
L 525 3319 
L 525 4141 
L 1084 4478 
L 1084 3319 
L 1650 3319 
L 1650 2881 
L 1084 2881 
L 1084 941 
Q 1084 700 1114 631 
Q 1144 563 1211 522 
Q 1278 481 1403 481 
Q 1497 481 1650 503 
z
" transform="scale(0.015625)"/>
       <path id="ArialMT-79" d="M 397 -1278 
L 334 -750 
Q 519 -800 656 -800 
Q 844 -800 956 -737 
Q 1069 -675 1141 -563 
Q 1194 -478 1313 -144 
Q 1328 -97 1363 -6 
L 103 3319 
L 709 3319 
L 1400 1397 
Q 1534 1031 1641 628 
Q 1738 1016 1872 1384 
L 2581 3319 
L 3144 3319 
L 1881 -56 
Q 1678 -603 1566 -809 
Q 1416 -1088 1222 -1217 
Q 1028 -1347 759 -1347 
Q 597 -1347 397 -1278 
z
" transform="scale(0.015625)"/>
      </defs>
      <use xlink:href="#ArialMT-44"/>
      <use xlink:href="#ArialMT-65" x="72.216797"/>
      <use xlink:href="#ArialMT-6e" x="127.832031"/>
      <use xlink:href="#ArialMT-73" x="183.447266"/>
      <use xlink:href="#ArialMT-69" x="233.447266"/>
      <use xlink:href="#ArialMT-74" x="255.664062"/>
      <use xlink:href="#ArialMT-79" x="283.447266"/>
     </g>
    </g>
   </g>
   <g id="line2d_16">
    <path d="M 72.843899 65.354257 
L 73.862695 58.626152 
L 74.77961 54.050434 
L 75.492767 51.483515 
L 76.104044 49.974941 
L 76.613442 49.199854 
L 77.02096 48.889615 
L 77.428478 48.848723 
L 77.835996 49.070272 
L 78.243514 49.546202 
L 78.752912 50.484803 
L 79.364189 52.088448 
L 80.179225 54.972312 
L 81.096141 59.117697 
L 82.216816 65.257066 
L 83.745009 75.013715 
L 86.597636 95.103497 
L 89.042744 111.638425 
L 90.774696 121.883021 
L 92.20101 129.103545 
L 93.525444 134.746343 
L 94.747998 139.049476 
L 95.868673 142.265811 
L 96.989348 144.839267 
L 98.008143 146.676144 
L 99.026938 148.091373 
L 100.045734 149.142615 
L 101.064529 149.887141 
L 102.185204 150.416841 
L 103.407758 150.723905 
L 104.732192 150.819508 
L 106.362264 150.700758 
L 108.297975 150.32848 
L 110.335566 149.719553 
L 112.271277 148.913106 
L 114.003229 147.953414 
L 115.735181 146.726225 
L 117.467133 145.218857 
L 119.504724 143.136024 
L 124.904339 137.413243 
L 126.228772 136.403503 
L 127.349447 135.795441 
L 128.368243 135.471924 
L 129.387038 135.386468 
L 130.303954 135.520826 
L 131.322749 135.903881 
L 132.341544 136.521603 
L 133.564098 137.540631 
L 134.990412 139.03899 
L 137.129882 141.659688 
L 140.186268 145.366959 
L 141.714461 146.873959 
L 143.038895 147.885204 
L 144.261449 148.550936 
L 145.484003 148.965373 
L 146.808437 149.167062 
L 148.43851 149.164892 
L 151.800534 149.074907 
L 153.023088 149.316863 
L 154.041884 149.744226 
L 155.060679 150.432372 
L 155.977595 151.313282 
L 156.99639 152.619684 
L 158.015185 154.302693 
L 159.13586 156.618276 
L 160.358414 159.722123 
L 161.682848 163.774697 
L 163.109162 168.927153 
L 164.637355 175.302687 
L 166.471186 183.9889 
L 168.610656 195.26085 
L 171.870801 213.801277 
L 174.621549 229.553612 
L 174.621549 229.553612 
" clip-path="url(#p2129c54b21)" style="fill: none; stroke: #440154; stroke-opacity: 0.8; stroke-width: 2; stroke-linecap: round"/>
   </g>
   <g id="line2d_17">
    <path d="M 72.329871 96.960975 
L 73.394975 90.156396 
L 74.282562 85.827941 
L 74.992631 83.261989 
L 75.702701 81.488803 
L 76.235253 80.66821 
L 76.767805 80.27008 
L 77.12284 80.231122 
L 77.477874 80.366487 
L 78.010426 80.881709 
L 78.542978 81.749106 
L 79.253048 83.405203 
L 80.140635 86.176085 
L 81.205739 90.327978 
L 82.625878 96.818359 
L 87.063812 117.861746 
L 88.483951 123.197491 
L 89.549055 126.445521 
L 90.614159 128.992839 
L 91.501746 130.570084 
L 92.389333 131.65845 
L 93.099402 132.188909 
L 93.809471 132.430869 
L 94.519541 132.399941 
L 95.22961 132.113553 
L 95.93968 131.590288 
L 96.827267 130.63232 
L 97.892371 129.086634 
L 99.134992 126.816912 
L 100.555131 123.723358 
L 102.330305 119.295658 
L 104.993065 111.954715 
L 109.430999 99.643478 
L 111.38369 94.917808 
L 112.981346 91.637509 
L 114.223968 89.531758 
L 115.466589 87.858355 
L 116.531694 86.78473 
L 117.596798 86.047987 
L 118.484385 85.687537 
L 119.371971 85.549692 
L 120.259558 85.623714 
L 121.147145 85.896478 
L 122.212249 86.465544 
L 123.454871 87.429919 
L 124.697492 88.680939 
L 126.117631 90.42055 
L 127.715287 92.734829 
L 129.490461 95.730753 
L 131.265635 99.190443 
L 133.040808 103.16131 
L 134.815982 107.703037 
L 136.591155 112.868001 
L 138.543846 119.302831 
L 140.496537 126.517105 
L 142.804263 135.958016 
L 145.467023 147.835482 
L 149.72744 168.036092 
L 155.052961 193.056022 
L 158.425791 207.805899 
L 161.443586 220.059927 
L 164.461381 231.384775 
L 167.124141 240.54123 
L 169.431867 247.735213 
L 171.562075 253.647894 
L 173.337249 257.962192 
L 174.934905 261.325597 
L 176.532561 264.17925 
L 177.9527 266.292915 
L 179.372839 268.031436 
L 180.792978 269.433917 
L 182.390634 270.677404 
L 184.165808 271.75333 
L 186.828568 273.056698 
L 190.201398 274.750175 
L 192.509124 276.189673 
L 194.81685 277.899848 
L 198.544714 280.999961 
L 201.917544 283.694141 
L 204.047752 285.127501 
L 206.000443 286.185467 
L 207.953134 286.980184 
L 209.905825 287.523365 
L 212.036034 287.869907 
L 214.521277 288.034164 
L 218.426659 288.03222 
L 223.752179 288.069132 
L 228.722665 288.365638 
L 234.580738 288.678635 
L 238.308603 288.641374 
L 243.456606 288.328623 
L 248.427092 288.088224 
L 249.669714 288.082025 
L 249.669714 288.082025 
" clip-path="url(#p2129c54b21)" style="fill: none; stroke: #414487; stroke-opacity: 0.8; stroke-width: 2; stroke-linecap: round"/>
   </g>
   <g id="line2d_18">
    <path d="M 72.329871 110.18911 
L 73.441284 103.578171 
L 74.552697 98.228235 
L 75.441827 94.866169 
L 76.330958 92.30355 
L 77.220088 90.504703 
L 77.886936 89.625365 
L 78.553784 89.1178 
L 79.220632 88.9496 
L 79.88748 89.084896 
L 80.554327 89.485129 
L 81.443458 90.360824 
L 82.554871 91.866449 
L 84.333132 94.777204 
L 86.555958 98.332345 
L 87.667371 99.749359 
L 88.778784 100.789389 
L 89.667914 101.30592 
L 90.557045 101.520931 
L 91.223893 101.47979 
L 92.113023 101.157319 
L 93.002153 100.540072 
L 93.891284 99.648211 
L 95.002697 98.189541 
L 96.336393 96.023269 
L 98.114653 92.647663 
L 103.004871 83.06431 
L 104.560849 80.661759 
L 105.672262 79.296893 
L 106.783675 78.271105 
L 107.672806 77.715092 
L 108.561936 77.406281 
L 109.451066 77.351597 
L 110.340197 77.55429 
L 111.229327 78.01421 
L 112.118458 78.728144 
L 113.229871 79.968588 
L 114.341284 81.580278 
L 115.674979 83.97546 
L 117.008675 86.83572 
L 118.564653 90.704063 
L 120.342914 95.745282 
L 122.343458 102.10082 
L 124.566284 109.884565 
L 127.233675 120.054033 
L 130.567914 133.719618 
L 139.903784 172.652774 
L 142.348892 181.559547 
L 144.571718 188.788507 
L 146.572262 194.527839 
L 148.572805 199.552408 
L 150.573349 203.931964 
L 152.573892 207.786115 
L 155.019001 212.013468 
L 161.687479 223.233287 
L 164.132588 227.923738 
L 166.799979 233.526279 
L 171.023349 243.019381 
L 174.802153 251.294819 
L 177.247262 256.096233 
L 179.247805 259.554178 
L 181.026066 262.231191 
L 182.804327 264.530698 
L 184.582588 266.472532 
L 186.360849 268.094453 
L 188.361392 269.598556 
L 190.584218 270.963112 
L 193.25161 272.313763 
L 197.030414 273.949252 
L 206.144001 277.569051 
L 220.814653 283.419606 
L 225.260305 285.086969 
L 228.372262 286.026929 
L 231.039653 286.609328 
L 233.707044 286.959338 
L 236.596718 287.092884 
L 240.15324 287.008053 
L 247.266283 286.77058 
L 250.600522 286.922335 
L 254.157044 287.319297 
L 260.158675 288.272925 
L 265.271175 288.981998 
L 269.272261 289.313186 
L 273.273348 289.424145 
L 277.719001 289.314358 
L 283.053783 288.942592 
L 291.722805 288.314665 
L 294.390196 288.264849 
L 294.390196 288.264849 
" clip-path="url(#p2129c54b21)" style="fill: none; stroke: #2a788e; stroke-opacity: 0.8; stroke-width: 2; stroke-linecap: round"/>
   </g>
   <g id="line2d_19">
    <path d="M 72.329871 110.426 
L 74.145179 98.346295 
L 75.701157 89.466528 
L 77.257135 81.97233 
L 78.553784 76.750736 
L 79.850432 72.396445 
L 81.147081 68.828568 
L 82.44373 65.954352 
L 83.740378 63.677794 
L 85.037027 61.907725 
L 86.333675 60.564685 
L 87.630324 59.586096 
L 88.926972 58.929404 
L 89.964291 58.620653 
L 91.00161 58.502026 
L 92.038929 58.579132 
L 93.076248 58.863623 
L 94.113566 59.371621 
L 95.150885 60.121967 
L 96.188204 61.134393 
L 97.225523 62.42774 
L 98.522172 64.463936 
L 99.81882 66.987016 
L 101.115469 70.006725 
L 102.671447 74.277187 
L 104.227425 79.214555 
L 106.042733 85.721365 
L 108.3767 95.018928 
L 112.007316 110.635555 
L 116.415921 129.442586 
L 119.009219 139.56848 
L 121.343186 147.80435 
L 123.417824 154.36574 
L 125.492461 160.22406 
L 127.567099 165.43764 
L 129.641737 170.098076 
L 131.975704 174.82016 
L 134.828331 180.083702 
L 140.274255 189.529545 
L 146.498168 200.517477 
L 159.464653 223.655631 
L 167.503874 237.391302 
L 172.690468 245.853251 
L 176.839744 252.203804 
L 180.47036 257.356413 
L 183.582316 261.39891 
L 186.175613 264.435803 
L 188.509581 266.852852 
L 190.584218 268.709957 
L 192.658856 270.267213 
L 194.474164 271.376465 
L 196.289472 272.255797 
L 198.36411 273.004486 
L 200.698077 273.577337 
L 203.550704 274.014185 
L 213.145903 275.258261 
L 217.295178 276.161214 
L 226.112388 278.403508 
L 234.410939 280.635484 
L 239.597533 282.283483 
L 251.78603 286.314784 
L 255.157316 287.118823 
L 258.269272 287.649101 
L 261.640559 287.992413 
L 265.271175 288.132763 
L 270.198439 288.077509 
L 283.942914 287.798708 
L 290.426156 287.951077 
L 297.168729 288.344338 
L 308.579236 289.055614 
L 313.5065 289.102811 
L 318.952424 288.923295 
L 330.881591 288.444773 
L 331.40025 288.444249 
L 331.40025 288.444249 
" clip-path="url(#p2129c54b21)" style="fill: none; stroke: #22a884; stroke-opacity: 0.8; stroke-width: 2; stroke-linecap: round"/>
   </g>
   <g id="line2d_20">
    <path d="M 72.329871 89.098522 
L 74.083434 75.920345 
L 75.836996 64.414543 
L 77.298299 56.271719 
L 78.467341 50.774416 
L 79.636383 46.21664 
L 80.805424 42.615418 
L 81.682206 40.544313 
L 82.558987 39.008985 
L 83.435769 38.001328 
L 84.02029 37.616969 
L 84.60481 37.4575 
L 85.189331 37.51787 
L 85.773852 37.792431 
L 86.358373 38.274985 
L 87.235155 39.374028 
L 88.111936 40.901426 
L 88.988717 42.830817 
L 90.157759 45.980268 
L 91.619062 50.746451 
L 93.080364 56.303462 
L 94.833927 63.816939 
L 97.17201 74.877666 
L 100.971397 94.146676 
L 105.647564 117.68056 
L 108.570169 131.27598 
L 111.200513 142.420408 
L 113.538597 151.350821 
L 115.58442 158.385641 
L 117.630243 164.699481 
L 119.676066 170.317537 
L 121.72189 175.278898 
L 123.767713 179.633362 
L 125.813536 183.439264 
L 127.859359 186.761958 
L 129.905183 189.672559 
L 132.243266 192.591366 
L 134.873611 195.495172 
L 138.672997 199.304509 
L 143.933685 204.590977 
L 146.85629 207.839324 
L 149.778894 211.429008 
L 152.701499 215.381856 
L 155.916364 220.103238 
L 160.592532 227.415221 
L 167.022262 237.437268 
L 170.529387 242.472225 
L 173.744253 246.677788 
L 176.666857 250.143605 
L 179.881722 253.598039 
L 183.388848 257.024583 
L 187.772755 260.969011 
L 193.033443 265.40107 
L 197.709611 269.077928 
L 201.216736 271.573403 
L 204.139341 273.395491 
L 206.769685 274.781815 
L 209.107769 275.785648 
L 211.445853 276.56458 
L 213.783936 277.124217 
L 216.414281 277.518396 
L 219.336885 277.725006 
L 223.720792 277.779066 
L 229.566002 277.876756 
L 233.365388 278.176148 
L 237.457034 278.731452 
L 254.700402 281.369934 
L 260.25335 282.223401 
L 264.637257 283.130731 
L 269.897946 284.466737 
L 277.204458 286.319074 
L 281.296104 287.115044 
L 285.387751 287.67083 
L 290.063918 288.060442 
L 297.954951 288.439608 
L 312.860234 288.968396 
L 319.289965 288.933574 
L 343.255323 288.503871 
L 356.699304 288.49736 
L 364.298076 288.513608 
L 364.298076 288.513608 
" clip-path="url(#p2129c54b21)" style="fill: none; stroke: #7ad151; stroke-opacity: 0.8; stroke-width: 2; stroke-linecap: round"/>
   </g>
   <g id="line2d_21">
    <path d="M 72.329871 70.453713 
L 73.945536 61.405955 
L 75.238068 55.362658 
L 76.530601 50.448848 
L 77.5 47.529057 
L 78.469399 45.275273 
L 79.438798 43.688669 
L 80.085064 42.999032 
L 80.73133 42.600154 
L 81.377596 42.487419 
L 82.023862 42.655001 
L 82.670128 43.095935 
L 83.316395 43.802187 
L 84.285794 45.33905 
L 85.255193 47.418189 
L 86.224592 50.00154 
L 87.517124 54.158683 
L 88.809656 59.034407 
L 90.425322 65.973508 
L 92.36412 75.254311 
L 95.272317 90.375986 
L 101.734978 124.365739 
L 104.320043 136.695128 
L 106.581974 146.521828 
L 108.843906 155.367124 
L 110.782704 162.157346 
L 112.721502 168.239748 
L 114.6603 173.656959 
L 116.599099 178.464959 
L 118.537897 182.727197 
L 120.476695 186.50965 
L 122.738627 190.402072 
L 125.000558 193.824184 
L 127.262489 196.859489 
L 129.847554 199.944819 
L 132.755751 203.028431 
L 135.987082 206.088448 
L 139.864678 209.409692 
L 151.174335 218.812277 
L 154.082533 221.635637 
L 156.99073 224.761742 
L 160.222061 228.597857 
L 163.776524 233.181895 
L 174.439915 247.197992 
L 177.348112 250.515739 
L 179.933177 253.153902 
L 182.518241 255.490303 
L 185.103305 257.54442 
L 188.011503 259.568777 
L 191.565966 261.738708 
L 196.412962 264.400815 
L 217.093477 275.289899 
L 220.971074 276.983675 
L 224.202405 278.156924 
L 227.110602 278.994422 
L 230.018799 279.613047 
L 232.926997 280.020015 
L 236.158327 280.256687 
L 240.359057 280.324134 
L 252.31498 280.365084 
L 257.485109 280.70942 
L 267.825366 281.714436 
L 285.597684 283.478069 
L 291.414079 284.413526 
L 307.247599 287.132409 
L 313.387126 287.849308 
L 321.14232 288.507869 
L 330.836311 289.107954 
L 338.914637 289.402249 
L 346.346698 289.446159 
L 354.101891 289.254511 
L 366.057814 288.685234 
L 376.398071 288.289861 
L 384.799531 288.196756 
L 393.20099 288.327851 
L 395.139788 288.389089 
L 395.139788 288.389089 
" clip-path="url(#p2129c54b21)" style="fill: none; stroke: #fde725; stroke-opacity: 0.8; stroke-width: 2; stroke-linecap: round"/>
   </g>
   <g id="patch_3">
    <path d="M 56.189375 302.0575 
L 56.189375 24.8575 
" style="fill: none; stroke: #cccccc; stroke-width: 0.8; stroke-linejoin: miter; stroke-linecap: square"/>
   </g>
   <g id="patch_4">
    <path d="M 411.280284 302.0575 
L 411.280284 24.8575 
" style="fill: none; stroke: #cccccc; stroke-width: 0.8; stroke-linejoin: miter; stroke-linecap: square"/>
   </g>
   <g id="patch_5">
    <path d="M 56.189375 302.0575 
L 411.280284 302.0575 
" style="fill: none; stroke: #cccccc; stroke-width: 0.8; stroke-linejoin: miter; stroke-linecap: square"/>
   </g>
   <g id="patch_6">
    <path d="M 56.189375 24.8575 
L 411.280284 24.8575 
" style="fill: none; stroke: #cccccc; stroke-width: 0.8; stroke-linejoin: miter; stroke-linecap: square"/>
   </g>
   <g id="text_18">
    <!-- Distribution of Capacities - Total (PDF) -->
    <g style="fill: #262626" transform="translate(97.84233 18.8575) scale(0.16 -0.16)">
     <defs>
      <path id="ArialMT-72" d="M 416 0 
L 416 3319 
L 922 3319 
L 922 2816 
Q 1116 3169 1280 3281 
Q 1444 3394 1641 3394 
Q 1925 3394 2219 3213 
L 2025 2691 
Q 1819 2813 1613 2813 
Q 1428 2813 1281 2702 
Q 1134 2591 1072 2394 
Q 978 2094 978 1738 
L 978 0 
L 416 0 
z
" transform="scale(0.015625)"/>
      <path id="ArialMT-62" d="M 941 0 
L 419 0 
L 419 4581 
L 981 4581 
L 981 2947 
Q 1338 3394 1891 3394 
Q 2197 3394 2470 3270 
Q 2744 3147 2920 2923 
Q 3097 2700 3197 2384 
Q 3297 2069 3297 1709 
Q 3297 856 2875 390 
Q 2453 -75 1863 -75 
Q 1275 -75 941 416 
L 941 0 
z
M 934 1684 
Q 934 1088 1097 822 
Q 1363 388 1816 388 
Q 2184 388 2453 708 
Q 2722 1028 2722 1663 
Q 2722 2313 2464 2622 
Q 2206 2931 1841 2931 
Q 1472 2931 1203 2611 
Q 934 2291 934 1684 
z
" transform="scale(0.015625)"/>
      <path id="ArialMT-6f" d="M 213 1659 
Q 213 2581 725 3025 
Q 1153 3394 1769 3394 
Q 2453 3394 2887 2945 
Q 3322 2497 3322 1706 
Q 3322 1066 3130 698 
Q 2938 331 2570 128 
Q 2203 -75 1769 -75 
Q 1072 -75 642 372 
Q 213 819 213 1659 
z
M 791 1659 
Q 791 1022 1069 705 
Q 1347 388 1769 388 
Q 2188 388 2466 706 
Q 2744 1025 2744 1678 
Q 2744 2294 2464 2611 
Q 2184 2928 1769 2928 
Q 1347 2928 1069 2612 
Q 791 2297 791 1659 
z
" transform="scale(0.015625)"/>
      <path id="ArialMT-20" transform="scale(0.015625)"/>
      <path id="ArialMT-66" d="M 556 0 
L 556 2881 
L 59 2881 
L 59 3319 
L 556 3319 
L 556 3672 
Q 556 4006 616 4169 
Q 697 4388 901 4523 
Q 1106 4659 1475 4659 
Q 1713 4659 2000 4603 
L 1916 4113 
Q 1741 4144 1584 4144 
Q 1328 4144 1222 4034 
Q 1116 3925 1116 3625 
L 1116 3319 
L 1763 3319 
L 1763 2881 
L 1116 2881 
L 1116 0 
L 556 0 
z
" transform="scale(0.015625)"/>
      <path id="ArialMT-43" d="M 3763 1606 
L 4369 1453 
Q 4178 706 3683 314 
Q 3188 -78 2472 -78 
Q 1731 -78 1267 223 
Q 803 525 561 1097 
Q 319 1669 319 2325 
Q 319 3041 592 3573 
Q 866 4106 1370 4382 
Q 1875 4659 2481 4659 
Q 3169 4659 3637 4309 
Q 4106 3959 4291 3325 
L 3694 3184 
Q 3534 3684 3231 3912 
Q 2928 4141 2469 4141 
Q 1941 4141 1586 3887 
Q 1231 3634 1087 3207 
Q 944 2781 944 2328 
Q 944 1744 1114 1308 
Q 1284 872 1643 656 
Q 2003 441 2422 441 
Q 2931 441 3284 734 
Q 3638 1028 3763 1606 
z
" transform="scale(0.015625)"/>
      <path id="ArialMT-70" d="M 422 -1272 
L 422 3319 
L 934 3319 
L 934 2888 
Q 1116 3141 1344 3267 
Q 1572 3394 1897 3394 
Q 2322 3394 2647 3175 
Q 2972 2956 3137 2557 
Q 3303 2159 3303 1684 
Q 3303 1175 3120 767 
Q 2938 359 2589 142 
Q 2241 -75 1856 -75 
Q 1575 -75 1351 44 
Q 1128 163 984 344 
L 984 -1272 
L 422 -1272 
z
M 931 1641 
Q 931 1000 1190 694 
Q 1450 388 1819 388 
Q 2194 388 2461 705 
Q 2728 1022 2728 1688 
Q 2728 2322 2467 2637 
Q 2206 2953 1844 2953 
Q 1484 2953 1207 2617 
Q 931 2281 931 1641 
z
" transform="scale(0.015625)"/>
      <path id="ArialMT-63" d="M 2588 1216 
L 3141 1144 
Q 3050 572 2676 248 
Q 2303 -75 1759 -75 
Q 1078 -75 664 370 
Q 250 816 250 1647 
Q 250 2184 428 2587 
Q 606 2991 970 3192 
Q 1334 3394 1763 3394 
Q 2303 3394 2647 3120 
Q 2991 2847 3088 2344 
L 2541 2259 
Q 2463 2594 2264 2762 
Q 2066 2931 1784 2931 
Q 1359 2931 1093 2626 
Q 828 2322 828 1663 
Q 828 994 1084 691 
Q 1341 388 1753 388 
Q 2084 388 2306 591 
Q 2528 794 2588 1216 
z
" transform="scale(0.015625)"/>
      <path id="ArialMT-2d" d="M 203 1375 
L 203 1941 
L 1931 1941 
L 1931 1375 
L 203 1375 
z
" transform="scale(0.015625)"/>
      <path id="ArialMT-54" d="M 1659 0 
L 1659 4041 
L 150 4041 
L 150 4581 
L 3781 4581 
L 3781 4041 
L 2266 4041 
L 2266 0 
L 1659 0 
z
" transform="scale(0.015625)"/>
      <path id="ArialMT-28" d="M 1497 -1347 
Q 1031 -759 709 28 
Q 388 816 388 1659 
Q 388 2403 628 3084 
Q 909 3875 1497 4659 
L 1900 4659 
Q 1522 4009 1400 3731 
Q 1209 3300 1100 2831 
Q 966 2247 966 1656 
Q 966 153 1900 -1347 
L 1497 -1347 
z
" transform="scale(0.015625)"/>
      <path id="ArialMT-50" d="M 494 0 
L 494 4581 
L 2222 4581 
Q 2678 4581 2919 4538 
Q 3256 4481 3484 4323 
Q 3713 4166 3852 3881 
Q 3991 3597 3991 3256 
Q 3991 2672 3619 2267 
Q 3247 1863 2275 1863 
L 1100 1863 
L 1100 0 
L 494 0 
z
M 1100 2403 
L 2284 2403 
Q 2872 2403 3119 2622 
Q 3366 2841 3366 3238 
Q 3366 3525 3220 3729 
Q 3075 3934 2838 4000 
Q 2684 4041 2272 4041 
L 1100 4041 
L 1100 2403 
z
" transform="scale(0.015625)"/>
      <path id="ArialMT-46" d="M 525 0 
L 525 4581 
L 3616 4581 
L 3616 4041 
L 1131 4041 
L 1131 2622 
L 3281 2622 
L 3281 2081 
L 1131 2081 
L 1131 0 
L 525 0 
z
" transform="scale(0.015625)"/>
      <path id="ArialMT-29" d="M 791 -1347 
L 388 -1347 
Q 1322 153 1322 1656 
Q 1322 2244 1188 2822 
Q 1081 3291 891 3722 
Q 769 4003 388 4659 
L 791 4659 
Q 1378 3875 1659 3084 
Q 1900 2403 1900 1659 
Q 1900 816 1576 28 
Q 1253 -759 791 -1347 
z
" transform="scale(0.015625)"/>
     </defs>
     <use xlink:href="#ArialMT-44"/>
     <use xlink:href="#ArialMT-69" x="72.216797"/>
     <use xlink:href="#ArialMT-73" x="94.433594"/>
     <use xlink:href="#ArialMT-74" x="144.433594"/>
     <use xlink:href="#ArialMT-72" x="172.216797"/>
     <use xlink:href="#ArialMT-69" x="205.517578"/>
     <use xlink:href="#ArialMT-62" x="227.734375"/>
     <use xlink:href="#ArialMT-75" x="283.349609"/>
     <use xlink:href="#ArialMT-74" x="338.964844"/>
     <use xlink:href="#ArialMT-69" x="366.748047"/>
     <use xlink:href="#ArialMT-6f" x="388.964844"/>
     <use xlink:href="#ArialMT-6e" x="444.580078"/>
     <use xlink:href="#ArialMT-20" x="500.195312"/>
     <use xlink:href="#ArialMT-6f" x="527.978516"/>
     <use xlink:href="#ArialMT-66" x="583.59375"/>
     <use xlink:href="#ArialMT-20" x="611.376953"/>
     <use xlink:href="#ArialMT-43" x="639.160156"/>
     <use xlink:href="#ArialMT-61" x="711.376953"/>
     <use xlink:href="#ArialMT-70" x="766.992188"/>
     <use xlink:href="#ArialMT-61" x="822.607422"/>
     <use xlink:href="#ArialMT-63" x="878.222656"/>
     <use xlink:href="#ArialMT-69" x="928.222656"/>
     <use xlink:href="#ArialMT-74" x="950.439453"/>
     <use xlink:href="#ArialMT-69" x="978.222656"/>
     <use xlink:href="#ArialMT-65" x="1000.439453"/>
     <use xlink:href="#ArialMT-73" x="1056.054688"/>
     <use xlink:href="#ArialMT-20" x="1106.054688"/>
     <use xlink:href="#ArialMT-2d" x="1133.837891"/>
     <use xlink:href="#ArialMT-20" x="1167.138672"/>
     <use xlink:href="#ArialMT-54" x="1193.171875"/>
     <use xlink:href="#ArialMT-6f" x="1243.130859"/>
     <use xlink:href="#ArialMT-74" x="1298.746094"/>
     <use xlink:href="#ArialMT-61" x="1326.529297"/>
     <use xlink:href="#ArialMT-6c" x="1382.144531"/>
     <use xlink:href="#ArialMT-20" x="1404.361328"/>
     <use xlink:href="#ArialMT-28" x="1432.144531"/>
     <use xlink:href="#ArialMT-50" x="1465.445312"/>
     <use xlink:href="#ArialMT-44" x="1532.144531"/>
     <use xlink:href="#ArialMT-46" x="1604.361328"/>
     <use xlink:href="#ArialMT-29" x="1665.445312"/>
    </g>
   </g>
   <g id="legend_1">
    <g id="patch_7">
     <path d="M 351.134034 151.449063 
L 402.880284 151.449063 
Q 405.280284 151.449063 405.280284 149.049063 
L 405.280284 33.2575 
Q 405.280284 30.8575 402.880284 30.8575 
L 351.134034 30.8575 
Q 348.734034 30.8575 348.734034 33.2575 
L 348.734034 149.049063 
Q 348.734034 151.449063 351.134034 151.449063 
z
" style="fill: #ffffff; opacity: 0.8; stroke: #cccccc; stroke-linejoin: miter"/>
    </g>
    <g id="text_19">
     <!-- median -->
     <g style="fill: #262626" transform="translate(360.609503 42.815313) scale(0.1 -0.1)">
      <defs>
       <path id="ArialMT-6d" d="M 422 0 
L 422 3319 
L 925 3319 
L 925 2853 
Q 1081 3097 1340 3245 
Q 1600 3394 1931 3394 
Q 2300 3394 2536 3241 
Q 2772 3088 2869 2813 
Q 3263 3394 3894 3394 
Q 4388 3394 4653 3120 
Q 4919 2847 4919 2278 
L 4919 0 
L 4359 0 
L 4359 2091 
Q 4359 2428 4304 2576 
Q 4250 2725 4106 2815 
Q 3963 2906 3769 2906 
Q 3419 2906 3187 2673 
Q 2956 2441 2956 1928 
L 2956 0 
L 2394 0 
L 2394 2156 
Q 2394 2531 2256 2718 
Q 2119 2906 1806 2906 
Q 1569 2906 1367 2781 
Q 1166 2656 1075 2415 
Q 984 2175 984 1722 
L 984 0 
L 422 0 
z
" transform="scale(0.015625)"/>
       <path id="ArialMT-64" d="M 2575 0 
L 2575 419 
Q 2259 -75 1647 -75 
Q 1250 -75 917 144 
Q 584 363 401 755 
Q 219 1147 219 1656 
Q 219 2153 384 2558 
Q 550 2963 881 3178 
Q 1213 3394 1622 3394 
Q 1922 3394 2156 3267 
Q 2391 3141 2538 2938 
L 2538 4581 
L 3097 4581 
L 3097 0 
L 2575 0 
z
M 797 1656 
Q 797 1019 1065 703 
Q 1334 388 1700 388 
Q 2069 388 2326 689 
Q 2584 991 2584 1609 
Q 2584 2291 2321 2609 
Q 2059 2928 1675 2928 
Q 1300 2928 1048 2622 
Q 797 2316 797 1656 
z
" transform="scale(0.015625)"/>
      </defs>
      <use xlink:href="#ArialMT-6d"/>
      <use xlink:href="#ArialMT-65" x="83.300781"/>
      <use xlink:href="#ArialMT-64" x="138.916016"/>
      <use xlink:href="#ArialMT-69" x="194.53125"/>
      <use xlink:href="#ArialMT-61" x="216.748047"/>
      <use xlink:href="#ArialMT-6e" x="272.363281"/>
     </g>
    </g>
    <g id="line2d_22">
     <path d="M 353.534034 55.192188 
L 365.534034 55.192188 
L 377.534034 55.192188 
" style="fill: none; stroke: #440154; stroke-opacity: 0.8; stroke-width: 2; stroke-linecap: round"/>
    </g>
    <g id="text_20">
     <!-- 74 -->
     <g style="fill: #262626" transform="translate(387.134034 59.392188) scale(0.12 -0.12)">
      <use xlink:href="#ArialMT-37"/>
      <use xlink:href="#ArialMT-34" x="55.615234"/>
     </g>
    </g>
    <g id="line2d_23">
     <path d="M 353.534034 72.166563 
L 365.534034 72.166563 
L 377.534034 72.166563 
" style="fill: none; stroke: #414487; stroke-opacity: 0.8; stroke-width: 2; stroke-linecap: round"/>
    </g>
    <g id="text_21">
     <!-- 80 -->
     <g style="fill: #262626" transform="translate(387.134034 76.366563) scale(0.12 -0.12)">
      <defs>
       <path id="ArialMT-38" d="M 1131 2484 
Q 781 2613 612 2850 
Q 444 3088 444 3419 
Q 444 3919 803 4259 
Q 1163 4600 1759 4600 
Q 2359 4600 2725 4251 
Q 3091 3903 3091 3403 
Q 3091 3084 2923 2848 
Q 2756 2613 2416 2484 
Q 2838 2347 3058 2040 
Q 3278 1734 3278 1309 
Q 3278 722 2862 322 
Q 2447 -78 1769 -78 
Q 1091 -78 675 323 
Q 259 725 259 1325 
Q 259 1772 486 2073 
Q 713 2375 1131 2484 
z
M 1019 3438 
Q 1019 3113 1228 2906 
Q 1438 2700 1772 2700 
Q 2097 2700 2305 2904 
Q 2513 3109 2513 3406 
Q 2513 3716 2298 3927 
Q 2084 4138 1766 4138 
Q 1444 4138 1231 3931 
Q 1019 3725 1019 3438 
z
M 838 1322 
Q 838 1081 952 856 
Q 1066 631 1291 507 
Q 1516 384 1775 384 
Q 2178 384 2440 643 
Q 2703 903 2703 1303 
Q 2703 1709 2433 1975 
Q 2163 2241 1756 2241 
Q 1359 2241 1098 1978 
Q 838 1716 838 1322 
z
" transform="scale(0.015625)"/>
      </defs>
      <use xlink:href="#ArialMT-38"/>
      <use xlink:href="#ArialMT-30" x="55.615234"/>
     </g>
    </g>
    <g id="line2d_24">
     <path d="M 353.534034 89.140938 
L 365.534034 89.140938 
L 377.534034 89.140938 
" style="fill: none; stroke: #2a788e; stroke-opacity: 0.8; stroke-width: 2; stroke-linecap: round"/>
    </g>
    <g id="text_22">
     <!-- 71 -->
     <g style="fill: #262626" transform="translate(387.134034 93.340938) scale(0.12 -0.12)">
      <use xlink:href="#ArialMT-37"/>
      <use xlink:href="#ArialMT-31" x="55.615234"/>
     </g>
    </g>
    <g id="line2d_25">
     <path d="M 353.534034 106.115313 
L 365.534034 106.115313 
L 377.534034 106.115313 
" style="fill: none; stroke: #22a884; stroke-opacity: 0.8; stroke-width: 2; stroke-linecap: round"/>
    </g>
    <g id="text_23">
     <!-- 58 -->
     <g style="fill: #262626" transform="translate(387.134034 110.315313) scale(0.12 -0.12)">
      <use xlink:href="#ArialMT-35"/>
      <use xlink:href="#ArialMT-38" x="55.615234"/>
     </g>
    </g>
    <g id="line2d_26">
     <path d="M 353.534034 123.089688 
L 365.534034 123.089688 
L 377.534034 123.089688 
" style="fill: none; stroke: #7ad151; stroke-opacity: 0.8; stroke-width: 2; stroke-linecap: round"/>
    </g>
    <g id="text_24">
     <!-- 49 -->
     <g style="fill: #262626" transform="translate(387.134034 127.289688) scale(0.12 -0.12)">
      <defs>
       <path id="ArialMT-39" d="M 350 1059 
L 891 1109 
Q 959 728 1153 556 
Q 1347 384 1650 384 
Q 1909 384 2104 503 
Q 2300 622 2425 820 
Q 2550 1019 2634 1356 
Q 2719 1694 2719 2044 
Q 2719 2081 2716 2156 
Q 2547 1888 2255 1720 
Q 1963 1553 1622 1553 
Q 1053 1553 659 1965 
Q 266 2378 266 3053 
Q 266 3750 677 4175 
Q 1088 4600 1706 4600 
Q 2153 4600 2523 4359 
Q 2894 4119 3086 3673 
Q 3278 3228 3278 2384 
Q 3278 1506 3087 986 
Q 2897 466 2520 194 
Q 2144 -78 1638 -78 
Q 1100 -78 759 220 
Q 419 519 350 1059 
z
M 2653 3081 
Q 2653 3566 2395 3850 
Q 2138 4134 1775 4134 
Q 1400 4134 1122 3828 
Q 844 3522 844 3034 
Q 844 2597 1108 2323 
Q 1372 2050 1759 2050 
Q 2150 2050 2401 2323 
Q 2653 2597 2653 3081 
z
" transform="scale(0.015625)"/>
      </defs>
      <use xlink:href="#ArialMT-34"/>
      <use xlink:href="#ArialMT-39" x="55.615234"/>
     </g>
    </g>
    <g id="line2d_27">
     <path d="M 353.534034 140.064063 
L 365.534034 140.064063 
L 377.534034 140.064063 
" style="fill: none; stroke: #fde725; stroke-opacity: 0.8; stroke-width: 2; stroke-linecap: round"/>
    </g>
    <g id="text_25">
     <!-- 40 -->
     <g style="fill: #262626" transform="translate(387.134034 144.264063) scale(0.12 -0.12)">
      <use xlink:href="#ArialMT-34"/>
      <use xlink:href="#ArialMT-30" x="55.615234"/>
     </g>
    </g>
   </g>
  </g>
  <g id="axes_2">
   <g id="patch_8">
    <path d="M 482.298466 302.0575 
L 837.389375 302.0575 
L 837.389375 24.8575 
L 482.298466 24.8575 
z
" style="fill: #ffffff"/>
   </g>
   <g id="matplotlib.axis_3">
    <g id="xtick_8">
     <g id="line2d_28">
      <path d="M 498.438962 302.0575 
L 498.438962 24.8575 
" clip-path="url(#pa52c3de41f)" style="fill: none; stroke: #cccccc; stroke-width: 0.8; stroke-linecap: round"/>
     </g>
     <g id="text_26">
      <!-- 0 -->
      <g style="fill: #262626" transform="translate(495.658493 316.215313) scale(0.1 -0.1)">
       <use xlink:href="#ArialMT-30"/>
      </g>
     </g>
    </g>
    <g id="xtick_9">
     <g id="line2d_29">
      <path d="M 552.240615 302.0575 
L 552.240615 24.8575 
" clip-path="url(#pa52c3de41f)" style="fill: none; stroke: #cccccc; stroke-width: 0.8; stroke-linecap: round"/>
     </g>
     <g id="text_27">
      <!-- 2 -->
      <g style="fill: #262626" transform="translate(549.460146 316.215313) scale(0.1 -0.1)">
       <use xlink:href="#ArialMT-32"/>
      </g>
     </g>
    </g>
    <g id="xtick_10">
     <g id="line2d_30">
      <path d="M 606.042268 302.0575 
L 606.042268 24.8575 
" clip-path="url(#pa52c3de41f)" style="fill: none; stroke: #cccccc; stroke-width: 0.8; stroke-linecap: round"/>
     </g>
     <g id="text_28">
      <!-- 4 -->
      <g style="fill: #262626" transform="translate(603.261799 316.215313) scale(0.1 -0.1)">
       <use xlink:href="#ArialMT-34"/>
      </g>
     </g>
    </g>
    <g id="xtick_11">
     <g id="line2d_31">
      <path d="M 659.84392 302.0575 
L 659.84392 24.8575 
" clip-path="url(#pa52c3de41f)" style="fill: none; stroke: #cccccc; stroke-width: 0.8; stroke-linecap: round"/>
     </g>
     <g id="text_29">
      <!-- 6 -->
      <g style="fill: #262626" transform="translate(657.063452 316.215313) scale(0.1 -0.1)">
       <use xlink:href="#ArialMT-36"/>
      </g>
     </g>
    </g>
    <g id="xtick_12">
     <g id="line2d_32">
      <path d="M 713.645573 302.0575 
L 713.645573 24.8575 
" clip-path="url(#pa52c3de41f)" style="fill: none; stroke: #cccccc; stroke-width: 0.8; stroke-linecap: round"/>
     </g>
     <g id="text_30">
      <!-- 8 -->
      <g style="fill: #262626" transform="translate(710.865105 316.215313) scale(0.1 -0.1)">
       <use xlink:href="#ArialMT-38"/>
      </g>
     </g>
    </g>
    <g id="xtick_13">
     <g id="line2d_33">
      <path d="M 767.447226 302.0575 
L 767.447226 24.8575 
" clip-path="url(#pa52c3de41f)" style="fill: none; stroke: #cccccc; stroke-width: 0.8; stroke-linecap: round"/>
     </g>
     <g id="text_31">
      <!-- 10 -->
      <g style="fill: #262626" transform="translate(761.886289 316.215313) scale(0.1 -0.1)">
       <use xlink:href="#ArialMT-31"/>
       <use xlink:href="#ArialMT-30" x="55.615234"/>
      </g>
     </g>
    </g>
    <g id="xtick_14">
     <g id="line2d_34">
      <path d="M 821.248879 302.0575 
L 821.248879 24.8575 
" clip-path="url(#pa52c3de41f)" style="fill: none; stroke: #cccccc; stroke-width: 0.8; stroke-linecap: round"/>
     </g>
     <g id="text_32">
      <!-- 12 -->
      <g style="fill: #262626" transform="translate(815.687942 316.215313) scale(0.1 -0.1)">
       <use xlink:href="#ArialMT-31"/>
       <use xlink:href="#ArialMT-32" x="55.615234"/>
      </g>
     </g>
    </g>
    <g id="text_33">
     <!-- Value -->
     <g style="fill: #262626" transform="translate(642.45767 332.22375) scale(0.14 -0.14)">
      <use xlink:href="#ArialMT-56"/>
      <use xlink:href="#ArialMT-61" x="59.324219"/>
      <use xlink:href="#ArialMT-6c" x="114.939453"/>
      <use xlink:href="#ArialMT-75" x="137.15625"/>
      <use xlink:href="#ArialMT-65" x="192.771484"/>
     </g>
    </g>
   </g>
   <g id="matplotlib.axis_4">
    <g id="ytick_9">
     <g id="line2d_35">
      <path d="M 482.298466 289.899053 
L 837.389375 289.899053 
" clip-path="url(#pa52c3de41f)" style="fill: none; stroke-dasharray: 2.96,1.28; stroke-dashoffset: 0; stroke: #cccccc; stroke-opacity: 0.7; stroke-width: 0.8"/>
     </g>
     <g id="text_34">
      <!-- 0.00 -->
      <g style="fill: #262626" transform="translate(455.837528 293.477959) scale(0.1 -0.1)">
       <use xlink:href="#ArialMT-30"/>
       <use xlink:href="#ArialMT-2e" x="55.615234"/>
       <use xlink:href="#ArialMT-30" x="83.398438"/>
       <use xlink:href="#ArialMT-30" x="139.013672"/>
      </g>
     </g>
    </g>
    <g id="ytick_10">
     <g id="line2d_36">
      <path d="M 482.298466 256.114916 
L 837.389375 256.114916 
" clip-path="url(#pa52c3de41f)" style="fill: none; stroke-dasharray: 2.96,1.28; stroke-dashoffset: 0; stroke: #cccccc; stroke-opacity: 0.7; stroke-width: 0.8"/>
     </g>
     <g id="text_35">
      <!-- 0.05 -->
      <g style="fill: #262626" transform="translate(455.837528 259.693822) scale(0.1 -0.1)">
       <use xlink:href="#ArialMT-30"/>
       <use xlink:href="#ArialMT-2e" x="55.615234"/>
       <use xlink:href="#ArialMT-30" x="83.398438"/>
       <use xlink:href="#ArialMT-35" x="139.013672"/>
      </g>
     </g>
    </g>
    <g id="ytick_11">
     <g id="line2d_37">
      <path d="M 482.298466 222.330779 
L 837.389375 222.330779 
" clip-path="url(#pa52c3de41f)" style="fill: none; stroke-dasharray: 2.96,1.28; stroke-dashoffset: 0; stroke: #cccccc; stroke-opacity: 0.7; stroke-width: 0.8"/>
     </g>
     <g id="text_36">
      <!-- 0.10 -->
      <g style="fill: #262626" transform="translate(455.837528 225.909685) scale(0.1 -0.1)">
       <use xlink:href="#ArialMT-30"/>
       <use xlink:href="#ArialMT-2e" x="55.615234"/>
       <use xlink:href="#ArialMT-31" x="83.398438"/>
       <use xlink:href="#ArialMT-30" x="139.013672"/>
      </g>
     </g>
    </g>
    <g id="ytick_12">
     <g id="line2d_38">
      <path d="M 482.298466 188.546641 
L 837.389375 188.546641 
" clip-path="url(#pa52c3de41f)" style="fill: none; stroke-dasharray: 2.96,1.28; stroke-dashoffset: 0; stroke: #cccccc; stroke-opacity: 0.7; stroke-width: 0.8"/>
     </g>
     <g id="text_37">
      <!-- 0.15 -->
      <g style="fill: #262626" transform="translate(455.837528 192.125548) scale(0.1 -0.1)">
       <use xlink:href="#ArialMT-30"/>
       <use xlink:href="#ArialMT-2e" x="55.615234"/>
       <use xlink:href="#ArialMT-31" x="83.398438"/>
       <use xlink:href="#ArialMT-35" x="139.013672"/>
      </g>
     </g>
    </g>
    <g id="ytick_13">
     <g id="line2d_39">
      <path d="M 482.298466 154.762504 
L 837.389375 154.762504 
" clip-path="url(#pa52c3de41f)" style="fill: none; stroke-dasharray: 2.96,1.28; stroke-dashoffset: 0; stroke: #cccccc; stroke-opacity: 0.7; stroke-width: 0.8"/>
     </g>
     <g id="text_38">
      <!-- 0.20 -->
      <g style="fill: #262626" transform="translate(455.837528 158.34141) scale(0.1 -0.1)">
       <use xlink:href="#ArialMT-30"/>
       <use xlink:href="#ArialMT-2e" x="55.615234"/>
       <use xlink:href="#ArialMT-32" x="83.398438"/>
       <use xlink:href="#ArialMT-30" x="139.013672"/>
      </g>
     </g>
    </g>
    <g id="ytick_14">
     <g id="line2d_40">
      <path d="M 482.298466 120.978367 
L 837.389375 120.978367 
" clip-path="url(#pa52c3de41f)" style="fill: none; stroke-dasharray: 2.96,1.28; stroke-dashoffset: 0; stroke: #cccccc; stroke-opacity: 0.7; stroke-width: 0.8"/>
     </g>
     <g id="text_39">
      <!-- 0.25 -->
      <g style="fill: #262626" transform="translate(455.837528 124.557273) scale(0.1 -0.1)">
       <use xlink:href="#ArialMT-30"/>
       <use xlink:href="#ArialMT-2e" x="55.615234"/>
       <use xlink:href="#ArialMT-32" x="83.398438"/>
       <use xlink:href="#ArialMT-35" x="139.013672"/>
      </g>
     </g>
    </g>
    <g id="ytick_15">
     <g id="line2d_41">
      <path d="M 482.298466 87.19423 
L 837.389375 87.19423 
" clip-path="url(#pa52c3de41f)" style="fill: none; stroke-dasharray: 2.96,1.28; stroke-dashoffset: 0; stroke: #cccccc; stroke-opacity: 0.7; stroke-width: 0.8"/>
     </g>
     <g id="text_40">
      <!-- 0.30 -->
      <g style="fill: #262626" transform="translate(455.837528 90.773136) scale(0.1 -0.1)">
       <use xlink:href="#ArialMT-30"/>
       <use xlink:href="#ArialMT-2e" x="55.615234"/>
       <use xlink:href="#ArialMT-33" x="83.398438"/>
       <use xlink:href="#ArialMT-30" x="139.013672"/>
      </g>
     </g>
    </g>
    <g id="ytick_16">
     <g id="line2d_42">
      <path d="M 482.298466 53.410093 
L 837.389375 53.410093 
" clip-path="url(#pa52c3de41f)" style="fill: none; stroke-dasharray: 2.96,1.28; stroke-dashoffset: 0; stroke: #cccccc; stroke-opacity: 0.7; stroke-width: 0.8"/>
     </g>
     <g id="text_41">
      <!-- 0.35 -->
      <g style="fill: #262626" transform="translate(455.837528 56.988999) scale(0.1 -0.1)">
       <use xlink:href="#ArialMT-30"/>
       <use xlink:href="#ArialMT-2e" x="55.615234"/>
       <use xlink:href="#ArialMT-33" x="83.398438"/>
       <use xlink:href="#ArialMT-35" x="139.013672"/>
      </g>
     </g>
    </g>
    <g id="text_42">
     <!-- Density -->
     <g style="fill: #262626" transform="translate(448.890966 186.798125) rotate(-90) scale(0.14 -0.14)">
      <use xlink:href="#ArialMT-44"/>
      <use xlink:href="#ArialMT-65" x="72.216797"/>
      <use xlink:href="#ArialMT-6e" x="127.832031"/>
      <use xlink:href="#ArialMT-73" x="183.447266"/>
      <use xlink:href="#ArialMT-69" x="233.447266"/>
      <use xlink:href="#ArialMT-74" x="255.664062"/>
      <use xlink:href="#ArialMT-79" x="283.447266"/>
     </g>
    </g>
   </g>
   <g id="line2d_43">
    <path d="M 525.339788 106.129244 
L 525.662921 106.022063 
L 525.986054 106.141865 
L 526.389971 106.604861 
L 526.87467 107.606178 
L 527.440153 109.35946 
L 528.167202 112.466967 
L 529.055818 117.399515 
L 530.186784 125.071297 
L 532.287149 141.28576 
L 533.983597 153.557314 
L 535.03378 159.625178 
L 535.841612 163.108895 
L 536.487878 165.01355 
L 536.972578 165.87586 
L 537.376494 166.202636 
L 537.699627 166.199144 
L 538.02276 165.955296 
L 538.426677 165.307868 
L 538.911376 164.024723 
L 539.476859 161.831523 
L 540.123125 158.424262 
L 540.930958 152.875733 
L 541.900357 144.497407 
L 543.112106 131.842834 
L 544.889338 110.505357 
L 547.635969 77.635153 
L 548.847718 65.816104 
L 549.817117 58.431177 
L 550.544166 54.334688 
L 551.190432 51.831154 
L 551.675132 50.689387 
L 552.079048 50.230346 
L 552.402181 50.187704 
L 552.725314 50.433271 
L 553.129231 51.142319 
L 553.61393 52.572597 
L 554.179413 55.013902 
L 554.906462 59.303616 
L 555.795078 66.125539 
L 556.845261 76.033062 
L 558.380143 92.893998 
L 561.449907 127.091338 
L 562.580872 137.17111 
L 563.469488 143.378719 
L 564.196538 147.14155 
L 564.842804 149.40428 
L 565.327503 150.403738 
L 565.73142 150.771056 
L 566.054553 150.758664 
L 566.377686 150.474834 
L 566.781602 149.74201 
L 567.266302 148.318945 
L 567.831784 145.935462 
L 568.558834 141.797048 
L 569.44745 135.272357 
L 570.578415 125.076285 
L 572.274864 107.340927 
L 574.779145 81.284811 
L 575.910111 71.701764 
L 576.798727 65.815222 
L 577.525776 62.285443 
L 578.091259 60.41902 
L 578.575958 59.46276 
L 578.979875 59.131206 
L 579.303008 59.173848 
L 579.626141 59.490698 
L 580.030057 60.270427 
L 580.514757 61.76078 
L 581.080239 64.242101 
L 581.807289 68.544131 
L 582.695905 75.338631 
L 583.746087 85.18634 
L 585.280969 101.997428 
L 588.754649 140.82491 
L 589.885615 150.816888 
L 590.855014 157.512365 
L 591.662847 161.570875 
L 592.309113 163.7502 
L 592.793812 164.744185 
L 593.197729 165.150607 
L 593.520862 165.201044 
L 593.843995 165.010154 
L 594.247911 164.438462 
L 594.732611 163.27851 
L 595.298094 161.303262 
L 596.025143 157.856709 
L 596.913759 152.437821 
L 598.044725 144.053743 
L 600.064306 127.016772 
L 601.841538 112.736675 
L 602.972504 105.365198 
L 603.861119 101.005488 
L 604.507386 98.780596 
L 605.072868 97.552427 
L 605.476785 97.1075 
L 605.799918 97.01866 
L 606.042268 97.110248 
L 606.042268 97.110248 
" clip-path="url(#pa52c3de41f)" style="fill: none; stroke: #440154; stroke-opacity: 0.8; stroke-width: 2; stroke-linecap: round"/>
   </g>
   <g id="line2d_44">
    <path d="M 498.438962 262.664982 
L 501.077882 259.867199 
L 502.397342 258.168833 
L 503.528307 256.399623 
L 504.659273 254.230939 
L 505.790239 251.55984 
L 506.921204 248.292341 
L 508.05217 244.351288 
L 509.37163 238.833755 
L 510.69109 232.301498 
L 512.199044 223.652637 
L 514.083987 211.363249 
L 520.681287 166.69864 
L 522.000747 159.993675 
L 523.131712 155.365462 
L 524.074184 152.362904 
L 525.016655 150.149849 
L 525.770632 148.932191 
L 526.524609 148.174829 
L 527.090092 147.882781 
L 527.655575 147.801166 
L 528.409552 147.970701 
L 529.163529 148.38735 
L 530.482989 149.445265 
L 531.802449 150.473045 
L 532.556426 150.836344 
L 533.121909 150.924303 
L 533.687392 150.808709 
L 534.252875 150.451225 
L 534.818358 149.816608 
L 535.383841 148.873391 
L 536.137818 147.08967 
L 536.891795 144.659705 
L 537.834266 140.666133 
L 538.776738 135.593786 
L 539.907703 128.129391 
L 541.227163 117.721637 
L 542.923612 102.31114 
L 547.447474 59.985159 
L 548.766934 50.376921 
L 549.709406 44.960353 
L 550.463383 41.625732 
L 551.21736 39.244436 
L 551.782843 38.106229 
L 552.159831 37.659726 
L 552.53682 37.46287 
L 552.913809 37.513667 
L 553.290797 37.808503 
L 553.85628 38.696499 
L 554.421763 40.097324 
L 555.17574 42.706935 
L 556.118211 47.024526 
L 557.249177 53.448324 
L 558.945625 64.643217 
L 561.584545 82.055618 
L 562.715511 88.184296 
L 563.657982 92.239729 
L 564.41196 94.669649 
L 565.165937 96.308361 
L 565.73142 96.99597 
L 566.108408 97.192901 
L 566.485397 97.181042 
L 566.862385 96.962594 
L 567.427868 96.25641 
L 567.993351 95.114124 
L 568.747328 92.961283 
L 569.689799 89.381635 
L 570.820765 84.066714 
L 572.894202 72.872376 
L 574.590651 64.137281 
L 575.721616 59.434157 
L 576.475593 57.06298 
L 577.229571 55.436413 
L 577.795053 54.762161 
L 578.172042 54.590798 
L 578.549031 54.651118 
L 578.926019 54.949371 
L 579.303008 55.490338 
L 579.86849 56.763676 
L 580.433973 58.595006 
L 581.18795 61.899096 
L 581.941928 66.163157 
L 582.884399 72.767875 
L 584.015365 82.376313 
L 585.334825 95.503918 
L 587.219767 116.684441 
L 591.74363 168.698694 
L 593.440079 185.269379 
L 594.948033 197.745482 
L 596.267493 206.799008 
L 597.398458 213.20498 
L 598.529424 218.455049 
L 599.66039 222.684715 
L 600.791355 226.059355 
L 601.922321 228.759798 
L 603.241781 231.301268 
L 604.93823 234.015709 
L 608.89661 240.12072 
L 611.158541 244.175517 
L 616.247886 253.571982 
L 617.755841 255.773654 
L 619.075301 257.284882 
L 620.206266 258.234183 
L 621.148738 258.774956 
L 622.091209 259.095256 
L 623.03368 259.211767 
L 624.164646 259.118827 
L 625.484106 258.763635 
L 627.746037 257.848462 
L 629.63098 257.163257 
L 630.95044 256.912985 
L 632.081406 256.926687 
L 633.212372 257.192227 
L 634.343337 257.731326 
L 635.474303 258.548443 
L 636.605269 259.631348 
L 637.924729 261.193553 
L 639.621177 263.572842 
L 642.448591 268.011289 
L 645.276005 272.305896 
L 647.160948 274.75006 
L 648.668902 276.369755 
L 650.176857 277.671414 
L 651.684811 278.669559 
L 653.192765 279.403196 
L 654.889214 279.981669 
L 657.151145 280.495757 
L 664.87941 282.047404 
L 669.780262 283.145507 
L 672.042193 283.414554 
L 674.11563 283.445797 
L 676.377562 283.245126 
L 679.204976 282.749581 
L 683.540344 281.979387 
L 685.613781 281.841505 
L 686.744747 281.868889 
L 686.744747 281.868889 
" clip-path="url(#pa52c3de41f)" style="fill: none; stroke: #414487; stroke-opacity: 0.8; stroke-width: 2; stroke-linecap: round"/>
   </g>
   <g id="line2d_45">
    <path d="M 498.438962 243.566929 
L 500.62011 237.664132 
L 502.558908 231.748461 
L 504.497706 225.085887 
L 506.436505 217.607592 
L 508.617653 208.221775 
L 511.041151 196.748045 
L 515.403447 174.69268 
L 518.311644 160.523852 
L 520.250443 152.014817 
L 521.946891 145.451924 
L 523.40099 140.581561 
L 524.855089 136.441953 
L 526.309187 133.018293 
L 527.520936 130.670962 
L 528.732685 128.725742 
L 530.186784 126.822553 
L 531.883232 125.017025 
L 537.699627 119.243753 
L 539.396076 117.05459 
L 541.334874 114.18699 
L 547.393619 104.878461 
L 548.605368 103.51361 
L 549.817117 102.485771 
L 550.786516 101.941415 
L 551.755915 101.663855 
L 552.725314 101.662115 
L 553.694713 101.936066 
L 554.664113 102.47642 
L 555.633512 103.265154 
L 556.845261 104.560237 
L 558.299359 106.480416 
L 560.480507 109.828507 
L 564.358104 115.859071 
L 566.296902 118.397191 
L 567.993351 120.242658 
L 569.689799 121.777839 
L 575.263845 126.476375 
L 576.475593 127.912014 
L 577.687342 129.657081 
L 578.899091 131.766342 
L 580.11084 134.277548 
L 581.564939 137.845896 
L 583.019038 142.011018 
L 584.715486 147.557868 
L 586.896634 155.555937 
L 590.531881 169.983535 
L 593.924778 183.140884 
L 596.348276 191.634876 
L 598.529424 198.431828 
L 600.710572 204.436148 
L 602.89172 209.771269 
L 605.557568 215.650315 
L 609.435165 223.564358 
L 615.00921 234.454061 
L 618.159757 240.188688 
L 620.583255 244.191189 
L 622.764403 247.412488 
L 624.945551 250.261082 
L 627.369049 253.037666 
L 630.277246 255.981357 
L 649.18053 274.029827 
L 651.604028 275.891017 
L 654.027526 277.472071 
L 656.451023 278.774564 
L 658.874521 279.822633 
L 661.540369 280.723795 
L 664.448566 281.459467 
L 667.599114 282.018027 
L 670.992011 282.386088 
L 674.627258 282.555763 
L 679.474253 282.535608 
L 689.168245 282.44438 
L 704.920981 282.612505 
L 715.342022 282.438746 
L 722.854865 282.644599 
L 730.367709 282.761823 
L 737.153503 282.891636 
L 740.5464 283.173298 
L 740.5464 283.173298 
" clip-path="url(#pa52c3de41f)" style="fill: none; stroke: #2a788e; stroke-opacity: 0.8; stroke-width: 2; stroke-linecap: round"/>
   </g>
   <g id="line2d_46">
    <path d="M 498.438962 213.761073 
L 504.09379 197.161039 
L 509.210063 181.461561 
L 519.981165 148.073238 
L 523.212496 138.945673 
L 526.174549 131.224295 
L 529.136602 124.148961 
L 531.829377 118.262358 
L 534.522152 112.891981 
L 536.94565 108.542116 
L 539.099871 105.140264 
L 540.715536 102.944086 
L 542.331201 101.118637 
L 543.677589 99.929953 
L 544.754699 99.226741 
L 545.831809 98.766952 
L 546.908919 98.571151 
L 547.98603 98.658295 
L 548.793862 98.919439 
L 549.870972 99.539921 
L 550.948082 100.481387 
L 552.025193 101.750729 
L 553.102303 103.35041 
L 554.448691 105.8107 
L 555.795078 108.768408 
L 557.410743 112.93629 
L 559.026409 117.716019 
L 560.911352 123.951781 
L 563.334849 132.765434 
L 567.374013 148.498553 
L 571.951731 166.139146 
L 574.913784 176.643236 
L 577.337282 184.465405 
L 579.760779 191.520781 
L 581.915 197.140319 
L 584.06922 202.165879 
L 586.22344 206.632659 
L 588.377661 210.585586 
L 590.531881 214.075571 
L 592.686101 217.157584 
L 595.109599 220.209626 
L 597.533097 222.90499 
L 600.49515 225.841679 
L 604.265036 229.23158 
L 616.382525 239.598292 
L 623.922296 245.905394 
L 632.2699 252.54009 
L 643.848834 261.833764 
L 649.234385 265.985152 
L 653.273548 268.811699 
L 657.043434 271.164256 
L 660.81332 273.237403 
L 664.583205 275.057896 
L 668.622368 276.769814 
L 673.200087 278.462965 
L 678.31636 280.108367 
L 684.779021 281.934729 
L 693.66518 284.208128 
L 699.320008 285.459527 
L 703.359171 286.130557 
L 706.590502 286.454597 
L 709.552555 286.539212 
L 712.514608 286.391866 
L 715.476661 286.000555 
L 718.438714 285.373253 
L 721.670044 284.455994 
L 725.978485 282.976098 
L 733.518256 280.350058 
L 736.749586 279.482244 
L 739.711639 278.922155 
L 742.404415 278.633093 
L 745.09719 278.554652 
L 748.059243 278.691703 
L 751.290574 279.063477 
L 755.329737 279.764316 
L 760.984565 280.998453 
L 767.447226 282.574064 
L 767.447226 282.574064 
" clip-path="url(#pa52c3de41f)" style="fill: none; stroke: #22a884; stroke-opacity: 0.8; stroke-width: 2; stroke-linecap: round"/>
   </g>
   <g id="line2d_47">
    <path d="M 498.438962 166.497676 
L 499.919988 164.135501 
L 501.401015 162.168056 
L 502.882041 160.585472 
L 504.363068 159.370581 
L 505.844094 158.499537 
L 507.325121 157.942621 
L 508.806147 157.66521 
L 510.287174 157.628855 
L 512.064405 157.845434 
L 514.137842 158.363784 
L 517.099895 159.380853 
L 521.542975 160.910401 
L 523.912617 161.485635 
L 525.986054 161.770211 
L 528.059491 161.82695 
L 530.132928 161.658012 
L 532.502571 161.221709 
L 535.464624 160.418534 
L 541.092524 158.820181 
L 543.165962 158.478127 
L 544.943193 158.394874 
L 546.720425 158.556451 
L 548.201452 158.908069 
L 549.682478 159.477653 
L 551.163505 160.279556 
L 552.644531 161.322833 
L 554.125557 162.610982 
L 555.902789 164.476573 
L 557.680021 166.677157 
L 559.753458 169.633948 
L 562.1231 173.456552 
L 564.788948 178.193678 
L 568.935822 186.076251 
L 574.267518 196.147453 
L 577.229571 201.283127 
L 579.895418 205.457164 
L 582.265061 208.755094 
L 584.634703 211.645466 
L 586.70814 213.844601 
L 588.781577 215.753874 
L 591.151219 217.617456 
L 593.520862 219.19414 
L 596.18671 220.704297 
L 599.741173 222.444152 
L 608.331127 226.53576 
L 611.589385 228.377477 
L 614.847643 230.471617 
L 618.105901 232.826843 
L 621.660365 235.671844 
L 625.807239 239.291425 
L 631.138934 244.2697 
L 645.060583 257.448652 
L 649.207458 260.997346 
L 652.761921 263.772093 
L 656.316385 266.2587 
L 659.574643 268.267966 
L 662.832901 270.02 
L 666.091159 271.532169 
L 669.645623 272.945584 
L 673.792497 274.355725 
L 680.012808 276.200396 
L 690.676199 279.355688 
L 698.969947 282.098289 
L 707.856106 284.993645 
L 712.891596 286.40101 
L 717.334676 287.42463 
L 721.777755 288.223792 
L 726.220835 288.804789 
L 730.960119 289.208118 
L 736.291815 289.430211 
L 741.62351 289.429719 
L 746.659 289.216466 
L 751.398285 288.792781 
L 755.545159 288.207609 
L 759.692033 287.391243 
L 763.542702 286.412958 
L 767.689576 285.133918 
L 773.021271 283.230626 
L 782.203636 279.91172 
L 785.758099 278.895804 
L 788.720152 278.269525 
L 791.386 277.91415 
L 794.051847 277.776531 
L 794.348053 277.775133 
L 794.348053 277.775133 
" clip-path="url(#pa52c3de41f)" style="fill: none; stroke: #7ad151; stroke-opacity: 0.8; stroke-width: 2; stroke-linecap: round"/>
   </g>
   <g id="line2d_48">
    <path d="M 498.438962 161.482641 
L 500.37776 158.072482 
L 501.993425 155.649654 
L 503.609091 153.601661 
L 505.224756 151.915879 
L 506.840421 150.573701 
L 508.456086 149.551329 
L 510.071752 148.820712 
L 511.687417 148.350598 
L 513.303082 148.107656 
L 515.24188 148.067765 
L 517.180679 148.24713 
L 519.765743 148.732394 
L 523.320207 149.669939 
L 531.398533 152.121746 
L 535.922396 153.6429 
L 538.830593 154.836576 
L 541.415657 156.153256 
L 543.677589 157.575725 
L 545.616387 159.04035 
L 547.555185 160.763236 
L 549.493984 162.767469 
L 551.432782 165.067757 
L 553.694713 168.131944 
L 555.956645 171.596366 
L 558.541709 176.008532 
L 561.449907 181.462753 
L 565.00437 188.633866 
L 575.021495 209.169933 
L 577.929692 214.507549 
L 580.514757 218.820114 
L 582.776688 222.21764 
L 585.038619 225.246325 
L 587.300551 227.904968 
L 589.562482 230.206379 
L 591.824413 232.175351 
L 594.086345 233.846161 
L 596.348276 235.259798 
L 598.93334 236.618081 
L 601.841538 237.899893 
L 605.719135 239.356938 
L 618.644457 244.022691 
L 623.814585 246.226065 
L 629.954113 249.096435 
L 638.355573 253.293537 
L 647.080165 257.8846 
L 654.189092 261.870771 
L 661.621152 266.305472 
L 672.607676 272.879185 
L 676.808406 275.120954 
L 680.362869 276.787194 
L 683.5942 278.077833 
L 686.82553 279.134785 
L 690.056861 279.95527 
L 693.288191 280.553772 
L 696.842655 280.992529 
L 701.366517 281.309313 
L 716.876904 282.165339 
L 721.7239 282.791881 
L 726.894028 283.694437 
L 734.649222 285.313591 
L 743.373814 287.083282 
L 748.867076 287.975392 
L 754.037205 288.595097 
L 759.207333 288.987115 
L 764.377462 289.149805 
L 769.224458 289.089825 
L 774.071454 288.810415 
L 778.595316 288.332176 
L 783.119179 287.625367 
L 787.643042 286.682477 
L 792.490038 285.428477 
L 798.629566 283.579544 
L 807.677291 280.838061 
L 811.878021 279.823512 
L 815.432484 279.206307 
L 818.663815 278.881757 
L 821.248879 278.800375 
L 821.248879 278.800375 
" clip-path="url(#pa52c3de41f)" style="fill: none; stroke: #fde725; stroke-opacity: 0.8; stroke-width: 2; stroke-linecap: round"/>
   </g>
   <g id="patch_9">
    <path d="M 482.298466 302.0575 
L 482.298466 24.8575 
" style="fill: none; stroke: #cccccc; stroke-width: 0.8; stroke-linejoin: miter; stroke-linecap: square"/>
   </g>
   <g id="patch_10">
    <path d="M 837.389375 302.0575 
L 837.389375 24.8575 
" style="fill: none; stroke: #cccccc; stroke-width: 0.8; stroke-linejoin: miter; stroke-linecap: square"/>
   </g>
   <g id="patch_11">
    <path d="M 482.298466 302.0575 
L 837.389375 302.0575 
" style="fill: none; stroke: #cccccc; stroke-width: 0.8; stroke-linejoin: miter; stroke-linecap: square"/>
   </g>
   <g id="patch_12">
    <path d="M 482.298466 24.8575 
L 837.389375 24.8575 
" style="fill: none; stroke: #cccccc; stroke-width: 0.8; stroke-linejoin: miter; stroke-linecap: square"/>
   </g>
   <g id="text_43">
    <!-- Distribution of Capacities - SOURCE (PDF) -->
    <g style="fill: #262626" transform="translate(506.47767 18.8575) scale(0.16 -0.16)">
     <defs>
      <path id="ArialMT-53" d="M 288 1472 
L 859 1522 
Q 900 1178 1048 958 
Q 1197 738 1509 602 
Q 1822 466 2213 466 
Q 2559 466 2825 569 
Q 3091 672 3220 851 
Q 3350 1031 3350 1244 
Q 3350 1459 3225 1620 
Q 3100 1781 2813 1891 
Q 2628 1963 1997 2114 
Q 1366 2266 1113 2400 
Q 784 2572 623 2826 
Q 463 3081 463 3397 
Q 463 3744 659 4045 
Q 856 4347 1234 4503 
Q 1613 4659 2075 4659 
Q 2584 4659 2973 4495 
Q 3363 4331 3572 4012 
Q 3781 3694 3797 3291 
L 3216 3247 
Q 3169 3681 2898 3903 
Q 2628 4125 2100 4125 
Q 1550 4125 1298 3923 
Q 1047 3722 1047 3438 
Q 1047 3191 1225 3031 
Q 1400 2872 2139 2705 
Q 2878 2538 3153 2413 
Q 3553 2228 3743 1945 
Q 3934 1663 3934 1294 
Q 3934 928 3725 604 
Q 3516 281 3123 101 
Q 2731 -78 2241 -78 
Q 1619 -78 1198 103 
Q 778 284 539 648 
Q 300 1013 288 1472 
z
" transform="scale(0.015625)"/>
      <path id="ArialMT-4f" d="M 309 2231 
Q 309 3372 921 4017 
Q 1534 4663 2503 4663 
Q 3138 4663 3647 4359 
Q 4156 4056 4423 3514 
Q 4691 2972 4691 2284 
Q 4691 1588 4409 1038 
Q 4128 488 3612 205 
Q 3097 -78 2500 -78 
Q 1853 -78 1343 234 
Q 834 547 571 1087 
Q 309 1628 309 2231 
z
M 934 2222 
Q 934 1394 1379 917 
Q 1825 441 2497 441 
Q 3181 441 3623 922 
Q 4066 1403 4066 2288 
Q 4066 2847 3877 3264 
Q 3688 3681 3323 3911 
Q 2959 4141 2506 4141 
Q 1863 4141 1398 3698 
Q 934 3256 934 2222 
z
" transform="scale(0.015625)"/>
      <path id="ArialMT-55" d="M 3500 4581 
L 4106 4581 
L 4106 1934 
Q 4106 1244 3950 837 
Q 3794 431 3386 176 
Q 2978 -78 2316 -78 
Q 1672 -78 1262 144 
Q 853 366 678 786 
Q 503 1206 503 1934 
L 503 4581 
L 1109 4581 
L 1109 1938 
Q 1109 1341 1220 1058 
Q 1331 775 1601 622 
Q 1872 469 2263 469 
Q 2931 469 3215 772 
Q 3500 1075 3500 1938 
L 3500 4581 
z
" transform="scale(0.015625)"/>
      <path id="ArialMT-52" d="M 503 0 
L 503 4581 
L 2534 4581 
Q 3147 4581 3465 4457 
Q 3784 4334 3975 4021 
Q 4166 3709 4166 3331 
Q 4166 2844 3850 2509 
Q 3534 2175 2875 2084 
Q 3116 1969 3241 1856 
Q 3506 1613 3744 1247 
L 4541 0 
L 3778 0 
L 3172 953 
Q 2906 1366 2734 1584 
Q 2563 1803 2427 1890 
Q 2291 1978 2150 2013 
Q 2047 2034 1813 2034 
L 1109 2034 
L 1109 0 
L 503 0 
z
M 1109 2559 
L 2413 2559 
Q 2828 2559 3062 2645 
Q 3297 2731 3419 2920 
Q 3541 3109 3541 3331 
Q 3541 3656 3305 3865 
Q 3069 4075 2559 4075 
L 1109 4075 
L 1109 2559 
z
" transform="scale(0.015625)"/>
      <path id="ArialMT-45" d="M 506 0 
L 506 4581 
L 3819 4581 
L 3819 4041 
L 1113 4041 
L 1113 2638 
L 3647 2638 
L 3647 2100 
L 1113 2100 
L 1113 541 
L 3925 541 
L 3925 0 
L 506 0 
z
" transform="scale(0.015625)"/>
     </defs>
     <use xlink:href="#ArialMT-44"/>
     <use xlink:href="#ArialMT-69" x="72.216797"/>
     <use xlink:href="#ArialMT-73" x="94.433594"/>
     <use xlink:href="#ArialMT-74" x="144.433594"/>
     <use xlink:href="#ArialMT-72" x="172.216797"/>
     <use xlink:href="#ArialMT-69" x="205.517578"/>
     <use xlink:href="#ArialMT-62" x="227.734375"/>
     <use xlink:href="#ArialMT-75" x="283.349609"/>
     <use xlink:href="#ArialMT-74" x="338.964844"/>
     <use xlink:href="#ArialMT-69" x="366.748047"/>
     <use xlink:href="#ArialMT-6f" x="388.964844"/>
     <use xlink:href="#ArialMT-6e" x="444.580078"/>
     <use xlink:href="#ArialMT-20" x="500.195312"/>
     <use xlink:href="#ArialMT-6f" x="527.978516"/>
     <use xlink:href="#ArialMT-66" x="583.59375"/>
     <use xlink:href="#ArialMT-20" x="611.376953"/>
     <use xlink:href="#ArialMT-43" x="639.160156"/>
     <use xlink:href="#ArialMT-61" x="711.376953"/>
     <use xlink:href="#ArialMT-70" x="766.992188"/>
     <use xlink:href="#ArialMT-61" x="822.607422"/>
     <use xlink:href="#ArialMT-63" x="878.222656"/>
     <use xlink:href="#ArialMT-69" x="928.222656"/>
     <use xlink:href="#ArialMT-74" x="950.439453"/>
     <use xlink:href="#ArialMT-69" x="978.222656"/>
     <use xlink:href="#ArialMT-65" x="1000.439453"/>
     <use xlink:href="#ArialMT-73" x="1056.054688"/>
     <use xlink:href="#ArialMT-20" x="1106.054688"/>
     <use xlink:href="#ArialMT-2d" x="1133.837891"/>
     <use xlink:href="#ArialMT-20" x="1167.138672"/>
     <use xlink:href="#ArialMT-53" x="1194.921875"/>
     <use xlink:href="#ArialMT-4f" x="1261.621094"/>
     <use xlink:href="#ArialMT-55" x="1339.404297"/>
     <use xlink:href="#ArialMT-52" x="1411.621094"/>
     <use xlink:href="#ArialMT-43" x="1483.837891"/>
     <use xlink:href="#ArialMT-45" x="1556.054688"/>
     <use xlink:href="#ArialMT-20" x="1622.753906"/>
     <use xlink:href="#ArialMT-28" x="1650.537109"/>
     <use xlink:href="#ArialMT-50" x="1683.837891"/>
     <use xlink:href="#ArialMT-44" x="1750.537109"/>
     <use xlink:href="#ArialMT-46" x="1822.753906"/>
     <use xlink:href="#ArialMT-29" x="1883.837891"/>
    </g>
   </g>
   <g id="legend_2">
    <g id="patch_13">
     <path d="M 783.91625 151.449063 
L 828.989375 151.449063 
Q 831.389375 151.449063 831.389375 149.049063 
L 831.389375 33.2575 
Q 831.389375 30.8575 828.989375 30.8575 
L 783.91625 30.8575 
Q 781.51625 30.8575 781.51625 33.2575 
L 781.51625 149.049063 
Q 781.51625 151.449063 783.91625 151.449063 
z
" style="fill: #ffffff; opacity: 0.8; stroke: #cccccc; stroke-linejoin: miter"/>
    </g>
    <g id="text_44">
     <!-- median -->
     <g style="fill: #262626" transform="translate(790.055156 42.815313) scale(0.1 -0.1)">
      <use xlink:href="#ArialMT-6d"/>
      <use xlink:href="#ArialMT-65" x="83.300781"/>
      <use xlink:href="#ArialMT-64" x="138.916016"/>
      <use xlink:href="#ArialMT-69" x="194.53125"/>
      <use xlink:href="#ArialMT-61" x="216.748047"/>
      <use xlink:href="#ArialMT-6e" x="272.363281"/>
     </g>
    </g>
    <g id="line2d_49">
     <path d="M 786.31625 55.192188 
L 798.31625 55.192188 
L 810.31625 55.192188 
" style="fill: none; stroke: #440154; stroke-opacity: 0.8; stroke-width: 2; stroke-linecap: round"/>
    </g>
    <g id="text_45">
     <!-- 2 -->
     <g style="fill: #262626" transform="translate(819.91625 59.392188) scale(0.12 -0.12)">
      <use xlink:href="#ArialMT-32"/>
     </g>
    </g>
    <g id="line2d_50">
     <path d="M 786.31625 72.166563 
L 798.31625 72.166563 
L 810.31625 72.166563 
" style="fill: none; stroke: #414487; stroke-opacity: 0.8; stroke-width: 2; stroke-linecap: round"/>
    </g>
    <g id="text_46">
     <!-- 2 -->
     <g style="fill: #262626" transform="translate(819.91625 76.366563) scale(0.12 -0.12)">
      <use xlink:href="#ArialMT-32"/>
     </g>
    </g>
    <g id="line2d_51">
     <path d="M 786.31625 89.140938 
L 798.31625 89.140938 
L 810.31625 89.140938 
" style="fill: none; stroke: #2a788e; stroke-opacity: 0.8; stroke-width: 2; stroke-linecap: round"/>
    </g>
    <g id="text_47">
     <!-- 2 -->
     <g style="fill: #262626" transform="translate(819.91625 93.340938) scale(0.12 -0.12)">
      <use xlink:href="#ArialMT-32"/>
     </g>
    </g>
    <g id="line2d_52">
     <path d="M 786.31625 106.115313 
L 798.31625 106.115313 
L 810.31625 106.115313 
" style="fill: none; stroke: #22a884; stroke-opacity: 0.8; stroke-width: 2; stroke-linecap: round"/>
    </g>
    <g id="text_48">
     <!-- 2 -->
     <g style="fill: #262626" transform="translate(819.91625 110.315313) scale(0.12 -0.12)">
      <use xlink:href="#ArialMT-32"/>
     </g>
    </g>
    <g id="line2d_53">
     <path d="M 786.31625 123.089688 
L 798.31625 123.089688 
L 810.31625 123.089688 
" style="fill: none; stroke: #7ad151; stroke-opacity: 0.8; stroke-width: 2; stroke-linecap: round"/>
    </g>
    <g id="text_49">
     <!-- 2 -->
     <g style="fill: #262626" transform="translate(819.91625 127.289688) scale(0.12 -0.12)">
      <use xlink:href="#ArialMT-32"/>
     </g>
    </g>
    <g id="line2d_54">
     <path d="M 786.31625 140.064063 
L 798.31625 140.064063 
L 810.31625 140.064063 
" style="fill: none; stroke: #fde725; stroke-opacity: 0.8; stroke-width: 2; stroke-linecap: round"/>
    </g>
    <g id="text_50">
     <!-- 2 -->
     <g style="fill: #262626" transform="translate(819.91625 144.264063) scale(0.12 -0.12)">
      <use xlink:href="#ArialMT-32"/>
     </g>
    </g>
   </g>
  </g>
 </g>
 <defs>
  <clipPath id="p2129c54b21">
   <rect x="56.189375" y="24.8575" width="355.090909" height="277.2"/>
  </clipPath>
  <clipPath id="pa52c3de41f">
   <rect x="482.298466" y="24.8575" width="355.090909" height="277.2"/>
  </clipPath>
 </defs>
</svg>
