<?xml version="1.0" encoding="utf-8" standalone="no"?>
<!DOCTYPE svg PUBLIC "-//W3C//DTD SVG 1.1//EN"
  "http://www.w3.org/Graphics/SVG/1.1/DTD/svg11.dtd">
<svg xmlns:xlink="http://www.w3.org/1999/xlink" width="844.589375pt" height="342.20625pt" viewBox="0 0 844.589375 342.20625" xmlns="http://www.w3.org/2000/svg" version="1.1">
 <metadata>
  <rdf:RDF xmlns:dc="http://purl.org/dc/elements/1.1/" xmlns:cc="http://creativecommons.org/ns#" xmlns:rdf="http://www.w3.org/1999/02/22-rdf-syntax-ns#">
   <cc:Work>
    <dc:type rdf:resource="http://purl.org/dc/dcmitype/StillImage"/>
    <dc:date>2025-03-03T14:24:36.938955</dc:date>
    <dc:format>image/svg+xml</dc:format>
    <dc:creator>
     <cc:Agent>
      <dc:title>Matplotlib v3.9.0, https://matplotlib.org/</dc:title>
     </cc:Agent>
    </dc:creator>
   </cc:Work>
  </rdf:RDF>
 </metadata>
 <defs>
  <style type="text/css">*{stroke-linejoin: round; stroke-linecap: butt}</style>
 </defs>
 <g id="figure_1">
  <g id="patch_1">
   <path d="M 0 342.20625 
L 844.589375 342.20625 
L 844.589375 0 
L 0 0 
z
" style="fill: #ffffff"/>
  </g>
  <g id="axes_1">
   <g id="patch_2">
    <path d="M 56.189375 302.0575 
L 411.280284 302.0575 
L 411.280284 24.8575 
L 56.189375 24.8575 
z
" style="fill: #ffffff"/>
   </g>
   <g id="matplotlib.axis_1">
    <g id="xtick_1">
     <g id="line2d_1">
      <path d="M 72.329871 302.0575 
L 72.329871 24.8575 
" clip-path="url(#pe6c36af0be)" style="fill: none; stroke: #cccccc; stroke-width: 0.8; stroke-linecap: round"/>
     </g>
     <g id="text_1">
      <!-- 0 -->
      <g style="fill: #262626" transform="translate(69.549402 316.215313) scale(0.1 -0.1)">
       <defs>
        <path id="ArialMT-30" d="M 266 2259 
Q 266 3072 433 3567 
Q 600 4063 929 4331 
Q 1259 4600 1759 4600 
Q 2128 4600 2406 4451 
Q 2684 4303 2865 4023 
Q 3047 3744 3150 3342 
Q 3253 2941 3253 2259 
Q 3253 1453 3087 958 
Q 2922 463 2592 192 
Q 2263 -78 1759 -78 
Q 1097 -78 719 397 
Q 266 969 266 2259 
z
M 844 2259 
Q 844 1131 1108 757 
Q 1372 384 1759 384 
Q 2147 384 2411 759 
Q 2675 1134 2675 2259 
Q 2675 3391 2411 3762 
Q 2147 4134 1753 4134 
Q 1366 4134 1134 3806 
Q 844 3388 844 2259 
z
" transform="scale(0.015625)"/>
       </defs>
       <use xlink:href="#ArialMT-30"/>
      </g>
     </g>
    </g>
    <g id="xtick_2">
     <g id="line2d_2">
      <path d="M 134.768926 302.0575 
L 134.768926 24.8575 
" clip-path="url(#pe6c36af0be)" style="fill: none; stroke: #cccccc; stroke-width: 0.8; stroke-linecap: round"/>
     </g>
     <g id="text_2">
      <!-- 200 -->
      <g style="fill: #262626" transform="translate(126.42752 316.215313) scale(0.1 -0.1)">
       <defs>
        <path id="ArialMT-32" d="M 3222 541 
L 3222 0 
L 194 0 
Q 188 203 259 391 
Q 375 700 629 1000 
Q 884 1300 1366 1694 
Q 2113 2306 2375 2664 
Q 2638 3022 2638 3341 
Q 2638 3675 2398 3904 
Q 2159 4134 1775 4134 
Q 1369 4134 1125 3890 
Q 881 3647 878 3216 
L 300 3275 
Q 359 3922 746 4261 
Q 1134 4600 1788 4600 
Q 2447 4600 2831 4234 
Q 3216 3869 3216 3328 
Q 3216 3053 3103 2787 
Q 2991 2522 2730 2228 
Q 2469 1934 1863 1422 
Q 1356 997 1212 845 
Q 1069 694 975 541 
L 3222 541 
z
" transform="scale(0.015625)"/>
       </defs>
       <use xlink:href="#ArialMT-32"/>
       <use xlink:href="#ArialMT-30" x="55.615234"/>
       <use xlink:href="#ArialMT-30" x="111.230469"/>
      </g>
     </g>
    </g>
    <g id="xtick_3">
     <g id="line2d_3">
      <path d="M 197.207982 302.0575 
L 197.207982 24.8575 
" clip-path="url(#pe6c36af0be)" style="fill: none; stroke: #cccccc; stroke-width: 0.8; stroke-linecap: round"/>
     </g>
     <g id="text_3">
      <!-- 400 -->
      <g style="fill: #262626" transform="translate(188.866576 316.215313) scale(0.1 -0.1)">
       <defs>
        <path id="ArialMT-34" d="M 2069 0 
L 2069 1097 
L 81 1097 
L 81 1613 
L 2172 4581 
L 2631 4581 
L 2631 1613 
L 3250 1613 
L 3250 1097 
L 2631 1097 
L 2631 0 
L 2069 0 
z
M 2069 1613 
L 2069 3678 
L 634 1613 
L 2069 1613 
z
" transform="scale(0.015625)"/>
       </defs>
       <use xlink:href="#ArialMT-34"/>
       <use xlink:href="#ArialMT-30" x="55.615234"/>
       <use xlink:href="#ArialMT-30" x="111.230469"/>
      </g>
     </g>
    </g>
    <g id="xtick_4">
     <g id="line2d_4">
      <path d="M 259.647038 302.0575 
L 259.647038 24.8575 
" clip-path="url(#pe6c36af0be)" style="fill: none; stroke: #cccccc; stroke-width: 0.8; stroke-linecap: round"/>
     </g>
     <g id="text_4">
      <!-- 600 -->
      <g style="fill: #262626" transform="translate(251.305631 316.215313) scale(0.1 -0.1)">
       <defs>
        <path id="ArialMT-36" d="M 3184 3459 
L 2625 3416 
Q 2550 3747 2413 3897 
Q 2184 4138 1850 4138 
Q 1581 4138 1378 3988 
Q 1113 3794 959 3422 
Q 806 3050 800 2363 
Q 1003 2672 1297 2822 
Q 1591 2972 1913 2972 
Q 2475 2972 2870 2558 
Q 3266 2144 3266 1488 
Q 3266 1056 3080 686 
Q 2894 316 2569 119 
Q 2244 -78 1831 -78 
Q 1128 -78 684 439 
Q 241 956 241 2144 
Q 241 3472 731 4075 
Q 1159 4600 1884 4600 
Q 2425 4600 2770 4297 
Q 3116 3994 3184 3459 
z
M 888 1484 
Q 888 1194 1011 928 
Q 1134 663 1356 523 
Q 1578 384 1822 384 
Q 2178 384 2434 671 
Q 2691 959 2691 1453 
Q 2691 1928 2437 2201 
Q 2184 2475 1800 2475 
Q 1419 2475 1153 2201 
Q 888 1928 888 1484 
z
" transform="scale(0.015625)"/>
       </defs>
       <use xlink:href="#ArialMT-36"/>
       <use xlink:href="#ArialMT-30" x="55.615234"/>
       <use xlink:href="#ArialMT-30" x="111.230469"/>
      </g>
     </g>
    </g>
    <g id="xtick_5">
     <g id="line2d_5">
      <path d="M 322.086093 302.0575 
L 322.086093 24.8575 
" clip-path="url(#pe6c36af0be)" style="fill: none; stroke: #cccccc; stroke-width: 0.8; stroke-linecap: round"/>
     </g>
     <g id="text_5">
      <!-- 800 -->
      <g style="fill: #262626" transform="translate(313.744687 316.215313) scale(0.1 -0.1)">
       <defs>
        <path id="ArialMT-38" d="M 1131 2484 
Q 781 2613 612 2850 
Q 444 3088 444 3419 
Q 444 3919 803 4259 
Q 1163 4600 1759 4600 
Q 2359 4600 2725 4251 
Q 3091 3903 3091 3403 
Q 3091 3084 2923 2848 
Q 2756 2613 2416 2484 
Q 2838 2347 3058 2040 
Q 3278 1734 3278 1309 
Q 3278 722 2862 322 
Q 2447 -78 1769 -78 
Q 1091 -78 675 323 
Q 259 725 259 1325 
Q 259 1772 486 2073 
Q 713 2375 1131 2484 
z
M 1019 3438 
Q 1019 3113 1228 2906 
Q 1438 2700 1772 2700 
Q 2097 2700 2305 2904 
Q 2513 3109 2513 3406 
Q 2513 3716 2298 3927 
Q 2084 4138 1766 4138 
Q 1444 4138 1231 3931 
Q 1019 3725 1019 3438 
z
M 838 1322 
Q 838 1081 952 856 
Q 1066 631 1291 507 
Q 1516 384 1775 384 
Q 2178 384 2440 643 
Q 2703 903 2703 1303 
Q 2703 1709 2433 1975 
Q 2163 2241 1756 2241 
Q 1359 2241 1098 1978 
Q 838 1716 838 1322 
z
" transform="scale(0.015625)"/>
       </defs>
       <use xlink:href="#ArialMT-38"/>
       <use xlink:href="#ArialMT-30" x="55.615234"/>
       <use xlink:href="#ArialMT-30" x="111.230469"/>
      </g>
     </g>
    </g>
    <g id="xtick_6">
     <g id="line2d_6">
      <path d="M 384.525149 302.0575 
L 384.525149 24.8575 
" clip-path="url(#pe6c36af0be)" style="fill: none; stroke: #cccccc; stroke-width: 0.8; stroke-linecap: round"/>
     </g>
     <g id="text_6">
      <!-- 1000 -->
      <g style="fill: #262626" transform="translate(373.403274 316.215313) scale(0.1 -0.1)">
       <defs>
        <path id="ArialMT-31" d="M 2384 0 
L 1822 0 
L 1822 3584 
Q 1619 3391 1289 3197 
Q 959 3003 697 2906 
L 697 3450 
Q 1169 3672 1522 3987 
Q 1875 4303 2022 4600 
L 2384 4600 
L 2384 0 
z
" transform="scale(0.015625)"/>
       </defs>
       <use xlink:href="#ArialMT-31"/>
       <use xlink:href="#ArialMT-30" x="55.615234"/>
       <use xlink:href="#ArialMT-30" x="111.230469"/>
       <use xlink:href="#ArialMT-30" x="166.845703"/>
      </g>
     </g>
    </g>
    <g id="text_7">
     <!-- Value -->
     <g style="fill: #262626" transform="translate(216.34858 332.22375) scale(0.14 -0.14)">
      <defs>
       <path id="ArialMT-56" d="M 1803 0 
L 28 4581 
L 684 4581 
L 1875 1253 
Q 2019 853 2116 503 
Q 2222 878 2363 1253 
L 3600 4581 
L 4219 4581 
L 2425 0 
L 1803 0 
z
" transform="scale(0.015625)"/>
       <path id="ArialMT-61" d="M 2588 409 
Q 2275 144 1986 34 
Q 1697 -75 1366 -75 
Q 819 -75 525 192 
Q 231 459 231 875 
Q 231 1119 342 1320 
Q 453 1522 633 1644 
Q 813 1766 1038 1828 
Q 1203 1872 1538 1913 
Q 2219 1994 2541 2106 
Q 2544 2222 2544 2253 
Q 2544 2597 2384 2738 
Q 2169 2928 1744 2928 
Q 1347 2928 1158 2789 
Q 969 2650 878 2297 
L 328 2372 
Q 403 2725 575 2942 
Q 747 3159 1072 3276 
Q 1397 3394 1825 3394 
Q 2250 3394 2515 3294 
Q 2781 3194 2906 3042 
Q 3031 2891 3081 2659 
Q 3109 2516 3109 2141 
L 3109 1391 
Q 3109 606 3145 398 
Q 3181 191 3288 0 
L 2700 0 
Q 2613 175 2588 409 
z
M 2541 1666 
Q 2234 1541 1622 1453 
Q 1275 1403 1131 1340 
Q 988 1278 909 1158 
Q 831 1038 831 891 
Q 831 666 1001 516 
Q 1172 366 1500 366 
Q 1825 366 2078 508 
Q 2331 650 2450 897 
Q 2541 1088 2541 1459 
L 2541 1666 
z
" transform="scale(0.015625)"/>
       <path id="ArialMT-6c" d="M 409 0 
L 409 4581 
L 972 4581 
L 972 0 
L 409 0 
z
" transform="scale(0.015625)"/>
       <path id="ArialMT-75" d="M 2597 0 
L 2597 488 
Q 2209 -75 1544 -75 
Q 1250 -75 995 37 
Q 741 150 617 320 
Q 494 491 444 738 
Q 409 903 409 1263 
L 409 3319 
L 972 3319 
L 972 1478 
Q 972 1038 1006 884 
Q 1059 663 1231 536 
Q 1403 409 1656 409 
Q 1909 409 2131 539 
Q 2353 669 2445 892 
Q 2538 1116 2538 1541 
L 2538 3319 
L 3100 3319 
L 3100 0 
L 2597 0 
z
" transform="scale(0.015625)"/>
       <path id="ArialMT-65" d="M 2694 1069 
L 3275 997 
Q 3138 488 2766 206 
Q 2394 -75 1816 -75 
Q 1088 -75 661 373 
Q 234 822 234 1631 
Q 234 2469 665 2931 
Q 1097 3394 1784 3394 
Q 2450 3394 2872 2941 
Q 3294 2488 3294 1666 
Q 3294 1616 3291 1516 
L 816 1516 
Q 847 969 1125 678 
Q 1403 388 1819 388 
Q 2128 388 2347 550 
Q 2566 713 2694 1069 
z
M 847 1978 
L 2700 1978 
Q 2663 2397 2488 2606 
Q 2219 2931 1791 2931 
Q 1403 2931 1139 2672 
Q 875 2413 847 1978 
z
" transform="scale(0.015625)"/>
      </defs>
      <use xlink:href="#ArialMT-56"/>
      <use xlink:href="#ArialMT-61" x="59.324219"/>
      <use xlink:href="#ArialMT-6c" x="114.939453"/>
      <use xlink:href="#ArialMT-75" x="137.15625"/>
      <use xlink:href="#ArialMT-65" x="192.771484"/>
     </g>
    </g>
   </g>
   <g id="matplotlib.axis_2">
    <g id="ytick_1">
     <g id="line2d_7">
      <path d="M 56.189375 289.4575 
L 411.280284 289.4575 
" clip-path="url(#pe6c36af0be)" style="fill: none; stroke-dasharray: 2.96,1.28; stroke-dashoffset: 0; stroke: #cccccc; stroke-opacity: 0.7; stroke-width: 0.8"/>
     </g>
     <g id="text_8">
      <!-- 0.000 -->
      <g style="fill: #262626" transform="translate(24.1675 293.036406) scale(0.1 -0.1)">
       <defs>
        <path id="ArialMT-2e" d="M 581 0 
L 581 641 
L 1222 641 
L 1222 0 
L 581 0 
z
" transform="scale(0.015625)"/>
       </defs>
       <use xlink:href="#ArialMT-30"/>
       <use xlink:href="#ArialMT-2e" x="55.615234"/>
       <use xlink:href="#ArialMT-30" x="83.398438"/>
       <use xlink:href="#ArialMT-30" x="139.013672"/>
       <use xlink:href="#ArialMT-30" x="194.628906"/>
      </g>
     </g>
    </g>
    <g id="ytick_2">
     <g id="line2d_8">
      <path d="M 56.189375 251.060774 
L 411.280284 251.060774 
" clip-path="url(#pe6c36af0be)" style="fill: none; stroke-dasharray: 2.96,1.28; stroke-dashoffset: 0; stroke: #cccccc; stroke-opacity: 0.7; stroke-width: 0.8"/>
     </g>
     <g id="text_9">
      <!-- 0.001 -->
      <g style="fill: #262626" transform="translate(24.1675 254.63968) scale(0.1 -0.1)">
       <use xlink:href="#ArialMT-30"/>
       <use xlink:href="#ArialMT-2e" x="55.615234"/>
       <use xlink:href="#ArialMT-30" x="83.398438"/>
       <use xlink:href="#ArialMT-30" x="139.013672"/>
       <use xlink:href="#ArialMT-31" x="194.628906"/>
      </g>
     </g>
    </g>
    <g id="ytick_3">
     <g id="line2d_9">
      <path d="M 56.189375 212.664048 
L 411.280284 212.664048 
" clip-path="url(#pe6c36af0be)" style="fill: none; stroke-dasharray: 2.96,1.28; stroke-dashoffset: 0; stroke: #cccccc; stroke-opacity: 0.7; stroke-width: 0.8"/>
     </g>
     <g id="text_10">
      <!-- 0.002 -->
      <g style="fill: #262626" transform="translate(24.1675 216.242954) scale(0.1 -0.1)">
       <use xlink:href="#ArialMT-30"/>
       <use xlink:href="#ArialMT-2e" x="55.615234"/>
       <use xlink:href="#ArialMT-30" x="83.398438"/>
       <use xlink:href="#ArialMT-30" x="139.013672"/>
       <use xlink:href="#ArialMT-32" x="194.628906"/>
      </g>
     </g>
    </g>
    <g id="ytick_4">
     <g id="line2d_10">
      <path d="M 56.189375 174.267321 
L 411.280284 174.267321 
" clip-path="url(#pe6c36af0be)" style="fill: none; stroke-dasharray: 2.96,1.28; stroke-dashoffset: 0; stroke: #cccccc; stroke-opacity: 0.7; stroke-width: 0.8"/>
     </g>
     <g id="text_11">
      <!-- 0.003 -->
      <g style="fill: #262626" transform="translate(24.1675 177.846228) scale(0.1 -0.1)">
       <defs>
        <path id="ArialMT-33" d="M 269 1209 
L 831 1284 
Q 928 806 1161 595 
Q 1394 384 1728 384 
Q 2125 384 2398 659 
Q 2672 934 2672 1341 
Q 2672 1728 2419 1979 
Q 2166 2231 1775 2231 
Q 1616 2231 1378 2169 
L 1441 2663 
Q 1497 2656 1531 2656 
Q 1891 2656 2178 2843 
Q 2466 3031 2466 3422 
Q 2466 3731 2256 3934 
Q 2047 4138 1716 4138 
Q 1388 4138 1169 3931 
Q 950 3725 888 3313 
L 325 3413 
Q 428 3978 793 4289 
Q 1159 4600 1703 4600 
Q 2078 4600 2393 4439 
Q 2709 4278 2876 4000 
Q 3044 3722 3044 3409 
Q 3044 3113 2884 2869 
Q 2725 2625 2413 2481 
Q 2819 2388 3044 2092 
Q 3269 1797 3269 1353 
Q 3269 753 2831 336 
Q 2394 -81 1725 -81 
Q 1122 -81 723 278 
Q 325 638 269 1209 
z
" transform="scale(0.015625)"/>
       </defs>
       <use xlink:href="#ArialMT-30"/>
       <use xlink:href="#ArialMT-2e" x="55.615234"/>
       <use xlink:href="#ArialMT-30" x="83.398438"/>
       <use xlink:href="#ArialMT-30" x="139.013672"/>
       <use xlink:href="#ArialMT-33" x="194.628906"/>
      </g>
     </g>
    </g>
    <g id="ytick_5">
     <g id="line2d_11">
      <path d="M 56.189375 135.870595 
L 411.280284 135.870595 
" clip-path="url(#pe6c36af0be)" style="fill: none; stroke-dasharray: 2.96,1.28; stroke-dashoffset: 0; stroke: #cccccc; stroke-opacity: 0.7; stroke-width: 0.8"/>
     </g>
     <g id="text_12">
      <!-- 0.004 -->
      <g style="fill: #262626" transform="translate(24.1675 139.449502) scale(0.1 -0.1)">
       <use xlink:href="#ArialMT-30"/>
       <use xlink:href="#ArialMT-2e" x="55.615234"/>
       <use xlink:href="#ArialMT-30" x="83.398438"/>
       <use xlink:href="#ArialMT-30" x="139.013672"/>
       <use xlink:href="#ArialMT-34" x="194.628906"/>
      </g>
     </g>
    </g>
    <g id="ytick_6">
     <g id="line2d_12">
      <path d="M 56.189375 97.473869 
L 411.280284 97.473869 
" clip-path="url(#pe6c36af0be)" style="fill: none; stroke-dasharray: 2.96,1.28; stroke-dashoffset: 0; stroke: #cccccc; stroke-opacity: 0.7; stroke-width: 0.8"/>
     </g>
     <g id="text_13">
      <!-- 0.005 -->
      <g style="fill: #262626" transform="translate(24.1675 101.052775) scale(0.1 -0.1)">
       <defs>
        <path id="ArialMT-35" d="M 266 1200 
L 856 1250 
Q 922 819 1161 601 
Q 1400 384 1738 384 
Q 2144 384 2425 690 
Q 2706 997 2706 1503 
Q 2706 1984 2436 2262 
Q 2166 2541 1728 2541 
Q 1456 2541 1237 2417 
Q 1019 2294 894 2097 
L 366 2166 
L 809 4519 
L 3088 4519 
L 3088 3981 
L 1259 3981 
L 1013 2750 
Q 1425 3038 1878 3038 
Q 2478 3038 2890 2622 
Q 3303 2206 3303 1553 
Q 3303 931 2941 478 
Q 2500 -78 1738 -78 
Q 1113 -78 717 272 
Q 322 622 266 1200 
z
" transform="scale(0.015625)"/>
       </defs>
       <use xlink:href="#ArialMT-30"/>
       <use xlink:href="#ArialMT-2e" x="55.615234"/>
       <use xlink:href="#ArialMT-30" x="83.398438"/>
       <use xlink:href="#ArialMT-30" x="139.013672"/>
       <use xlink:href="#ArialMT-35" x="194.628906"/>
      </g>
     </g>
    </g>
    <g id="ytick_7">
     <g id="line2d_13">
      <path d="M 56.189375 59.077143 
L 411.280284 59.077143 
" clip-path="url(#pe6c36af0be)" style="fill: none; stroke-dasharray: 2.96,1.28; stroke-dashoffset: 0; stroke: #cccccc; stroke-opacity: 0.7; stroke-width: 0.8"/>
     </g>
     <g id="text_14">
      <!-- 0.006 -->
      <g style="fill: #262626" transform="translate(24.1675 62.656049) scale(0.1 -0.1)">
       <use xlink:href="#ArialMT-30"/>
       <use xlink:href="#ArialMT-2e" x="55.615234"/>
       <use xlink:href="#ArialMT-30" x="83.398438"/>
       <use xlink:href="#ArialMT-30" x="139.013672"/>
       <use xlink:href="#ArialMT-36" x="194.628906"/>
      </g>
     </g>
    </g>
    <g id="text_15">
     <!-- Density -->
     <g style="fill: #262626" transform="translate(17.220937 186.798125) rotate(-90) scale(0.14 -0.14)">
      <defs>
       <path id="ArialMT-44" d="M 494 0 
L 494 4581 
L 2072 4581 
Q 2606 4581 2888 4516 
Q 3281 4425 3559 4188 
Q 3922 3881 4101 3404 
Q 4281 2928 4281 2316 
Q 4281 1794 4159 1391 
Q 4038 988 3847 723 
Q 3656 459 3429 307 
Q 3203 156 2883 78 
Q 2563 0 2147 0 
L 494 0 
z
M 1100 541 
L 2078 541 
Q 2531 541 2789 625 
Q 3047 709 3200 863 
Q 3416 1078 3536 1442 
Q 3656 1806 3656 2325 
Q 3656 3044 3420 3430 
Q 3184 3816 2847 3947 
Q 2603 4041 2063 4041 
L 1100 4041 
L 1100 541 
z
" transform="scale(0.015625)"/>
       <path id="ArialMT-6e" d="M 422 0 
L 422 3319 
L 928 3319 
L 928 2847 
Q 1294 3394 1984 3394 
Q 2284 3394 2536 3286 
Q 2788 3178 2913 3003 
Q 3038 2828 3088 2588 
Q 3119 2431 3119 2041 
L 3119 0 
L 2556 0 
L 2556 2019 
Q 2556 2363 2490 2533 
Q 2425 2703 2258 2804 
Q 2091 2906 1866 2906 
Q 1506 2906 1245 2678 
Q 984 2450 984 1813 
L 984 0 
L 422 0 
z
" transform="scale(0.015625)"/>
       <path id="ArialMT-73" d="M 197 991 
L 753 1078 
Q 800 744 1014 566 
Q 1228 388 1613 388 
Q 2000 388 2187 545 
Q 2375 703 2375 916 
Q 2375 1106 2209 1216 
Q 2094 1291 1634 1406 
Q 1016 1563 777 1677 
Q 538 1791 414 1992 
Q 291 2194 291 2438 
Q 291 2659 392 2848 
Q 494 3038 669 3163 
Q 800 3259 1026 3326 
Q 1253 3394 1513 3394 
Q 1903 3394 2198 3281 
Q 2494 3169 2634 2976 
Q 2775 2784 2828 2463 
L 2278 2388 
Q 2241 2644 2061 2787 
Q 1881 2931 1553 2931 
Q 1166 2931 1000 2803 
Q 834 2675 834 2503 
Q 834 2394 903 2306 
Q 972 2216 1119 2156 
Q 1203 2125 1616 2013 
Q 2213 1853 2448 1751 
Q 2684 1650 2818 1456 
Q 2953 1263 2953 975 
Q 2953 694 2789 445 
Q 2625 197 2315 61 
Q 2006 -75 1616 -75 
Q 969 -75 630 194 
Q 291 463 197 991 
z
" transform="scale(0.015625)"/>
       <path id="ArialMT-69" d="M 425 3934 
L 425 4581 
L 988 4581 
L 988 3934 
L 425 3934 
z
M 425 0 
L 425 3319 
L 988 3319 
L 988 0 
L 425 0 
z
" transform="scale(0.015625)"/>
       <path id="ArialMT-74" d="M 1650 503 
L 1731 6 
Q 1494 -44 1306 -44 
Q 1000 -44 831 53 
Q 663 150 594 308 
Q 525 466 525 972 
L 525 2881 
L 113 2881 
L 113 3319 
L 525 3319 
L 525 4141 
L 1084 4478 
L 1084 3319 
L 1650 3319 
L 1650 2881 
L 1084 2881 
L 1084 941 
Q 1084 700 1114 631 
Q 1144 563 1211 522 
Q 1278 481 1403 481 
Q 1497 481 1650 503 
z
" transform="scale(0.015625)"/>
       <path id="ArialMT-79" d="M 397 -1278 
L 334 -750 
Q 519 -800 656 -800 
Q 844 -800 956 -737 
Q 1069 -675 1141 -563 
Q 1194 -478 1313 -144 
Q 1328 -97 1363 -6 
L 103 3319 
L 709 3319 
L 1400 1397 
Q 1534 1031 1641 628 
Q 1738 1016 1872 1384 
L 2581 3319 
L 3144 3319 
L 1881 -56 
Q 1678 -603 1566 -809 
Q 1416 -1088 1222 -1217 
Q 1028 -1347 759 -1347 
Q 597 -1347 397 -1278 
z
" transform="scale(0.015625)"/>
      </defs>
      <use xlink:href="#ArialMT-44"/>
      <use xlink:href="#ArialMT-65" x="72.216797"/>
      <use xlink:href="#ArialMT-6e" x="127.832031"/>
      <use xlink:href="#ArialMT-73" x="183.447266"/>
      <use xlink:href="#ArialMT-69" x="233.447266"/>
      <use xlink:href="#ArialMT-74" x="255.664062"/>
      <use xlink:href="#ArialMT-79" x="283.447266"/>
     </g>
    </g>
   </g>
   <g id="line2d_14">
    <path d="M 72.642066 53.642607 
L 73.446461 45.487377 
L 74.065227 41.19492 
L 74.560239 39.013731 
L 74.993375 38.004342 
L 75.302757 37.783049 
L 75.550264 37.896332 
L 75.859646 38.388012 
L 76.230906 39.467991 
L 76.725918 41.681608 
L 77.344683 45.558852 
L 78.149078 52.125899 
L 79.262856 63.229473 
L 83.470461 107.17269 
L 84.584239 115.769871 
L 85.63614 122.206445 
L 86.564288 126.602661 
L 87.492436 129.94572 
L 88.358708 132.281895 
L 89.286856 134.140006 
L 90.27688 135.61116 
L 91.576288 137.105169 
L 94.422609 140.256635 
L 96.093275 142.542853 
L 99.620238 147.522046 
L 100.610263 148.494757 
L 101.414658 149.00761 
L 102.0953 149.209595 
L 102.775942 149.175775 
L 103.394707 148.928053 
L 104.075349 148.41042 
L 104.817868 147.55446 
L 105.684139 146.189577 
L 106.674164 144.198804 
L 107.973571 141.043257 
L 112.923695 128.407362 
L 113.975596 126.569532 
L 114.903744 125.363584 
L 115.708139 124.645193 
L 116.450658 124.248114 
L 117.193176 124.096673 
L 117.935695 124.177892 
L 118.678213 124.478278 
L 119.482608 125.038165 
L 120.34888 125.905646 
L 121.277028 127.143684 
L 122.267052 128.84375 
L 123.257077 130.991886 
L 124.247102 133.670587 
L 125.237126 136.980243 
L 126.289028 141.307689 
L 127.340929 146.586805 
L 128.454707 153.311851 
L 129.692237 162.203881 
L 131.115398 174.193967 
L 132.847941 190.86547 
L 134.456731 207.532872 
L 134.456731 207.532872 
" clip-path="url(#pe6c36af0be)" style="fill: none; stroke: #440154; stroke-opacity: 0.8; stroke-width: 2; stroke-linecap: round"/>
   </g>
   <g id="line2d_15">
    <path d="M 72.329871 89.590019 
L 73.188642 81.227379 
L 73.904285 76.587171 
L 74.476799 74.40144 
L 74.906185 73.62338 
L 75.192442 73.496467 
L 75.478699 73.668064 
L 75.764956 74.123142 
L 76.194342 75.300102 
L 76.766856 77.692293 
L 77.482499 81.769377 
L 78.484399 88.879637 
L 81.633228 112.387572 
L 82.635128 117.818044 
L 83.493899 121.186102 
L 84.209542 123.042199 
L 84.782056 123.913927 
L 85.211442 124.224079 
L 85.640827 124.254128 
L 86.070213 124.019636 
L 86.499599 123.537843 
L 87.072113 122.542556 
L 87.787756 120.794583 
L 88.646527 118.073314 
L 89.791556 113.620176 
L 91.36597 106.459352 
L 94.657927 90.026745 
L 96.947984 79.236838 
L 98.37927 73.450883 
L 99.524298 69.623277 
L 100.526198 66.995598 
L 101.38497 65.353405 
L 102.100613 64.450792 
L 102.673127 64.047815 
L 103.245641 63.935458 
L 103.818155 64.116727 
L 104.39067 64.591393 
L 104.963184 65.356114 
L 105.678827 66.710152 
L 106.537598 68.894814 
L 107.539498 72.164255 
L 108.684527 76.759876 
L 109.972684 82.888177 
L 111.547098 91.552865 
L 113.264641 102.277977 
L 115.125312 115.28739 
L 117.129112 130.922086 
L 119.27604 149.482225 
L 122.567997 180.235722 
L 125.28744 204.867257 
L 127.004983 218.606432 
L 128.579397 229.448676 
L 130.010683 237.758213 
L 131.29884 244.045459 
L 132.586997 249.340077 
L 134.018283 254.253321 
L 135.449568 258.349522 
L 136.880854 261.801358 
L 138.455268 265.003374 
L 140.029683 267.693205 
L 141.604097 269.954352 
L 143.32164 272.012802 
L 145.039182 273.721597 
L 146.899854 275.256097 
L 148.903654 276.618949 
L 151.193711 277.908459 
L 159.924553 282.530572 
L 167.796624 287.482764 
L 169.657296 288.241897 
L 171.517967 288.769298 
L 173.664895 289.137254 
L 176.384338 289.355268 
L 180.821324 289.447159 
L 198.998652 289.441709 
L 205.010051 289.287315 
L 210.019551 288.914058 
L 214.456537 288.642163 
L 215.315308 288.633181 
L 215.315308 288.633181 
" clip-path="url(#pe6c36af0be)" style="fill: none; stroke: #414487; stroke-opacity: 0.8; stroke-width: 2; stroke-linecap: round"/>
   </g>
   <g id="line2d_16">
    <path d="M 72.329871 104.673368 
L 73.320521 96.148954 
L 74.11304 91.307601 
L 74.70743 88.815019 
L 75.30182 87.248592 
L 75.69808 86.684131 
L 76.09434 86.472675 
L 76.4906 86.583403 
L 76.886859 86.982246 
L 77.481249 88.039911 
L 78.273769 90.101564 
L 79.660679 94.597765 
L 81.047588 98.838455 
L 81.840108 100.626134 
L 82.434498 101.520833 
L 83.028887 101.974686 
L 83.425147 102.015607 
L 83.821407 101.840765 
L 84.217667 101.44852 
L 84.812057 100.456848 
L 85.406447 98.998169 
L 86.198966 96.382248 
L 87.189616 92.184831 
L 88.576526 85.049421 
L 92.737254 62.523931 
L 93.727904 58.481825 
L 94.718554 55.385103 
L 95.511073 53.67747 
L 96.105463 52.875789 
L 96.699853 52.496897 
L 97.096113 52.481339 
L 97.492373 52.655066 
L 98.086763 53.266585 
L 98.681152 54.289446 
L 99.473672 56.264893 
L 100.266192 58.892035 
L 101.256842 62.995876 
L 102.445621 68.935751 
L 104.030661 78.154388 
L 106.21009 92.296364 
L 110.965208 125.042065 
L 115.522197 157.670605 
L 121.664225 202.084592 
L 123.645524 214.522307 
L 125.230564 223.160782 
L 126.617473 229.643549 
L 128.004383 235.120225 
L 129.391292 239.670075 
L 130.778202 243.434407 
L 132.165112 246.591456 
L 133.948281 250.056576 
L 136.7221 254.840053 
L 144.845427 268.275572 
L 147.222987 271.731053 
L 149.204286 274.249078 
L 150.987456 276.178264 
L 152.572495 277.599453 
L 154.157534 278.739535 
L 155.742574 279.615602 
L 157.525743 280.334778 
L 159.705173 280.944065 
L 163.469641 281.703571 
L 171.989229 283.216625 
L 180.112556 284.495897 
L 183.877025 285.390974 
L 192.792872 287.632188 
L 197.151731 288.408008 
L 201.510589 288.966798 
L 205.671318 289.281486 
L 210.822696 289.427519 
L 222.908622 289.457458 
L 257.581361 289.350175 
L 263.128999 289.055232 
L 269.469157 288.721578 
L 270.261677 288.716001 
L 270.261677 288.716001 
" clip-path="url(#pe6c36af0be)" style="fill: none; stroke: #2a788e; stroke-opacity: 0.8; stroke-width: 2; stroke-linecap: round"/>
   </g>
   <g id="line2d_17">
    <path d="M 72.329871 108.041217 
L 73.551776 96.111081 
L 74.773682 86.458263 
L 75.751206 80.31816 
L 76.72873 75.438986 
L 77.706255 71.62299 
L 78.683779 68.638577 
L 79.905685 65.715854 
L 81.371971 62.854147 
L 84.793306 56.831373 
L 86.259593 54.574265 
L 87.237117 53.428921 
L 87.970261 52.861901 
L 88.703404 52.612857 
L 89.192166 52.650968 
L 89.680928 52.869151 
L 90.16969 53.279337 
L 90.902834 54.274513 
L 91.635977 55.742502 
L 92.36912 57.688964 
L 93.346644 61.011133 
L 94.324169 65.108033 
L 95.546074 71.171427 
L 97.256742 80.976299 
L 100.678077 102.494045 
L 103.61065 120.227263 
L 106.298842 134.99402 
L 109.720177 152.353309 
L 116.807229 186.90968 
L 120.228564 202.70117 
L 122.916756 214.134814 
L 125.360567 223.52456 
L 127.559997 231.058531 
L 129.759427 237.733647 
L 131.958856 243.63701 
L 134.158286 248.877481 
L 136.357716 253.519976 
L 138.312765 257.136285 
L 140.023432 259.870522 
L 141.7341 262.174202 
L 143.200387 263.804371 
L 144.666673 265.140678 
L 146.377341 266.393699 
L 148.57677 267.693467 
L 152.731249 270.064151 
L 154.930679 271.633507 
L 157.130109 273.492183 
L 160.795825 276.959026 
L 163.484017 279.38199 
L 165.439066 280.858349 
L 167.149733 281.869073 
L 168.61602 282.504577 
L 170.082306 282.931189 
L 171.792974 283.19571 
L 173.748023 283.264828 
L 177.169358 283.109721 
L 180.346312 283.043558 
L 183.034504 283.225253 
L 185.722696 283.635065 
L 189.632793 284.48955 
L 196.475464 286.010388 
L 200.629942 286.669691 
L 205.273183 287.168122 
L 212.848997 287.72255 
L 226.289957 288.716924 
L 233.86577 289.24579 
L 239.975298 289.417961 
L 251.949971 289.457287 
L 302.292475 289.356085 
L 309.135146 289.061868 
L 315.733435 288.810254 
L 316.466578 288.807028 
L 316.466578 288.807028 
" clip-path="url(#pe6c36af0be)" style="fill: none; stroke: #22a884; stroke-opacity: 0.8; stroke-width: 2; stroke-linecap: round"/>
   </g>
   <g id="line2d_18">
    <path d="M 72.329871 90.039467 
L 73.756469 73.997346 
L 74.897747 63.112821 
L 76.039026 54.132954 
L 77.180304 47.127484 
L 78.036263 43.166496 
L 78.892222 40.283388 
L 79.462861 38.937495 
L 80.0335 38.032424 
L 80.60414 37.548347 
L 81.174779 37.463712 
L 81.745418 37.755739 
L 82.316057 38.400892 
L 82.886696 39.375291 
L 83.742655 41.402138 
L 84.598614 44.037417 
L 85.739892 48.368093 
L 87.166491 54.864933 
L 88.878408 63.87861 
L 91.160965 77.289354 
L 95.726079 106.000556 
L 99.149914 126.824449 
L 101.717791 141.060078 
L 104.000347 152.419927 
L 105.997585 161.31717 
L 107.994822 169.311612 
L 110.277379 177.537747 
L 113.130575 186.910474 
L 121.119524 211.859743 
L 124.828679 223.016743 
L 127.396555 230.04644 
L 129.679112 235.649467 
L 131.961669 240.660369 
L 134.529545 245.735861 
L 137.668061 251.410121 
L 141.091896 257.130769 
L 143.659773 261.025191 
L 145.94233 264.071788 
L 147.939567 266.338864 
L 149.651485 267.959474 
L 151.363402 269.285751 
L 153.07532 270.343909 
L 155.072557 271.300866 
L 157.640434 272.241989 
L 163.061506 274.113841 
L 165.344063 275.162919 
L 167.91194 276.598846 
L 172.191734 279.333024 
L 175.330249 281.209912 
L 177.612806 282.309866 
L 179.610044 283.0304 
L 181.607281 283.517207 
L 183.604518 283.791278 
L 186.172395 283.89832 
L 189.88155 283.783625 
L 194.731983 283.668894 
L 197.585179 283.820167 
L 200.723695 284.224612 
L 204.43285 284.950788 
L 214.419036 287.035185 
L 218.69883 287.636936 
L 222.693304 287.98004 
L 226.973099 288.118856 
L 244.377595 288.381659 
L 267.203163 289.418508 
L 281.183824 289.457309 
L 341.956901 289.353214 
L 350.801809 289.036884 
L 357.36416 288.884559 
L 357.36416 288.884559 
" clip-path="url(#pe6c36af0be)" style="fill: none; stroke: #7ad151; stroke-opacity: 0.8; stroke-width: 2; stroke-linecap: round"/>
   </g>
   <g id="line2d_19">
    <path d="M 72.329871 71.048297 
L 73.622403 59.502405 
L 74.591802 52.490396 
L 75.561201 46.971148 
L 76.530601 42.971615 
L 77.176867 41.144119 
L 77.823133 39.972661 
L 78.469399 39.436419 
L 78.792532 39.398263 
L 79.115665 39.508309 
L 79.761931 40.15582 
L 80.408197 41.341919 
L 81.054463 43.026002 
L 82.023862 46.390863 
L 82.993262 50.626825 
L 84.285794 57.365436 
L 85.901459 67.05607 
L 88.486523 84.121733 
L 93.333519 116.310939 
L 95.918584 132.078286 
L 98.503648 146.469144 
L 100.765579 157.820491 
L 102.704378 166.569318 
L 104.643176 174.383908 
L 106.581974 181.274149 
L 108.520773 187.300628 
L 110.459571 192.579184 
L 112.721502 198.011148 
L 115.6297 204.310781 
L 122.415494 218.750451 
L 130.816953 237.101649 
L 133.402017 242.104355 
L 135.987082 246.639799 
L 138.572146 250.74255 
L 141.480344 254.924886 
L 144.388541 258.723375 
L 147.296739 262.167489 
L 150.204936 265.246772 
L 152.79 267.6571 
L 155.375065 269.742279 
L 157.636996 271.291214 
L 159.898928 272.582299 
L 162.160859 273.627893 
L 164.745923 274.564412 
L 167.977254 275.477156 
L 173.470516 276.988216 
L 176.378713 278.02704 
L 179.933177 279.553505 
L 185.749572 282.106217 
L 188.334636 282.994291 
L 190.9197 283.632498 
L 193.504765 284.013924 
L 196.412962 284.18341 
L 200.290559 284.146582 
L 206.75322 284.06058 
L 210.307683 284.247086 
L 214.18528 284.688037 
L 219.032276 285.484551 
L 230.988199 287.543871 
L 236.158327 288.172305 
L 240.68219 288.49147 
L 245.206053 288.567503 
L 251.668714 288.404501 
L 258.777641 288.290433 
L 265.240302 288.427965 
L 276.873092 288.942101 
L 287.213349 289.334238 
L 296.907341 289.445564 
L 333.421376 289.4575 
L 378.660003 289.348825 
L 395.139788 288.94709 
L 395.139788 288.94709 
" clip-path="url(#pe6c36af0be)" style="fill: none; stroke: #fde725; stroke-opacity: 0.8; stroke-width: 2; stroke-linecap: round"/>
   </g>
   <g id="patch_3">
    <path d="M 56.189375 302.0575 
L 56.189375 24.8575 
" style="fill: none; stroke: #cccccc; stroke-width: 0.8; stroke-linejoin: miter; stroke-linecap: square"/>
   </g>
   <g id="patch_4">
    <path d="M 411.280284 302.0575 
L 411.280284 24.8575 
" style="fill: none; stroke: #cccccc; stroke-width: 0.8; stroke-linejoin: miter; stroke-linecap: square"/>
   </g>
   <g id="patch_5">
    <path d="M 56.189375 302.0575 
L 411.280284 302.0575 
" style="fill: none; stroke: #cccccc; stroke-width: 0.8; stroke-linejoin: miter; stroke-linecap: square"/>
   </g>
   <g id="patch_6">
    <path d="M 56.189375 24.8575 
L 411.280284 24.8575 
" style="fill: none; stroke: #cccccc; stroke-width: 0.8; stroke-linejoin: miter; stroke-linecap: square"/>
   </g>
   <g id="text_16">
    <!-- Distribution of Capacities - Total (PDF) -->
    <g style="fill: #262626" transform="translate(97.84233 18.8575) scale(0.16 -0.16)">
     <defs>
      <path id="ArialMT-72" d="M 416 0 
L 416 3319 
L 922 3319 
L 922 2816 
Q 1116 3169 1280 3281 
Q 1444 3394 1641 3394 
Q 1925 3394 2219 3213 
L 2025 2691 
Q 1819 2813 1613 2813 
Q 1428 2813 1281 2702 
Q 1134 2591 1072 2394 
Q 978 2094 978 1738 
L 978 0 
L 416 0 
z
" transform="scale(0.015625)"/>
      <path id="ArialMT-62" d="M 941 0 
L 419 0 
L 419 4581 
L 981 4581 
L 981 2947 
Q 1338 3394 1891 3394 
Q 2197 3394 2470 3270 
Q 2744 3147 2920 2923 
Q 3097 2700 3197 2384 
Q 3297 2069 3297 1709 
Q 3297 856 2875 390 
Q 2453 -75 1863 -75 
Q 1275 -75 941 416 
L 941 0 
z
M 934 1684 
Q 934 1088 1097 822 
Q 1363 388 1816 388 
Q 2184 388 2453 708 
Q 2722 1028 2722 1663 
Q 2722 2313 2464 2622 
Q 2206 2931 1841 2931 
Q 1472 2931 1203 2611 
Q 934 2291 934 1684 
z
" transform="scale(0.015625)"/>
      <path id="ArialMT-6f" d="M 213 1659 
Q 213 2581 725 3025 
Q 1153 3394 1769 3394 
Q 2453 3394 2887 2945 
Q 3322 2497 3322 1706 
Q 3322 1066 3130 698 
Q 2938 331 2570 128 
Q 2203 -75 1769 -75 
Q 1072 -75 642 372 
Q 213 819 213 1659 
z
M 791 1659 
Q 791 1022 1069 705 
Q 1347 388 1769 388 
Q 2188 388 2466 706 
Q 2744 1025 2744 1678 
Q 2744 2294 2464 2611 
Q 2184 2928 1769 2928 
Q 1347 2928 1069 2612 
Q 791 2297 791 1659 
z
" transform="scale(0.015625)"/>
      <path id="ArialMT-20" transform="scale(0.015625)"/>
      <path id="ArialMT-66" d="M 556 0 
L 556 2881 
L 59 2881 
L 59 3319 
L 556 3319 
L 556 3672 
Q 556 4006 616 4169 
Q 697 4388 901 4523 
Q 1106 4659 1475 4659 
Q 1713 4659 2000 4603 
L 1916 4113 
Q 1741 4144 1584 4144 
Q 1328 4144 1222 4034 
Q 1116 3925 1116 3625 
L 1116 3319 
L 1763 3319 
L 1763 2881 
L 1116 2881 
L 1116 0 
L 556 0 
z
" transform="scale(0.015625)"/>
      <path id="ArialMT-43" d="M 3763 1606 
L 4369 1453 
Q 4178 706 3683 314 
Q 3188 -78 2472 -78 
Q 1731 -78 1267 223 
Q 803 525 561 1097 
Q 319 1669 319 2325 
Q 319 3041 592 3573 
Q 866 4106 1370 4382 
Q 1875 4659 2481 4659 
Q 3169 4659 3637 4309 
Q 4106 3959 4291 3325 
L 3694 3184 
Q 3534 3684 3231 3912 
Q 2928 4141 2469 4141 
Q 1941 4141 1586 3887 
Q 1231 3634 1087 3207 
Q 944 2781 944 2328 
Q 944 1744 1114 1308 
Q 1284 872 1643 656 
Q 2003 441 2422 441 
Q 2931 441 3284 734 
Q 3638 1028 3763 1606 
z
" transform="scale(0.015625)"/>
      <path id="ArialMT-70" d="M 422 -1272 
L 422 3319 
L 934 3319 
L 934 2888 
Q 1116 3141 1344 3267 
Q 1572 3394 1897 3394 
Q 2322 3394 2647 3175 
Q 2972 2956 3137 2557 
Q 3303 2159 3303 1684 
Q 3303 1175 3120 767 
Q 2938 359 2589 142 
Q 2241 -75 1856 -75 
Q 1575 -75 1351 44 
Q 1128 163 984 344 
L 984 -1272 
L 422 -1272 
z
M 931 1641 
Q 931 1000 1190 694 
Q 1450 388 1819 388 
Q 2194 388 2461 705 
Q 2728 1022 2728 1688 
Q 2728 2322 2467 2637 
Q 2206 2953 1844 2953 
Q 1484 2953 1207 2617 
Q 931 2281 931 1641 
z
" transform="scale(0.015625)"/>
      <path id="ArialMT-63" d="M 2588 1216 
L 3141 1144 
Q 3050 572 2676 248 
Q 2303 -75 1759 -75 
Q 1078 -75 664 370 
Q 250 816 250 1647 
Q 250 2184 428 2587 
Q 606 2991 970 3192 
Q 1334 3394 1763 3394 
Q 2303 3394 2647 3120 
Q 2991 2847 3088 2344 
L 2541 2259 
Q 2463 2594 2264 2762 
Q 2066 2931 1784 2931 
Q 1359 2931 1093 2626 
Q 828 2322 828 1663 
Q 828 994 1084 691 
Q 1341 388 1753 388 
Q 2084 388 2306 591 
Q 2528 794 2588 1216 
z
" transform="scale(0.015625)"/>
      <path id="ArialMT-2d" d="M 203 1375 
L 203 1941 
L 1931 1941 
L 1931 1375 
L 203 1375 
z
" transform="scale(0.015625)"/>
      <path id="ArialMT-54" d="M 1659 0 
L 1659 4041 
L 150 4041 
L 150 4581 
L 3781 4581 
L 3781 4041 
L 2266 4041 
L 2266 0 
L 1659 0 
z
" transform="scale(0.015625)"/>
      <path id="ArialMT-28" d="M 1497 -1347 
Q 1031 -759 709 28 
Q 388 816 388 1659 
Q 388 2403 628 3084 
Q 909 3875 1497 4659 
L 1900 4659 
Q 1522 4009 1400 3731 
Q 1209 3300 1100 2831 
Q 966 2247 966 1656 
Q 966 153 1900 -1347 
L 1497 -1347 
z
" transform="scale(0.015625)"/>
      <path id="ArialMT-50" d="M 494 0 
L 494 4581 
L 2222 4581 
Q 2678 4581 2919 4538 
Q 3256 4481 3484 4323 
Q 3713 4166 3852 3881 
Q 3991 3597 3991 3256 
Q 3991 2672 3619 2267 
Q 3247 1863 2275 1863 
L 1100 1863 
L 1100 0 
L 494 0 
z
M 1100 2403 
L 2284 2403 
Q 2872 2403 3119 2622 
Q 3366 2841 3366 3238 
Q 3366 3525 3220 3729 
Q 3075 3934 2838 4000 
Q 2684 4041 2272 4041 
L 1100 4041 
L 1100 2403 
z
" transform="scale(0.015625)"/>
      <path id="ArialMT-46" d="M 525 0 
L 525 4581 
L 3616 4581 
L 3616 4041 
L 1131 4041 
L 1131 2622 
L 3281 2622 
L 3281 2081 
L 1131 2081 
L 1131 0 
L 525 0 
z
" transform="scale(0.015625)"/>
      <path id="ArialMT-29" d="M 791 -1347 
L 388 -1347 
Q 1322 153 1322 1656 
Q 1322 2244 1188 2822 
Q 1081 3291 891 3722 
Q 769 4003 388 4659 
L 791 4659 
Q 1378 3875 1659 3084 
Q 1900 2403 1900 1659 
Q 1900 816 1576 28 
Q 1253 -759 791 -1347 
z
" transform="scale(0.015625)"/>
     </defs>
     <use xlink:href="#ArialMT-44"/>
     <use xlink:href="#ArialMT-69" x="72.216797"/>
     <use xlink:href="#ArialMT-73" x="94.433594"/>
     <use xlink:href="#ArialMT-74" x="144.433594"/>
     <use xlink:href="#ArialMT-72" x="172.216797"/>
     <use xlink:href="#ArialMT-69" x="205.517578"/>
     <use xlink:href="#ArialMT-62" x="227.734375"/>
     <use xlink:href="#ArialMT-75" x="283.349609"/>
     <use xlink:href="#ArialMT-74" x="338.964844"/>
     <use xlink:href="#ArialMT-69" x="366.748047"/>
     <use xlink:href="#ArialMT-6f" x="388.964844"/>
     <use xlink:href="#ArialMT-6e" x="444.580078"/>
     <use xlink:href="#ArialMT-20" x="500.195312"/>
     <use xlink:href="#ArialMT-6f" x="527.978516"/>
     <use xlink:href="#ArialMT-66" x="583.59375"/>
     <use xlink:href="#ArialMT-20" x="611.376953"/>
     <use xlink:href="#ArialMT-43" x="639.160156"/>
     <use xlink:href="#ArialMT-61" x="711.376953"/>
     <use xlink:href="#ArialMT-70" x="766.992188"/>
     <use xlink:href="#ArialMT-61" x="822.607422"/>
     <use xlink:href="#ArialMT-63" x="878.222656"/>
     <use xlink:href="#ArialMT-69" x="928.222656"/>
     <use xlink:href="#ArialMT-74" x="950.439453"/>
     <use xlink:href="#ArialMT-69" x="978.222656"/>
     <use xlink:href="#ArialMT-65" x="1000.439453"/>
     <use xlink:href="#ArialMT-73" x="1056.054688"/>
     <use xlink:href="#ArialMT-20" x="1106.054688"/>
     <use xlink:href="#ArialMT-2d" x="1133.837891"/>
     <use xlink:href="#ArialMT-20" x="1167.138672"/>
     <use xlink:href="#ArialMT-54" x="1193.171875"/>
     <use xlink:href="#ArialMT-6f" x="1243.130859"/>
     <use xlink:href="#ArialMT-74" x="1298.746094"/>
     <use xlink:href="#ArialMT-61" x="1326.529297"/>
     <use xlink:href="#ArialMT-6c" x="1382.144531"/>
     <use xlink:href="#ArialMT-20" x="1404.361328"/>
     <use xlink:href="#ArialMT-28" x="1432.144531"/>
     <use xlink:href="#ArialMT-50" x="1465.445312"/>
     <use xlink:href="#ArialMT-44" x="1532.144531"/>
     <use xlink:href="#ArialMT-46" x="1604.361328"/>
     <use xlink:href="#ArialMT-29" x="1665.445312"/>
    </g>
   </g>
   <g id="legend_1">
    <g id="patch_7">
     <path d="M 351.134034 151.449063 
L 402.880284 151.449063 
Q 405.280284 151.449063 405.280284 149.049063 
L 405.280284 33.2575 
Q 405.280284 30.8575 402.880284 30.8575 
L 351.134034 30.8575 
Q 348.734034 30.8575 348.734034 33.2575 
L 348.734034 149.049063 
Q 348.734034 151.449063 351.134034 151.449063 
z
" style="fill: #ffffff; opacity: 0.8; stroke: #cccccc; stroke-linejoin: miter"/>
    </g>
    <g id="text_17">
     <!-- median -->
     <g style="fill: #262626" transform="translate(360.609503 42.815313) scale(0.1 -0.1)">
      <defs>
       <path id="ArialMT-6d" d="M 422 0 
L 422 3319 
L 925 3319 
L 925 2853 
Q 1081 3097 1340 3245 
Q 1600 3394 1931 3394 
Q 2300 3394 2536 3241 
Q 2772 3088 2869 2813 
Q 3263 3394 3894 3394 
Q 4388 3394 4653 3120 
Q 4919 2847 4919 2278 
L 4919 0 
L 4359 0 
L 4359 2091 
Q 4359 2428 4304 2576 
Q 4250 2725 4106 2815 
Q 3963 2906 3769 2906 
Q 3419 2906 3187 2673 
Q 2956 2441 2956 1928 
L 2956 0 
L 2394 0 
L 2394 2156 
Q 2394 2531 2256 2718 
Q 2119 2906 1806 2906 
Q 1569 2906 1367 2781 
Q 1166 2656 1075 2415 
Q 984 2175 984 1722 
L 984 0 
L 422 0 
z
" transform="scale(0.015625)"/>
       <path id="ArialMT-64" d="M 2575 0 
L 2575 419 
Q 2259 -75 1647 -75 
Q 1250 -75 917 144 
Q 584 363 401 755 
Q 219 1147 219 1656 
Q 219 2153 384 2558 
Q 550 2963 881 3178 
Q 1213 3394 1622 3394 
Q 1922 3394 2156 3267 
Q 2391 3141 2538 2938 
L 2538 4581 
L 3097 4581 
L 3097 0 
L 2575 0 
z
M 797 1656 
Q 797 1019 1065 703 
Q 1334 388 1700 388 
Q 2069 388 2326 689 
Q 2584 991 2584 1609 
Q 2584 2291 2321 2609 
Q 2059 2928 1675 2928 
Q 1300 2928 1048 2622 
Q 797 2316 797 1656 
z
" transform="scale(0.015625)"/>
      </defs>
      <use xlink:href="#ArialMT-6d"/>
      <use xlink:href="#ArialMT-65" x="83.300781"/>
      <use xlink:href="#ArialMT-64" x="138.916016"/>
      <use xlink:href="#ArialMT-69" x="194.53125"/>
      <use xlink:href="#ArialMT-61" x="216.748047"/>
      <use xlink:href="#ArialMT-6e" x="272.363281"/>
     </g>
    </g>
    <g id="line2d_20">
     <path d="M 353.534034 55.192188 
L 365.534034 55.192188 
L 377.534034 55.192188 
" style="fill: none; stroke: #440154; stroke-opacity: 0.8; stroke-width: 2; stroke-linecap: round"/>
    </g>
    <g id="text_18">
     <!-- 76 -->
     <g style="fill: #262626" transform="translate(387.134034 59.392188) scale(0.12 -0.12)">
      <defs>
       <path id="ArialMT-37" d="M 303 3981 
L 303 4522 
L 3269 4522 
L 3269 4084 
Q 2831 3619 2401 2847 
Q 1972 2075 1738 1259 
Q 1569 684 1522 0 
L 944 0 
Q 953 541 1156 1306 
Q 1359 2072 1739 2783 
Q 2119 3494 2547 3981 
L 303 3981 
z
" transform="scale(0.015625)"/>
      </defs>
      <use xlink:href="#ArialMT-37"/>
      <use xlink:href="#ArialMT-36" x="55.615234"/>
     </g>
    </g>
    <g id="line2d_21">
     <path d="M 353.534034 72.166563 
L 365.534034 72.166563 
L 377.534034 72.166563 
" style="fill: none; stroke: #414487; stroke-opacity: 0.8; stroke-width: 2; stroke-linecap: round"/>
    </g>
    <g id="text_19">
     <!-- 82 -->
     <g style="fill: #262626" transform="translate(387.134034 76.366563) scale(0.12 -0.12)">
      <use xlink:href="#ArialMT-38"/>
      <use xlink:href="#ArialMT-32" x="55.615234"/>
     </g>
    </g>
    <g id="line2d_22">
     <path d="M 353.534034 89.140938 
L 365.534034 89.140938 
L 377.534034 89.140938 
" style="fill: none; stroke: #2a788e; stroke-opacity: 0.8; stroke-width: 2; stroke-linecap: round"/>
    </g>
    <g id="text_20">
     <!-- 75 -->
     <g style="fill: #262626" transform="translate(387.134034 93.340938) scale(0.12 -0.12)">
      <use xlink:href="#ArialMT-37"/>
      <use xlink:href="#ArialMT-35" x="55.615234"/>
     </g>
    </g>
    <g id="line2d_23">
     <path d="M 353.534034 106.115313 
L 365.534034 106.115313 
L 377.534034 106.115313 
" style="fill: none; stroke: #22a884; stroke-opacity: 0.8; stroke-width: 2; stroke-linecap: round"/>
    </g>
    <g id="text_21">
     <!-- 64 -->
     <g style="fill: #262626" transform="translate(387.134034 110.315313) scale(0.12 -0.12)">
      <use xlink:href="#ArialMT-36"/>
      <use xlink:href="#ArialMT-34" x="55.615234"/>
     </g>
    </g>
    <g id="line2d_24">
     <path d="M 353.534034 123.089688 
L 365.534034 123.089688 
L 377.534034 123.089688 
" style="fill: none; stroke: #7ad151; stroke-opacity: 0.8; stroke-width: 2; stroke-linecap: round"/>
    </g>
    <g id="text_22">
     <!-- 56 -->
     <g style="fill: #262626" transform="translate(387.134034 127.289688) scale(0.12 -0.12)">
      <use xlink:href="#ArialMT-35"/>
      <use xlink:href="#ArialMT-36" x="55.615234"/>
     </g>
    </g>
    <g id="line2d_25">
     <path d="M 353.534034 140.064063 
L 365.534034 140.064063 
L 377.534034 140.064063 
" style="fill: none; stroke: #fde725; stroke-opacity: 0.8; stroke-width: 2; stroke-linecap: round"/>
    </g>
    <g id="text_23">
     <!-- 50 -->
     <g style="fill: #262626" transform="translate(387.134034 144.264063) scale(0.12 -0.12)">
      <use xlink:href="#ArialMT-35"/>
      <use xlink:href="#ArialMT-30" x="55.615234"/>
     </g>
    </g>
   </g>
  </g>
  <g id="axes_2">
   <g id="patch_8">
    <path d="M 482.298466 302.0575 
L 837.389375 302.0575 
L 837.389375 24.8575 
L 482.298466 24.8575 
z
" style="fill: #ffffff"/>
   </g>
   <g id="matplotlib.axis_3">
    <g id="xtick_7">
     <g id="line2d_26">
      <path d="M 498.438962 302.0575 
L 498.438962 24.8575 
" clip-path="url(#p617d4eb9f6)" style="fill: none; stroke: #cccccc; stroke-width: 0.8; stroke-linecap: round"/>
     </g>
     <g id="text_24">
      <!-- 0.0 -->
      <g style="fill: #262626" transform="translate(491.488962 316.215313) scale(0.1 -0.1)">
       <use xlink:href="#ArialMT-30"/>
       <use xlink:href="#ArialMT-2e" x="55.615234"/>
       <use xlink:href="#ArialMT-30" x="83.398438"/>
      </g>
     </g>
    </g>
    <g id="xtick_8">
     <g id="line2d_27">
      <path d="M 538.790201 302.0575 
L 538.790201 24.8575 
" clip-path="url(#p617d4eb9f6)" style="fill: none; stroke: #cccccc; stroke-width: 0.8; stroke-linecap: round"/>
     </g>
     <g id="text_25">
      <!-- 2.5 -->
      <g style="fill: #262626" transform="translate(531.840201 316.215313) scale(0.1 -0.1)">
       <use xlink:href="#ArialMT-32"/>
       <use xlink:href="#ArialMT-2e" x="55.615234"/>
       <use xlink:href="#ArialMT-35" x="83.398438"/>
      </g>
     </g>
    </g>
    <g id="xtick_9">
     <g id="line2d_28">
      <path d="M 579.141441 302.0575 
L 579.141441 24.8575 
" clip-path="url(#p617d4eb9f6)" style="fill: none; stroke: #cccccc; stroke-width: 0.8; stroke-linecap: round"/>
     </g>
     <g id="text_26">
      <!-- 5.0 -->
      <g style="fill: #262626" transform="translate(572.191441 316.215313) scale(0.1 -0.1)">
       <use xlink:href="#ArialMT-35"/>
       <use xlink:href="#ArialMT-2e" x="55.615234"/>
       <use xlink:href="#ArialMT-30" x="83.398438"/>
      </g>
     </g>
    </g>
    <g id="xtick_10">
     <g id="line2d_29">
      <path d="M 619.492681 302.0575 
L 619.492681 24.8575 
" clip-path="url(#p617d4eb9f6)" style="fill: none; stroke: #cccccc; stroke-width: 0.8; stroke-linecap: round"/>
     </g>
     <g id="text_27">
      <!-- 7.5 -->
      <g style="fill: #262626" transform="translate(612.542681 316.215313) scale(0.1 -0.1)">
       <use xlink:href="#ArialMT-37"/>
       <use xlink:href="#ArialMT-2e" x="55.615234"/>
       <use xlink:href="#ArialMT-35" x="83.398438"/>
      </g>
     </g>
    </g>
    <g id="xtick_11">
     <g id="line2d_30">
      <path d="M 659.84392 302.0575 
L 659.84392 24.8575 
" clip-path="url(#p617d4eb9f6)" style="fill: none; stroke: #cccccc; stroke-width: 0.8; stroke-linecap: round"/>
     </g>
     <g id="text_28">
      <!-- 10.0 -->
      <g style="fill: #262626" transform="translate(650.113452 316.215313) scale(0.1 -0.1)">
       <use xlink:href="#ArialMT-31"/>
       <use xlink:href="#ArialMT-30" x="55.615234"/>
       <use xlink:href="#ArialMT-2e" x="111.230469"/>
       <use xlink:href="#ArialMT-30" x="139.013672"/>
      </g>
     </g>
    </g>
    <g id="xtick_12">
     <g id="line2d_31">
      <path d="M 700.19516 302.0575 
L 700.19516 24.8575 
" clip-path="url(#p617d4eb9f6)" style="fill: none; stroke: #cccccc; stroke-width: 0.8; stroke-linecap: round"/>
     </g>
     <g id="text_29">
      <!-- 12.5 -->
      <g style="fill: #262626" transform="translate(690.464691 316.215313) scale(0.1 -0.1)">
       <use xlink:href="#ArialMT-31"/>
       <use xlink:href="#ArialMT-32" x="55.615234"/>
       <use xlink:href="#ArialMT-2e" x="111.230469"/>
       <use xlink:href="#ArialMT-35" x="139.013672"/>
      </g>
     </g>
    </g>
    <g id="xtick_13">
     <g id="line2d_32">
      <path d="M 740.5464 302.0575 
L 740.5464 24.8575 
" clip-path="url(#p617d4eb9f6)" style="fill: none; stroke: #cccccc; stroke-width: 0.8; stroke-linecap: round"/>
     </g>
     <g id="text_30">
      <!-- 15.0 -->
      <g style="fill: #262626" transform="translate(730.815931 316.215313) scale(0.1 -0.1)">
       <use xlink:href="#ArialMT-31"/>
       <use xlink:href="#ArialMT-35" x="55.615234"/>
       <use xlink:href="#ArialMT-2e" x="111.230469"/>
       <use xlink:href="#ArialMT-30" x="139.013672"/>
      </g>
     </g>
    </g>
    <g id="xtick_14">
     <g id="line2d_33">
      <path d="M 780.897639 302.0575 
L 780.897639 24.8575 
" clip-path="url(#p617d4eb9f6)" style="fill: none; stroke: #cccccc; stroke-width: 0.8; stroke-linecap: round"/>
     </g>
     <g id="text_31">
      <!-- 17.5 -->
      <g style="fill: #262626" transform="translate(771.167171 316.215313) scale(0.1 -0.1)">
       <use xlink:href="#ArialMT-31"/>
       <use xlink:href="#ArialMT-37" x="55.615234"/>
       <use xlink:href="#ArialMT-2e" x="111.230469"/>
       <use xlink:href="#ArialMT-35" x="139.013672"/>
      </g>
     </g>
    </g>
    <g id="xtick_15">
     <g id="line2d_34">
      <path d="M 821.248879 302.0575 
L 821.248879 24.8575 
" clip-path="url(#p617d4eb9f6)" style="fill: none; stroke: #cccccc; stroke-width: 0.8; stroke-linecap: round"/>
     </g>
     <g id="text_32">
      <!-- 20.0 -->
      <g style="fill: #262626" transform="translate(811.51841 316.215313) scale(0.1 -0.1)">
       <use xlink:href="#ArialMT-32"/>
       <use xlink:href="#ArialMT-30" x="55.615234"/>
       <use xlink:href="#ArialMT-2e" x="111.230469"/>
       <use xlink:href="#ArialMT-30" x="139.013672"/>
      </g>
     </g>
    </g>
    <g id="text_33">
     <!-- Value -->
     <g style="fill: #262626" transform="translate(642.45767 332.22375) scale(0.14 -0.14)">
      <use xlink:href="#ArialMT-56"/>
      <use xlink:href="#ArialMT-61" x="59.324219"/>
      <use xlink:href="#ArialMT-6c" x="114.939453"/>
      <use xlink:href="#ArialMT-75" x="137.15625"/>
      <use xlink:href="#ArialMT-65" x="192.771484"/>
     </g>
    </g>
   </g>
   <g id="matplotlib.axis_4">
    <g id="ytick_8">
     <g id="line2d_35">
      <path d="M 482.298466 290.154238 
L 837.389375 290.154238 
" clip-path="url(#p617d4eb9f6)" style="fill: none; stroke-dasharray: 2.96,1.28; stroke-dashoffset: 0; stroke: #cccccc; stroke-opacity: 0.7; stroke-width: 0.8"/>
     </g>
     <g id="text_34">
      <!-- 0.00 -->
      <g style="fill: #262626" transform="translate(455.837528 293.733144) scale(0.1 -0.1)">
       <use xlink:href="#ArialMT-30"/>
       <use xlink:href="#ArialMT-2e" x="55.615234"/>
       <use xlink:href="#ArialMT-30" x="83.398438"/>
       <use xlink:href="#ArialMT-30" x="139.013672"/>
      </g>
     </g>
    </g>
    <g id="ytick_9">
     <g id="line2d_36">
      <path d="M 482.298466 256.969451 
L 837.389375 256.969451 
" clip-path="url(#p617d4eb9f6)" style="fill: none; stroke-dasharray: 2.96,1.28; stroke-dashoffset: 0; stroke: #cccccc; stroke-opacity: 0.7; stroke-width: 0.8"/>
     </g>
     <g id="text_35">
      <!-- 0.05 -->
      <g style="fill: #262626" transform="translate(455.837528 260.548358) scale(0.1 -0.1)">
       <use xlink:href="#ArialMT-30"/>
       <use xlink:href="#ArialMT-2e" x="55.615234"/>
       <use xlink:href="#ArialMT-30" x="83.398438"/>
       <use xlink:href="#ArialMT-35" x="139.013672"/>
      </g>
     </g>
    </g>
    <g id="ytick_10">
     <g id="line2d_37">
      <path d="M 482.298466 223.784665 
L 837.389375 223.784665 
" clip-path="url(#p617d4eb9f6)" style="fill: none; stroke-dasharray: 2.96,1.28; stroke-dashoffset: 0; stroke: #cccccc; stroke-opacity: 0.7; stroke-width: 0.8"/>
     </g>
     <g id="text_36">
      <!-- 0.10 -->
      <g style="fill: #262626" transform="translate(455.837528 227.363571) scale(0.1 -0.1)">
       <use xlink:href="#ArialMT-30"/>
       <use xlink:href="#ArialMT-2e" x="55.615234"/>
       <use xlink:href="#ArialMT-31" x="83.398438"/>
       <use xlink:href="#ArialMT-30" x="139.013672"/>
      </g>
     </g>
    </g>
    <g id="ytick_11">
     <g id="line2d_38">
      <path d="M 482.298466 190.599878 
L 837.389375 190.599878 
" clip-path="url(#p617d4eb9f6)" style="fill: none; stroke-dasharray: 2.96,1.28; stroke-dashoffset: 0; stroke: #cccccc; stroke-opacity: 0.7; stroke-width: 0.8"/>
     </g>
     <g id="text_37">
      <!-- 0.15 -->
      <g style="fill: #262626" transform="translate(455.837528 194.178784) scale(0.1 -0.1)">
       <use xlink:href="#ArialMT-30"/>
       <use xlink:href="#ArialMT-2e" x="55.615234"/>
       <use xlink:href="#ArialMT-31" x="83.398438"/>
       <use xlink:href="#ArialMT-35" x="139.013672"/>
      </g>
     </g>
    </g>
    <g id="ytick_12">
     <g id="line2d_39">
      <path d="M 482.298466 157.415091 
L 837.389375 157.415091 
" clip-path="url(#p617d4eb9f6)" style="fill: none; stroke-dasharray: 2.96,1.28; stroke-dashoffset: 0; stroke: #cccccc; stroke-opacity: 0.7; stroke-width: 0.8"/>
     </g>
     <g id="text_38">
      <!-- 0.20 -->
      <g style="fill: #262626" transform="translate(455.837528 160.993997) scale(0.1 -0.1)">
       <use xlink:href="#ArialMT-30"/>
       <use xlink:href="#ArialMT-2e" x="55.615234"/>
       <use xlink:href="#ArialMT-32" x="83.398438"/>
       <use xlink:href="#ArialMT-30" x="139.013672"/>
      </g>
     </g>
    </g>
    <g id="ytick_13">
     <g id="line2d_40">
      <path d="M 482.298466 124.230304 
L 837.389375 124.230304 
" clip-path="url(#p617d4eb9f6)" style="fill: none; stroke-dasharray: 2.96,1.28; stroke-dashoffset: 0; stroke: #cccccc; stroke-opacity: 0.7; stroke-width: 0.8"/>
     </g>
     <g id="text_39">
      <!-- 0.25 -->
      <g style="fill: #262626" transform="translate(455.837528 127.80921) scale(0.1 -0.1)">
       <use xlink:href="#ArialMT-30"/>
       <use xlink:href="#ArialMT-2e" x="55.615234"/>
       <use xlink:href="#ArialMT-32" x="83.398438"/>
       <use xlink:href="#ArialMT-35" x="139.013672"/>
      </g>
     </g>
    </g>
    <g id="ytick_14">
     <g id="line2d_41">
      <path d="M 482.298466 91.045517 
L 837.389375 91.045517 
" clip-path="url(#p617d4eb9f6)" style="fill: none; stroke-dasharray: 2.96,1.28; stroke-dashoffset: 0; stroke: #cccccc; stroke-opacity: 0.7; stroke-width: 0.8"/>
     </g>
     <g id="text_40">
      <!-- 0.30 -->
      <g style="fill: #262626" transform="translate(455.837528 94.624424) scale(0.1 -0.1)">
       <use xlink:href="#ArialMT-30"/>
       <use xlink:href="#ArialMT-2e" x="55.615234"/>
       <use xlink:href="#ArialMT-33" x="83.398438"/>
       <use xlink:href="#ArialMT-30" x="139.013672"/>
      </g>
     </g>
    </g>
    <g id="ytick_15">
     <g id="line2d_42">
      <path d="M 482.298466 57.86073 
L 837.389375 57.86073 
" clip-path="url(#p617d4eb9f6)" style="fill: none; stroke-dasharray: 2.96,1.28; stroke-dashoffset: 0; stroke: #cccccc; stroke-opacity: 0.7; stroke-width: 0.8"/>
     </g>
     <g id="text_41">
      <!-- 0.35 -->
      <g style="fill: #262626" transform="translate(455.837528 61.439637) scale(0.1 -0.1)">
       <use xlink:href="#ArialMT-30"/>
       <use xlink:href="#ArialMT-2e" x="55.615234"/>
       <use xlink:href="#ArialMT-33" x="83.398438"/>
       <use xlink:href="#ArialMT-35" x="139.013672"/>
      </g>
     </g>
    </g>
    <g id="text_42">
     <!-- Density -->
     <g style="fill: #262626" transform="translate(448.890966 186.798125) rotate(-90) scale(0.14 -0.14)">
      <use xlink:href="#ArialMT-44"/>
      <use xlink:href="#ArialMT-65" x="72.216797"/>
      <use xlink:href="#ArialMT-6e" x="127.832031"/>
      <use xlink:href="#ArialMT-73" x="183.447266"/>
      <use xlink:href="#ArialMT-69" x="233.447266"/>
      <use xlink:href="#ArialMT-74" x="255.664062"/>
      <use xlink:href="#ArialMT-79" x="283.447266"/>
     </g>
    </g>
   </g>
   <g id="line2d_43">
    <path d="M 514.579458 157.477641 
L 514.821807 157.403429 
L 515.064157 157.59813 
L 515.354977 158.176463 
L 515.742737 159.503593 
L 516.275906 162.270582 
L 516.954486 167.094109 
L 518.069295 176.931707 
L 519.523393 189.437882 
L 520.201973 193.570142 
L 520.686672 195.401481 
L 521.025962 196.018823 
L 521.268312 196.091844 
L 521.462192 195.917425 
L 521.753011 195.252144 
L 522.092301 193.842992 
L 522.528531 191.002423 
L 523.0617 185.946556 
L 523.74028 177.067046 
L 524.564269 162.977169 
L 525.679078 139.609828 
L 528.344926 81.94961 
L 529.168915 69.445958 
L 529.799024 62.998183 
L 530.283724 60.115923 
L 530.623014 59.225225 
L 530.816893 59.137888 
L 531.010773 59.356431 
L 531.253123 60.055537 
L 531.592413 61.81217 
L 532.028642 65.344941 
L 532.610282 72.086556 
L 533.385801 84.050121 
L 534.59755 106.855454 
L 536.245529 137.281348 
L 537.069518 148.553685 
L 537.651157 153.926387 
L 538.087387 156.324199 
L 538.426677 157.156493 
L 538.620557 157.215257 
L 538.814436 156.967884 
L 539.056786 156.227716 
L 539.396076 154.39336 
L 539.832306 150.701497 
L 540.413945 143.588667 
L 541.140994 131.630461 
L 542.158863 110.744107 
L 544.679301 57.249025 
L 545.454821 45.989638 
L 546.03646 40.448858 
L 546.47269 38.130921 
L 546.763509 37.501998 
L 546.957389 37.49576 
L 547.151269 37.820158 
L 547.442089 38.921845 
L 547.829849 41.513622 
L 548.314548 46.467572 
L 548.944658 55.465316 
L 549.768647 70.71716 
L 551.271216 103.684087 
L 552.628374 131.497085 
L 553.452364 144.176658 
L 554.082473 150.749054 
L 554.567173 153.704769 
L 554.906462 154.630945 
L 555.100342 154.731664 
L 555.294222 154.52097 
L 555.536572 153.823221 
L 555.875861 152.05107 
L 556.312091 148.464517 
L 556.893731 141.582262 
L 557.66925 129.287404 
L 558.832529 106.59868 
L 560.625917 71.797759 
L 561.449907 60.088153 
L 562.031546 54.577073 
L 562.467776 52.188656 
L 562.758595 51.484817 
L 562.952475 51.422117 
L 563.000945 51.457799 
L 563.000945 51.457799 
" clip-path="url(#p617d4eb9f6)" style="fill: none; stroke: #440154; stroke-opacity: 0.8; stroke-width: 2; stroke-linecap: round"/>
   </g>
   <g id="line2d_44">
    <path d="M 498.438962 276.518566 
L 499.456831 273.664021 
L 500.4747 270.103291 
L 501.492569 265.710284 
L 502.510438 260.381615 
L 503.673717 253.069325 
L 504.982406 243.29997 
L 506.581915 229.457946 
L 511.96208 180.762625 
L 513.125359 172.887213 
L 514.288638 166.552249 
L 515.306507 162.160656 
L 516.469786 158.104287 
L 519.232574 148.978788 
L 520.250443 144.385685 
L 521.268312 138.54035 
L 522.286181 131.28825 
L 523.44946 121.365714 
L 525.194378 104.280641 
L 527.375526 83.32854 
L 528.393396 75.506979 
L 529.265855 70.470049 
L 529.847494 68.116614 
L 530.429134 66.626917 
L 530.865363 66.089358 
L 531.156183 66.006411 
L 531.447003 66.140421 
L 531.883232 66.736883 
L 532.319462 67.785724 
L 532.901102 69.830423 
L 533.628151 73.283484 
L 534.64602 79.365167 
L 538.281267 102.473369 
L 539.153726 106.246419 
L 539.880775 108.552942 
L 540.607825 110.111082 
L 541.189464 110.870213 
L 541.771104 111.267016 
L 542.352743 111.387384 
L 543.225203 111.271626 
L 544.243072 111.134259 
L 544.824711 111.271591 
L 545.406351 111.694574 
L 545.98799 112.491329 
L 546.56963 113.732879 
L 547.151269 115.470166 
L 547.878318 118.380796 
L 548.750778 122.958524 
L 549.768647 129.668726 
L 551.077336 139.96099 
L 555.294222 174.609174 
L 556.457501 181.883145 
L 557.47537 187.022388 
L 558.493239 191.104536 
L 559.511108 194.335436 
L 560.819797 197.693798 
L 563.582585 204.444958 
L 564.891274 208.37799 
L 566.490782 213.994002 
L 570.416849 228.285628 
L 571.580128 231.567081 
L 572.597997 233.853238 
L 573.615866 235.607731 
L 574.633735 236.917937 
L 575.942424 238.184268 
L 578.123572 240.218752 
L 579.141441 241.523236 
L 580.15931 243.215214 
L 581.177179 245.34105 
L 582.340458 248.282526 
L 583.939967 253.019888 
L 588.302263 266.418799 
L 589.756362 269.965827 
L 591.065051 272.569357 
L 592.37374 274.65874 
L 593.682428 276.338127 
L 595.281937 278.024131 
L 598.335544 280.829053 
L 604.297349 286.102199 
L 606.187677 287.408806 
L 607.787186 288.260847 
L 609.386695 288.870842 
L 610.986203 289.253271 
L 612.731122 289.441305 
L 614.62145 289.416114 
L 616.657188 289.170499 
L 619.129156 288.643604 
L 627.272109 286.70722 
L 631.052766 286.270226 
L 633.960963 285.838236 
L 636.432931 285.23393 
L 641.376867 283.916521 
L 642.976375 283.779432 
L 643.703425 283.801603 
L 643.703425 283.801603 
" clip-path="url(#p617d4eb9f6)" style="fill: none; stroke: #414487; stroke-opacity: 0.8; stroke-width: 2; stroke-linecap: round"/>
   </g>
   <g id="line2d_45">
    <path d="M 498.438962 243.75974 
L 500.119254 234.776787 
L 502.009582 223.374994 
L 504.109947 209.324245 
L 507.680567 183.581356 
L 510.831114 161.414495 
L 512.931479 148.182937 
L 514.611771 138.866009 
L 516.292063 130.776776 
L 517.762318 124.693682 
L 519.232574 119.487506 
L 520.702829 115.103175 
L 521.963048 111.974392 
L 523.223267 109.430955 
L 524.273449 107.781427 
L 525.113595 106.792024 
L 525.953741 106.118553 
L 526.58385 105.834583 
L 527.21396 105.751124 
L 527.844069 105.877641 
L 528.474179 106.222704 
L 529.104288 106.793511 
L 529.944434 107.914758 
L 530.78458 109.453244 
L 531.834763 111.959883 
L 532.884945 115.092738 
L 534.145164 119.614473 
L 535.615419 125.791452 
L 537.505748 134.787478 
L 545.487134 174.162651 
L 547.587499 182.724774 
L 549.477827 189.542446 
L 551.368155 195.564711 
L 553.258484 200.868108 
L 555.148812 205.54984 
L 557.249177 210.167232 
L 559.769615 215.158092 
L 570.481475 235.266941 
L 573.21195 240.022552 
L 575.312314 243.256913 
L 577.202643 245.781055 
L 579.092971 247.922294 
L 580.9833 249.697121 
L 582.873628 251.146336 
L 584.973993 252.449426 
L 587.704467 253.843558 
L 591.485124 255.783439 
L 593.375452 257.020901 
L 595.055744 258.378369 
L 596.736036 260.016094 
L 598.626364 262.192451 
L 600.936765 265.24993 
L 609.128188 276.532206 
L 611.228553 278.811268 
L 613.118881 280.532419 
L 615.00921 281.950653 
L 616.899538 283.094987 
L 618.999903 284.091627 
L 621.310304 284.916354 
L 623.830742 285.565793 
L 626.771253 286.082369 
L 630.341873 286.46925 
L 634.752639 286.711472 
L 641.26377 286.8164 
L 653.655923 286.996796 
L 658.696798 287.283591 
L 663.317601 287.775356 
L 673.189315 288.941889 
L 676.339863 289.026658 
L 679.49041 288.893916 
L 683.271067 288.500477 
L 693.772891 287.259386 
L 698.183657 287.05975 
L 702.80446 287.074982 
L 707.215226 287.310424 
L 708.265408 287.402602 
L 708.265408 287.402602 
" clip-path="url(#p617d4eb9f6)" style="fill: none; stroke: #2a788e; stroke-opacity: 0.8; stroke-width: 2; stroke-linecap: round"/>
   </g>
   <g id="line2d_46">
    <path d="M 498.438962 209.521047 
L 502.058052 187.661584 
L 506.194155 162.850942 
L 508.262207 151.607502 
L 510.071752 142.915392 
L 511.62279 136.54552 
L 512.915322 132.112817 
L 514.207855 128.544417 
L 515.24188 126.340413 
L 516.275906 124.726806 
L 517.051425 123.905037 
L 517.826945 123.413245 
L 518.602464 123.245813 
L 519.377983 123.394611 
L 520.153503 123.849236 
L 520.929022 124.597273 
L 521.704541 125.624577 
L 522.738567 127.401631 
L 523.772593 129.607354 
L 525.065125 132.902543 
L 526.616164 137.532596 
L 528.425709 143.678194 
L 530.752267 152.405233 
L 535.922396 173.030164 
L 539.024473 184.868506 
L 541.351031 192.947864 
L 543.419082 199.361667 
L 545.228627 204.305197 
L 547.038173 208.599757 
L 548.589211 211.773399 
L 550.14025 214.508179 
L 551.691288 216.849745 
L 553.500834 219.16478 
L 555.568885 221.398721 
L 558.412456 224.070912 
L 562.548559 227.93504 
L 565.133623 230.695148 
L 567.718688 233.823949 
L 570.820765 237.989275 
L 578.575958 248.643915 
L 580.902516 251.399656 
L 582.970568 253.550614 
L 585.038619 255.394381 
L 587.106671 256.926655 
L 589.174722 258.160307 
L 591.242774 259.122361 
L 593.310825 259.851513 
L 595.89589 260.510301 
L 599.773486 261.212437 
L 603.651083 261.970623 
L 605.977641 262.64321 
L 608.045692 263.463061 
L 610.113744 264.534109 
L 612.181796 265.873429 
L 614.249847 267.471549 
L 616.834911 269.7756 
L 620.454002 273.347073 
L 625.107118 277.904588 
L 627.692182 280.142692 
L 630.01874 281.88058 
L 632.345298 283.331612 
L 634.671856 284.503652 
L 636.998414 285.427779 
L 639.583478 286.217941 
L 642.685555 286.925719 
L 646.563152 287.575158 
L 651.474774 288.167015 
L 656.12789 288.512685 
L 660.263993 288.606544 
L 664.658603 288.476424 
L 670.345745 288.06146 
L 679.134964 287.42188 
L 684.046586 287.305256 
L 688.958208 287.421312 
L 694.64535 287.799892 
L 705.50262 288.592037 
L 710.155736 288.66299 
L 715.842878 288.508175 
L 724.373591 288.28084 
L 729.802226 288.388759 
L 741.435016 288.706046 
L 747.380664 288.550463 
L 755.911376 288.324638 
L 756.686896 288.330012 
L 756.686896 288.330012 
" clip-path="url(#p617d4eb9f6)" style="fill: none; stroke: #22a884; stroke-opacity: 0.8; stroke-width: 2; stroke-linecap: round"/>
   </g>
   <g id="line2d_47">
    <path d="M 498.438962 178.50819 
L 500.4747 170.670712 
L 502.219618 164.682906 
L 503.964537 159.467598 
L 505.418636 155.765557 
L 506.872734 152.683933 
L 508.036013 150.680703 
L 509.199292 149.09592 
L 510.362571 147.932396 
L 511.235031 147.335643 
L 512.10749 146.973324 
L 512.979949 146.8423 
L 513.852408 146.938269 
L 514.724868 147.255815 
L 515.597327 147.788464 
L 516.760606 148.820209 
L 517.923885 150.200702 
L 519.087164 151.907062 
L 520.541262 154.459777 
L 522.286181 158.068049 
L 524.321919 162.904863 
L 526.648477 169.061672 
L 530.138314 179.050183 
L 536.827168 198.323547 
L 539.735366 205.951722 
L 542.352743 212.173455 
L 544.679301 217.1288 
L 547.005859 221.526349 
L 549.041597 224.928085 
L 551.077336 227.940759 
L 553.113074 230.602989 
L 555.439632 233.27725 
L 558.05701 235.909692 
L 560.965207 238.498755 
L 565.036683 241.78002 
L 574.924555 249.322326 
L 581.031769 253.793067 
L 584.812426 256.2914 
L 588.011443 258.144756 
L 590.919641 259.580574 
L 593.827838 260.766545 
L 596.736036 261.716661 
L 600.225873 262.604123 
L 605.751448 263.722791 
L 610.404564 264.757891 
L 613.603581 265.695304 
L 616.511778 266.776749 
L 619.419976 268.10125 
L 622.328173 269.663782 
L 625.81801 271.805376 
L 631.052766 275.337337 
L 636.578341 279.004591 
L 639.777358 280.877555 
L 642.685555 282.332845 
L 645.302933 283.415058 
L 648.211131 284.36528 
L 651.119328 285.077531 
L 654.609165 285.687435 
L 659.262281 286.248713 
L 671.76753 287.425542 
L 679.038024 287.940032 
L 686.017698 288.19058 
L 706.956719 288.558772 
L 716.553771 288.491407 
L 727.895741 288.438739 
L 747.380664 288.512225 
L 760.467552 288.441575 
L 780.243295 288.527607 
L 788.967887 288.536766 
L 788.967887 288.536766 
" clip-path="url(#p617d4eb9f6)" style="fill: none; stroke: #7ad151; stroke-opacity: 0.8; stroke-width: 2; stroke-linecap: round"/>
   </g>
   <g id="line2d_48">
    <path d="M 498.438962 164.103213 
L 500.054627 159.857921 
L 501.347159 157.048605 
L 502.639691 154.78331 
L 503.609091 153.448615 
L 504.57849 152.428318 
L 505.547889 151.721495 
L 506.517288 151.324665 
L 507.486687 151.23191 
L 508.456086 151.435017 
L 509.425485 151.923657 
L 510.394885 152.685572 
L 511.364284 153.706783 
L 512.656816 155.444805 
L 513.949348 157.57602 
L 515.565013 160.72699 
L 517.503812 165.104874 
L 519.765743 170.836629 
L 522.997074 179.728179 
L 529.782868 198.560164 
L 532.691065 205.869906 
L 535.27613 211.745877 
L 537.538061 216.361765 
L 539.799992 220.483375 
L 542.061924 224.132474 
L 544.323855 227.348813 
L 546.585786 230.183782 
L 548.847718 232.694482 
L 551.432782 235.240682 
L 554.340979 237.788422 
L 557.895443 240.581072 
L 562.096173 243.588285 
L 567.266302 247.016945 
L 572.759563 250.40087 
L 577.929692 253.325126 
L 582.776688 255.810852 
L 587.623684 258.04356 
L 592.470679 260.030838 
L 597.317675 261.775649 
L 602.164671 263.273651 
L 607.3348 264.617812 
L 620.906388 267.958631 
L 624.460851 269.197937 
L 627.692182 270.565651 
L 631.246645 272.332408 
L 635.447375 274.694395 
L 645.4645 280.457018 
L 649.018963 282.174697 
L 652.250294 283.486508 
L 655.481624 284.550698 
L 658.712955 285.384899 
L 662.267418 286.079634 
L 666.468148 286.67726 
L 672.284543 287.262556 
L 681.009135 287.892065 
L 689.410595 288.286476 
L 697.488921 288.43377 
L 732.710423 288.543101 
L 743.050681 288.67373 
L 754.037205 289.079614 
L 762.761797 289.312692 
L 769.547591 289.268127 
L 778.595316 288.9538 
L 789.904973 288.599682 
L 800.245231 288.545454 
L 821.248879 288.627994 
L 821.248879 288.627994 
" clip-path="url(#p617d4eb9f6)" style="fill: none; stroke: #fde725; stroke-opacity: 0.8; stroke-width: 2; stroke-linecap: round"/>
   </g>
   <g id="patch_9">
    <path d="M 482.298466 302.0575 
L 482.298466 24.8575 
" style="fill: none; stroke: #cccccc; stroke-width: 0.8; stroke-linejoin: miter; stroke-linecap: square"/>
   </g>
   <g id="patch_10">
    <path d="M 837.389375 302.0575 
L 837.389375 24.8575 
" style="fill: none; stroke: #cccccc; stroke-width: 0.8; stroke-linejoin: miter; stroke-linecap: square"/>
   </g>
   <g id="patch_11">
    <path d="M 482.298466 302.0575 
L 837.389375 302.0575 
" style="fill: none; stroke: #cccccc; stroke-width: 0.8; stroke-linejoin: miter; stroke-linecap: square"/>
   </g>
   <g id="patch_12">
    <path d="M 482.298466 24.8575 
L 837.389375 24.8575 
" style="fill: none; stroke: #cccccc; stroke-width: 0.8; stroke-linejoin: miter; stroke-linecap: square"/>
   </g>
   <g id="text_43">
    <!-- Distribution of Capacities - SOURCE (PDF) -->
    <g style="fill: #262626" transform="translate(506.47767 18.8575) scale(0.16 -0.16)">
     <defs>
      <path id="ArialMT-53" d="M 288 1472 
L 859 1522 
Q 900 1178 1048 958 
Q 1197 738 1509 602 
Q 1822 466 2213 466 
Q 2559 466 2825 569 
Q 3091 672 3220 851 
Q 3350 1031 3350 1244 
Q 3350 1459 3225 1620 
Q 3100 1781 2813 1891 
Q 2628 1963 1997 2114 
Q 1366 2266 1113 2400 
Q 784 2572 623 2826 
Q 463 3081 463 3397 
Q 463 3744 659 4045 
Q 856 4347 1234 4503 
Q 1613 4659 2075 4659 
Q 2584 4659 2973 4495 
Q 3363 4331 3572 4012 
Q 3781 3694 3797 3291 
L 3216 3247 
Q 3169 3681 2898 3903 
Q 2628 4125 2100 4125 
Q 1550 4125 1298 3923 
Q 1047 3722 1047 3438 
Q 1047 3191 1225 3031 
Q 1400 2872 2139 2705 
Q 2878 2538 3153 2413 
Q 3553 2228 3743 1945 
Q 3934 1663 3934 1294 
Q 3934 928 3725 604 
Q 3516 281 3123 101 
Q 2731 -78 2241 -78 
Q 1619 -78 1198 103 
Q 778 284 539 648 
Q 300 1013 288 1472 
z
" transform="scale(0.015625)"/>
      <path id="ArialMT-4f" d="M 309 2231 
Q 309 3372 921 4017 
Q 1534 4663 2503 4663 
Q 3138 4663 3647 4359 
Q 4156 4056 4423 3514 
Q 4691 2972 4691 2284 
Q 4691 1588 4409 1038 
Q 4128 488 3612 205 
Q 3097 -78 2500 -78 
Q 1853 -78 1343 234 
Q 834 547 571 1087 
Q 309 1628 309 2231 
z
M 934 2222 
Q 934 1394 1379 917 
Q 1825 441 2497 441 
Q 3181 441 3623 922 
Q 4066 1403 4066 2288 
Q 4066 2847 3877 3264 
Q 3688 3681 3323 3911 
Q 2959 4141 2506 4141 
Q 1863 4141 1398 3698 
Q 934 3256 934 2222 
z
" transform="scale(0.015625)"/>
      <path id="ArialMT-55" d="M 3500 4581 
L 4106 4581 
L 4106 1934 
Q 4106 1244 3950 837 
Q 3794 431 3386 176 
Q 2978 -78 2316 -78 
Q 1672 -78 1262 144 
Q 853 366 678 786 
Q 503 1206 503 1934 
L 503 4581 
L 1109 4581 
L 1109 1938 
Q 1109 1341 1220 1058 
Q 1331 775 1601 622 
Q 1872 469 2263 469 
Q 2931 469 3215 772 
Q 3500 1075 3500 1938 
L 3500 4581 
z
" transform="scale(0.015625)"/>
      <path id="ArialMT-52" d="M 503 0 
L 503 4581 
L 2534 4581 
Q 3147 4581 3465 4457 
Q 3784 4334 3975 4021 
Q 4166 3709 4166 3331 
Q 4166 2844 3850 2509 
Q 3534 2175 2875 2084 
Q 3116 1969 3241 1856 
Q 3506 1613 3744 1247 
L 4541 0 
L 3778 0 
L 3172 953 
Q 2906 1366 2734 1584 
Q 2563 1803 2427 1890 
Q 2291 1978 2150 2013 
Q 2047 2034 1813 2034 
L 1109 2034 
L 1109 0 
L 503 0 
z
M 1109 2559 
L 2413 2559 
Q 2828 2559 3062 2645 
Q 3297 2731 3419 2920 
Q 3541 3109 3541 3331 
Q 3541 3656 3305 3865 
Q 3069 4075 2559 4075 
L 1109 4075 
L 1109 2559 
z
" transform="scale(0.015625)"/>
      <path id="ArialMT-45" d="M 506 0 
L 506 4581 
L 3819 4581 
L 3819 4041 
L 1113 4041 
L 1113 2638 
L 3647 2638 
L 3647 2100 
L 1113 2100 
L 1113 541 
L 3925 541 
L 3925 0 
L 506 0 
z
" transform="scale(0.015625)"/>
     </defs>
     <use xlink:href="#ArialMT-44"/>
     <use xlink:href="#ArialMT-69" x="72.216797"/>
     <use xlink:href="#ArialMT-73" x="94.433594"/>
     <use xlink:href="#ArialMT-74" x="144.433594"/>
     <use xlink:href="#ArialMT-72" x="172.216797"/>
     <use xlink:href="#ArialMT-69" x="205.517578"/>
     <use xlink:href="#ArialMT-62" x="227.734375"/>
     <use xlink:href="#ArialMT-75" x="283.349609"/>
     <use xlink:href="#ArialMT-74" x="338.964844"/>
     <use xlink:href="#ArialMT-69" x="366.748047"/>
     <use xlink:href="#ArialMT-6f" x="388.964844"/>
     <use xlink:href="#ArialMT-6e" x="444.580078"/>
     <use xlink:href="#ArialMT-20" x="500.195312"/>
     <use xlink:href="#ArialMT-6f" x="527.978516"/>
     <use xlink:href="#ArialMT-66" x="583.59375"/>
     <use xlink:href="#ArialMT-20" x="611.376953"/>
     <use xlink:href="#ArialMT-43" x="639.160156"/>
     <use xlink:href="#ArialMT-61" x="711.376953"/>
     <use xlink:href="#ArialMT-70" x="766.992188"/>
     <use xlink:href="#ArialMT-61" x="822.607422"/>
     <use xlink:href="#ArialMT-63" x="878.222656"/>
     <use xlink:href="#ArialMT-69" x="928.222656"/>
     <use xlink:href="#ArialMT-74" x="950.439453"/>
     <use xlink:href="#ArialMT-69" x="978.222656"/>
     <use xlink:href="#ArialMT-65" x="1000.439453"/>
     <use xlink:href="#ArialMT-73" x="1056.054688"/>
     <use xlink:href="#ArialMT-20" x="1106.054688"/>
     <use xlink:href="#ArialMT-2d" x="1133.837891"/>
     <use xlink:href="#ArialMT-20" x="1167.138672"/>
     <use xlink:href="#ArialMT-53" x="1194.921875"/>
     <use xlink:href="#ArialMT-4f" x="1261.621094"/>
     <use xlink:href="#ArialMT-55" x="1339.404297"/>
     <use xlink:href="#ArialMT-52" x="1411.621094"/>
     <use xlink:href="#ArialMT-43" x="1483.837891"/>
     <use xlink:href="#ArialMT-45" x="1556.054688"/>
     <use xlink:href="#ArialMT-20" x="1622.753906"/>
     <use xlink:href="#ArialMT-28" x="1650.537109"/>
     <use xlink:href="#ArialMT-50" x="1683.837891"/>
     <use xlink:href="#ArialMT-44" x="1750.537109"/>
     <use xlink:href="#ArialMT-46" x="1822.753906"/>
     <use xlink:href="#ArialMT-29" x="1883.837891"/>
    </g>
   </g>
   <g id="legend_2">
    <g id="patch_13">
     <path d="M 783.91625 151.449063 
L 828.989375 151.449063 
Q 831.389375 151.449063 831.389375 149.049063 
L 831.389375 33.2575 
Q 831.389375 30.8575 828.989375 30.8575 
L 783.91625 30.8575 
Q 781.51625 30.8575 781.51625 33.2575 
L 781.51625 149.049063 
Q 781.51625 151.449063 783.91625 151.449063 
z
" style="fill: #ffffff; opacity: 0.8; stroke: #cccccc; stroke-linejoin: miter"/>
    </g>
    <g id="text_44">
     <!-- median -->
     <g style="fill: #262626" transform="translate(790.055156 42.815313) scale(0.1 -0.1)">
      <use xlink:href="#ArialMT-6d"/>
      <use xlink:href="#ArialMT-65" x="83.300781"/>
      <use xlink:href="#ArialMT-64" x="138.916016"/>
      <use xlink:href="#ArialMT-69" x="194.53125"/>
      <use xlink:href="#ArialMT-61" x="216.748047"/>
      <use xlink:href="#ArialMT-6e" x="272.363281"/>
     </g>
    </g>
    <g id="line2d_49">
     <path d="M 786.31625 55.192188 
L 798.31625 55.192188 
L 810.31625 55.192188 
" style="fill: none; stroke: #440154; stroke-opacity: 0.8; stroke-width: 2; stroke-linecap: round"/>
    </g>
    <g id="text_45">
     <!-- 3 -->
     <g style="fill: #262626" transform="translate(819.91625 59.392188) scale(0.12 -0.12)">
      <use xlink:href="#ArialMT-33"/>
     </g>
    </g>
    <g id="line2d_50">
     <path d="M 786.31625 72.166563 
L 798.31625 72.166563 
L 810.31625 72.166563 
" style="fill: none; stroke: #414487; stroke-opacity: 0.8; stroke-width: 2; stroke-linecap: round"/>
    </g>
    <g id="text_46">
     <!-- 2 -->
     <g style="fill: #262626" transform="translate(819.91625 76.366563) scale(0.12 -0.12)">
      <use xlink:href="#ArialMT-32"/>
     </g>
    </g>
    <g id="line2d_51">
     <path d="M 786.31625 89.140938 
L 798.31625 89.140938 
L 810.31625 89.140938 
" style="fill: none; stroke: #2a788e; stroke-opacity: 0.8; stroke-width: 2; stroke-linecap: round"/>
    </g>
    <g id="text_47">
     <!-- 2 -->
     <g style="fill: #262626" transform="translate(819.91625 93.340938) scale(0.12 -0.12)">
      <use xlink:href="#ArialMT-32"/>
     </g>
    </g>
    <g id="line2d_52">
     <path d="M 786.31625 106.115313 
L 798.31625 106.115313 
L 810.31625 106.115313 
" style="fill: none; stroke: #22a884; stroke-opacity: 0.8; stroke-width: 2; stroke-linecap: round"/>
    </g>
    <g id="text_48">
     <!-- 2 -->
     <g style="fill: #262626" transform="translate(819.91625 110.315313) scale(0.12 -0.12)">
      <use xlink:href="#ArialMT-32"/>
     </g>
    </g>
    <g id="line2d_53">
     <path d="M 786.31625 123.089688 
L 798.31625 123.089688 
L 810.31625 123.089688 
" style="fill: none; stroke: #7ad151; stroke-opacity: 0.8; stroke-width: 2; stroke-linecap: round"/>
    </g>
    <g id="text_49">
     <!-- 2 -->
     <g style="fill: #262626" transform="translate(819.91625 127.289688) scale(0.12 -0.12)">
      <use xlink:href="#ArialMT-32"/>
     </g>
    </g>
    <g id="line2d_54">
     <path d="M 786.31625 140.064063 
L 798.31625 140.064063 
L 810.31625 140.064063 
" style="fill: none; stroke: #fde725; stroke-opacity: 0.8; stroke-width: 2; stroke-linecap: round"/>
    </g>
    <g id="text_50">
     <!-- 1 -->
     <g style="fill: #262626" transform="translate(819.91625 144.264063) scale(0.12 -0.12)">
      <use xlink:href="#ArialMT-31"/>
     </g>
    </g>
   </g>
  </g>
 </g>
 <defs>
  <clipPath id="pe6c36af0be">
   <rect x="56.189375" y="24.8575" width="355.090909" height="277.2"/>
  </clipPath>
  <clipPath id="p617d4eb9f6">
   <rect x="482.298466" y="24.8575" width="355.090909" height="277.2"/>
  </clipPath>
 </defs>
</svg>
