<?xml version="1.0" encoding="utf-8" standalone="no"?>
<!DOCTYPE svg PUBLIC "-//W3C//DTD SVG 1.1//EN"
  "http://www.w3.org/Graphics/SVG/1.1/DTD/svg11.dtd">
<svg xmlns:xlink="http://www.w3.org/1999/xlink" width="416.044062pt" height="212.657342pt" viewBox="0 0 416.044062 212.657342" xmlns="http://www.w3.org/2000/svg" version="1.1">
 <metadata>
  <rdf:RDF xmlns:dc="http://purl.org/dc/elements/1.1/" xmlns:cc="http://creativecommons.org/ns#" xmlns:rdf="http://www.w3.org/1999/02/22-rdf-syntax-ns#">
   <cc:Work>
    <dc:type rdf:resource="http://purl.org/dc/dcmitype/StillImage"/>
    <dc:date>2025-03-03T14:42:55.655908</dc:date>
    <dc:format>image/svg+xml</dc:format>
    <dc:creator>
     <cc:Agent>
      <dc:title>Matplotlib v3.9.0, https://matplotlib.org/</dc:title>
     </cc:Agent>
    </dc:creator>
   </cc:Work>
  </rdf:RDF>
 </metadata>
 <defs>
  <style type="text/css">*{stroke-linejoin: round; stroke-linecap: butt}</style>
 </defs>
 <g id="figure_1">
  <g id="patch_1">
   <path d="M 0 212.657342 
L 416.044062 212.657342 
L 416.044062 0 
L 0 0 
z
" style="fill: #ffffff"/>
  </g>
  <g id="axes_1">
   <g id="patch_2">
    <path d="M 46.144063 174.05078 
L 408.844063 174.05078 
L 408.844063 7.73078 
L 46.144063 7.73078 
z
" style="fill: #ffffff"/>
   </g>
   <g id="matplotlib.axis_1">
    <g id="xtick_1">
     <g id="line2d_1">
      <path d="M 62.630426 174.05078 
L 62.630426 7.73078 
" clip-path="url(#p407f65f553)" style="fill: none; stroke: #cccccc; stroke-width: 0.8; stroke-linecap: round"/>
     </g>
     <g id="text_1">
      <!-- 0 -->
      <g style="fill: #262626" transform="translate(59.849957 188.208592) scale(0.1 -0.1)">
       <defs>
        <path id="ArialMT-30" d="M 266 2259 
Q 266 3072 433 3567 
Q 600 4063 929 4331 
Q 1259 4600 1759 4600 
Q 2128 4600 2406 4451 
Q 2684 4303 2865 4023 
Q 3047 3744 3150 3342 
Q 3253 2941 3253 2259 
Q 3253 1453 3087 958 
Q 2922 463 2592 192 
Q 2263 -78 1759 -78 
Q 1097 -78 719 397 
Q 266 969 266 2259 
z
M 844 2259 
Q 844 1131 1108 757 
Q 1372 384 1759 384 
Q 2147 384 2411 759 
Q 2675 1134 2675 2259 
Q 2675 3391 2411 3762 
Q 2147 4134 1753 4134 
Q 1366 4134 1134 3806 
Q 844 3388 844 2259 
z
" transform="scale(0.015625)"/>
       </defs>
       <use xlink:href="#ArialMT-30"/>
      </g>
     </g>
    </g>
    <g id="xtick_2">
     <g id="line2d_2">
      <path d="M 134.310268 174.05078 
L 134.310268 7.73078 
" clip-path="url(#p407f65f553)" style="fill: none; stroke: #cccccc; stroke-width: 0.8; stroke-linecap: round"/>
     </g>
     <g id="text_2">
      <!-- 5 -->
      <g style="fill: #262626" transform="translate(131.529799 188.208592) scale(0.1 -0.1)">
       <defs>
        <path id="ArialMT-35" d="M 266 1200 
L 856 1250 
Q 922 819 1161 601 
Q 1400 384 1738 384 
Q 2144 384 2425 690 
Q 2706 997 2706 1503 
Q 2706 1984 2436 2262 
Q 2166 2541 1728 2541 
Q 1456 2541 1237 2417 
Q 1019 2294 894 2097 
L 366 2166 
L 809 4519 
L 3088 4519 
L 3088 3981 
L 1259 3981 
L 1013 2750 
Q 1425 3038 1878 3038 
Q 2478 3038 2890 2622 
Q 3303 2206 3303 1553 
Q 3303 931 2941 478 
Q 2500 -78 1738 -78 
Q 1113 -78 717 272 
Q 322 622 266 1200 
z
" transform="scale(0.015625)"/>
       </defs>
       <use xlink:href="#ArialMT-35"/>
      </g>
     </g>
    </g>
    <g id="xtick_3">
     <g id="line2d_3">
      <path d="M 205.99011 174.05078 
L 205.99011 7.73078 
" clip-path="url(#p407f65f553)" style="fill: none; stroke: #cccccc; stroke-width: 0.8; stroke-linecap: round"/>
     </g>
     <g id="text_3">
      <!-- 10 -->
      <g style="fill: #262626" transform="translate(200.429172 188.208592) scale(0.1 -0.1)">
       <defs>
        <path id="ArialMT-31" d="M 2384 0 
L 1822 0 
L 1822 3584 
Q 1619 3391 1289 3197 
Q 959 3003 697 2906 
L 697 3450 
Q 1169 3672 1522 3987 
Q 1875 4303 2022 4600 
L 2384 4600 
L 2384 0 
z
" transform="scale(0.015625)"/>
       </defs>
       <use xlink:href="#ArialMT-31"/>
       <use xlink:href="#ArialMT-30" x="55.615234"/>
      </g>
     </g>
    </g>
    <g id="xtick_4">
     <g id="line2d_4">
      <path d="M 277.669952 174.05078 
L 277.669952 7.73078 
" clip-path="url(#p407f65f553)" style="fill: none; stroke: #cccccc; stroke-width: 0.8; stroke-linecap: round"/>
     </g>
     <g id="text_4">
      <!-- 15 -->
      <g style="fill: #262626" transform="translate(272.109014 188.208592) scale(0.1 -0.1)">
       <use xlink:href="#ArialMT-31"/>
       <use xlink:href="#ArialMT-35" x="55.615234"/>
      </g>
     </g>
    </g>
    <g id="xtick_5">
     <g id="line2d_5">
      <path d="M 349.349794 174.05078 
L 349.349794 7.73078 
" clip-path="url(#p407f65f553)" style="fill: none; stroke: #cccccc; stroke-width: 0.8; stroke-linecap: round"/>
     </g>
     <g id="text_5">
      <!-- 20 -->
      <g style="fill: #262626" transform="translate(343.788856 188.208592) scale(0.1 -0.1)">
       <defs>
        <path id="ArialMT-32" d="M 3222 541 
L 3222 0 
L 194 0 
Q 188 203 259 391 
Q 375 700 629 1000 
Q 884 1300 1366 1694 
Q 2113 2306 2375 2664 
Q 2638 3022 2638 3341 
Q 2638 3675 2398 3904 
Q 2159 4134 1775 4134 
Q 1369 4134 1125 3890 
Q 881 3647 878 3216 
L 300 3275 
Q 359 3922 746 4261 
Q 1134 4600 1788 4600 
Q 2447 4600 2831 4234 
Q 3216 3869 3216 3328 
Q 3216 3053 3103 2787 
Q 2991 2522 2730 2228 
Q 2469 1934 1863 1422 
Q 1356 997 1212 845 
Q 1069 694 975 541 
L 3222 541 
z
" transform="scale(0.015625)"/>
       </defs>
       <use xlink:href="#ArialMT-32"/>
       <use xlink:href="#ArialMT-30" x="55.615234"/>
      </g>
     </g>
    </g>
    <g id="text_6">
     <!-- time (hour) -->
     <g style="fill: #262626" transform="translate(198.489687 202.931717) scale(0.12 -0.12)">
      <defs>
       <path id="ArialMT-74" d="M 1650 503 
L 1731 6 
Q 1494 -44 1306 -44 
Q 1000 -44 831 53 
Q 663 150 594 308 
Q 525 466 525 972 
L 525 2881 
L 113 2881 
L 113 3319 
L 525 3319 
L 525 4141 
L 1084 4478 
L 1084 3319 
L 1650 3319 
L 1650 2881 
L 1084 2881 
L 1084 941 
Q 1084 700 1114 631 
Q 1144 563 1211 522 
Q 1278 481 1403 481 
Q 1497 481 1650 503 
z
" transform="scale(0.015625)"/>
       <path id="ArialMT-69" d="M 425 3934 
L 425 4581 
L 988 4581 
L 988 3934 
L 425 3934 
z
M 425 0 
L 425 3319 
L 988 3319 
L 988 0 
L 425 0 
z
" transform="scale(0.015625)"/>
       <path id="ArialMT-6d" d="M 422 0 
L 422 3319 
L 925 3319 
L 925 2853 
Q 1081 3097 1340 3245 
Q 1600 3394 1931 3394 
Q 2300 3394 2536 3241 
Q 2772 3088 2869 2813 
Q 3263 3394 3894 3394 
Q 4388 3394 4653 3120 
Q 4919 2847 4919 2278 
L 4919 0 
L 4359 0 
L 4359 2091 
Q 4359 2428 4304 2576 
Q 4250 2725 4106 2815 
Q 3963 2906 3769 2906 
Q 3419 2906 3187 2673 
Q 2956 2441 2956 1928 
L 2956 0 
L 2394 0 
L 2394 2156 
Q 2394 2531 2256 2718 
Q 2119 2906 1806 2906 
Q 1569 2906 1367 2781 
Q 1166 2656 1075 2415 
Q 984 2175 984 1722 
L 984 0 
L 422 0 
z
" transform="scale(0.015625)"/>
       <path id="ArialMT-65" d="M 2694 1069 
L 3275 997 
Q 3138 488 2766 206 
Q 2394 -75 1816 -75 
Q 1088 -75 661 373 
Q 234 822 234 1631 
Q 234 2469 665 2931 
Q 1097 3394 1784 3394 
Q 2450 3394 2872 2941 
Q 3294 2488 3294 1666 
Q 3294 1616 3291 1516 
L 816 1516 
Q 847 969 1125 678 
Q 1403 388 1819 388 
Q 2128 388 2347 550 
Q 2566 713 2694 1069 
z
M 847 1978 
L 2700 1978 
Q 2663 2397 2488 2606 
Q 2219 2931 1791 2931 
Q 1403 2931 1139 2672 
Q 875 2413 847 1978 
z
" transform="scale(0.015625)"/>
       <path id="ArialMT-20" transform="scale(0.015625)"/>
       <path id="ArialMT-28" d="M 1497 -1347 
Q 1031 -759 709 28 
Q 388 816 388 1659 
Q 388 2403 628 3084 
Q 909 3875 1497 4659 
L 1900 4659 
Q 1522 4009 1400 3731 
Q 1209 3300 1100 2831 
Q 966 2247 966 1656 
Q 966 153 1900 -1347 
L 1497 -1347 
z
" transform="scale(0.015625)"/>
       <path id="ArialMT-68" d="M 422 0 
L 422 4581 
L 984 4581 
L 984 2938 
Q 1378 3394 1978 3394 
Q 2347 3394 2619 3248 
Q 2891 3103 3008 2847 
Q 3125 2591 3125 2103 
L 3125 0 
L 2563 0 
L 2563 2103 
Q 2563 2525 2380 2717 
Q 2197 2909 1863 2909 
Q 1613 2909 1392 2779 
Q 1172 2650 1078 2428 
Q 984 2206 984 1816 
L 984 0 
L 422 0 
z
" transform="scale(0.015625)"/>
       <path id="ArialMT-6f" d="M 213 1659 
Q 213 2581 725 3025 
Q 1153 3394 1769 3394 
Q 2453 3394 2887 2945 
Q 3322 2497 3322 1706 
Q 3322 1066 3130 698 
Q 2938 331 2570 128 
Q 2203 -75 1769 -75 
Q 1072 -75 642 372 
Q 213 819 213 1659 
z
M 791 1659 
Q 791 1022 1069 705 
Q 1347 388 1769 388 
Q 2188 388 2466 706 
Q 2744 1025 2744 1678 
Q 2744 2294 2464 2611 
Q 2184 2928 1769 2928 
Q 1347 2928 1069 2612 
Q 791 2297 791 1659 
z
" transform="scale(0.015625)"/>
       <path id="ArialMT-75" d="M 2597 0 
L 2597 488 
Q 2209 -75 1544 -75 
Q 1250 -75 995 37 
Q 741 150 617 320 
Q 494 491 444 738 
Q 409 903 409 1263 
L 409 3319 
L 972 3319 
L 972 1478 
Q 972 1038 1006 884 
Q 1059 663 1231 536 
Q 1403 409 1656 409 
Q 1909 409 2131 539 
Q 2353 669 2445 892 
Q 2538 1116 2538 1541 
L 2538 3319 
L 3100 3319 
L 3100 0 
L 2597 0 
z
" transform="scale(0.015625)"/>
       <path id="ArialMT-72" d="M 416 0 
L 416 3319 
L 922 3319 
L 922 2816 
Q 1116 3169 1280 3281 
Q 1444 3394 1641 3394 
Q 1925 3394 2219 3213 
L 2025 2691 
Q 1819 2813 1613 2813 
Q 1428 2813 1281 2702 
Q 1134 2591 1072 2394 
Q 978 2094 978 1738 
L 978 0 
L 416 0 
z
" transform="scale(0.015625)"/>
       <path id="ArialMT-29" d="M 791 -1347 
L 388 -1347 
Q 1322 153 1322 1656 
Q 1322 2244 1188 2822 
Q 1081 3291 891 3722 
Q 769 4003 388 4659 
L 791 4659 
Q 1378 3875 1659 3084 
Q 1900 2403 1900 1659 
Q 1900 816 1576 28 
Q 1253 -759 791 -1347 
z
" transform="scale(0.015625)"/>
      </defs>
      <use xlink:href="#ArialMT-74"/>
      <use xlink:href="#ArialMT-69" x="27.783203"/>
      <use xlink:href="#ArialMT-6d" x="50"/>
      <use xlink:href="#ArialMT-65" x="133.300781"/>
      <use xlink:href="#ArialMT-20" x="188.916016"/>
      <use xlink:href="#ArialMT-28" x="216.699219"/>
      <use xlink:href="#ArialMT-68" x="250"/>
      <use xlink:href="#ArialMT-6f" x="305.615234"/>
      <use xlink:href="#ArialMT-75" x="361.230469"/>
      <use xlink:href="#ArialMT-72" x="416.845703"/>
      <use xlink:href="#ArialMT-29" x="450.146484"/>
     </g>
    </g>
   </g>
   <g id="matplotlib.axis_2">
    <g id="ytick_1">
     <g id="line2d_6">
      <path d="M 46.144063 153.259117 
L 408.844063 153.259117 
" clip-path="url(#p407f65f553)" style="fill: none; stroke: #cccccc; stroke-width: 0.8; stroke-linecap: round"/>
     </g>
     <g id="text_7">
      <!-- 200 -->
      <g style="fill: #262626" transform="translate(22.46125 156.838024) scale(0.1 -0.1)">
       <use xlink:href="#ArialMT-32"/>
       <use xlink:href="#ArialMT-30" x="55.615234"/>
       <use xlink:href="#ArialMT-30" x="111.230469"/>
      </g>
     </g>
    </g>
    <g id="ytick_2">
     <g id="line2d_7">
      <path d="M 46.144063 129.512415 
L 408.844063 129.512415 
" clip-path="url(#p407f65f553)" style="fill: none; stroke: #cccccc; stroke-width: 0.8; stroke-linecap: round"/>
     </g>
     <g id="text_8">
      <!-- 250 -->
      <g style="fill: #262626" transform="translate(22.46125 133.091322) scale(0.1 -0.1)">
       <use xlink:href="#ArialMT-32"/>
       <use xlink:href="#ArialMT-35" x="55.615234"/>
       <use xlink:href="#ArialMT-30" x="111.230469"/>
      </g>
     </g>
    </g>
    <g id="ytick_3">
     <g id="line2d_8">
      <path d="M 46.144063 105.765714 
L 408.844063 105.765714 
" clip-path="url(#p407f65f553)" style="fill: none; stroke: #cccccc; stroke-width: 0.8; stroke-linecap: round"/>
     </g>
     <g id="text_9">
      <!-- 300 -->
      <g style="fill: #262626" transform="translate(22.46125 109.34462) scale(0.1 -0.1)">
       <defs>
        <path id="ArialMT-33" d="M 269 1209 
L 831 1284 
Q 928 806 1161 595 
Q 1394 384 1728 384 
Q 2125 384 2398 659 
Q 2672 934 2672 1341 
Q 2672 1728 2419 1979 
Q 2166 2231 1775 2231 
Q 1616 2231 1378 2169 
L 1441 2663 
Q 1497 2656 1531 2656 
Q 1891 2656 2178 2843 
Q 2466 3031 2466 3422 
Q 2466 3731 2256 3934 
Q 2047 4138 1716 4138 
Q 1388 4138 1169 3931 
Q 950 3725 888 3313 
L 325 3413 
Q 428 3978 793 4289 
Q 1159 4600 1703 4600 
Q 2078 4600 2393 4439 
Q 2709 4278 2876 4000 
Q 3044 3722 3044 3409 
Q 3044 3113 2884 2869 
Q 2725 2625 2413 2481 
Q 2819 2388 3044 2092 
Q 3269 1797 3269 1353 
Q 3269 753 2831 336 
Q 2394 -81 1725 -81 
Q 1122 -81 723 278 
Q 325 638 269 1209 
z
" transform="scale(0.015625)"/>
       </defs>
       <use xlink:href="#ArialMT-33"/>
       <use xlink:href="#ArialMT-30" x="55.615234"/>
       <use xlink:href="#ArialMT-30" x="111.230469"/>
      </g>
     </g>
    </g>
    <g id="ytick_4">
     <g id="line2d_9">
      <path d="M 46.144063 82.019012 
L 408.844063 82.019012 
" clip-path="url(#p407f65f553)" style="fill: none; stroke: #cccccc; stroke-width: 0.8; stroke-linecap: round"/>
     </g>
     <g id="text_10">
      <!-- 350 -->
      <g style="fill: #262626" transform="translate(22.46125 85.597918) scale(0.1 -0.1)">
       <use xlink:href="#ArialMT-33"/>
       <use xlink:href="#ArialMT-35" x="55.615234"/>
       <use xlink:href="#ArialMT-30" x="111.230469"/>
      </g>
     </g>
    </g>
    <g id="ytick_5">
     <g id="line2d_10">
      <path d="M 46.144063 58.27231 
L 408.844063 58.27231 
" clip-path="url(#p407f65f553)" style="fill: none; stroke: #cccccc; stroke-width: 0.8; stroke-linecap: round"/>
     </g>
     <g id="text_11">
      <!-- 400 -->
      <g style="fill: #262626" transform="translate(22.46125 61.851216) scale(0.1 -0.1)">
       <defs>
        <path id="ArialMT-34" d="M 2069 0 
L 2069 1097 
L 81 1097 
L 81 1613 
L 2172 4581 
L 2631 4581 
L 2631 1613 
L 3250 1613 
L 3250 1097 
L 2631 1097 
L 2631 0 
L 2069 0 
z
M 2069 1613 
L 2069 3678 
L 634 1613 
L 2069 1613 
z
" transform="scale(0.015625)"/>
       </defs>
       <use xlink:href="#ArialMT-34"/>
       <use xlink:href="#ArialMT-30" x="55.615234"/>
       <use xlink:href="#ArialMT-30" x="111.230469"/>
      </g>
     </g>
    </g>
    <g id="ytick_6">
     <g id="line2d_11">
      <path d="M 46.144063 34.525608 
L 408.844063 34.525608 
" clip-path="url(#p407f65f553)" style="fill: none; stroke: #cccccc; stroke-width: 0.8; stroke-linecap: round"/>
     </g>
     <g id="text_12">
      <!-- 450 -->
      <g style="fill: #262626" transform="translate(22.46125 38.104514) scale(0.1 -0.1)">
       <use xlink:href="#ArialMT-34"/>
       <use xlink:href="#ArialMT-35" x="55.615234"/>
       <use xlink:href="#ArialMT-30" x="111.230469"/>
      </g>
     </g>
    </g>
    <g id="ytick_7">
     <g id="line2d_12">
      <path d="M 46.144063 10.778906 
L 408.844063 10.778906 
" clip-path="url(#p407f65f553)" style="fill: none; stroke: #cccccc; stroke-width: 0.8; stroke-linecap: round"/>
     </g>
     <g id="text_13">
      <!-- 500 -->
      <g style="fill: #262626" transform="translate(22.46125 14.357812) scale(0.1 -0.1)">
       <use xlink:href="#ArialMT-35"/>
       <use xlink:href="#ArialMT-30" x="55.615234"/>
       <use xlink:href="#ArialMT-30" x="111.230469"/>
      </g>
     </g>
    </g>
    <g id="text_14">
     <!-- latency (ms) -->
     <g style="fill: #262626" transform="translate(15.935625 123.56078) rotate(-90) scale(0.12 -0.12)">
      <defs>
       <path id="ArialMT-6c" d="M 409 0 
L 409 4581 
L 972 4581 
L 972 0 
L 409 0 
z
" transform="scale(0.015625)"/>
       <path id="ArialMT-61" d="M 2588 409 
Q 2275 144 1986 34 
Q 1697 -75 1366 -75 
Q 819 -75 525 192 
Q 231 459 231 875 
Q 231 1119 342 1320 
Q 453 1522 633 1644 
Q 813 1766 1038 1828 
Q 1203 1872 1538 1913 
Q 2219 1994 2541 2106 
Q 2544 2222 2544 2253 
Q 2544 2597 2384 2738 
Q 2169 2928 1744 2928 
Q 1347 2928 1158 2789 
Q 969 2650 878 2297 
L 328 2372 
Q 403 2725 575 2942 
Q 747 3159 1072 3276 
Q 1397 3394 1825 3394 
Q 2250 3394 2515 3294 
Q 2781 3194 2906 3042 
Q 3031 2891 3081 2659 
Q 3109 2516 3109 2141 
L 3109 1391 
Q 3109 606 3145 398 
Q 3181 191 3288 0 
L 2700 0 
Q 2613 175 2588 409 
z
M 2541 1666 
Q 2234 1541 1622 1453 
Q 1275 1403 1131 1340 
Q 988 1278 909 1158 
Q 831 1038 831 891 
Q 831 666 1001 516 
Q 1172 366 1500 366 
Q 1825 366 2078 508 
Q 2331 650 2450 897 
Q 2541 1088 2541 1459 
L 2541 1666 
z
" transform="scale(0.015625)"/>
       <path id="ArialMT-6e" d="M 422 0 
L 422 3319 
L 928 3319 
L 928 2847 
Q 1294 3394 1984 3394 
Q 2284 3394 2536 3286 
Q 2788 3178 2913 3003 
Q 3038 2828 3088 2588 
Q 3119 2431 3119 2041 
L 3119 0 
L 2556 0 
L 2556 2019 
Q 2556 2363 2490 2533 
Q 2425 2703 2258 2804 
Q 2091 2906 1866 2906 
Q 1506 2906 1245 2678 
Q 984 2450 984 1813 
L 984 0 
L 422 0 
z
" transform="scale(0.015625)"/>
       <path id="ArialMT-63" d="M 2588 1216 
L 3141 1144 
Q 3050 572 2676 248 
Q 2303 -75 1759 -75 
Q 1078 -75 664 370 
Q 250 816 250 1647 
Q 250 2184 428 2587 
Q 606 2991 970 3192 
Q 1334 3394 1763 3394 
Q 2303 3394 2647 3120 
Q 2991 2847 3088 2344 
L 2541 2259 
Q 2463 2594 2264 2762 
Q 2066 2931 1784 2931 
Q 1359 2931 1093 2626 
Q 828 2322 828 1663 
Q 828 994 1084 691 
Q 1341 388 1753 388 
Q 2084 388 2306 591 
Q 2528 794 2588 1216 
z
" transform="scale(0.015625)"/>
       <path id="ArialMT-79" d="M 397 -1278 
L 334 -750 
Q 519 -800 656 -800 
Q 844 -800 956 -737 
Q 1069 -675 1141 -563 
Q 1194 -478 1313 -144 
Q 1328 -97 1363 -6 
L 103 3319 
L 709 3319 
L 1400 1397 
Q 1534 1031 1641 628 
Q 1738 1016 1872 1384 
L 2581 3319 
L 3144 3319 
L 1881 -56 
Q 1678 -603 1566 -809 
Q 1416 -1088 1222 -1217 
Q 1028 -1347 759 -1347 
Q 597 -1347 397 -1278 
z
" transform="scale(0.015625)"/>
       <path id="ArialMT-73" d="M 197 991 
L 753 1078 
Q 800 744 1014 566 
Q 1228 388 1613 388 
Q 2000 388 2187 545 
Q 2375 703 2375 916 
Q 2375 1106 2209 1216 
Q 2094 1291 1634 1406 
Q 1016 1563 777 1677 
Q 538 1791 414 1992 
Q 291 2194 291 2438 
Q 291 2659 392 2848 
Q 494 3038 669 3163 
Q 800 3259 1026 3326 
Q 1253 3394 1513 3394 
Q 1903 3394 2198 3281 
Q 2494 3169 2634 2976 
Q 2775 2784 2828 2463 
L 2278 2388 
Q 2241 2644 2061 2787 
Q 1881 2931 1553 2931 
Q 1166 2931 1000 2803 
Q 834 2675 834 2503 
Q 834 2394 903 2306 
Q 972 2216 1119 2156 
Q 1203 2125 1616 2013 
Q 2213 1853 2448 1751 
Q 2684 1650 2818 1456 
Q 2953 1263 2953 975 
Q 2953 694 2789 445 
Q 2625 197 2315 61 
Q 2006 -75 1616 -75 
Q 969 -75 630 194 
Q 291 463 197 991 
z
" transform="scale(0.015625)"/>
      </defs>
      <use xlink:href="#ArialMT-6c"/>
      <use xlink:href="#ArialMT-61" x="22.216797"/>
      <use xlink:href="#ArialMT-74" x="77.832031"/>
      <use xlink:href="#ArialMT-65" x="105.615234"/>
      <use xlink:href="#ArialMT-6e" x="161.230469"/>
      <use xlink:href="#ArialMT-63" x="216.845703"/>
      <use xlink:href="#ArialMT-79" x="266.845703"/>
      <use xlink:href="#ArialMT-20" x="316.845703"/>
      <use xlink:href="#ArialMT-28" x="344.628906"/>
      <use xlink:href="#ArialMT-6d" x="377.929688"/>
      <use xlink:href="#ArialMT-73" x="461.230469"/>
      <use xlink:href="#ArialMT-29" x="511.230469"/>
     </g>
    </g>
   </g>
   <g id="PathCollection_1">
    <defs>
     <path id="m5d18fc0c70" d="M -3 -0 
L 3 3 
L 3 -3 
z
" style="stroke: #1f77b4; stroke-opacity: 0.8"/>
    </defs>
    <g clip-path="url(#p407f65f553)">
     <use xlink:href="#m5d18fc0c70" x="62.630426" y="54.710305" style="fill: #1f77b4; fill-opacity: 0.8; stroke: #1f77b4; stroke-opacity: 0.8"/>
     <use xlink:href="#m5d18fc0c70" x="76.966395" y="42.836954" style="fill: #1f77b4; fill-opacity: 0.8; stroke: #1f77b4; stroke-opacity: 0.8"/>
     <use xlink:href="#m5d18fc0c70" x="91.302363" y="42.124553" style="fill: #1f77b4; fill-opacity: 0.8; stroke: #1f77b4; stroke-opacity: 0.8"/>
     <use xlink:href="#m5d18fc0c70" x="105.638331" y="32.150938" style="fill: #1f77b4; fill-opacity: 0.8; stroke: #1f77b4; stroke-opacity: 0.8"/>
     <use xlink:href="#m5d18fc0c70" x="119.9743" y="27.639065" style="fill: #1f77b4; fill-opacity: 0.8; stroke: #1f77b4; stroke-opacity: 0.8"/>
     <use xlink:href="#m5d18fc0c70" x="134.310268" y="15.29078" style="fill: #1f77b4; fill-opacity: 0.8; stroke: #1f77b4; stroke-opacity: 0.8"/>
     <use xlink:href="#m5d18fc0c70" x="148.646236" y="31.438537" style="fill: #1f77b4; fill-opacity: 0.8; stroke: #1f77b4; stroke-opacity: 0.8"/>
     <use xlink:href="#m5d18fc0c70" x="162.982205" y="54.710305" style="fill: #1f77b4; fill-opacity: 0.8; stroke: #1f77b4; stroke-opacity: 0.8"/>
     <use xlink:href="#m5d18fc0c70" x="177.318173" y="55.422706" style="fill: #1f77b4; fill-opacity: 0.8; stroke: #1f77b4; stroke-opacity: 0.8"/>
     <use xlink:href="#m5d18fc0c70" x="191.654142" y="58.509777" style="fill: #1f77b4; fill-opacity: 0.8; stroke: #1f77b4; stroke-opacity: 0.8"/>
     <use xlink:href="#m5d18fc0c70" x="205.99011" y="58.27231" style="fill: #1f77b4; fill-opacity: 0.8; stroke: #1f77b4; stroke-opacity: 0.8"/>
     <use xlink:href="#m5d18fc0c70" x="220.326078" y="56.610041" style="fill: #1f77b4; fill-opacity: 0.8; stroke: #1f77b4; stroke-opacity: 0.8"/>
     <use xlink:href="#m5d18fc0c70" x="234.662047" y="58.27231" style="fill: #1f77b4; fill-opacity: 0.8; stroke: #1f77b4; stroke-opacity: 0.8"/>
     <use xlink:href="#m5d18fc0c70" x="248.998015" y="58.034843" style="fill: #1f77b4; fill-opacity: 0.8; stroke: #1f77b4; stroke-opacity: 0.8"/>
     <use xlink:href="#m5d18fc0c70" x="263.333983" y="58.27231" style="fill: #1f77b4; fill-opacity: 0.8; stroke: #1f77b4; stroke-opacity: 0.8"/>
     <use xlink:href="#m5d18fc0c70" x="277.669952" y="58.27231" style="fill: #1f77b4; fill-opacity: 0.8; stroke: #1f77b4; stroke-opacity: 0.8"/>
     <use xlink:href="#m5d18fc0c70" x="292.00592" y="57.084975" style="fill: #1f77b4; fill-opacity: 0.8; stroke: #1f77b4; stroke-opacity: 0.8"/>
     <use xlink:href="#m5d18fc0c70" x="306.341889" y="58.27231" style="fill: #1f77b4; fill-opacity: 0.8; stroke: #1f77b4; stroke-opacity: 0.8"/>
     <use xlink:href="#m5d18fc0c70" x="320.677857" y="58.509777" style="fill: #1f77b4; fill-opacity: 0.8; stroke: #1f77b4; stroke-opacity: 0.8"/>
     <use xlink:href="#m5d18fc0c70" x="335.013825" y="58.747244" style="fill: #1f77b4; fill-opacity: 0.8; stroke: #1f77b4; stroke-opacity: 0.8"/>
     <use xlink:href="#m5d18fc0c70" x="349.349794" y="51.148299" style="fill: #1f77b4; fill-opacity: 0.8; stroke: #1f77b4; stroke-opacity: 0.8"/>
     <use xlink:href="#m5d18fc0c70" x="363.685762" y="53.52297" style="fill: #1f77b4; fill-opacity: 0.8; stroke: #1f77b4; stroke-opacity: 0.8"/>
     <use xlink:href="#m5d18fc0c70" x="378.02173" y="58.509777" style="fill: #1f77b4; fill-opacity: 0.8; stroke: #1f77b4; stroke-opacity: 0.8"/>
     <use xlink:href="#m5d18fc0c70" x="392.357699" y="57.559909" style="fill: #1f77b4; fill-opacity: 0.8; stroke: #1f77b4; stroke-opacity: 0.8"/>
    </g>
   </g>
   <g id="PolyCollection_1">
    <defs>
     <path id="mc4d6269b15" d="M 62.630426 -184.121976 
L 62.630426 -164.019232 
L 65.961005 -163.909998 
L 69.291583 -163.800763 
L 72.622162 -163.691528 
L 75.95274 -163.582293 
L 79.283319 -163.499051 
L 82.613897 -163.418254 
L 85.944476 -163.337457 
L 89.275054 -163.25666 
L 92.605633 -163.175863 
L 95.936211 -163.095066 
L 99.26679 -163.004404 
L 102.597368 -162.872303 
L 105.927947 -162.740944 
L 109.258525 -162.609636 
L 112.589104 -162.478327 
L 115.919682 -162.345947 
L 119.250261 -162.213151 
L 122.580839 -162.080355 
L 125.911418 -161.94759 
L 129.241996 -161.822442 
L 132.572575 -161.712498 
L 135.903153 -161.614597 
L 139.233732 -161.522157 
L 142.56431 -161.429717 
L 145.894889 -161.337277 
L 149.225467 -161.244837 
L 152.556046 -161.152397 
L 155.886624 -161.059957 
L 159.217203 -160.967516 
L 162.547782 -160.875076 
L 165.87836 -160.782636 
L 169.208939 -160.6711 
L 172.539517 -160.522882 
L 175.870096 -160.375411 
L 179.200674 -160.259352 
L 182.531253 -160.186466 
L 185.861831 -160.054844 
L 189.19241 -159.921252 
L 192.522988 -159.78766 
L 195.853567 -159.654068 
L 199.184145 -159.533827 
L 202.514724 -159.466572 
L 205.845302 -159.341543 
L 209.175881 -159.18884 
L 212.506459 -159.072843 
L 215.837038 -158.962973 
L 219.167616 -158.815511 
L 222.498195 -158.641869 
L 225.828773 -158.463933 
L 229.159352 -158.31246 
L 232.48993 -158.12199 
L 235.820509 -157.948277 
L 239.151087 -157.805508 
L 242.481666 -157.650699 
L 245.812244 -157.478911 
L 249.142823 -157.28398 
L 252.473401 -157.082062 
L 255.80398 -156.908398 
L 259.134558 -156.698372 
L 262.465137 -156.508457 
L 265.795715 -156.326681 
L 269.126294 -156.103971 
L 272.456872 -155.869897 
L 275.787451 -155.63073 
L 279.118029 -155.495467 
L 282.448608 -155.231172 
L 285.779186 -154.928702 
L 289.109765 -154.646014 
L 292.440343 -154.302613 
L 295.770922 -153.957771 
L 299.101501 -153.563879 
L 302.432079 -153.262686 
L 305.762658 -152.93374 
L 309.093236 -152.581655 
L 312.423815 -152.231965 
L 315.754393 -151.961794 
L 319.084972 -151.679558 
L 322.41555 -151.363486 
L 325.746129 -150.933539 
L 329.076707 -150.578334 
L 332.407286 -150.306074 
L 335.737864 -150.033814 
L 339.068443 -149.761555 
L 342.399021 -149.462388 
L 345.7296 -149.136366 
L 349.060178 -148.770629 
L 352.390757 -148.400604 
L 355.721335 -148.032286 
L 359.051914 -147.663969 
L 362.382492 -147.295651 
L 365.713071 -146.941944 
L 369.043649 -146.624734 
L 372.374228 -146.257618 
L 375.704806 -145.867744 
L 379.035385 -145.477869 
L 382.365963 -145.07812 
L 385.696542 -144.674526 
L 389.02712 -144.257629 
L 392.357699 -143.906926 
L 392.357699 -154.062019 
L 392.357699 -154.062019 
L 389.02712 -154.259253 
L 385.696542 -154.456486 
L 382.365963 -154.653201 
L 379.035385 -154.793515 
L 375.704806 -154.983218 
L 372.374228 -155.09616 
L 369.043649 -155.277263 
L 365.713071 -155.459248 
L 362.382492 -155.641829 
L 359.051914 -155.824425 
L 355.721335 -155.992171 
L 352.390757 -156.173582 
L 349.060178 -156.378039 
L 345.7296 -156.582079 
L 342.399021 -156.784992 
L 339.068443 -156.991789 
L 335.737864 -157.222886 
L 332.407286 -157.400906 
L 329.076707 -157.605343 
L 325.746129 -157.830054 
L 322.41555 -158.070493 
L 319.084972 -158.303925 
L 315.754393 -158.532072 
L 312.423815 -158.768634 
L 309.093236 -159.011746 
L 305.762658 -159.269329 
L 302.432079 -159.567358 
L 299.101501 -159.844052 
L 295.770922 -160.020208 
L 292.440343 -160.264706 
L 289.109765 -160.544569 
L 285.779186 -160.825117 
L 282.448608 -161.103872 
L 279.118029 -161.350986 
L 275.787451 -161.664667 
L 272.456872 -161.928614 
L 269.126294 -162.223916 
L 265.795715 -162.565699 
L 262.465137 -162.859198 
L 259.134558 -163.171055 
L 255.80398 -163.513237 
L 252.473401 -163.782351 
L 249.142823 -164.045047 
L 245.812244 -164.398712 
L 242.481666 -164.710642 
L 239.151087 -165.023137 
L 235.820509 -165.390051 
L 232.48993 -165.750733 
L 229.159352 -166.031992 
L 225.828773 -166.311459 
L 222.498195 -166.592704 
L 219.167616 -166.891197 
L 215.837038 -167.249492 
L 212.506459 -167.649424 
L 209.175881 -168.047237 
L 205.845302 -168.419356 
L 202.514724 -168.771899 
L 199.184145 -169.135156 
L 195.853567 -169.458301 
L 192.522988 -169.832636 
L 189.19241 -170.162013 
L 185.861831 -170.486681 
L 182.531253 -170.804769 
L 179.200674 -171.122858 
L 175.870096 -171.440947 
L 172.539517 -171.759035 
L 169.208939 -172.077124 
L 165.87836 -172.395213 
L 162.547782 -172.799428 
L 159.217203 -173.150466 
L 155.886624 -173.567051 
L 152.556046 -173.874871 
L 149.225467 -174.176409 
L 145.894889 -174.510188 
L 142.56431 -174.900517 
L 139.233732 -175.290048 
L 135.903153 -175.67958 
L 132.572575 -176.069111 
L 129.241996 -176.459757 
L 125.911418 -176.883451 
L 122.580839 -177.316 
L 119.250261 -177.662961 
L 115.919682 -178.026699 
L 112.589104 -178.415963 
L 109.258525 -178.805226 
L 105.927947 -179.121657 
L 102.597368 -179.437854 
L 99.26679 -179.822453 
L 95.936211 -180.258869 
L 92.605633 -180.695285 
L 89.275054 -181.131701 
L 85.944476 -181.544157 
L 82.613897 -181.93565 
L 79.283319 -182.326079 
L 75.95274 -182.694121 
L 72.622162 -183.054856 
L 69.291583 -183.411442 
L 65.961005 -183.766709 
L 62.630426 -184.121976 
z
" style="stroke: #ffffff; stroke-opacity: 0.15"/>
    </defs>
    <g clip-path="url(#p407f65f553)">
     <use xlink:href="#mc4d6269b15" x="0" y="212.657342" style="fill: #1f77b4; fill-opacity: 0.15; stroke: #ffffff; stroke-opacity: 0.15"/>
    </g>
   </g>
   <g id="PathCollection_2">
    <defs>
     <path id="m00b8edae30" d="M 3 0 
L -3 -3 
L -3 3 
z
" style="stroke: #ff7f0e; stroke-opacity: 0.8"/>
    </defs>
    <g clip-path="url(#p407f65f553)">
     <use xlink:href="#m00b8edae30" x="62.630426" y="61.121914" style="fill: #ff7f0e; fill-opacity: 0.8; stroke: #ff7f0e; stroke-opacity: 0.8"/>
     <use xlink:href="#m00b8edae30" x="76.966395" y="58.034843" style="fill: #ff7f0e; fill-opacity: 0.8; stroke: #ff7f0e; stroke-opacity: 0.8"/>
     <use xlink:href="#m00b8edae30" x="91.302363" y="57.084975" style="fill: #ff7f0e; fill-opacity: 0.8; stroke: #ff7f0e; stroke-opacity: 0.8"/>
     <use xlink:href="#m00b8edae30" x="105.638331" y="60.172046" style="fill: #ff7f0e; fill-opacity: 0.8; stroke: #ff7f0e; stroke-opacity: 0.8"/>
     <use xlink:href="#m00b8edae30" x="119.9743" y="56.847508" style="fill: #ff7f0e; fill-opacity: 0.8; stroke: #ff7f0e; stroke-opacity: 0.8"/>
     <use xlink:href="#m00b8edae30" x="134.310268" y="55.185239" style="fill: #ff7f0e; fill-opacity: 0.8; stroke: #ff7f0e; stroke-opacity: 0.8"/>
     <use xlink:href="#m00b8edae30" x="148.646236" y="57.322442" style="fill: #ff7f0e; fill-opacity: 0.8; stroke: #ff7f0e; stroke-opacity: 0.8"/>
     <use xlink:href="#m00b8edae30" x="162.982205" y="61.359381" style="fill: #ff7f0e; fill-opacity: 0.8; stroke: #ff7f0e; stroke-opacity: 0.8"/>
     <use xlink:href="#m00b8edae30" x="177.318173" y="66.821123" style="fill: #ff7f0e; fill-opacity: 0.8; stroke: #ff7f0e; stroke-opacity: 0.8"/>
     <use xlink:href="#m00b8edae30" x="191.654142" y="67.05859" style="fill: #ff7f0e; fill-opacity: 0.8; stroke: #ff7f0e; stroke-opacity: 0.8"/>
     <use xlink:href="#m00b8edae30" x="205.99011" y="67.296057" style="fill: #ff7f0e; fill-opacity: 0.8; stroke: #ff7f0e; stroke-opacity: 0.8"/>
     <use xlink:href="#m00b8edae30" x="220.326078" y="65.158853" style="fill: #ff7f0e; fill-opacity: 0.8; stroke: #ff7f0e; stroke-opacity: 0.8"/>
     <use xlink:href="#m00b8edae30" x="234.662047" y="64.208985" style="fill: #ff7f0e; fill-opacity: 0.8; stroke: #ff7f0e; stroke-opacity: 0.8"/>
     <use xlink:href="#m00b8edae30" x="248.998015" y="66.821123" style="fill: #ff7f0e; fill-opacity: 0.8; stroke: #ff7f0e; stroke-opacity: 0.8"/>
     <use xlink:href="#m00b8edae30" x="263.333983" y="67.05859" style="fill: #ff7f0e; fill-opacity: 0.8; stroke: #ff7f0e; stroke-opacity: 0.8"/>
     <use xlink:href="#m00b8edae30" x="277.669952" y="67.05859" style="fill: #ff7f0e; fill-opacity: 0.8; stroke: #ff7f0e; stroke-opacity: 0.8"/>
     <use xlink:href="#m00b8edae30" x="292.00592" y="66.821123" style="fill: #ff7f0e; fill-opacity: 0.8; stroke: #ff7f0e; stroke-opacity: 0.8"/>
     <use xlink:href="#m00b8edae30" x="306.341889" y="66.821123" style="fill: #ff7f0e; fill-opacity: 0.8; stroke: #ff7f0e; stroke-opacity: 0.8"/>
     <use xlink:href="#m00b8edae30" x="320.677857" y="65.39632" style="fill: #ff7f0e; fill-opacity: 0.8; stroke: #ff7f0e; stroke-opacity: 0.8"/>
     <use xlink:href="#m00b8edae30" x="335.013825" y="65.871255" style="fill: #ff7f0e; fill-opacity: 0.8; stroke: #ff7f0e; stroke-opacity: 0.8"/>
     <use xlink:href="#m00b8edae30" x="349.349794" y="63.02165" style="fill: #ff7f0e; fill-opacity: 0.8; stroke: #ff7f0e; stroke-opacity: 0.8"/>
     <use xlink:href="#m00b8edae30" x="363.685762" y="66.346189" style="fill: #ff7f0e; fill-opacity: 0.8; stroke: #ff7f0e; stroke-opacity: 0.8"/>
     <use xlink:href="#m00b8edae30" x="378.02173" y="64.208985" style="fill: #ff7f0e; fill-opacity: 0.8; stroke: #ff7f0e; stroke-opacity: 0.8"/>
     <use xlink:href="#m00b8edae30" x="392.357699" y="64.208985" style="fill: #ff7f0e; fill-opacity: 0.8; stroke: #ff7f0e; stroke-opacity: 0.8"/>
    </g>
   </g>
   <g id="PolyCollection_2">
    <defs>
     <path id="m76d32e20bb" d="M 62.630426 -155.790604 
L 62.630426 -150.779974 
L 65.961005 -150.736605 
L 69.291583 -150.685292 
L 72.622162 -150.633685 
L 75.95274 -150.574171 
L 79.283319 -150.514657 
L 82.613897 -150.455143 
L 85.944476 -150.395629 
L 89.275054 -150.336168 
L 92.605633 -150.276777 
L 95.936211 -150.227995 
L 99.26679 -150.184481 
L 102.597368 -150.127561 
L 105.927947 -150.08651 
L 109.258525 -150.045949 
L 112.589104 -149.997535 
L 115.919682 -149.942737 
L 119.250261 -149.887939 
L 122.580839 -149.834727 
L 125.911418 -149.789001 
L 129.241996 -149.741359 
L 132.572575 -149.693717 
L 135.903153 -149.646075 
L 139.233732 -149.598433 
L 142.56431 -149.544857 
L 145.894889 -149.481436 
L 149.225467 -149.418016 
L 152.556046 -149.354926 
L 155.886624 -149.291316 
L 159.217203 -149.229153 
L 162.547782 -149.197767 
L 165.87836 -149.154875 
L 169.208939 -149.084065 
L 172.539517 -149.013256 
L 175.870096 -148.952985 
L 179.200674 -148.897859 
L 182.531253 -148.843207 
L 185.861831 -148.798099 
L 189.19241 -148.747927 
L 192.522988 -148.70418 
L 195.853567 -148.648364 
L 199.184145 -148.588921 
L 202.514724 -148.515128 
L 205.845302 -148.449142 
L 209.175881 -148.345243 
L 212.506459 -148.306831 
L 215.837038 -148.27345 
L 219.167616 -148.206438 
L 222.498195 -148.136471 
L 225.828773 -148.058237 
L 229.159352 -147.978204 
L 232.48993 -147.889899 
L 235.820509 -147.804259 
L 239.151087 -147.7001 
L 242.481666 -147.588238 
L 245.812244 -147.472489 
L 249.142823 -147.374988 
L 252.473401 -147.287767 
L 255.80398 -147.192806 
L 259.134558 -147.088388 
L 262.465137 -146.994805 
L 265.795715 -146.919046 
L 269.126294 -146.811494 
L 272.456872 -146.711355 
L 275.787451 -146.625137 
L 279.118029 -146.569343 
L 282.448608 -146.46613 
L 285.779186 -146.378209 
L 289.109765 -146.243511 
L 292.440343 -146.109511 
L 295.770922 -146.021451 
L 299.101501 -145.915901 
L 302.432079 -145.827556 
L 305.762658 -145.716261 
L 309.093236 -145.583779 
L 312.423815 -145.451297 
L 315.754393 -145.332401 
L 319.084972 -145.2246 
L 322.41555 -145.115221 
L 325.746129 -144.988362 
L 329.076707 -144.866824 
L 332.407286 -144.75442 
L 335.737864 -144.634164 
L 339.068443 -144.517614 
L 342.399021 -144.399855 
L 345.7296 -144.268301 
L 349.060178 -144.138025 
L 352.390757 -144.007851 
L 355.721335 -143.882379 
L 359.051914 -143.776883 
L 362.382492 -143.649824 
L 365.713071 -143.520229 
L 369.043649 -143.384757 
L 372.374228 -143.260686 
L 375.704806 -143.135094 
L 379.035385 -143.03025 
L 382.365963 -142.914682 
L 385.696542 -142.78841 
L 389.02712 -142.662138 
L 392.357699 -142.535865 
L 392.357699 -146.524162 
L 392.357699 -146.524162 
L 389.02712 -146.576849 
L 385.696542 -146.640473 
L 382.365963 -146.716782 
L 379.035385 -146.774455 
L 375.704806 -146.831346 
L 372.374228 -146.895047 
L 369.043649 -146.956617 
L 365.713071 -147.02086 
L 362.382492 -147.086824 
L 359.051914 -147.155785 
L 355.721335 -147.239429 
L 352.390757 -147.307452 
L 349.060178 -147.37502 
L 345.7296 -147.450091 
L 342.399021 -147.509585 
L 339.068443 -147.577015 
L 335.737864 -147.662038 
L 332.407286 -147.75475 
L 329.076707 -147.82558 
L 325.746129 -147.898974 
L 322.41555 -147.965052 
L 319.084972 -148.031935 
L 315.754393 -148.112539 
L 312.423815 -148.193143 
L 309.093236 -148.273747 
L 305.762658 -148.345216 
L 302.432079 -148.422494 
L 299.101501 -148.507234 
L 295.770922 -148.581254 
L 292.440343 -148.669193 
L 289.109765 -148.750303 
L 285.779186 -148.831296 
L 282.448608 -148.91229 
L 279.118029 -148.993284 
L 275.787451 -149.074102 
L 272.456872 -149.155228 
L 269.126294 -149.236148 
L 265.795715 -149.31088 
L 262.465137 -149.3981 
L 259.134558 -149.485662 
L 255.80398 -149.569522 
L 252.473401 -149.651409 
L 249.142823 -149.737549 
L 245.812244 -149.823534 
L 242.481666 -149.91671 
L 239.151087 -149.986378 
L 235.820509 -150.076207 
L 232.48993 -150.152748 
L 229.159352 -150.263539 
L 225.828773 -150.356154 
L 222.498195 -150.441913 
L 219.167616 -150.532731 
L 215.837038 -150.63208 
L 212.506459 -150.726247 
L 209.175881 -150.827664 
L 205.845302 -150.917377 
L 202.514724 -151.028854 
L 199.184145 -151.141567 
L 195.853567 -151.229907 
L 192.522988 -151.33299 
L 189.19241 -151.441785 
L 185.861831 -151.556216 
L 182.531253 -151.663029 
L 179.200674 -151.776718 
L 175.870096 -151.891811 
L 172.539517 -151.985763 
L 169.208939 -152.094075 
L 165.87836 -152.202985 
L 162.547782 -152.311615 
L 159.217203 -152.420323 
L 155.886624 -152.538449 
L 152.556046 -152.650897 
L 149.225467 -152.75851 
L 145.894889 -152.87526 
L 142.56431 -152.98847 
L 139.233732 -153.10108 
L 135.903153 -153.218156 
L 132.572575 -153.326182 
L 129.241996 -153.438607 
L 125.911418 -153.551123 
L 122.580839 -153.663594 
L 119.250261 -153.774299 
L 115.919682 -153.890043 
L 112.589104 -154.005322 
L 109.258525 -154.116972 
L 105.927947 -154.275078 
L 102.597368 -154.393632 
L 99.26679 -154.51066 
L 95.936211 -154.627026 
L 92.605633 -154.730903 
L 89.275054 -154.831537 
L 85.944476 -154.945832 
L 82.613897 -155.078956 
L 79.283319 -155.183677 
L 75.95274 -155.295304 
L 72.622162 -155.428729 
L 69.291583 -155.562234 
L 65.961005 -155.678052 
L 62.630426 -155.790604 
z
" style="stroke: #ffffff; stroke-opacity: 0.15"/>
    </defs>
    <g clip-path="url(#p407f65f553)">
     <use xlink:href="#m76d32e20bb" x="0" y="212.657342" style="fill: #ff7f0e; fill-opacity: 0.15; stroke: #ffffff; stroke-opacity: 0.15"/>
    </g>
   </g>
   <g id="PathCollection_3">
    <defs>
     <path id="m6acfd943e1" d="M 0 -3 
L -3 3 
L 3 3 
z
" style="stroke: #2ca02c; stroke-opacity: 0.8"/>
    </defs>
    <g clip-path="url(#p407f65f553)">
     <use xlink:href="#m6acfd943e1" x="62.630426" y="160.720331" style="fill: #2ca02c; fill-opacity: 0.8; stroke: #2ca02c; stroke-opacity: 0.8"/>
     <use xlink:href="#m6acfd943e1" x="76.966395" y="158.179434" style="fill: #2ca02c; fill-opacity: 0.8; stroke: #2ca02c; stroke-opacity: 0.8"/>
     <use xlink:href="#m6acfd943e1" x="91.302363" y="159.233788" style="fill: #2ca02c; fill-opacity: 0.8; stroke: #2ca02c; stroke-opacity: 0.8"/>
     <use xlink:href="#m6acfd943e1" x="105.638331" y="157.970463" style="fill: #2ca02c; fill-opacity: 0.8; stroke: #2ca02c; stroke-opacity: 0.8"/>
     <use xlink:href="#m6acfd943e1" x="119.9743" y="157.946716" style="fill: #2ca02c; fill-opacity: 0.8; stroke: #2ca02c; stroke-opacity: 0.8"/>
     <use xlink:href="#m6acfd943e1" x="134.310268" y="154.759909" style="fill: #2ca02c; fill-opacity: 0.8; stroke: #2ca02c; stroke-opacity: 0.8"/>
     <use xlink:href="#m6acfd943e1" x="148.646236" y="159.594737" style="fill: #2ca02c; fill-opacity: 0.8; stroke: #2ca02c; stroke-opacity: 0.8"/>
     <use xlink:href="#m6acfd943e1" x="162.982205" y="159.665977" style="fill: #2ca02c; fill-opacity: 0.8; stroke: #2ca02c; stroke-opacity: 0.8"/>
     <use xlink:href="#m6acfd943e1" x="177.318173" y="159.950938" style="fill: #2ca02c; fill-opacity: 0.8; stroke: #2ca02c; stroke-opacity: 0.8"/>
     <use xlink:href="#m6acfd943e1" x="191.654142" y="160.758326" style="fill: #2ca02c; fill-opacity: 0.8; stroke: #2ca02c; stroke-opacity: 0.8"/>
     <use xlink:href="#m6acfd943e1" x="205.99011" y="161.470727" style="fill: #2ca02c; fill-opacity: 0.8; stroke: #2ca02c; stroke-opacity: 0.8"/>
     <use xlink:href="#m6acfd943e1" x="220.326078" y="160.592099" style="fill: #2ca02c; fill-opacity: 0.8; stroke: #2ca02c; stroke-opacity: 0.8"/>
     <use xlink:href="#m6acfd943e1" x="234.662047" y="160.668088" style="fill: #2ca02c; fill-opacity: 0.8; stroke: #2ca02c; stroke-opacity: 0.8"/>
     <use xlink:href="#m6acfd943e1" x="248.998015" y="163.531941" style="fill: #2ca02c; fill-opacity: 0.8; stroke: #2ca02c; stroke-opacity: 0.8"/>
     <use xlink:href="#m6acfd943e1" x="263.333983" y="161.427983" style="fill: #2ca02c; fill-opacity: 0.8; stroke: #2ca02c; stroke-opacity: 0.8"/>
     <use xlink:href="#m6acfd943e1" x="277.669952" y="163.370463" style="fill: #2ca02c; fill-opacity: 0.8; stroke: #2ca02c; stroke-opacity: 0.8"/>
     <use xlink:href="#m6acfd943e1" x="292.00592" y="160.026927" style="fill: #2ca02c; fill-opacity: 0.8; stroke: #2ca02c; stroke-opacity: 0.8"/>
     <use xlink:href="#m6acfd943e1" x="306.341889" y="160.060173" style="fill: #2ca02c; fill-opacity: 0.8; stroke: #2ca02c; stroke-opacity: 0.8"/>
     <use xlink:href="#m6acfd943e1" x="320.677857" y="162.197376" style="fill: #2ca02c; fill-opacity: 0.8; stroke: #2ca02c; stroke-opacity: 0.8"/>
     <use xlink:href="#m6acfd943e1" x="335.013825" y="160.083919" style="fill: #2ca02c; fill-opacity: 0.8; stroke: #2ca02c; stroke-opacity: 0.8"/>
     <use xlink:href="#m6acfd943e1" x="349.349794" y="159.917693" style="fill: #2ca02c; fill-opacity: 0.8; stroke: #2ca02c; stroke-opacity: 0.8"/>
     <use xlink:href="#m6acfd943e1" x="363.685762" y="162.439592" style="fill: #2ca02c; fill-opacity: 0.8; stroke: #2ca02c; stroke-opacity: 0.8"/>
     <use xlink:href="#m6acfd943e1" x="378.02173" y="161.584711" style="fill: #2ca02c; fill-opacity: 0.8; stroke: #2ca02c; stroke-opacity: 0.8"/>
     <use xlink:href="#m6acfd943e1" x="392.357699" y="160.962547" style="fill: #2ca02c; fill-opacity: 0.8; stroke: #2ca02c; stroke-opacity: 0.8"/>
    </g>
   </g>
   <g id="PolyCollection_3">
    <defs>
     <path id="meb003d37a9" d="M 62.630426 -55.418505 
L 62.630426 -52.812692 
L 65.961005 -52.792087 
L 69.291583 -52.773079 
L 72.622162 -52.754072 
L 75.95274 -52.73519 
L 79.283319 -52.716308 
L 82.613897 -52.697497 
L 85.944476 -52.678868 
L 89.275054 -52.66453 
L 92.605633 -52.650193 
L 95.936211 -52.631631 
L 99.26679 -52.617326 
L 102.597368 -52.594021 
L 105.927947 -52.577939 
L 109.258525 -52.558047 
L 112.589104 -52.538155 
L 115.919682 -52.519403 
L 119.250261 -52.502813 
L 122.580839 -52.483261 
L 125.911418 -52.463709 
L 129.241996 -52.444273 
L 132.572575 -52.429772 
L 135.903153 -52.412421 
L 139.233732 -52.392549 
L 142.56431 -52.372713 
L 145.894889 -52.349599 
L 149.225467 -52.33156 
L 152.556046 -52.313117 
L 155.886624 -52.294154 
L 159.217203 -52.277778 
L 162.547782 -52.253563 
L 165.87836 -52.233653 
L 169.208939 -52.212523 
L 172.539517 -52.190586 
L 175.870096 -52.169529 
L 179.200674 -52.149256 
L 182.531253 -52.131574 
L 185.861831 -52.111491 
L 189.19241 -52.086466 
L 192.522988 -52.058539 
L 195.853567 -52.02935 
L 199.184145 -52.008813 
L 202.514724 -51.974832 
L 205.845302 -51.937189 
L 209.175881 -51.908855 
L 212.506459 -51.874325 
L 215.837038 -51.852937 
L 219.167616 -51.818114 
L 222.498195 -51.770079 
L 225.828773 -51.749057 
L 229.159352 -51.72003 
L 232.48993 -51.693773 
L 235.820509 -51.662192 
L 239.151087 -51.635283 
L 242.481666 -51.602187 
L 245.812244 -51.561284 
L 249.142823 -51.525988 
L 252.473401 -51.486874 
L 255.80398 -51.451363 
L 259.134558 -51.408433 
L 262.465137 -51.368353 
L 265.795715 -51.329824 
L 269.126294 -51.285566 
L 272.456872 -51.24621 
L 275.787451 -51.200292 
L 279.118029 -51.161495 
L 282.448608 -51.115201 
L 285.779186 -51.066749 
L 289.109765 -51.016204 
L 292.440343 -50.960749 
L 295.770922 -50.901766 
L 299.101501 -50.852269 
L 302.432079 -50.794392 
L 305.762658 -50.753029 
L 309.093236 -50.712149 
L 312.423815 -50.659013 
L 315.754393 -50.617262 
L 319.084972 -50.575019 
L 322.41555 -50.528793 
L 325.746129 -50.470355 
L 329.076707 -50.416898 
L 332.407286 -50.370957 
L 335.737864 -50.318228 
L 339.068443 -50.24949 
L 342.399021 -50.187986 
L 345.7296 -50.134181 
L 349.060178 -50.080414 
L 352.390757 -50.026828 
L 355.721335 -49.970381 
L 359.051914 -49.912554 
L 362.382492 -49.856677 
L 365.713071 -49.796632 
L 369.043649 -49.738527 
L 372.374228 -49.680423 
L 375.704806 -49.622318 
L 379.035385 -49.564214 
L 382.365963 -49.506109 
L 385.696542 -49.448005 
L 389.02712 -49.389935 
L 392.357699 -49.332167 
L 392.357699 -51.482911 
L 392.357699 -51.482911 
L 389.02712 -51.502581 
L 385.696542 -51.522623 
L 382.365963 -51.542835 
L 379.035385 -51.566241 
L 375.704806 -51.593112 
L 372.374228 -51.619925 
L 369.043649 -51.647955 
L 365.713071 -51.670231 
L 362.382492 -51.691459 
L 359.051914 -51.718116 
L 355.721335 -51.744931 
L 352.390757 -51.770018 
L 349.060178 -51.790889 
L 345.7296 -51.806398 
L 342.399021 -51.826281 
L 339.068443 -51.850409 
L 335.737864 -51.880178 
L 332.407286 -51.909423 
L 329.076707 -51.937681 
L 325.746129 -51.966995 
L 322.41555 -51.981537 
L 319.084972 -52.010697 
L 315.754393 -52.028172 
L 312.423815 -52.058991 
L 309.093236 -52.084154 
L 305.762658 -52.113138 
L 302.432079 -52.14288 
L 299.101501 -52.181143 
L 295.770922 -52.213469 
L 292.440343 -52.247595 
L 289.109765 -52.278476 
L 285.779186 -52.305227 
L 282.448608 -52.338287 
L 279.118029 -52.375075 
L 275.787451 -52.409068 
L 272.456872 -52.44198 
L 269.126294 -52.483874 
L 265.795715 -52.515356 
L 262.465137 -52.551074 
L 259.134558 -52.587511 
L 255.80398 -52.63223 
L 252.473401 -52.686149 
L 249.142823 -52.72371 
L 245.812244 -52.779199 
L 242.481666 -52.815361 
L 239.151087 -52.853715 
L 235.820509 -52.899141 
L 232.48993 -52.945148 
L 229.159352 -52.995448 
L 225.828773 -53.041259 
L 222.498195 -53.083501 
L 219.167616 -53.126293 
L 215.837038 -53.164601 
L 212.506459 -53.198937 
L 209.175881 -53.236419 
L 205.845302 -53.278582 
L 202.514724 -53.32879 
L 199.184145 -53.375273 
L 195.853567 -53.420311 
L 192.522988 -53.467925 
L 189.19241 -53.511832 
L 185.861831 -53.564113 
L 182.531253 -53.602779 
L 179.200674 -53.658067 
L 175.870096 -53.724464 
L 172.539517 -53.774302 
L 169.208939 -53.823835 
L 165.87836 -53.87321 
L 162.547782 -53.918147 
L 159.217203 -53.963009 
L 155.886624 -54.007871 
L 152.556046 -54.073202 
L 149.225467 -54.119975 
L 145.894889 -54.163709 
L 142.56431 -54.207444 
L 139.233732 -54.252325 
L 135.903153 -54.307706 
L 132.572575 -54.354858 
L 129.241996 -54.40201 
L 125.911418 -54.449162 
L 122.580839 -54.495939 
L 119.250261 -54.542713 
L 115.919682 -54.589488 
L 112.589104 -54.636262 
L 109.258525 -54.683037 
L 105.927947 -54.729419 
L 102.597368 -54.776804 
L 99.26679 -54.828203 
L 95.936211 -54.886249 
L 92.605633 -54.939623 
L 89.275054 -54.992612 
L 85.944476 -55.043017 
L 82.613897 -55.089045 
L 79.283319 -55.135073 
L 75.95274 -55.18594 
L 72.622162 -55.255678 
L 69.291583 -55.311886 
L 65.961005 -55.365404 
L 62.630426 -55.418505 
z
" style="stroke: #ffffff; stroke-opacity: 0.15"/>
    </defs>
    <g clip-path="url(#p407f65f553)">
     <use xlink:href="#meb003d37a9" x="0" y="212.657342" style="fill: #2ca02c; fill-opacity: 0.15; stroke: #ffffff; stroke-opacity: 0.15"/>
    </g>
   </g>
   <g id="PathCollection_4">
    <defs>
     <path id="mb65b2cc206" d="M -0 3 
L 3 -3 
L -3 -3 
z
" style="stroke: #d62728; stroke-opacity: 0.8"/>
    </defs>
    <g clip-path="url(#p407f65f553)">
     <use xlink:href="#mb65b2cc206" x="62.630426" y="163.774157" style="fill: #d62728; fill-opacity: 0.8; stroke: #d62728; stroke-opacity: 0.8"/>
     <use xlink:href="#mb65b2cc206" x="76.966395" y="161.266505" style="fill: #d62728; fill-opacity: 0.8; stroke: #d62728; stroke-opacity: 0.8"/>
     <use xlink:href="#mb65b2cc206" x="91.302363" y="162.244869" style="fill: #d62728; fill-opacity: 0.8; stroke: #d62728; stroke-opacity: 0.8"/>
     <use xlink:href="#mb65b2cc206" x="105.638331" y="161.432732" style="fill: #d62728; fill-opacity: 0.8; stroke: #d62728; stroke-opacity: 0.8"/>
     <use xlink:href="#mb65b2cc206" x="119.9743" y="161.285503" style="fill: #d62728; fill-opacity: 0.8; stroke: #d62728; stroke-opacity: 0.8"/>
     <use xlink:href="#mb65b2cc206" x="134.310268" y="158.431149" style="fill: #d62728; fill-opacity: 0.8; stroke: #d62728; stroke-opacity: 0.8"/>
     <use xlink:href="#mb65b2cc206" x="148.646236" y="163.057007" style="fill: #d62728; fill-opacity: 0.8; stroke: #d62728; stroke-opacity: 0.8"/>
     <use xlink:href="#mb65b2cc206" x="162.982205" y="162.871782" style="fill: #d62728; fill-opacity: 0.8; stroke: #d62728; stroke-opacity: 0.8"/>
     <use xlink:href="#mb65b2cc206" x="177.318173" y="163.109249" style="fill: #d62728; fill-opacity: 0.8; stroke: #d62728; stroke-opacity: 0.8"/>
     <use xlink:href="#mb65b2cc206" x="191.654142" y="163.89764" style="fill: #d62728; fill-opacity: 0.8; stroke: #d62728; stroke-opacity: 0.8"/>
     <use xlink:href="#mb65b2cc206" x="205.99011" y="164.591043" style="fill: #d62728; fill-opacity: 0.8; stroke: #d62728; stroke-opacity: 0.8"/>
     <use xlink:href="#mb65b2cc206" x="220.326078" y="163.674421" style="fill: #d62728; fill-opacity: 0.8; stroke: #d62728; stroke-opacity: 0.8"/>
     <use xlink:href="#mb65b2cc206" x="234.662047" y="163.949883" style="fill: #d62728; fill-opacity: 0.8; stroke: #d62728; stroke-opacity: 0.8"/>
     <use xlink:href="#mb65b2cc206" x="248.998015" y="166.49078" style="fill: #d62728; fill-opacity: 0.8; stroke: #d62728; stroke-opacity: 0.8"/>
     <use xlink:href="#mb65b2cc206" x="263.333983" y="164.481809" style="fill: #d62728; fill-opacity: 0.8; stroke: #d62728; stroke-opacity: 0.8"/>
     <use xlink:href="#mb65b2cc206" x="277.669952" y="166.376795" style="fill: #d62728; fill-opacity: 0.8; stroke: #d62728; stroke-opacity: 0.8"/>
     <use xlink:href="#mb65b2cc206" x="292.00592" y="163.000014" style="fill: #d62728; fill-opacity: 0.8; stroke: #d62728; stroke-opacity: 0.8"/>
     <use xlink:href="#mb65b2cc206" x="306.341889" y="162.924025" style="fill: #d62728; fill-opacity: 0.8; stroke: #d62728; stroke-opacity: 0.8"/>
     <use xlink:href="#mb65b2cc206" x="320.677857" y="165.213207" style="fill: #d62728; fill-opacity: 0.8; stroke: #d62728; stroke-opacity: 0.8"/>
     <use xlink:href="#mb65b2cc206" x="335.013825" y="163.042758" style="fill: #d62728; fill-opacity: 0.8; stroke: #d62728; stroke-opacity: 0.8"/>
     <use xlink:href="#mb65b2cc206" x="349.349794" y="162.819539" style="fill: #d62728; fill-opacity: 0.8; stroke: #d62728; stroke-opacity: 0.8"/>
     <use xlink:href="#mb65b2cc206" x="363.685762" y="165.393682" style="fill: #d62728; fill-opacity: 0.8; stroke: #d62728; stroke-opacity: 0.8"/>
     <use xlink:href="#mb65b2cc206" x="378.02173" y="164.515054" style="fill: #d62728; fill-opacity: 0.8; stroke: #d62728; stroke-opacity: 0.8"/>
     <use xlink:href="#mb65b2cc206" x="392.357699" y="163.992627" style="fill: #d62728; fill-opacity: 0.8; stroke: #d62728; stroke-opacity: 0.8"/>
    </g>
   </g>
   <g id="PolyCollection_4">
    <defs>
     <path id="mb636fab139" d="M 62.630426 -51.976939 
L 62.630426 -49.620698 
L 65.961005 -49.598892 
L 69.291583 -49.583716 
L 72.622162 -49.566406 
L 75.95274 -49.556146 
L 79.283319 -49.541897 
L 82.613897 -49.51996 
L 85.944476 -49.503359 
L 89.275054 -49.487419 
L 92.605633 -49.471693 
L 95.936211 -49.456029 
L 99.26679 -49.436155 
L 102.597368 -49.424004 
L 105.927947 -49.408315 
L 109.258525 -49.391553 
L 112.589104 -49.374482 
L 115.919682 -49.35741 
L 119.250261 -49.340338 
L 122.580839 -49.323267 
L 125.911418 -49.308525 
L 129.241996 -49.29366 
L 132.572575 -49.271677 
L 135.903153 -49.254312 
L 139.233732 -49.237048 
L 142.56431 -49.219959 
L 145.894889 -49.202689 
L 149.225467 -49.185629 
L 152.556046 -49.16842 
L 155.886624 -49.15327 
L 159.217203 -49.136573 
L 162.547782 -49.117006 
L 165.87836 -49.099516 
L 169.208939 -49.082326 
L 172.539517 -49.065035 
L 175.870096 -49.047694 
L 179.200674 -49.027827 
L 182.531253 -49.004922 
L 185.861831 -48.979494 
L 189.19241 -48.945417 
L 192.522988 -48.93177 
L 195.853567 -48.909597 
L 199.184145 -48.88521 
L 202.514724 -48.866494 
L 205.845302 -48.844098 
L 209.175881 -48.820936 
L 212.506459 -48.782682 
L 215.837038 -48.754567 
L 219.167616 -48.736519 
L 222.498195 -48.719978 
L 225.828773 -48.690371 
L 229.159352 -48.654067 
L 232.48993 -48.622588 
L 235.820509 -48.593027 
L 239.151087 -48.564189 
L 242.481666 -48.522709 
L 245.812244 -48.492778 
L 249.142823 -48.456575 
L 252.473401 -48.43279 
L 255.80398 -48.40179 
L 259.134558 -48.364704 
L 262.465137 -48.329727 
L 265.795715 -48.295995 
L 269.126294 -48.261905 
L 272.456872 -48.216218 
L 275.787451 -48.191125 
L 279.118029 -48.147957 
L 282.448608 -48.099547 
L 285.779186 -48.064805 
L 289.109765 -48.024211 
L 292.440343 -47.983795 
L 295.770922 -47.94588 
L 299.101501 -47.913648 
L 302.432079 -47.869497 
L 305.762658 -47.820315 
L 309.093236 -47.771132 
L 312.423815 -47.721949 
L 315.754393 -47.672767 
L 319.084972 -47.622391 
L 322.41555 -47.571852 
L 325.746129 -47.525031 
L 329.076707 -47.4756 
L 332.407286 -47.4265 
L 335.737864 -47.390416 
L 339.068443 -47.350262 
L 342.399021 -47.305517 
L 345.7296 -47.260772 
L 349.060178 -47.214553 
L 352.390757 -47.16706 
L 355.721335 -47.119567 
L 359.051914 -47.059936 
L 362.382492 -46.999713 
L 365.713071 -46.957247 
L 369.043649 -46.914838 
L 372.374228 -46.872429 
L 375.704806 -46.83002 
L 379.035385 -46.787119 
L 382.365963 -46.739627 
L 385.696542 -46.692134 
L 389.02712 -46.644642 
L 392.357699 -46.597149 
L 392.357699 -48.56354 
L 392.357699 -48.56354 
L 389.02712 -48.580701 
L 385.696542 -48.59777 
L 382.365963 -48.614712 
L 379.035385 -48.632139 
L 375.704806 -48.651699 
L 372.374228 -48.669798 
L 369.043649 -48.690631 
L 365.713071 -48.711452 
L 362.382492 -48.732073 
L 359.051914 -48.751663 
L 355.721335 -48.765599 
L 352.390757 -48.779335 
L 349.060178 -48.793453 
L 345.7296 -48.811635 
L 342.399021 -48.839132 
L 339.068443 -48.868622 
L 335.737864 -48.887412 
L 332.407286 -48.911951 
L 329.076707 -48.931802 
L 325.746129 -48.94955 
L 322.41555 -48.96749 
L 319.084972 -48.985224 
L 315.754393 -49.002904 
L 312.423815 -49.019881 
L 309.093236 -49.04323 
L 305.762658 -49.06706 
L 302.432079 -49.092177 
L 299.101501 -49.1157 
L 295.770922 -49.147094 
L 292.440343 -49.171323 
L 289.109765 -49.203497 
L 285.779186 -49.219286 
L 282.448608 -49.245334 
L 279.118029 -49.276926 
L 275.787451 -49.308424 
L 272.456872 -49.340791 
L 269.126294 -49.372732 
L 265.795715 -49.411194 
L 262.465137 -49.443421 
L 259.134558 -49.482697 
L 255.80398 -49.513436 
L 252.473401 -49.557987 
L 249.142823 -49.600015 
L 245.812244 -49.639624 
L 242.481666 -49.674993 
L 239.151087 -49.709545 
L 235.820509 -49.752321 
L 232.48993 -49.782373 
L 229.159352 -49.813021 
L 225.828773 -49.837119 
L 222.498195 -49.867245 
L 219.167616 -49.902543 
L 215.837038 -49.94334 
L 212.506459 -49.984138 
L 209.175881 -50.031722 
L 205.845302 -50.065563 
L 202.514724 -50.106297 
L 199.184145 -50.147024 
L 195.853567 -50.190756 
L 192.522988 -50.228739 
L 189.19241 -50.276729 
L 185.861831 -50.322827 
L 182.531253 -50.364395 
L 179.200674 -50.408531 
L 175.870096 -50.44888 
L 172.539517 -50.488907 
L 169.208939 -50.529252 
L 165.87836 -50.569615 
L 162.547782 -50.613933 
L 159.217203 -50.653103 
L 155.886624 -50.704254 
L 152.556046 -50.755289 
L 149.225467 -50.801886 
L 145.894889 -50.841956 
L 142.56431 -50.882026 
L 139.233732 -50.925751 
L 135.903153 -50.973066 
L 132.572575 -51.018939 
L 129.241996 -51.061969 
L 125.911418 -51.104999 
L 122.580839 -51.158643 
L 119.250261 -51.199962 
L 115.919682 -51.24117 
L 112.589104 -51.282378 
L 109.258525 -51.323587 
L 105.927947 -51.365612 
L 102.597368 -51.413274 
L 99.26679 -51.454645 
L 95.936211 -51.496016 
L 92.605633 -51.537249 
L 89.275054 -51.581759 
L 85.944476 -51.628646 
L 82.613897 -51.684095 
L 79.283319 -51.740901 
L 75.95274 -51.79737 
L 72.622162 -51.842607 
L 69.291583 -51.887443 
L 65.961005 -51.932829 
L 62.630426 -51.976939 
z
" style="stroke: #ffffff; stroke-opacity: 0.15"/>
    </defs>
    <g clip-path="url(#p407f65f553)">
     <use xlink:href="#mb636fab139" x="0" y="212.657342" style="fill: #d62728; fill-opacity: 0.15; stroke: #ffffff; stroke-opacity: 0.15"/>
    </g>
   </g>
   <g id="line2d_13">
    <path d="M 62.630426 39.16888 
L 65.961005 39.401094 
L 69.291583 39.633308 
L 72.622162 39.865522 
L 75.95274 40.097736 
L 79.283319 40.32995 
L 82.613897 40.562164 
L 85.944476 40.794378 
L 89.275054 41.026592 
L 92.605633 41.258806 
L 95.936211 41.491019 
L 99.26679 41.723233 
L 102.597368 41.955447 
L 105.927947 42.187661 
L 109.258525 42.419875 
L 112.589104 42.652089 
L 115.919682 42.884303 
L 119.250261 43.116517 
L 122.580839 43.348731 
L 125.911418 43.580945 
L 129.241996 43.813159 
L 132.572575 44.045373 
L 135.903153 44.277587 
L 139.233732 44.509801 
L 142.56431 44.742015 
L 145.894889 44.974229 
L 149.225467 45.206443 
L 152.556046 45.438657 
L 155.886624 45.670871 
L 159.217203 45.903085 
L 162.547782 46.135299 
L 165.87836 46.367513 
L 169.208939 46.599727 
L 172.539517 46.831941 
L 175.870096 47.064155 
L 179.200674 47.296368 
L 182.531253 47.528582 
L 185.861831 47.760796 
L 189.19241 47.99301 
L 192.522988 48.225224 
L 195.853567 48.457438 
L 199.184145 48.689652 
L 202.514724 48.921866 
L 205.845302 49.15408 
L 209.175881 49.386294 
L 212.506459 49.618508 
L 215.837038 49.850722 
L 219.167616 50.082936 
L 222.498195 50.31515 
L 225.828773 50.547364 
L 229.159352 50.779578 
L 232.48993 51.011792 
L 235.820509 51.244006 
L 239.151087 51.47622 
L 242.481666 51.708434 
L 245.812244 51.940648 
L 249.142823 52.172862 
L 252.473401 52.405076 
L 255.80398 52.63729 
L 259.134558 52.869504 
L 262.465137 53.101717 
L 265.795715 53.333931 
L 269.126294 53.566145 
L 272.456872 53.798359 
L 275.787451 54.030573 
L 279.118029 54.262787 
L 282.448608 54.495001 
L 285.779186 54.727215 
L 289.109765 54.959429 
L 292.440343 55.191643 
L 295.770922 55.423857 
L 299.101501 55.656071 
L 302.432079 55.888285 
L 305.762658 56.120499 
L 309.093236 56.352713 
L 312.423815 56.584927 
L 315.754393 56.817141 
L 319.084972 57.049355 
L 322.41555 57.281569 
L 325.746129 57.513783 
L 329.076707 57.745997 
L 332.407286 57.978211 
L 335.737864 58.210425 
L 339.068443 58.442639 
L 342.399021 58.674853 
L 345.7296 58.907066 
L 349.060178 59.13928 
L 352.390757 59.371494 
L 355.721335 59.603708 
L 359.051914 59.835922 
L 362.382492 60.068136 
L 365.713071 60.30035 
L 369.043649 60.532564 
L 372.374228 60.764778 
L 375.704806 60.996992 
L 379.035385 61.229206 
L 382.365963 61.46142 
L 385.696542 61.693634 
L 389.02712 61.925848 
L 392.357699 62.158062 
" clip-path="url(#p407f65f553)" style="fill: none; stroke: #1f77b4; stroke-width: 2.25; stroke-linecap: round"/>
   </g>
   <g id="line2d_14">
    <path d="M 62.630426 59.15727 
L 65.961005 59.242735 
L 69.291583 59.328199 
L 72.622162 59.413663 
L 75.95274 59.499127 
L 79.283319 59.584591 
L 82.613897 59.670055 
L 85.944476 59.755519 
L 89.275054 59.840983 
L 92.605633 59.926448 
L 95.936211 60.011912 
L 99.26679 60.097376 
L 102.597368 60.18284 
L 105.927947 60.268304 
L 109.258525 60.353768 
L 112.589104 60.439232 
L 115.919682 60.524697 
L 119.250261 60.610161 
L 122.580839 60.695625 
L 125.911418 60.781089 
L 129.241996 60.866553 
L 132.572575 60.952017 
L 135.903153 61.037481 
L 139.233732 61.122946 
L 142.56431 61.20841 
L 145.894889 61.293874 
L 149.225467 61.379338 
L 152.556046 61.464802 
L 155.886624 61.550266 
L 159.217203 61.63573 
L 162.547782 61.721195 
L 165.87836 61.806659 
L 169.208939 61.892123 
L 172.539517 61.977587 
L 175.870096 62.063051 
L 179.200674 62.148515 
L 182.531253 62.233979 
L 185.861831 62.319444 
L 189.19241 62.404908 
L 192.522988 62.490372 
L 195.853567 62.575836 
L 199.184145 62.6613 
L 202.514724 62.746764 
L 205.845302 62.832228 
L 209.175881 62.917693 
L 212.506459 63.003157 
L 215.837038 63.088621 
L 219.167616 63.174085 
L 222.498195 63.259549 
L 225.828773 63.345013 
L 229.159352 63.430477 
L 232.48993 63.515942 
L 235.820509 63.601406 
L 239.151087 63.68687 
L 242.481666 63.772334 
L 245.812244 63.857798 
L 249.142823 63.943262 
L 252.473401 64.028726 
L 255.80398 64.11419 
L 259.134558 64.199655 
L 262.465137 64.285119 
L 265.795715 64.370583 
L 269.126294 64.456047 
L 272.456872 64.541511 
L 275.787451 64.626975 
L 279.118029 64.712439 
L 282.448608 64.797904 
L 285.779186 64.883368 
L 289.109765 64.968832 
L 292.440343 65.054296 
L 295.770922 65.13976 
L 299.101501 65.225224 
L 302.432079 65.310688 
L 305.762658 65.396153 
L 309.093236 65.481617 
L 312.423815 65.567081 
L 315.754393 65.652545 
L 319.084972 65.738009 
L 322.41555 65.823473 
L 325.746129 65.908937 
L 329.076707 65.994402 
L 332.407286 66.079866 
L 335.737864 66.16533 
L 339.068443 66.250794 
L 342.399021 66.336258 
L 345.7296 66.421722 
L 349.060178 66.507186 
L 352.390757 66.592651 
L 355.721335 66.678115 
L 359.051914 66.763579 
L 362.382492 66.849043 
L 365.713071 66.934507 
L 369.043649 67.019971 
L 372.374228 67.105435 
L 375.704806 67.1909 
L 379.035385 67.276364 
L 382.365963 67.361828 
L 385.696542 67.447292 
L 389.02712 67.532756 
L 392.357699 67.61822 
" clip-path="url(#p407f65f553)" style="fill: none; stroke: #ff7f0e; stroke-width: 2.25; stroke-linecap: round"/>
   </g>
   <g id="line2d_15">
    <path d="M 62.630426 158.587687 
L 65.961005 158.622208 
L 69.291583 158.656728 
L 72.622162 158.691249 
L 75.95274 158.725769 
L 79.283319 158.76029 
L 82.613897 158.79481 
L 85.944476 158.829331 
L 89.275054 158.863851 
L 92.605633 158.898372 
L 95.936211 158.932892 
L 99.26679 158.967413 
L 102.597368 159.001933 
L 105.927947 159.036454 
L 109.258525 159.070974 
L 112.589104 159.105495 
L 115.919682 159.140015 
L 119.250261 159.174536 
L 122.580839 159.209056 
L 125.911418 159.243577 
L 129.241996 159.278097 
L 132.572575 159.312618 
L 135.903153 159.347138 
L 139.233732 159.381659 
L 142.56431 159.416179 
L 145.894889 159.4507 
L 149.225467 159.48522 
L 152.556046 159.519741 
L 155.886624 159.554261 
L 159.217203 159.588782 
L 162.547782 159.623303 
L 165.87836 159.657823 
L 169.208939 159.692344 
L 172.539517 159.726864 
L 175.870096 159.761385 
L 179.200674 159.795905 
L 182.531253 159.830426 
L 185.861831 159.864946 
L 189.19241 159.899467 
L 192.522988 159.933987 
L 195.853567 159.968508 
L 199.184145 160.003028 
L 202.514724 160.037549 
L 205.845302 160.072069 
L 209.175881 160.10659 
L 212.506459 160.14111 
L 215.837038 160.175631 
L 219.167616 160.210151 
L 222.498195 160.244672 
L 225.828773 160.279192 
L 229.159352 160.313713 
L 232.48993 160.348233 
L 235.820509 160.382754 
L 239.151087 160.417274 
L 242.481666 160.451795 
L 245.812244 160.486315 
L 249.142823 160.520836 
L 252.473401 160.555356 
L 255.80398 160.589877 
L 259.134558 160.624397 
L 262.465137 160.658918 
L 265.795715 160.693438 
L 269.126294 160.727959 
L 272.456872 160.762479 
L 275.787451 160.797 
L 279.118029 160.83152 
L 282.448608 160.866041 
L 285.779186 160.900561 
L 289.109765 160.935082 
L 292.440343 160.969602 
L 295.770922 161.004123 
L 299.101501 161.038643 
L 302.432079 161.073164 
L 305.762658 161.107684 
L 309.093236 161.142205 
L 312.423815 161.176725 
L 315.754393 161.211246 
L 319.084972 161.245766 
L 322.41555 161.280287 
L 325.746129 161.314807 
L 329.076707 161.349328 
L 332.407286 161.383848 
L 335.737864 161.418369 
L 339.068443 161.452889 
L 342.399021 161.48741 
L 345.7296 161.52193 
L 349.060178 161.556451 
L 352.390757 161.590971 
L 355.721335 161.625492 
L 359.051914 161.660013 
L 362.382492 161.694533 
L 365.713071 161.729054 
L 369.043649 161.763574 
L 372.374228 161.798095 
L 375.704806 161.832615 
L 379.035385 161.867136 
L 382.365963 161.901656 
L 385.696542 161.936177 
L 389.02712 161.970697 
L 392.357699 162.005218 
" clip-path="url(#p407f65f553)" style="fill: none; stroke: #2ca02c; stroke-width: 2.25; stroke-linecap: round"/>
   </g>
   <g id="line2d_16">
    <path d="M 62.630426 161.896679 
L 65.961005 161.927248 
L 69.291583 161.957817 
L 72.622162 161.988386 
L 75.95274 162.018955 
L 79.283319 162.049524 
L 82.613897 162.080093 
L 85.944476 162.110662 
L 89.275054 162.141231 
L 92.605633 162.1718 
L 95.936211 162.202369 
L 99.26679 162.232938 
L 102.597368 162.263507 
L 105.927947 162.294076 
L 109.258525 162.324645 
L 112.589104 162.355214 
L 115.919682 162.385783 
L 119.250261 162.416352 
L 122.580839 162.446921 
L 125.911418 162.47749 
L 129.241996 162.508059 
L 132.572575 162.538628 
L 135.903153 162.569196 
L 139.233732 162.599765 
L 142.56431 162.630334 
L 145.894889 162.660903 
L 149.225467 162.691472 
L 152.556046 162.722041 
L 155.886624 162.75261 
L 159.217203 162.783179 
L 162.547782 162.813748 
L 165.87836 162.844317 
L 169.208939 162.874886 
L 172.539517 162.905455 
L 175.870096 162.936024 
L 179.200674 162.966593 
L 182.531253 162.997162 
L 185.861831 163.027731 
L 189.19241 163.0583 
L 192.522988 163.088869 
L 195.853567 163.119438 
L 199.184145 163.150007 
L 202.514724 163.180576 
L 205.845302 163.211145 
L 209.175881 163.241714 
L 212.506459 163.272283 
L 215.837038 163.302852 
L 219.167616 163.333421 
L 222.498195 163.363989 
L 225.828773 163.394558 
L 229.159352 163.425127 
L 232.48993 163.455696 
L 235.820509 163.486265 
L 239.151087 163.516834 
L 242.481666 163.547403 
L 245.812244 163.577972 
L 249.142823 163.608541 
L 252.473401 163.63911 
L 255.80398 163.669679 
L 259.134558 163.700248 
L 262.465137 163.730817 
L 265.795715 163.761386 
L 269.126294 163.791955 
L 272.456872 163.822524 
L 275.787451 163.853093 
L 279.118029 163.883662 
L 282.448608 163.914231 
L 285.779186 163.9448 
L 289.109765 163.975369 
L 292.440343 164.005938 
L 295.770922 164.036507 
L 299.101501 164.067076 
L 302.432079 164.097645 
L 305.762658 164.128214 
L 309.093236 164.158782 
L 312.423815 164.189351 
L 315.754393 164.21992 
L 319.084972 164.250489 
L 322.41555 164.281058 
L 325.746129 164.311627 
L 329.076707 164.342196 
L 332.407286 164.372765 
L 335.737864 164.403334 
L 339.068443 164.433903 
L 342.399021 164.464472 
L 345.7296 164.495041 
L 349.060178 164.52561 
L 352.390757 164.556179 
L 355.721335 164.586748 
L 359.051914 164.617317 
L 362.382492 164.647886 
L 365.713071 164.678455 
L 369.043649 164.709024 
L 372.374228 164.739593 
L 375.704806 164.770162 
L 379.035385 164.800731 
L 382.365963 164.8313 
L 385.696542 164.861869 
L 389.02712 164.892438 
L 392.357699 164.923007 
" clip-path="url(#p407f65f553)" style="fill: none; stroke: #d62728; stroke-width: 2.25; stroke-linecap: round"/>
   </g>
   <g id="patch_3">
    <path d="M 46.144063 174.05078 
L 46.144063 7.73078 
" style="fill: none; stroke: #cccccc; stroke-width: 0.8; stroke-linejoin: miter; stroke-linecap: square"/>
   </g>
   <g id="patch_4">
    <path d="M 408.844063 174.05078 
L 408.844063 7.73078 
" style="fill: none; stroke: #cccccc; stroke-width: 0.8; stroke-linejoin: miter; stroke-linecap: square"/>
   </g>
   <g id="patch_5">
    <path d="M 46.144063 174.05078 
L 408.844063 174.05078 
" style="fill: none; stroke: #cccccc; stroke-width: 0.8; stroke-linejoin: miter; stroke-linecap: square"/>
   </g>
   <g id="patch_6">
    <path d="M 46.144063 7.73078 
L 408.844063 7.73078 
" style="fill: none; stroke: #cccccc; stroke-width: 0.8; stroke-linejoin: miter; stroke-linecap: square"/>
   </g>
   <g id="legend_1">
    <g id="patch_7">
     <path d="M 312.98625 86.633905 
L 401.844063 86.633905 
Q 403.844063 86.633905 403.844063 84.633905 
L 403.844063 14.73078 
Q 403.844063 12.73078 401.844063 12.73078 
L 312.98625 12.73078 
Q 310.98625 12.73078 310.98625 14.73078 
L 310.98625 84.633905 
Q 310.98625 86.633905 312.98625 86.633905 
z
" style="fill: #ffffff; opacity: 0.8; stroke: #cccccc; stroke-linejoin: miter"/>
    </g>
    <g id="text_15">
     <!-- capacity, percentile -->
     <g style="fill: #262626" transform="translate(314.98625 23.888592) scale(0.1 -0.1)">
      <defs>
       <path id="ArialMT-70" d="M 422 -1272 
L 422 3319 
L 934 3319 
L 934 2888 
Q 1116 3141 1344 3267 
Q 1572 3394 1897 3394 
Q 2322 3394 2647 3175 
Q 2972 2956 3137 2557 
Q 3303 2159 3303 1684 
Q 3303 1175 3120 767 
Q 2938 359 2589 142 
Q 2241 -75 1856 -75 
Q 1575 -75 1351 44 
Q 1128 163 984 344 
L 984 -1272 
L 422 -1272 
z
M 931 1641 
Q 931 1000 1190 694 
Q 1450 388 1819 388 
Q 2194 388 2461 705 
Q 2728 1022 2728 1688 
Q 2728 2322 2467 2637 
Q 2206 2953 1844 2953 
Q 1484 2953 1207 2617 
Q 931 2281 931 1641 
z
" transform="scale(0.015625)"/>
       <path id="ArialMT-2c" d="M 569 0 
L 569 641 
L 1209 641 
L 1209 0 
Q 1209 -353 1084 -570 
Q 959 -788 688 -906 
L 531 -666 
Q 709 -588 793 -436 
Q 878 -284 888 0 
L 569 0 
z
" transform="scale(0.015625)"/>
      </defs>
      <use xlink:href="#ArialMT-63"/>
      <use xlink:href="#ArialMT-61" x="50"/>
      <use xlink:href="#ArialMT-70" x="105.615234"/>
      <use xlink:href="#ArialMT-61" x="161.230469"/>
      <use xlink:href="#ArialMT-63" x="216.845703"/>
      <use xlink:href="#ArialMT-69" x="266.845703"/>
      <use xlink:href="#ArialMT-74" x="289.0625"/>
      <use xlink:href="#ArialMT-79" x="316.845703"/>
      <use xlink:href="#ArialMT-2c" x="359.470703"/>
      <use xlink:href="#ArialMT-20" x="387.253906"/>
      <use xlink:href="#ArialMT-70" x="415.037109"/>
      <use xlink:href="#ArialMT-65" x="470.652344"/>
      <use xlink:href="#ArialMT-72" x="526.267578"/>
      <use xlink:href="#ArialMT-63" x="559.568359"/>
      <use xlink:href="#ArialMT-65" x="609.568359"/>
      <use xlink:href="#ArialMT-6e" x="665.183594"/>
      <use xlink:href="#ArialMT-74" x="720.798828"/>
      <use xlink:href="#ArialMT-69" x="748.582031"/>
      <use xlink:href="#ArialMT-6c" x="770.798828"/>
      <use xlink:href="#ArialMT-65" x="793.015625"/>
     </g>
    </g>
    <g id="PathCollection_5">
     <g>
      <use xlink:href="#m5d18fc0c70" x="325.484688" y="35.55578" style="fill: #1f77b4; fill-opacity: 0.8; stroke: #1f77b4; stroke-opacity: 0.8"/>
     </g>
    </g>
    <g id="text_16">
     <!-- m=81, p90 -->
     <g style="fill: #262626" transform="translate(343.484688 38.18078) scale(0.1 -0.1)">
      <defs>
       <path id="ArialMT-3d" d="M 3381 2694 
L 356 2694 
L 356 3219 
L 3381 3219 
L 3381 2694 
z
M 3381 1303 
L 356 1303 
L 356 1828 
L 3381 1828 
L 3381 1303 
z
" transform="scale(0.015625)"/>
       <path id="ArialMT-38" d="M 1131 2484 
Q 781 2613 612 2850 
Q 444 3088 444 3419 
Q 444 3919 803 4259 
Q 1163 4600 1759 4600 
Q 2359 4600 2725 4251 
Q 3091 3903 3091 3403 
Q 3091 3084 2923 2848 
Q 2756 2613 2416 2484 
Q 2838 2347 3058 2040 
Q 3278 1734 3278 1309 
Q 3278 722 2862 322 
Q 2447 -78 1769 -78 
Q 1091 -78 675 323 
Q 259 725 259 1325 
Q 259 1772 486 2073 
Q 713 2375 1131 2484 
z
M 1019 3438 
Q 1019 3113 1228 2906 
Q 1438 2700 1772 2700 
Q 2097 2700 2305 2904 
Q 2513 3109 2513 3406 
Q 2513 3716 2298 3927 
Q 2084 4138 1766 4138 
Q 1444 4138 1231 3931 
Q 1019 3725 1019 3438 
z
M 838 1322 
Q 838 1081 952 856 
Q 1066 631 1291 507 
Q 1516 384 1775 384 
Q 2178 384 2440 643 
Q 2703 903 2703 1303 
Q 2703 1709 2433 1975 
Q 2163 2241 1756 2241 
Q 1359 2241 1098 1978 
Q 838 1716 838 1322 
z
" transform="scale(0.015625)"/>
       <path id="ArialMT-39" d="M 350 1059 
L 891 1109 
Q 959 728 1153 556 
Q 1347 384 1650 384 
Q 1909 384 2104 503 
Q 2300 622 2425 820 
Q 2550 1019 2634 1356 
Q 2719 1694 2719 2044 
Q 2719 2081 2716 2156 
Q 2547 1888 2255 1720 
Q 1963 1553 1622 1553 
Q 1053 1553 659 1965 
Q 266 2378 266 3053 
Q 266 3750 677 4175 
Q 1088 4600 1706 4600 
Q 2153 4600 2523 4359 
Q 2894 4119 3086 3673 
Q 3278 3228 3278 2384 
Q 3278 1506 3087 986 
Q 2897 466 2520 194 
Q 2144 -78 1638 -78 
Q 1100 -78 759 220 
Q 419 519 350 1059 
z
M 2653 3081 
Q 2653 3566 2395 3850 
Q 2138 4134 1775 4134 
Q 1400 4134 1122 3828 
Q 844 3522 844 3034 
Q 844 2597 1108 2323 
Q 1372 2050 1759 2050 
Q 2150 2050 2401 2323 
Q 2653 2597 2653 3081 
z
" transform="scale(0.015625)"/>
      </defs>
      <use xlink:href="#ArialMT-6d"/>
      <use xlink:href="#ArialMT-3d" x="83.300781"/>
      <use xlink:href="#ArialMT-38" x="141.699219"/>
      <use xlink:href="#ArialMT-31" x="197.314453"/>
      <use xlink:href="#ArialMT-2c" x="252.929688"/>
      <use xlink:href="#ArialMT-20" x="280.712891"/>
      <use xlink:href="#ArialMT-70" x="308.496094"/>
      <use xlink:href="#ArialMT-39" x="364.111328"/>
      <use xlink:href="#ArialMT-30" x="419.726562"/>
     </g>
    </g>
    <g id="PathCollection_6">
     <g>
      <use xlink:href="#m00b8edae30" x="325.484688" y="49.73078" style="fill: #ff7f0e; fill-opacity: 0.8; stroke: #ff7f0e; stroke-opacity: 0.8"/>
     </g>
    </g>
    <g id="text_17">
     <!-- m=41, p90 -->
     <g style="fill: #262626" transform="translate(343.484688 52.35578) scale(0.1 -0.1)">
      <use xlink:href="#ArialMT-6d"/>
      <use xlink:href="#ArialMT-3d" x="83.300781"/>
      <use xlink:href="#ArialMT-34" x="141.699219"/>
      <use xlink:href="#ArialMT-31" x="197.314453"/>
      <use xlink:href="#ArialMT-2c" x="252.929688"/>
      <use xlink:href="#ArialMT-20" x="280.712891"/>
      <use xlink:href="#ArialMT-70" x="308.496094"/>
      <use xlink:href="#ArialMT-39" x="364.111328"/>
      <use xlink:href="#ArialMT-30" x="419.726562"/>
     </g>
    </g>
    <g id="PathCollection_7">
     <g>
      <use xlink:href="#m6acfd943e1" x="325.484688" y="63.876092" style="fill: #2ca02c; fill-opacity: 0.8; stroke: #2ca02c; stroke-opacity: 0.8"/>
     </g>
    </g>
    <g id="text_18">
     <!-- m=81, mean -->
     <g style="fill: #262626" transform="translate(343.484688 66.501092) scale(0.1 -0.1)">
      <use xlink:href="#ArialMT-6d"/>
      <use xlink:href="#ArialMT-3d" x="83.300781"/>
      <use xlink:href="#ArialMT-38" x="141.699219"/>
      <use xlink:href="#ArialMT-31" x="197.314453"/>
      <use xlink:href="#ArialMT-2c" x="252.929688"/>
      <use xlink:href="#ArialMT-20" x="280.712891"/>
      <use xlink:href="#ArialMT-6d" x="308.496094"/>
      <use xlink:href="#ArialMT-65" x="391.796875"/>
      <use xlink:href="#ArialMT-61" x="447.412109"/>
      <use xlink:href="#ArialMT-6e" x="503.027344"/>
     </g>
    </g>
    <g id="PathCollection_8">
     <g>
      <use xlink:href="#mb65b2cc206" x="325.484688" y="78.021405" style="fill: #d62728; fill-opacity: 0.8; stroke: #d62728; stroke-opacity: 0.8"/>
     </g>
    </g>
    <g id="text_19">
     <!-- m=41, mean -->
     <g style="fill: #262626" transform="translate(343.484688 80.646405) scale(0.1 -0.1)">
      <use xlink:href="#ArialMT-6d"/>
      <use xlink:href="#ArialMT-3d" x="83.300781"/>
      <use xlink:href="#ArialMT-34" x="141.699219"/>
      <use xlink:href="#ArialMT-31" x="197.314453"/>
      <use xlink:href="#ArialMT-2c" x="252.929688"/>
      <use xlink:href="#ArialMT-20" x="280.712891"/>
      <use xlink:href="#ArialMT-6d" x="308.496094"/>
      <use xlink:href="#ArialMT-65" x="391.796875"/>
      <use xlink:href="#ArialMT-61" x="447.412109"/>
      <use xlink:href="#ArialMT-6e" x="503.027344"/>
     </g>
    </g>
   </g>
  </g>
 </g>
 <defs>
  <clipPath id="p407f65f553">
   <rect x="46.144063" y="7.73078" width="362.7" height="166.32"/>
  </clipPath>
 </defs>
</svg>
