<?xml version="1.0" encoding="utf-8" standalone="no"?>
<!DOCTYPE svg PUBLIC "-//W3C//DTD SVG 1.1//EN"
  "http://www.w3.org/Graphics/SVG/1.1/DTD/svg11.dtd">
<svg xmlns:xlink="http://www.w3.org/1999/xlink" width="847.096705pt" height="342.20625pt" viewBox="0 0 847.096705 342.20625" xmlns="http://www.w3.org/2000/svg" version="1.1">
 <metadata>
  <rdf:RDF xmlns:dc="http://purl.org/dc/elements/1.1/" xmlns:cc="http://creativecommons.org/ns#" xmlns:rdf="http://www.w3.org/1999/02/22-rdf-syntax-ns#">
   <cc:Work>
    <dc:type rdf:resource="http://purl.org/dc/dcmitype/StillImage"/>
    <dc:date>2025-03-03T15:12:50.575500</dc:date>
    <dc:format>image/svg+xml</dc:format>
    <dc:creator>
     <cc:Agent>
      <dc:title>Matplotlib v3.9.0, https://matplotlib.org/</dc:title>
     </cc:Agent>
    </dc:creator>
   </cc:Work>
  </rdf:RDF>
 </metadata>
 <defs>
  <style type="text/css">*{stroke-linejoin: round; stroke-linecap: butt}</style>
 </defs>
 <g id="figure_1">
  <g id="patch_1">
   <path d="M 0 342.20625 
L 847.096705 342.20625 
L 847.096705 0 
L 0 0 
z
" style="fill: #ffffff"/>
  </g>
  <g id="axes_1">
   <g id="patch_2">
    <path d="M 56.189375 302.0575 
L 411.280284 302.0575 
L 411.280284 24.8575 
L 56.189375 24.8575 
z
" style="fill: #ffffff"/>
   </g>
   <g id="matplotlib.axis_1">
    <g id="xtick_1">
     <g id="line2d_1">
      <path d="M 69.350087 302.0575 
L 69.350087 24.8575 
" clip-path="url(#p21f6309771)" style="fill: none; stroke: #cccccc; stroke-width: 0.8; stroke-linecap: round"/>
     </g>
     <g id="text_1">
      <!-- 0 -->
      <g style="fill: #262626" transform="translate(66.569618 316.215313) scale(0.1 -0.1)">
       <defs>
        <path id="ArialMT-30" d="M 266 2259 
Q 266 3072 433 3567 
Q 600 4063 929 4331 
Q 1259 4600 1759 4600 
Q 2128 4600 2406 4451 
Q 2684 4303 2865 4023 
Q 3047 3744 3150 3342 
Q 3253 2941 3253 2259 
Q 3253 1453 3087 958 
Q 2922 463 2592 192 
Q 2263 -78 1759 -78 
Q 1097 -78 719 397 
Q 266 969 266 2259 
z
M 844 2259 
Q 844 1131 1108 757 
Q 1372 384 1759 384 
Q 2147 384 2411 759 
Q 2675 1134 2675 2259 
Q 2675 3391 2411 3762 
Q 2147 4134 1753 4134 
Q 1366 4134 1134 3806 
Q 844 3388 844 2259 
z
" transform="scale(0.015625)"/>
       </defs>
       <use xlink:href="#ArialMT-30"/>
      </g>
     </g>
    </g>
    <g id="xtick_2">
     <g id="line2d_2">
      <path d="M 119.013151 302.0575 
L 119.013151 24.8575 
" clip-path="url(#p21f6309771)" style="fill: none; stroke: #cccccc; stroke-width: 0.8; stroke-linecap: round"/>
     </g>
     <g id="text_2">
      <!-- 50 -->
      <g style="fill: #262626" transform="translate(113.452214 316.215313) scale(0.1 -0.1)">
       <defs>
        <path id="ArialMT-35" d="M 266 1200 
L 856 1250 
Q 922 819 1161 601 
Q 1400 384 1738 384 
Q 2144 384 2425 690 
Q 2706 997 2706 1503 
Q 2706 1984 2436 2262 
Q 2166 2541 1728 2541 
Q 1456 2541 1237 2417 
Q 1019 2294 894 2097 
L 366 2166 
L 809 4519 
L 3088 4519 
L 3088 3981 
L 1259 3981 
L 1013 2750 
Q 1425 3038 1878 3038 
Q 2478 3038 2890 2622 
Q 3303 2206 3303 1553 
Q 3303 931 2941 478 
Q 2500 -78 1738 -78 
Q 1113 -78 717 272 
Q 322 622 266 1200 
z
" transform="scale(0.015625)"/>
       </defs>
       <use xlink:href="#ArialMT-35"/>
       <use xlink:href="#ArialMT-30" x="55.615234"/>
      </g>
     </g>
    </g>
    <g id="xtick_3">
     <g id="line2d_3">
      <path d="M 168.676215 302.0575 
L 168.676215 24.8575 
" clip-path="url(#p21f6309771)" style="fill: none; stroke: #cccccc; stroke-width: 0.8; stroke-linecap: round"/>
     </g>
     <g id="text_3">
      <!-- 100 -->
      <g style="fill: #262626" transform="translate(160.334809 316.215313) scale(0.1 -0.1)">
       <defs>
        <path id="ArialMT-31" d="M 2384 0 
L 1822 0 
L 1822 3584 
Q 1619 3391 1289 3197 
Q 959 3003 697 2906 
L 697 3450 
Q 1169 3672 1522 3987 
Q 1875 4303 2022 4600 
L 2384 4600 
L 2384 0 
z
" transform="scale(0.015625)"/>
       </defs>
       <use xlink:href="#ArialMT-31"/>
       <use xlink:href="#ArialMT-30" x="55.615234"/>
       <use xlink:href="#ArialMT-30" x="111.230469"/>
      </g>
     </g>
    </g>
    <g id="xtick_4">
     <g id="line2d_4">
      <path d="M 218.33928 302.0575 
L 218.33928 24.8575 
" clip-path="url(#p21f6309771)" style="fill: none; stroke: #cccccc; stroke-width: 0.8; stroke-linecap: round"/>
     </g>
     <g id="text_4">
      <!-- 150 -->
      <g style="fill: #262626" transform="translate(209.997873 316.215313) scale(0.1 -0.1)">
       <use xlink:href="#ArialMT-31"/>
       <use xlink:href="#ArialMT-35" x="55.615234"/>
       <use xlink:href="#ArialMT-30" x="111.230469"/>
      </g>
     </g>
    </g>
    <g id="xtick_5">
     <g id="line2d_5">
      <path d="M 268.002344 302.0575 
L 268.002344 24.8575 
" clip-path="url(#p21f6309771)" style="fill: none; stroke: #cccccc; stroke-width: 0.8; stroke-linecap: round"/>
     </g>
     <g id="text_5">
      <!-- 200 -->
      <g style="fill: #262626" transform="translate(259.660938 316.215313) scale(0.1 -0.1)">
       <defs>
        <path id="ArialMT-32" d="M 3222 541 
L 3222 0 
L 194 0 
Q 188 203 259 391 
Q 375 700 629 1000 
Q 884 1300 1366 1694 
Q 2113 2306 2375 2664 
Q 2638 3022 2638 3341 
Q 2638 3675 2398 3904 
Q 2159 4134 1775 4134 
Q 1369 4134 1125 3890 
Q 881 3647 878 3216 
L 300 3275 
Q 359 3922 746 4261 
Q 1134 4600 1788 4600 
Q 2447 4600 2831 4234 
Q 3216 3869 3216 3328 
Q 3216 3053 3103 2787 
Q 2991 2522 2730 2228 
Q 2469 1934 1863 1422 
Q 1356 997 1212 845 
Q 1069 694 975 541 
L 3222 541 
z
" transform="scale(0.015625)"/>
       </defs>
       <use xlink:href="#ArialMT-32"/>
       <use xlink:href="#ArialMT-30" x="55.615234"/>
       <use xlink:href="#ArialMT-30" x="111.230469"/>
      </g>
     </g>
    </g>
    <g id="xtick_6">
     <g id="line2d_6">
      <path d="M 317.665408 302.0575 
L 317.665408 24.8575 
" clip-path="url(#p21f6309771)" style="fill: none; stroke: #cccccc; stroke-width: 0.8; stroke-linecap: round"/>
     </g>
     <g id="text_6">
      <!-- 250 -->
      <g style="fill: #262626" transform="translate(309.324002 316.215313) scale(0.1 -0.1)">
       <use xlink:href="#ArialMT-32"/>
       <use xlink:href="#ArialMT-35" x="55.615234"/>
       <use xlink:href="#ArialMT-30" x="111.230469"/>
      </g>
     </g>
    </g>
    <g id="xtick_7">
     <g id="line2d_7">
      <path d="M 367.328472 302.0575 
L 367.328472 24.8575 
" clip-path="url(#p21f6309771)" style="fill: none; stroke: #cccccc; stroke-width: 0.8; stroke-linecap: round"/>
     </g>
     <g id="text_7">
      <!-- 300 -->
      <g style="fill: #262626" transform="translate(358.987066 316.215313) scale(0.1 -0.1)">
       <defs>
        <path id="ArialMT-33" d="M 269 1209 
L 831 1284 
Q 928 806 1161 595 
Q 1394 384 1728 384 
Q 2125 384 2398 659 
Q 2672 934 2672 1341 
Q 2672 1728 2419 1979 
Q 2166 2231 1775 2231 
Q 1616 2231 1378 2169 
L 1441 2663 
Q 1497 2656 1531 2656 
Q 1891 2656 2178 2843 
Q 2466 3031 2466 3422 
Q 2466 3731 2256 3934 
Q 2047 4138 1716 4138 
Q 1388 4138 1169 3931 
Q 950 3725 888 3313 
L 325 3413 
Q 428 3978 793 4289 
Q 1159 4600 1703 4600 
Q 2078 4600 2393 4439 
Q 2709 4278 2876 4000 
Q 3044 3722 3044 3409 
Q 3044 3113 2884 2869 
Q 2725 2625 2413 2481 
Q 2819 2388 3044 2092 
Q 3269 1797 3269 1353 
Q 3269 753 2831 336 
Q 2394 -81 1725 -81 
Q 1122 -81 723 278 
Q 325 638 269 1209 
z
" transform="scale(0.015625)"/>
       </defs>
       <use xlink:href="#ArialMT-33"/>
       <use xlink:href="#ArialMT-30" x="55.615234"/>
       <use xlink:href="#ArialMT-30" x="111.230469"/>
      </g>
     </g>
    </g>
    <g id="text_8">
     <!-- Value -->
     <g style="fill: #262626" transform="translate(216.34858 332.22375) scale(0.14 -0.14)">
      <defs>
       <path id="ArialMT-56" d="M 1803 0 
L 28 4581 
L 684 4581 
L 1875 1253 
Q 2019 853 2116 503 
Q 2222 878 2363 1253 
L 3600 4581 
L 4219 4581 
L 2425 0 
L 1803 0 
z
" transform="scale(0.015625)"/>
       <path id="ArialMT-61" d="M 2588 409 
Q 2275 144 1986 34 
Q 1697 -75 1366 -75 
Q 819 -75 525 192 
Q 231 459 231 875 
Q 231 1119 342 1320 
Q 453 1522 633 1644 
Q 813 1766 1038 1828 
Q 1203 1872 1538 1913 
Q 2219 1994 2541 2106 
Q 2544 2222 2544 2253 
Q 2544 2597 2384 2738 
Q 2169 2928 1744 2928 
Q 1347 2928 1158 2789 
Q 969 2650 878 2297 
L 328 2372 
Q 403 2725 575 2942 
Q 747 3159 1072 3276 
Q 1397 3394 1825 3394 
Q 2250 3394 2515 3294 
Q 2781 3194 2906 3042 
Q 3031 2891 3081 2659 
Q 3109 2516 3109 2141 
L 3109 1391 
Q 3109 606 3145 398 
Q 3181 191 3288 0 
L 2700 0 
Q 2613 175 2588 409 
z
M 2541 1666 
Q 2234 1541 1622 1453 
Q 1275 1403 1131 1340 
Q 988 1278 909 1158 
Q 831 1038 831 891 
Q 831 666 1001 516 
Q 1172 366 1500 366 
Q 1825 366 2078 508 
Q 2331 650 2450 897 
Q 2541 1088 2541 1459 
L 2541 1666 
z
" transform="scale(0.015625)"/>
       <path id="ArialMT-6c" d="M 409 0 
L 409 4581 
L 972 4581 
L 972 0 
L 409 0 
z
" transform="scale(0.015625)"/>
       <path id="ArialMT-75" d="M 2597 0 
L 2597 488 
Q 2209 -75 1544 -75 
Q 1250 -75 995 37 
Q 741 150 617 320 
Q 494 491 444 738 
Q 409 903 409 1263 
L 409 3319 
L 972 3319 
L 972 1478 
Q 972 1038 1006 884 
Q 1059 663 1231 536 
Q 1403 409 1656 409 
Q 1909 409 2131 539 
Q 2353 669 2445 892 
Q 2538 1116 2538 1541 
L 2538 3319 
L 3100 3319 
L 3100 0 
L 2597 0 
z
" transform="scale(0.015625)"/>
       <path id="ArialMT-65" d="M 2694 1069 
L 3275 997 
Q 3138 488 2766 206 
Q 2394 -75 1816 -75 
Q 1088 -75 661 373 
Q 234 822 234 1631 
Q 234 2469 665 2931 
Q 1097 3394 1784 3394 
Q 2450 3394 2872 2941 
Q 3294 2488 3294 1666 
Q 3294 1616 3291 1516 
L 816 1516 
Q 847 969 1125 678 
Q 1403 388 1819 388 
Q 2128 388 2347 550 
Q 2566 713 2694 1069 
z
M 847 1978 
L 2700 1978 
Q 2663 2397 2488 2606 
Q 2219 2931 1791 2931 
Q 1403 2931 1139 2672 
Q 875 2413 847 1978 
z
" transform="scale(0.015625)"/>
      </defs>
      <use xlink:href="#ArialMT-56"/>
      <use xlink:href="#ArialMT-61" x="59.324219"/>
      <use xlink:href="#ArialMT-6c" x="114.939453"/>
      <use xlink:href="#ArialMT-75" x="137.15625"/>
      <use xlink:href="#ArialMT-65" x="192.771484"/>
     </g>
    </g>
   </g>
   <g id="matplotlib.axis_2">
    <g id="ytick_1">
     <g id="line2d_8">
      <path d="M 56.189375 292.090439 
L 411.280284 292.090439 
" clip-path="url(#p21f6309771)" style="fill: none; stroke-dasharray: 2.96,1.28; stroke-dashoffset: 0; stroke: #cccccc; stroke-opacity: 0.7; stroke-width: 0.8"/>
     </g>
     <g id="text_9">
      <!-- 0.000 -->
      <g style="fill: #262626" transform="translate(24.1675 295.669345) scale(0.1 -0.1)">
       <defs>
        <path id="ArialMT-2e" d="M 581 0 
L 581 641 
L 1222 641 
L 1222 0 
L 581 0 
z
" transform="scale(0.015625)"/>
       </defs>
       <use xlink:href="#ArialMT-30"/>
       <use xlink:href="#ArialMT-2e" x="55.615234"/>
       <use xlink:href="#ArialMT-30" x="83.398438"/>
       <use xlink:href="#ArialMT-30" x="139.013672"/>
       <use xlink:href="#ArialMT-30" x="194.628906"/>
      </g>
     </g>
    </g>
    <g id="ytick_2">
     <g id="line2d_9">
      <path d="M 56.189375 231.856629 
L 411.280284 231.856629 
" clip-path="url(#p21f6309771)" style="fill: none; stroke-dasharray: 2.96,1.28; stroke-dashoffset: 0; stroke: #cccccc; stroke-opacity: 0.7; stroke-width: 0.8"/>
     </g>
     <g id="text_10">
      <!-- 0.002 -->
      <g style="fill: #262626" transform="translate(24.1675 235.435535) scale(0.1 -0.1)">
       <use xlink:href="#ArialMT-30"/>
       <use xlink:href="#ArialMT-2e" x="55.615234"/>
       <use xlink:href="#ArialMT-30" x="83.398438"/>
       <use xlink:href="#ArialMT-30" x="139.013672"/>
       <use xlink:href="#ArialMT-32" x="194.628906"/>
      </g>
     </g>
    </g>
    <g id="ytick_3">
     <g id="line2d_10">
      <path d="M 56.189375 171.622819 
L 411.280284 171.622819 
" clip-path="url(#p21f6309771)" style="fill: none; stroke-dasharray: 2.96,1.28; stroke-dashoffset: 0; stroke: #cccccc; stroke-opacity: 0.7; stroke-width: 0.8"/>
     </g>
     <g id="text_11">
      <!-- 0.004 -->
      <g style="fill: #262626" transform="translate(24.1675 175.201726) scale(0.1 -0.1)">
       <defs>
        <path id="ArialMT-34" d="M 2069 0 
L 2069 1097 
L 81 1097 
L 81 1613 
L 2172 4581 
L 2631 4581 
L 2631 1613 
L 3250 1613 
L 3250 1097 
L 2631 1097 
L 2631 0 
L 2069 0 
z
M 2069 1613 
L 2069 3678 
L 634 1613 
L 2069 1613 
z
" transform="scale(0.015625)"/>
       </defs>
       <use xlink:href="#ArialMT-30"/>
       <use xlink:href="#ArialMT-2e" x="55.615234"/>
       <use xlink:href="#ArialMT-30" x="83.398438"/>
       <use xlink:href="#ArialMT-30" x="139.013672"/>
       <use xlink:href="#ArialMT-34" x="194.628906"/>
      </g>
     </g>
    </g>
    <g id="ytick_4">
     <g id="line2d_11">
      <path d="M 56.189375 111.389009 
L 411.280284 111.389009 
" clip-path="url(#p21f6309771)" style="fill: none; stroke-dasharray: 2.96,1.28; stroke-dashoffset: 0; stroke: #cccccc; stroke-opacity: 0.7; stroke-width: 0.8"/>
     </g>
     <g id="text_12">
      <!-- 0.006 -->
      <g style="fill: #262626" transform="translate(24.1675 114.967916) scale(0.1 -0.1)">
       <defs>
        <path id="ArialMT-36" d="M 3184 3459 
L 2625 3416 
Q 2550 3747 2413 3897 
Q 2184 4138 1850 4138 
Q 1581 4138 1378 3988 
Q 1113 3794 959 3422 
Q 806 3050 800 2363 
Q 1003 2672 1297 2822 
Q 1591 2972 1913 2972 
Q 2475 2972 2870 2558 
Q 3266 2144 3266 1488 
Q 3266 1056 3080 686 
Q 2894 316 2569 119 
Q 2244 -78 1831 -78 
Q 1128 -78 684 439 
Q 241 956 241 2144 
Q 241 3472 731 4075 
Q 1159 4600 1884 4600 
Q 2425 4600 2770 4297 
Q 3116 3994 3184 3459 
z
M 888 1484 
Q 888 1194 1011 928 
Q 1134 663 1356 523 
Q 1578 384 1822 384 
Q 2178 384 2434 671 
Q 2691 959 2691 1453 
Q 2691 1928 2437 2201 
Q 2184 2475 1800 2475 
Q 1419 2475 1153 2201 
Q 888 1928 888 1484 
z
" transform="scale(0.015625)"/>
       </defs>
       <use xlink:href="#ArialMT-30"/>
       <use xlink:href="#ArialMT-2e" x="55.615234"/>
       <use xlink:href="#ArialMT-30" x="83.398438"/>
       <use xlink:href="#ArialMT-30" x="139.013672"/>
       <use xlink:href="#ArialMT-36" x="194.628906"/>
      </g>
     </g>
    </g>
    <g id="ytick_5">
     <g id="line2d_12">
      <path d="M 56.189375 51.1552 
L 411.280284 51.1552 
" clip-path="url(#p21f6309771)" style="fill: none; stroke-dasharray: 2.96,1.28; stroke-dashoffset: 0; stroke: #cccccc; stroke-opacity: 0.7; stroke-width: 0.8"/>
     </g>
     <g id="text_13">
      <!-- 0.008 -->
      <g style="fill: #262626" transform="translate(24.1675 54.734106) scale(0.1 -0.1)">
       <defs>
        <path id="ArialMT-38" d="M 1131 2484 
Q 781 2613 612 2850 
Q 444 3088 444 3419 
Q 444 3919 803 4259 
Q 1163 4600 1759 4600 
Q 2359 4600 2725 4251 
Q 3091 3903 3091 3403 
Q 3091 3084 2923 2848 
Q 2756 2613 2416 2484 
Q 2838 2347 3058 2040 
Q 3278 1734 3278 1309 
Q 3278 722 2862 322 
Q 2447 -78 1769 -78 
Q 1091 -78 675 323 
Q 259 725 259 1325 
Q 259 1772 486 2073 
Q 713 2375 1131 2484 
z
M 1019 3438 
Q 1019 3113 1228 2906 
Q 1438 2700 1772 2700 
Q 2097 2700 2305 2904 
Q 2513 3109 2513 3406 
Q 2513 3716 2298 3927 
Q 2084 4138 1766 4138 
Q 1444 4138 1231 3931 
Q 1019 3725 1019 3438 
z
M 838 1322 
Q 838 1081 952 856 
Q 1066 631 1291 507 
Q 1516 384 1775 384 
Q 2178 384 2440 643 
Q 2703 903 2703 1303 
Q 2703 1709 2433 1975 
Q 2163 2241 1756 2241 
Q 1359 2241 1098 1978 
Q 838 1716 838 1322 
z
" transform="scale(0.015625)"/>
       </defs>
       <use xlink:href="#ArialMT-30"/>
       <use xlink:href="#ArialMT-2e" x="55.615234"/>
       <use xlink:href="#ArialMT-30" x="83.398438"/>
       <use xlink:href="#ArialMT-30" x="139.013672"/>
       <use xlink:href="#ArialMT-38" x="194.628906"/>
      </g>
     </g>
    </g>
    <g id="text_14">
     <!-- Density -->
     <g style="fill: #262626" transform="translate(17.220937 186.798125) rotate(-90) scale(0.14 -0.14)">
      <defs>
       <path id="ArialMT-44" d="M 494 0 
L 494 4581 
L 2072 4581 
Q 2606 4581 2888 4516 
Q 3281 4425 3559 4188 
Q 3922 3881 4101 3404 
Q 4281 2928 4281 2316 
Q 4281 1794 4159 1391 
Q 4038 988 3847 723 
Q 3656 459 3429 307 
Q 3203 156 2883 78 
Q 2563 0 2147 0 
L 494 0 
z
M 1100 541 
L 2078 541 
Q 2531 541 2789 625 
Q 3047 709 3200 863 
Q 3416 1078 3536 1442 
Q 3656 1806 3656 2325 
Q 3656 3044 3420 3430 
Q 3184 3816 2847 3947 
Q 2603 4041 2063 4041 
L 1100 4041 
L 1100 541 
z
" transform="scale(0.015625)"/>
       <path id="ArialMT-6e" d="M 422 0 
L 422 3319 
L 928 3319 
L 928 2847 
Q 1294 3394 1984 3394 
Q 2284 3394 2536 3286 
Q 2788 3178 2913 3003 
Q 3038 2828 3088 2588 
Q 3119 2431 3119 2041 
L 3119 0 
L 2556 0 
L 2556 2019 
Q 2556 2363 2490 2533 
Q 2425 2703 2258 2804 
Q 2091 2906 1866 2906 
Q 1506 2906 1245 2678 
Q 984 2450 984 1813 
L 984 0 
L 422 0 
z
" transform="scale(0.015625)"/>
       <path id="ArialMT-73" d="M 197 991 
L 753 1078 
Q 800 744 1014 566 
Q 1228 388 1613 388 
Q 2000 388 2187 545 
Q 2375 703 2375 916 
Q 2375 1106 2209 1216 
Q 2094 1291 1634 1406 
Q 1016 1563 777 1677 
Q 538 1791 414 1992 
Q 291 2194 291 2438 
Q 291 2659 392 2848 
Q 494 3038 669 3163 
Q 800 3259 1026 3326 
Q 1253 3394 1513 3394 
Q 1903 3394 2198 3281 
Q 2494 3169 2634 2976 
Q 2775 2784 2828 2463 
L 2278 2388 
Q 2241 2644 2061 2787 
Q 1881 2931 1553 2931 
Q 1166 2931 1000 2803 
Q 834 2675 834 2503 
Q 834 2394 903 2306 
Q 972 2216 1119 2156 
Q 1203 2125 1616 2013 
Q 2213 1853 2448 1751 
Q 2684 1650 2818 1456 
Q 2953 1263 2953 975 
Q 2953 694 2789 445 
Q 2625 197 2315 61 
Q 2006 -75 1616 -75 
Q 969 -75 630 194 
Q 291 463 197 991 
z
" transform="scale(0.015625)"/>
       <path id="ArialMT-69" d="M 425 3934 
L 425 4581 
L 988 4581 
L 988 3934 
L 425 3934 
z
M 425 0 
L 425 3319 
L 988 3319 
L 988 0 
L 425 0 
z
" transform="scale(0.015625)"/>
       <path id="ArialMT-74" d="M 1650 503 
L 1731 6 
Q 1494 -44 1306 -44 
Q 1000 -44 831 53 
Q 663 150 594 308 
Q 525 466 525 972 
L 525 2881 
L 113 2881 
L 113 3319 
L 525 3319 
L 525 4141 
L 1084 4478 
L 1084 3319 
L 1650 3319 
L 1650 2881 
L 1084 2881 
L 1084 941 
Q 1084 700 1114 631 
Q 1144 563 1211 522 
Q 1278 481 1403 481 
Q 1497 481 1650 503 
z
" transform="scale(0.015625)"/>
       <path id="ArialMT-79" d="M 397 -1278 
L 334 -750 
Q 519 -800 656 -800 
Q 844 -800 956 -737 
Q 1069 -675 1141 -563 
Q 1194 -478 1313 -144 
Q 1328 -97 1363 -6 
L 103 3319 
L 709 3319 
L 1400 1397 
Q 1534 1031 1641 628 
Q 1738 1016 1872 1384 
L 2581 3319 
L 3144 3319 
L 1881 -56 
Q 1678 -603 1566 -809 
Q 1416 -1088 1222 -1217 
Q 1028 -1347 759 -1347 
Q 597 -1347 397 -1278 
z
" transform="scale(0.015625)"/>
      </defs>
      <use xlink:href="#ArialMT-44"/>
      <use xlink:href="#ArialMT-65" x="72.216797"/>
      <use xlink:href="#ArialMT-6e" x="127.832031"/>
      <use xlink:href="#ArialMT-73" x="183.447266"/>
      <use xlink:href="#ArialMT-69" x="233.447266"/>
      <use xlink:href="#ArialMT-74" x="255.664062"/>
      <use xlink:href="#ArialMT-79" x="283.447266"/>
     </g>
    </g>
   </g>
   <g id="line2d_13">
    <path d="M 77.296177 183.79055 
L 94.467965 120.808236 
L 97.01823 112.637667 
L 99.058443 106.773559 
L 100.928637 102.073572 
L 102.458796 98.799293 
L 103.818938 96.377616 
L 105.009062 94.670866 
L 106.029168 93.534394 
L 107.049274 92.713917 
L 107.899363 92.28 
L 108.749451 92.079021 
L 109.59954 92.115122 
L 110.449628 92.391104 
L 111.299717 92.908377 
L 112.149805 93.666921 
L 113.169911 94.893483 
L 114.190018 96.459984 
L 115.380141 98.70602 
L 116.740283 101.802135 
L 118.270442 105.917577 
L 119.970619 111.202659 
L 121.840814 117.766602 
L 124.051044 126.337586 
L 127.111363 139.183295 
L 135.272212 173.982384 
L 137.822478 183.709897 
L 140.032708 191.349891 
L 142.07292 197.655588 
L 143.943115 202.756841 
L 145.643292 206.807045 
L 147.343469 210.286602 
L 148.873628 212.927471 
L 150.403787 215.105364 
L 151.763929 216.656879 
L 153.12407 217.852477 
L 154.314194 218.61227 
L 155.504318 219.110656 
L 156.694442 219.3539 
L 157.884566 219.348834 
L 159.07469 219.102791 
L 160.264814 218.623536 
L 161.454937 217.919217 
L 162.815079 216.849571 
L 164.345238 215.324369 
L 165.875398 213.476818 
L 167.575575 211.069623 
L 169.445769 208.021944 
L 171.485982 204.260042 
L 173.696212 199.720487 
L 176.246477 193.951815 
L 179.136778 186.819834 
L 182.367114 178.221915 
L 186.107504 167.601754 
L 190.697981 153.854825 
L 205.829556 107.909878 
L 208.889875 99.698133 
L 211.44014 93.491587 
L 213.650371 88.697331 
L 215.520565 85.13944 
L 217.220742 82.354635 
L 218.750901 80.252646 
L 220.111043 78.73293 
L 221.301167 77.690691 
L 222.491291 76.931995 
L 223.511397 76.517946 
L 224.531503 76.330836 
L 225.551609 76.378565 
L 226.571716 76.668482 
L 227.591822 77.207292 
L 228.611928 78.000963 
L 229.632034 79.054635 
L 230.822158 80.618097 
L 232.012282 82.546073 
L 233.372423 85.199373 
L 234.732565 88.333047 
L 236.262724 92.428049 
L 237.962901 97.671161 
L 239.833096 104.249547 
L 241.873308 112.334779 
L 244.083538 122.061097 
L 246.633804 134.348061 
L 247.143857 136.920911 
L 247.143857 136.920911 
" clip-path="url(#p21f6309771)" style="fill: none; stroke: #440154; stroke-opacity: 0.8; stroke-width: 2; stroke-linecap: round"/>
   </g>
   <g id="line2d_14">
    <path d="M 89.215313 205.382165 
L 91.944544 191.467127 
L 95.037673 174.532953 
L 99.768341 147.207974 
L 104.135111 122.364938 
L 106.682394 109.040999 
L 108.865779 98.753951 
L 110.685267 91.161138 
L 112.322806 85.169305 
L 113.960345 80.005179 
L 115.415935 76.104053 
L 116.871525 72.821498 
L 118.327115 70.10713 
L 119.782705 67.892981 
L 121.238295 66.098038 
L 122.693885 64.633853 
L 124.513373 63.132806 
L 127.060656 61.365223 
L 134.156657 56.835728 
L 135.976145 55.955718 
L 137.249786 55.571219 
L 138.341479 55.459834 
L 139.251223 55.560303 
L 140.160967 55.868991 
L 141.07071 56.415965 
L 141.980454 57.230069 
L 142.890198 58.338116 
L 143.799942 59.764121 
L 144.891634 61.923597 
L 145.983327 64.597574 
L 147.256968 68.38997 
L 148.53061 72.913972 
L 149.9862 78.961145 
L 151.623739 86.810809 
L 153.443226 96.665297 
L 155.80856 110.81402 
L 163.086511 155.45222 
L 164.905998 164.736713 
L 166.361589 171.112491 
L 167.63523 175.802208 
L 168.726922 179.101407 
L 169.818615 181.698024 
L 170.728359 183.307623 
L 171.456154 184.226501 
L 172.183949 184.815775 
L 172.911744 185.076125 
L 173.45759 185.057145 
L 174.003437 184.85664 
L 174.731232 184.31149 
L 175.459027 183.456122 
L 176.368771 181.965546 
L 177.278514 180.028088 
L 178.370207 177.150737 
L 179.643848 173.098764 
L 181.099438 167.66615 
L 182.918926 159.898017 
L 185.28426 148.673032 
L 192.380262 114.176017 
L 194.381698 105.92819 
L 196.019237 100.087794 
L 197.474827 95.689592 
L 198.748468 92.507248 
L 199.840161 90.299236 
L 200.931854 88.584249 
L 201.841597 87.536286 
L 202.751341 86.835328 
L 203.479136 86.522784 
L 204.206931 86.428179 
L 204.934726 86.547883 
L 205.662522 86.877252 
L 206.572265 87.575189 
L 207.482009 88.579055 
L 208.573702 90.166558 
L 209.665394 92.144444 
L 210.939036 94.90308 
L 212.394626 98.584502 
L 214.214113 103.855957 
L 216.397499 110.945767 
L 219.308679 121.254734 
L 225.312988 143.620337 
L 231.681195 166.922233 
L 237.867453 188.707237 
L 242.052274 202.741433 
L 245.145403 212.363313 
L 247.510737 219.050987 
L 249.694122 224.564144 
L 251.51361 228.60541 
L 253.333098 232.110606 
L 254.970636 234.802564 
L 256.608175 237.072126 
L 258.245714 238.95339 
L 259.883253 240.497121 
L 261.702741 241.89548 
L 263.886126 243.274503 
L 270.072384 246.988595 
L 270.982128 247.668967 
L 270.982128 247.668967 
" clip-path="url(#p21f6309771)" style="fill: none; stroke: #414487; stroke-opacity: 0.8; stroke-width: 2; stroke-linecap: round"/>
   </g>
   <g id="line2d_15">
    <path d="M 84.249006 229.273553 
L 87.394831 220.52167 
L 90.091252 212.376864 
L 92.562971 204.242213 
L 95.03469 195.338628 
L 97.50641 185.560707 
L 99.978129 174.84269 
L 102.67455 162.070975 
L 105.595673 147.071303 
L 109.190901 127.362451 
L 116.83076 85.114254 
L 119.30248 72.893065 
L 121.324795 63.94928 
L 123.122409 56.977884 
L 124.695322 51.731096 
L 126.043532 47.915043 
L 127.391743 44.75346 
L 128.515251 42.627181 
L 129.63876 40.962903 
L 130.537567 39.959812 
L 131.436374 39.241972 
L 132.335181 38.800767 
L 133.233988 38.625368 
L 134.132795 38.70292 
L 135.031602 39.018773 
L 135.930409 39.556733 
L 137.053918 40.514827 
L 138.177427 41.756461 
L 139.525637 43.567721 
L 141.09855 46.040792 
L 143.120865 49.633813 
L 146.491392 56.162345 
L 151.659532 66.157866 
L 155.030058 72.165629 
L 158.625286 78.089301 
L 164.018128 86.457267 
L 170.085076 95.978283 
L 174.129707 102.745367 
L 177.949637 109.562904 
L 181.994268 117.261795 
L 186.488303 126.320666 
L 197.273988 148.302258 
L 200.419812 154.052894 
L 203.116233 158.533281 
L 205.587952 162.235304 
L 208.059672 165.544504 
L 210.531391 168.482701 
L 213.227812 171.318506 
L 216.148935 174.052537 
L 220.418268 177.702423 
L 224.687601 181.418658 
L 227.384022 184.073228 
L 229.63104 186.606748 
L 231.653356 189.21562 
L 233.675671 192.195712 
L 235.697987 195.592959 
L 237.720303 199.437401 
L 239.742619 203.739366 
L 241.989636 209.040385 
L 244.461355 215.444151 
L 247.60718 224.277276 
L 258.842268 256.576314 
L 261.313987 262.610105 
L 263.336303 267.005447 
L 265.358618 270.854228 
L 267.156232 273.78583 
L 268.729145 275.959432 
L 270.302057 277.761928 
L 271.650267 279.010892 
L 272.998478 279.988454 
L 274.346688 280.69833 
L 275.694899 281.145913 
L 277.043109 281.338136 
L 278.39132 281.2834 
L 279.73953 280.99157 
L 281.087741 280.474028 
L 282.660653 279.602389 
L 284.233566 278.464958 
L 286.03118 276.874658 
L 288.053495 274.771719 
L 290.525215 271.859674 
L 295.01925 266.11968 
L 298.165074 262.261005 
L 300.412092 259.840319 
L 302.209706 258.209328 
L 303.782618 257.056664 
L 305.35553 256.194964 
L 306.703741 255.707234 
L 308.051951 255.462572 
L 308.726057 255.433347 
L 308.726057 255.433347 
" clip-path="url(#p21f6309771)" style="fill: none; stroke: #2a788e; stroke-opacity: 0.8; stroke-width: 2; stroke-linecap: round"/>
   </g>
   <g id="line2d_16">
    <path d="M 79.2827 229.622768 
L 82.170018 221.303844 
L 85.057336 212.244381 
L 87.944654 202.415311 
L 91.094456 190.833125 
L 94.506741 177.383858 
L 98.96896 158.772525 
L 108.680848 117.871732 
L 112.093133 104.575806 
L 115.242934 93.173296 
L 118.130252 83.541577 
L 120.755087 75.491793 
L 123.379922 68.117038 
L 126.004756 61.416097 
L 128.367107 55.968944 
L 130.729459 51.097507 
L 132.829326 47.283989 
L 134.66671 44.381065 
L 136.241611 42.244461 
L 137.816512 40.461262 
L 139.128929 39.267111 
L 140.441347 38.358259 
L 141.753764 37.754115 
L 142.803698 37.503367 
L 143.853632 37.470109 
L 144.903565 37.66399 
L 145.953499 38.094216 
L 147.003433 38.769382 
L 148.053367 39.697307 
L 149.103301 40.884866 
L 150.415718 42.743104 
L 151.728136 45.024427 
L 153.040553 47.73381 
L 154.615454 51.551324 
L 156.190354 55.980291 
L 158.027739 61.898651 
L 159.865123 68.585187 
L 161.964991 77.088305 
L 164.327342 87.605589 
L 167.21466 101.516942 
L 172.201846 126.910881 
L 176.401581 147.847823 
L 179.026416 159.905423 
L 181.388767 169.701576 
L 183.226151 176.474398 
L 185.063535 182.410603 
L 186.638436 186.78313 
L 188.213337 190.465532 
L 189.525754 192.996062 
L 190.838171 195.035297 
L 191.888105 196.315781 
L 192.938039 197.28969 
L 193.987973 197.964479 
L 195.037907 198.349888 
L 196.087841 198.457815 
L 197.137775 198.302194 
L 198.187708 197.898838 
L 199.237642 197.265284 
L 200.55006 196.178834 
L 201.862477 194.802851 
L 203.437378 192.830158 
L 205.537245 189.783418 
L 208.687047 184.713574 
L 212.624299 178.421491 
L 214.724166 175.46529 
L 216.561551 173.269812 
L 218.136452 171.749605 
L 219.448869 170.773477 
L 220.761286 170.084867 
L 221.81122 169.752398 
L 222.861154 169.621037 
L 223.911088 169.69506 
L 224.961022 169.976739 
L 226.010955 170.466394 
L 227.323373 171.368377 
L 228.63579 172.585801 
L 229.948207 174.107718 
L 231.523108 176.315298 
L 233.098009 178.909471 
L 234.935393 182.376549 
L 237.035261 186.842195 
L 239.397612 192.388056 
L 242.547414 200.403451 
L 247.534599 213.837997 
L 254.359169 232.122056 
L 258.296421 242.017675 
L 261.708706 250.001887 
L 264.858508 256.797099 
L 267.745826 262.489008 
L 270.370661 267.18598 
L 272.995495 271.407218 
L 275.357846 274.789254 
L 277.720197 277.772987 
L 279.820065 280.093091 
L 281.919933 282.106501 
L 284.019801 283.821864 
L 286.119668 285.249964 
L 288.219536 286.402796 
L 290.319404 287.292568 
L 292.419271 287.930738 
L 294.519139 288.327189 
L 296.619007 288.489659 
L 298.718874 288.423476 
L 300.818742 288.131668 
L 302.91861 287.615477 
L 305.018478 286.875243 
L 307.118345 285.911636 
L 309.480696 284.5638 
L 311.843048 282.945427 
L 314.467882 280.851457 
L 317.3552 278.235845 
L 321.029969 274.562778 
L 328.904473 266.546921 
L 331.529307 264.254825 
L 333.629175 262.699165 
L 335.466559 261.588404 
L 337.303943 260.744233 
L 338.878844 260.251389 
L 340.453745 259.982847 
L 341.503679 259.931495 
L 341.503679 259.931495 
" clip-path="url(#p21f6309771)" style="fill: none; stroke: #22a884; stroke-opacity: 0.8; stroke-width: 2; stroke-linecap: round"/>
   </g>
   <g id="line2d_17">
    <path d="M 75.309655 210.781323 
L 79.13555 197.356819 
L 84.432944 177.88395 
L 92.084734 149.771072 
L 95.61633 137.618387 
L 98.559326 128.21927 
L 101.208023 120.466322 
L 103.56242 114.212019 
L 105.916817 108.602112 
L 107.976915 104.239552 
L 110.037012 100.388292 
L 112.09711 97.037269 
L 113.862908 94.546552 
L 115.628705 92.387563 
L 117.394503 90.536484 
L 119.160301 88.966466 
L 121.220399 87.451818 
L 123.280496 86.234866 
L 125.340593 85.271897 
L 127.694991 84.433021 
L 130.049388 83.829996 
L 132.698084 83.398191 
L 135.052482 83.224078 
L 137.406879 83.259964 
L 139.466976 83.488284 
L 141.527074 83.933522 
L 143.292872 84.517765 
L 145.058669 85.318694 
L 146.824467 86.366005 
L 148.590265 87.689435 
L 150.356063 89.317272 
L 152.121861 91.274892 
L 153.887659 93.583376 
L 155.653456 96.258269 
L 157.419254 99.308525 
L 159.479352 103.343201 
L 161.539449 107.879283 
L 163.893846 113.642598 
L 166.542543 120.786963 
L 169.485539 129.395278 
L 173.605734 142.219468 
L 181.257525 166.167856 
L 184.200521 174.637868 
L 186.849218 181.615151 
L 189.203615 187.196911 
L 191.263713 191.547725 
L 193.32381 195.37024 
L 195.089608 198.214629 
L 196.855406 200.658541 
L 198.621204 202.707794 
L 200.387002 204.374814 
L 201.8585 205.485145 
L 203.329998 206.356236 
L 204.801496 207.003802 
L 206.272994 207.445427 
L 208.038792 207.730501 
L 209.80459 207.781643 
L 211.864688 207.594372 
L 214.219085 207.126631 
L 217.162081 206.2871 
L 227.168269 203.201011 
L 229.816966 202.711597 
L 232.171363 202.483836 
L 234.52576 202.479281 
L 236.880157 202.719921 
L 238.940254 203.146496 
L 241.000352 203.786777 
L 243.060449 204.651732 
L 245.120547 205.75196 
L 247.180644 207.097552 
L 249.240742 208.697633 
L 251.300839 210.559645 
L 253.655236 213.014465 
L 256.009634 215.81902 
L 258.364031 218.966696 
L 261.012727 222.897389 
L 263.955724 227.701572 
L 267.19302 233.424894 
L 271.607514 241.722551 
L 280.436504 258.421605 
L 283.968099 264.535964 
L 286.911096 269.188224 
L 289.559792 272.971095 
L 291.91419 275.986707 
L 294.268587 278.665619 
L 296.622984 281.007878 
L 298.977381 283.021508 
L 301.331778 284.720708 
L 303.686175 286.123915 
L 306.040572 287.251875 
L 308.394969 288.125857 
L 310.749367 288.766111 
L 313.103764 289.190652 
L 315.75246 289.428863 
L 318.401157 289.42874 
L 321.049854 289.200459 
L 323.698551 288.749193 
L 326.347247 288.076488 
L 328.995944 287.182216 
L 331.644641 286.066936 
L 334.587637 284.573361 
L 337.530634 282.825689 
L 340.76793 280.642037 
L 344.593825 277.787044 
L 356.071511 269.005612 
L 358.720208 267.344586 
L 361.074605 266.106855 
L 363.134702 265.243162 
L 365.1948 264.608691 
L 367.254897 264.220836 
L 369.314995 264.090362 
L 369.314995 264.090362 
" clip-path="url(#p21f6309771)" style="fill: none; stroke: #7ad151; stroke-opacity: 0.8; stroke-width: 2; stroke-linecap: round"/>
   </g>
   <g id="line2d_18">
    <path d="M 72.329871 183.882439 
L 77.176867 168.149174 
L 80.408197 158.361359 
L 83.316395 150.248994 
L 85.901459 143.707389 
L 88.16339 138.562461 
L 90.425322 133.995355 
L 92.36412 130.556347 
L 94.302918 127.560582 
L 96.241717 125.003214 
L 97.857382 123.197807 
L 99.473047 121.676344 
L 101.088712 120.423877 
L 102.704378 119.422522 
L 104.320043 118.651935 
L 106.258841 118.000398 
L 108.197639 117.608157 
L 110.136438 117.433108 
L 112.398369 117.44775 
L 115.306567 117.71687 
L 119.184163 118.329368 
L 132.109485 120.756854 
L 136.310215 121.716515 
L 139.541545 122.68078 
L 142.449743 123.800048 
L 145.034807 125.043794 
L 147.619872 126.553832 
L 150.204936 128.3488 
L 152.79 130.434505 
L 155.375065 132.804212 
L 158.283262 135.786985 
L 161.514593 139.448528 
L 165.069056 143.821546 
L 169.592919 149.763987 
L 176.378713 159.096201 
L 188.011503 175.102659 
L 194.151031 183.148631 
L 199.32116 189.568442 
L 204.168155 195.236883 
L 209.015151 200.547148 
L 213.862147 205.511118 
L 218.709143 210.160102 
L 223.879272 214.801265 
L 228.726267 218.846668 
L 232.926997 222.069303 
L 236.48146 224.541628 
L 239.712791 226.547323 
L 242.944121 228.292628 
L 245.852319 229.626196 
L 248.760516 230.734746 
L 251.991847 231.721712 
L 255.54631 232.563592 
L 261.039572 233.588755 
L 266.209701 234.630915 
L 269.441032 235.522108 
L 272.026096 236.450242 
L 274.61116 237.615249 
L 277.196225 239.047757 
L 279.781289 240.765539 
L 282.366354 242.77245 
L 284.951418 245.058279 
L 287.859615 247.933493 
L 291.090946 251.444342 
L 295.291676 256.358433 
L 306.924465 270.181717 
L 310.478929 273.957468 
L 313.71026 277.05984 
L 316.618457 279.546233 
L 319.526654 281.724162 
L 322.111719 283.395214 
L 324.696783 284.817694 
L 327.281848 285.996572 
L 329.866912 286.939602 
L 332.451976 287.656069 
L 335.037041 288.155714 
L 337.622105 288.4479 
L 340.530303 288.53909 
L 343.4385 288.388605 
L 346.346698 288.005006 
L 349.254895 287.395908 
L 352.163093 286.569203 
L 355.394423 285.407358 
L 358.625754 284.007561 
L 362.180217 282.225243 
L 366.380947 279.85975 
L 373.813007 275.346743 
L 378.983136 272.346894 
L 382.537599 270.549773 
L 385.445797 269.324933 
L 388.030861 268.465373 
L 390.615926 267.851247 
L 392.877857 267.531684 
L 395.139788 267.424353 
L 395.139788 267.424353 
" clip-path="url(#p21f6309771)" style="fill: none; stroke: #fde725; stroke-opacity: 0.8; stroke-width: 2; stroke-linecap: round"/>
   </g>
   <g id="patch_3">
    <path d="M 56.189375 302.0575 
L 56.189375 24.8575 
" style="fill: none; stroke: #cccccc; stroke-width: 0.8; stroke-linejoin: miter; stroke-linecap: square"/>
   </g>
   <g id="patch_4">
    <path d="M 411.280284 302.0575 
L 411.280284 24.8575 
" style="fill: none; stroke: #cccccc; stroke-width: 0.8; stroke-linejoin: miter; stroke-linecap: square"/>
   </g>
   <g id="patch_5">
    <path d="M 56.189375 302.0575 
L 411.280284 302.0575 
" style="fill: none; stroke: #cccccc; stroke-width: 0.8; stroke-linejoin: miter; stroke-linecap: square"/>
   </g>
   <g id="patch_6">
    <path d="M 56.189375 24.8575 
L 411.280284 24.8575 
" style="fill: none; stroke: #cccccc; stroke-width: 0.8; stroke-linejoin: miter; stroke-linecap: square"/>
   </g>
   <g id="text_15">
    <!-- Distribution of Capacities - Total (PDF) -->
    <g style="fill: #262626" transform="translate(97.84233 18.8575) scale(0.16 -0.16)">
     <defs>
      <path id="ArialMT-72" d="M 416 0 
L 416 3319 
L 922 3319 
L 922 2816 
Q 1116 3169 1280 3281 
Q 1444 3394 1641 3394 
Q 1925 3394 2219 3213 
L 2025 2691 
Q 1819 2813 1613 2813 
Q 1428 2813 1281 2702 
Q 1134 2591 1072 2394 
Q 978 2094 978 1738 
L 978 0 
L 416 0 
z
" transform="scale(0.015625)"/>
      <path id="ArialMT-62" d="M 941 0 
L 419 0 
L 419 4581 
L 981 4581 
L 981 2947 
Q 1338 3394 1891 3394 
Q 2197 3394 2470 3270 
Q 2744 3147 2920 2923 
Q 3097 2700 3197 2384 
Q 3297 2069 3297 1709 
Q 3297 856 2875 390 
Q 2453 -75 1863 -75 
Q 1275 -75 941 416 
L 941 0 
z
M 934 1684 
Q 934 1088 1097 822 
Q 1363 388 1816 388 
Q 2184 388 2453 708 
Q 2722 1028 2722 1663 
Q 2722 2313 2464 2622 
Q 2206 2931 1841 2931 
Q 1472 2931 1203 2611 
Q 934 2291 934 1684 
z
" transform="scale(0.015625)"/>
      <path id="ArialMT-6f" d="M 213 1659 
Q 213 2581 725 3025 
Q 1153 3394 1769 3394 
Q 2453 3394 2887 2945 
Q 3322 2497 3322 1706 
Q 3322 1066 3130 698 
Q 2938 331 2570 128 
Q 2203 -75 1769 -75 
Q 1072 -75 642 372 
Q 213 819 213 1659 
z
M 791 1659 
Q 791 1022 1069 705 
Q 1347 388 1769 388 
Q 2188 388 2466 706 
Q 2744 1025 2744 1678 
Q 2744 2294 2464 2611 
Q 2184 2928 1769 2928 
Q 1347 2928 1069 2612 
Q 791 2297 791 1659 
z
" transform="scale(0.015625)"/>
      <path id="ArialMT-20" transform="scale(0.015625)"/>
      <path id="ArialMT-66" d="M 556 0 
L 556 2881 
L 59 2881 
L 59 3319 
L 556 3319 
L 556 3672 
Q 556 4006 616 4169 
Q 697 4388 901 4523 
Q 1106 4659 1475 4659 
Q 1713 4659 2000 4603 
L 1916 4113 
Q 1741 4144 1584 4144 
Q 1328 4144 1222 4034 
Q 1116 3925 1116 3625 
L 1116 3319 
L 1763 3319 
L 1763 2881 
L 1116 2881 
L 1116 0 
L 556 0 
z
" transform="scale(0.015625)"/>
      <path id="ArialMT-43" d="M 3763 1606 
L 4369 1453 
Q 4178 706 3683 314 
Q 3188 -78 2472 -78 
Q 1731 -78 1267 223 
Q 803 525 561 1097 
Q 319 1669 319 2325 
Q 319 3041 592 3573 
Q 866 4106 1370 4382 
Q 1875 4659 2481 4659 
Q 3169 4659 3637 4309 
Q 4106 3959 4291 3325 
L 3694 3184 
Q 3534 3684 3231 3912 
Q 2928 4141 2469 4141 
Q 1941 4141 1586 3887 
Q 1231 3634 1087 3207 
Q 944 2781 944 2328 
Q 944 1744 1114 1308 
Q 1284 872 1643 656 
Q 2003 441 2422 441 
Q 2931 441 3284 734 
Q 3638 1028 3763 1606 
z
" transform="scale(0.015625)"/>
      <path id="ArialMT-70" d="M 422 -1272 
L 422 3319 
L 934 3319 
L 934 2888 
Q 1116 3141 1344 3267 
Q 1572 3394 1897 3394 
Q 2322 3394 2647 3175 
Q 2972 2956 3137 2557 
Q 3303 2159 3303 1684 
Q 3303 1175 3120 767 
Q 2938 359 2589 142 
Q 2241 -75 1856 -75 
Q 1575 -75 1351 44 
Q 1128 163 984 344 
L 984 -1272 
L 422 -1272 
z
M 931 1641 
Q 931 1000 1190 694 
Q 1450 388 1819 388 
Q 2194 388 2461 705 
Q 2728 1022 2728 1688 
Q 2728 2322 2467 2637 
Q 2206 2953 1844 2953 
Q 1484 2953 1207 2617 
Q 931 2281 931 1641 
z
" transform="scale(0.015625)"/>
      <path id="ArialMT-63" d="M 2588 1216 
L 3141 1144 
Q 3050 572 2676 248 
Q 2303 -75 1759 -75 
Q 1078 -75 664 370 
Q 250 816 250 1647 
Q 250 2184 428 2587 
Q 606 2991 970 3192 
Q 1334 3394 1763 3394 
Q 2303 3394 2647 3120 
Q 2991 2847 3088 2344 
L 2541 2259 
Q 2463 2594 2264 2762 
Q 2066 2931 1784 2931 
Q 1359 2931 1093 2626 
Q 828 2322 828 1663 
Q 828 994 1084 691 
Q 1341 388 1753 388 
Q 2084 388 2306 591 
Q 2528 794 2588 1216 
z
" transform="scale(0.015625)"/>
      <path id="ArialMT-2d" d="M 203 1375 
L 203 1941 
L 1931 1941 
L 1931 1375 
L 203 1375 
z
" transform="scale(0.015625)"/>
      <path id="ArialMT-54" d="M 1659 0 
L 1659 4041 
L 150 4041 
L 150 4581 
L 3781 4581 
L 3781 4041 
L 2266 4041 
L 2266 0 
L 1659 0 
z
" transform="scale(0.015625)"/>
      <path id="ArialMT-28" d="M 1497 -1347 
Q 1031 -759 709 28 
Q 388 816 388 1659 
Q 388 2403 628 3084 
Q 909 3875 1497 4659 
L 1900 4659 
Q 1522 4009 1400 3731 
Q 1209 3300 1100 2831 
Q 966 2247 966 1656 
Q 966 153 1900 -1347 
L 1497 -1347 
z
" transform="scale(0.015625)"/>
      <path id="ArialMT-50" d="M 494 0 
L 494 4581 
L 2222 4581 
Q 2678 4581 2919 4538 
Q 3256 4481 3484 4323 
Q 3713 4166 3852 3881 
Q 3991 3597 3991 3256 
Q 3991 2672 3619 2267 
Q 3247 1863 2275 1863 
L 1100 1863 
L 1100 0 
L 494 0 
z
M 1100 2403 
L 2284 2403 
Q 2872 2403 3119 2622 
Q 3366 2841 3366 3238 
Q 3366 3525 3220 3729 
Q 3075 3934 2838 4000 
Q 2684 4041 2272 4041 
L 1100 4041 
L 1100 2403 
z
" transform="scale(0.015625)"/>
      <path id="ArialMT-46" d="M 525 0 
L 525 4581 
L 3616 4581 
L 3616 4041 
L 1131 4041 
L 1131 2622 
L 3281 2622 
L 3281 2081 
L 1131 2081 
L 1131 0 
L 525 0 
z
" transform="scale(0.015625)"/>
      <path id="ArialMT-29" d="M 791 -1347 
L 388 -1347 
Q 1322 153 1322 1656 
Q 1322 2244 1188 2822 
Q 1081 3291 891 3722 
Q 769 4003 388 4659 
L 791 4659 
Q 1378 3875 1659 3084 
Q 1900 2403 1900 1659 
Q 1900 816 1576 28 
Q 1253 -759 791 -1347 
z
" transform="scale(0.015625)"/>
     </defs>
     <use xlink:href="#ArialMT-44"/>
     <use xlink:href="#ArialMT-69" x="72.216797"/>
     <use xlink:href="#ArialMT-73" x="94.433594"/>
     <use xlink:href="#ArialMT-74" x="144.433594"/>
     <use xlink:href="#ArialMT-72" x="172.216797"/>
     <use xlink:href="#ArialMT-69" x="205.517578"/>
     <use xlink:href="#ArialMT-62" x="227.734375"/>
     <use xlink:href="#ArialMT-75" x="283.349609"/>
     <use xlink:href="#ArialMT-74" x="338.964844"/>
     <use xlink:href="#ArialMT-69" x="366.748047"/>
     <use xlink:href="#ArialMT-6f" x="388.964844"/>
     <use xlink:href="#ArialMT-6e" x="444.580078"/>
     <use xlink:href="#ArialMT-20" x="500.195312"/>
     <use xlink:href="#ArialMT-6f" x="527.978516"/>
     <use xlink:href="#ArialMT-66" x="583.59375"/>
     <use xlink:href="#ArialMT-20" x="611.376953"/>
     <use xlink:href="#ArialMT-43" x="639.160156"/>
     <use xlink:href="#ArialMT-61" x="711.376953"/>
     <use xlink:href="#ArialMT-70" x="766.992188"/>
     <use xlink:href="#ArialMT-61" x="822.607422"/>
     <use xlink:href="#ArialMT-63" x="878.222656"/>
     <use xlink:href="#ArialMT-69" x="928.222656"/>
     <use xlink:href="#ArialMT-74" x="950.439453"/>
     <use xlink:href="#ArialMT-69" x="978.222656"/>
     <use xlink:href="#ArialMT-65" x="1000.439453"/>
     <use xlink:href="#ArialMT-73" x="1056.054688"/>
     <use xlink:href="#ArialMT-20" x="1106.054688"/>
     <use xlink:href="#ArialMT-2d" x="1133.837891"/>
     <use xlink:href="#ArialMT-20" x="1167.138672"/>
     <use xlink:href="#ArialMT-54" x="1193.171875"/>
     <use xlink:href="#ArialMT-6f" x="1243.130859"/>
     <use xlink:href="#ArialMT-74" x="1298.746094"/>
     <use xlink:href="#ArialMT-61" x="1326.529297"/>
     <use xlink:href="#ArialMT-6c" x="1382.144531"/>
     <use xlink:href="#ArialMT-20" x="1404.361328"/>
     <use xlink:href="#ArialMT-28" x="1432.144531"/>
     <use xlink:href="#ArialMT-50" x="1465.445312"/>
     <use xlink:href="#ArialMT-44" x="1532.144531"/>
     <use xlink:href="#ArialMT-46" x="1604.361328"/>
     <use xlink:href="#ArialMT-29" x="1665.445312"/>
    </g>
   </g>
   <g id="legend_1">
    <g id="patch_7">
     <path d="M 346.230909 151.449063 
L 402.880284 151.449063 
Q 405.280284 151.449063 405.280284 149.049063 
L 405.280284 33.2575 
Q 405.280284 30.8575 402.880284 30.8575 
L 346.230909 30.8575 
Q 343.830909 30.8575 343.830909 33.2575 
L 343.830909 149.049063 
Q 343.830909 151.449063 346.230909 151.449063 
z
" style="fill: #ffffff; opacity: 0.8; stroke: #cccccc; stroke-linejoin: miter"/>
    </g>
    <g id="text_16">
     <!-- median -->
     <g style="fill: #262626" transform="translate(358.15794 42.815313) scale(0.1 -0.1)">
      <defs>
       <path id="ArialMT-6d" d="M 422 0 
L 422 3319 
L 925 3319 
L 925 2853 
Q 1081 3097 1340 3245 
Q 1600 3394 1931 3394 
Q 2300 3394 2536 3241 
Q 2772 3088 2869 2813 
Q 3263 3394 3894 3394 
Q 4388 3394 4653 3120 
Q 4919 2847 4919 2278 
L 4919 0 
L 4359 0 
L 4359 2091 
Q 4359 2428 4304 2576 
Q 4250 2725 4106 2815 
Q 3963 2906 3769 2906 
Q 3419 2906 3187 2673 
Q 2956 2441 2956 1928 
L 2956 0 
L 2394 0 
L 2394 2156 
Q 2394 2531 2256 2718 
Q 2119 2906 1806 2906 
Q 1569 2906 1367 2781 
Q 1166 2656 1075 2415 
Q 984 2175 984 1722 
L 984 0 
L 422 0 
z
" transform="scale(0.015625)"/>
       <path id="ArialMT-64" d="M 2575 0 
L 2575 419 
Q 2259 -75 1647 -75 
Q 1250 -75 917 144 
Q 584 363 401 755 
Q 219 1147 219 1656 
Q 219 2153 384 2558 
Q 550 2963 881 3178 
Q 1213 3394 1622 3394 
Q 1922 3394 2156 3267 
Q 2391 3141 2538 2938 
L 2538 4581 
L 3097 4581 
L 3097 0 
L 2575 0 
z
M 797 1656 
Q 797 1019 1065 703 
Q 1334 388 1700 388 
Q 2069 388 2326 689 
Q 2584 991 2584 1609 
Q 2584 2291 2321 2609 
Q 2059 2928 1675 2928 
Q 1300 2928 1048 2622 
Q 797 2316 797 1656 
z
" transform="scale(0.015625)"/>
      </defs>
      <use xlink:href="#ArialMT-6d"/>
      <use xlink:href="#ArialMT-65" x="83.300781"/>
      <use xlink:href="#ArialMT-64" x="138.916016"/>
      <use xlink:href="#ArialMT-69" x="194.53125"/>
      <use xlink:href="#ArialMT-61" x="216.748047"/>
      <use xlink:href="#ArialMT-6e" x="272.363281"/>
     </g>
    </g>
    <g id="line2d_19">
     <path d="M 348.630909 55.192188 
L 360.630909 55.192188 
L 372.630909 55.192188 
" style="fill: none; stroke: #440154; stroke-opacity: 0.8; stroke-width: 2; stroke-linecap: round"/>
    </g>
    <g id="text_17">
     <!-- 111 -->
     <g style="fill: #262626" transform="translate(382.230909 59.392188) scale(0.12 -0.12)">
      <use xlink:href="#ArialMT-31"/>
      <use xlink:href="#ArialMT-31" x="48.240234"/>
      <use xlink:href="#ArialMT-31" x="96.480469"/>
     </g>
    </g>
    <g id="line2d_20">
     <path d="M 348.630909 72.166563 
L 360.630909 72.166563 
L 372.630909 72.166563 
" style="fill: none; stroke: #414487; stroke-opacity: 0.8; stroke-width: 2; stroke-linecap: round"/>
    </g>
    <g id="text_18">
     <!-- 81 -->
     <g style="fill: #262626" transform="translate(382.230909 76.366563) scale(0.12 -0.12)">
      <use xlink:href="#ArialMT-38"/>
      <use xlink:href="#ArialMT-31" x="55.615234"/>
     </g>
    </g>
    <g id="line2d_21">
     <path d="M 348.630909 89.140938 
L 360.630909 89.140938 
L 372.630909 89.140938 
" style="fill: none; stroke: #2a788e; stroke-opacity: 0.8; stroke-width: 2; stroke-linecap: round"/>
    </g>
    <g id="text_19">
     <!-- 88 -->
     <g style="fill: #262626" transform="translate(382.230909 93.340938) scale(0.12 -0.12)">
      <use xlink:href="#ArialMT-38"/>
      <use xlink:href="#ArialMT-38" x="55.615234"/>
     </g>
    </g>
    <g id="line2d_22">
     <path d="M 348.630909 106.115313 
L 360.630909 106.115313 
L 372.630909 106.115313 
" style="fill: none; stroke: #22a884; stroke-opacity: 0.8; stroke-width: 2; stroke-linecap: round"/>
    </g>
    <g id="text_20">
     <!-- 86 -->
     <g style="fill: #262626" transform="translate(382.230909 110.315313) scale(0.12 -0.12)">
      <use xlink:href="#ArialMT-38"/>
      <use xlink:href="#ArialMT-36" x="55.615234"/>
     </g>
    </g>
    <g id="line2d_23">
     <path d="M 348.630909 123.089688 
L 360.630909 123.089688 
L 372.630909 123.089688 
" style="fill: none; stroke: #7ad151; stroke-opacity: 0.8; stroke-width: 2; stroke-linecap: round"/>
    </g>
    <g id="text_21">
     <!-- 85 -->
     <g style="fill: #262626" transform="translate(382.230909 127.289688) scale(0.12 -0.12)">
      <use xlink:href="#ArialMT-38"/>
      <use xlink:href="#ArialMT-35" x="55.615234"/>
     </g>
    </g>
    <g id="line2d_24">
     <path d="M 348.630909 140.064063 
L 360.630909 140.064063 
L 372.630909 140.064063 
" style="fill: none; stroke: #fde725; stroke-opacity: 0.8; stroke-width: 2; stroke-linecap: round"/>
    </g>
    <g id="text_22">
     <!-- 76 -->
     <g style="fill: #262626" transform="translate(382.230909 144.264063) scale(0.12 -0.12)">
      <defs>
       <path id="ArialMT-37" d="M 303 3981 
L 303 4522 
L 3269 4522 
L 3269 4084 
Q 2831 3619 2401 2847 
Q 1972 2075 1738 1259 
Q 1569 684 1522 0 
L 944 0 
Q 953 541 1156 1306 
Q 1359 2072 1739 2783 
Q 2119 3494 2547 3981 
L 303 3981 
z
" transform="scale(0.015625)"/>
      </defs>
      <use xlink:href="#ArialMT-37"/>
      <use xlink:href="#ArialMT-36" x="55.615234"/>
     </g>
    </g>
   </g>
  </g>
  <g id="axes_2">
   <g id="patch_8">
    <path d="M 482.298466 302.0575 
L 837.389375 302.0575 
L 837.389375 24.8575 
L 482.298466 24.8575 
z
" style="fill: #ffffff"/>
   </g>
   <g id="matplotlib.axis_3">
    <g id="xtick_8">
     <g id="line2d_25">
      <path d="M 485.352073 302.0575 
L 485.352073 24.8575 
" clip-path="url(#p3e37301f1a)" style="fill: none; stroke: #cccccc; stroke-width: 0.8; stroke-linecap: round"/>
     </g>
     <g id="text_23">
      <!-- 0 -->
      <g style="fill: #262626" transform="translate(482.571604 316.215313) scale(0.1 -0.1)">
       <use xlink:href="#ArialMT-30"/>
      </g>
     </g>
    </g>
    <g id="xtick_9">
     <g id="line2d_26">
      <path d="M 528.975035 302.0575 
L 528.975035 24.8575 
" clip-path="url(#p3e37301f1a)" style="fill: none; stroke: #cccccc; stroke-width: 0.8; stroke-linecap: round"/>
     </g>
     <g id="text_24">
      <!-- 10 -->
      <g style="fill: #262626" transform="translate(523.414098 316.215313) scale(0.1 -0.1)">
       <use xlink:href="#ArialMT-31"/>
       <use xlink:href="#ArialMT-30" x="55.615234"/>
      </g>
     </g>
    </g>
    <g id="xtick_10">
     <g id="line2d_27">
      <path d="M 572.597997 302.0575 
L 572.597997 24.8575 
" clip-path="url(#p3e37301f1a)" style="fill: none; stroke: #cccccc; stroke-width: 0.8; stroke-linecap: round"/>
     </g>
     <g id="text_25">
      <!-- 20 -->
      <g style="fill: #262626" transform="translate(567.037059 316.215313) scale(0.1 -0.1)">
       <use xlink:href="#ArialMT-32"/>
       <use xlink:href="#ArialMT-30" x="55.615234"/>
      </g>
     </g>
    </g>
    <g id="xtick_11">
     <g id="line2d_28">
      <path d="M 616.220959 302.0575 
L 616.220959 24.8575 
" clip-path="url(#p3e37301f1a)" style="fill: none; stroke: #cccccc; stroke-width: 0.8; stroke-linecap: round"/>
     </g>
     <g id="text_26">
      <!-- 30 -->
      <g style="fill: #262626" transform="translate(610.660021 316.215313) scale(0.1 -0.1)">
       <use xlink:href="#ArialMT-33"/>
       <use xlink:href="#ArialMT-30" x="55.615234"/>
      </g>
     </g>
    </g>
    <g id="xtick_12">
     <g id="line2d_29">
      <path d="M 659.84392 302.0575 
L 659.84392 24.8575 
" clip-path="url(#p3e37301f1a)" style="fill: none; stroke: #cccccc; stroke-width: 0.8; stroke-linecap: round"/>
     </g>
     <g id="text_27">
      <!-- 40 -->
      <g style="fill: #262626" transform="translate(654.282983 316.215313) scale(0.1 -0.1)">
       <use xlink:href="#ArialMT-34"/>
       <use xlink:href="#ArialMT-30" x="55.615234"/>
      </g>
     </g>
    </g>
    <g id="xtick_13">
     <g id="line2d_30">
      <path d="M 703.466882 302.0575 
L 703.466882 24.8575 
" clip-path="url(#p3e37301f1a)" style="fill: none; stroke: #cccccc; stroke-width: 0.8; stroke-linecap: round"/>
     </g>
     <g id="text_28">
      <!-- 50 -->
      <g style="fill: #262626" transform="translate(697.905945 316.215313) scale(0.1 -0.1)">
       <use xlink:href="#ArialMT-35"/>
       <use xlink:href="#ArialMT-30" x="55.615234"/>
      </g>
     </g>
    </g>
    <g id="xtick_14">
     <g id="line2d_31">
      <path d="M 747.089844 302.0575 
L 747.089844 24.8575 
" clip-path="url(#p3e37301f1a)" style="fill: none; stroke: #cccccc; stroke-width: 0.8; stroke-linecap: round"/>
     </g>
     <g id="text_29">
      <!-- 60 -->
      <g style="fill: #262626" transform="translate(741.528907 316.215313) scale(0.1 -0.1)">
       <use xlink:href="#ArialMT-36"/>
       <use xlink:href="#ArialMT-30" x="55.615234"/>
      </g>
     </g>
    </g>
    <g id="xtick_15">
     <g id="line2d_32">
      <path d="M 790.712806 302.0575 
L 790.712806 24.8575 
" clip-path="url(#p3e37301f1a)" style="fill: none; stroke: #cccccc; stroke-width: 0.8; stroke-linecap: round"/>
     </g>
     <g id="text_30">
      <!-- 70 -->
      <g style="fill: #262626" transform="translate(785.151868 316.215313) scale(0.1 -0.1)">
       <use xlink:href="#ArialMT-37"/>
       <use xlink:href="#ArialMT-30" x="55.615234"/>
      </g>
     </g>
    </g>
    <g id="xtick_16">
     <g id="line2d_33">
      <path d="M 834.335768 302.0575 
L 834.335768 24.8575 
" clip-path="url(#p3e37301f1a)" style="fill: none; stroke: #cccccc; stroke-width: 0.8; stroke-linecap: round"/>
     </g>
     <g id="text_31">
      <!-- 80 -->
      <g style="fill: #262626" transform="translate(828.77483 316.215313) scale(0.1 -0.1)">
       <use xlink:href="#ArialMT-38"/>
       <use xlink:href="#ArialMT-30" x="55.615234"/>
      </g>
     </g>
    </g>
    <g id="text_32">
     <!-- Value -->
     <g style="fill: #262626" transform="translate(642.45767 332.22375) scale(0.14 -0.14)">
      <use xlink:href="#ArialMT-56"/>
      <use xlink:href="#ArialMT-61" x="59.324219"/>
      <use xlink:href="#ArialMT-6c" x="114.939453"/>
      <use xlink:href="#ArialMT-75" x="137.15625"/>
      <use xlink:href="#ArialMT-65" x="192.771484"/>
     </g>
    </g>
   </g>
   <g id="matplotlib.axis_4">
    <g id="ytick_6">
     <g id="line2d_34">
      <path d="M 482.298466 297.803848 
L 837.389375 297.803848 
" clip-path="url(#p3e37301f1a)" style="fill: none; stroke-dasharray: 2.96,1.28; stroke-dashoffset: 0; stroke: #cccccc; stroke-opacity: 0.7; stroke-width: 0.8"/>
     </g>
     <g id="text_33">
      <!-- 0.00 -->
      <g style="fill: #262626" transform="translate(455.837528 301.382754) scale(0.1 -0.1)">
       <use xlink:href="#ArialMT-30"/>
       <use xlink:href="#ArialMT-2e" x="55.615234"/>
       <use xlink:href="#ArialMT-30" x="83.398438"/>
       <use xlink:href="#ArialMT-30" x="139.013672"/>
      </g>
     </g>
    </g>
    <g id="ytick_7">
     <g id="line2d_35">
      <path d="M 482.298466 247.42893 
L 837.389375 247.42893 
" clip-path="url(#p3e37301f1a)" style="fill: none; stroke-dasharray: 2.96,1.28; stroke-dashoffset: 0; stroke: #cccccc; stroke-opacity: 0.7; stroke-width: 0.8"/>
     </g>
     <g id="text_34">
      <!-- 0.02 -->
      <g style="fill: #262626" transform="translate(455.837528 251.007837) scale(0.1 -0.1)">
       <use xlink:href="#ArialMT-30"/>
       <use xlink:href="#ArialMT-2e" x="55.615234"/>
       <use xlink:href="#ArialMT-30" x="83.398438"/>
       <use xlink:href="#ArialMT-32" x="139.013672"/>
      </g>
     </g>
    </g>
    <g id="ytick_8">
     <g id="line2d_36">
      <path d="M 482.298466 197.054013 
L 837.389375 197.054013 
" clip-path="url(#p3e37301f1a)" style="fill: none; stroke-dasharray: 2.96,1.28; stroke-dashoffset: 0; stroke: #cccccc; stroke-opacity: 0.7; stroke-width: 0.8"/>
     </g>
     <g id="text_35">
      <!-- 0.04 -->
      <g style="fill: #262626" transform="translate(455.837528 200.632919) scale(0.1 -0.1)">
       <use xlink:href="#ArialMT-30"/>
       <use xlink:href="#ArialMT-2e" x="55.615234"/>
       <use xlink:href="#ArialMT-30" x="83.398438"/>
       <use xlink:href="#ArialMT-34" x="139.013672"/>
      </g>
     </g>
    </g>
    <g id="ytick_9">
     <g id="line2d_37">
      <path d="M 482.298466 146.679095 
L 837.389375 146.679095 
" clip-path="url(#p3e37301f1a)" style="fill: none; stroke-dasharray: 2.96,1.28; stroke-dashoffset: 0; stroke: #cccccc; stroke-opacity: 0.7; stroke-width: 0.8"/>
     </g>
     <g id="text_36">
      <!-- 0.06 -->
      <g style="fill: #262626" transform="translate(455.837528 150.258001) scale(0.1 -0.1)">
       <use xlink:href="#ArialMT-30"/>
       <use xlink:href="#ArialMT-2e" x="55.615234"/>
       <use xlink:href="#ArialMT-30" x="83.398438"/>
       <use xlink:href="#ArialMT-36" x="139.013672"/>
      </g>
     </g>
    </g>
    <g id="ytick_10">
     <g id="line2d_38">
      <path d="M 482.298466 96.304177 
L 837.389375 96.304177 
" clip-path="url(#p3e37301f1a)" style="fill: none; stroke-dasharray: 2.96,1.28; stroke-dashoffset: 0; stroke: #cccccc; stroke-opacity: 0.7; stroke-width: 0.8"/>
     </g>
     <g id="text_37">
      <!-- 0.08 -->
      <g style="fill: #262626" transform="translate(455.837528 99.883083) scale(0.1 -0.1)">
       <use xlink:href="#ArialMT-30"/>
       <use xlink:href="#ArialMT-2e" x="55.615234"/>
       <use xlink:href="#ArialMT-30" x="83.398438"/>
       <use xlink:href="#ArialMT-38" x="139.013672"/>
      </g>
     </g>
    </g>
    <g id="ytick_11">
     <g id="line2d_39">
      <path d="M 482.298466 45.929259 
L 837.389375 45.929259 
" clip-path="url(#p3e37301f1a)" style="fill: none; stroke-dasharray: 2.96,1.28; stroke-dashoffset: 0; stroke: #cccccc; stroke-opacity: 0.7; stroke-width: 0.8"/>
     </g>
     <g id="text_38">
      <!-- 0.10 -->
      <g style="fill: #262626" transform="translate(455.837528 49.508165) scale(0.1 -0.1)">
       <use xlink:href="#ArialMT-30"/>
       <use xlink:href="#ArialMT-2e" x="55.615234"/>
       <use xlink:href="#ArialMT-31" x="83.398438"/>
       <use xlink:href="#ArialMT-30" x="139.013672"/>
      </g>
     </g>
    </g>
    <g id="text_39">
     <!-- Density -->
     <g style="fill: #262626" transform="translate(448.890966 186.798125) rotate(-90) scale(0.14 -0.14)">
      <use xlink:href="#ArialMT-44"/>
      <use xlink:href="#ArialMT-65" x="72.216797"/>
      <use xlink:href="#ArialMT-6e" x="127.832031"/>
      <use xlink:href="#ArialMT-73" x="183.447266"/>
      <use xlink:href="#ArialMT-69" x="233.447266"/>
      <use xlink:href="#ArialMT-74" x="255.664062"/>
      <use xlink:href="#ArialMT-79" x="283.447266"/>
     </g>
    </g>
   </g>
   <g id="line2d_40">
    <path d="M 611.858662 179.677762 
L 612.251662 179.783666 
L 612.710162 180.174199 
L 613.234161 180.968899 
L 613.823661 182.297815 
L 614.54416 184.524341 
L 615.395659 187.957829 
L 616.378159 192.894122 
L 617.622657 200.409624 
L 619.194656 211.387332 
L 622.469653 236.356389 
L 624.696651 252.372432 
L 626.33415 262.664685 
L 627.775149 270.392733 
L 629.085147 276.252687 
L 630.264146 280.566795 
L 631.377645 283.823249 
L 632.360145 286.058675 
L 633.277144 287.624743 
L 634.128643 288.643145 
L 634.849142 289.184707 
L 635.504142 289.425992 
L 636.159141 289.429646 
L 636.814141 289.195423 
L 637.46914 288.721439 
L 638.189639 287.918962 
L 638.975639 286.700068 
L 639.827138 284.962796 
L 640.744137 282.589159 
L 641.792136 279.211681 
L 642.905635 274.815065 
L 644.084634 269.224474 
L 645.394633 261.872454 
L 646.835632 252.432452 
L 648.47313 240.126609 
L 650.438129 223.552795 
L 653.451126 195.947101 
L 657.643122 157.886653 
L 660.59062 133.342253 
L 668.581613 69.980052 
L 670.546611 55.728702 
L 671.85661 47.748529 
L 672.839109 42.986818 
L 673.625108 40.12856 
L 674.280108 38.49233 
L 674.804107 37.719876 
L 675.197107 37.473758 
L 675.524607 37.496133 
L 675.852106 37.731551 
L 676.245106 38.30237 
L 676.703606 39.374883 
L 677.293105 41.409826 
L 677.293105 41.409826 
" clip-path="url(#p3e37301f1a)" style="fill: none; stroke: #440154; stroke-opacity: 0.8; stroke-width: 2; stroke-linecap: round"/>
   </g>
   <g id="line2d_41">
    <path d="M 572.597997 241.548406 
L 573.855596 241.664638 
L 575.113195 242.013328 
L 576.370794 242.590047 
L 577.785592 243.50229 
L 579.200391 244.679523 
L 580.77239 246.275988 
L 582.501588 248.347727 
L 584.545186 251.16064 
L 587.060384 255.044558 
L 590.518781 260.851248 
L 596.963976 271.738843 
L 599.793573 276.038808 
L 602.151571 279.228062 
L 604.195169 281.645016 
L 606.081568 283.557817 
L 607.810766 285.023376 
L 609.539964 286.199274 
L 611.111963 287.007048 
L 612.683962 287.558033 
L 614.098761 287.828467 
L 615.513559 287.880134 
L 616.928358 287.708094 
L 618.343157 287.307385 
L 619.757956 286.673011 
L 621.172754 285.800004 
L 622.744753 284.544266 
L 624.316752 282.981882 
L 625.88875 281.10771 
L 627.617949 278.681688 
L 629.347147 275.872087 
L 631.233546 272.372297 
L 633.277144 268.080507 
L 635.477942 262.904742 
L 637.83594 256.777812 
L 640.665537 248.756765 
L 644.281134 237.77511 
L 651.355128 216.148932 
L 653.870326 209.240969 
L 655.913924 204.223833 
L 657.643122 200.499674 
L 659.215121 197.591815 
L 660.62992 195.403204 
L 661.887519 193.822203 
L 663.145118 192.600655 
L 664.245517 191.835952 
L 665.345916 191.360626 
L 666.289115 191.185547 
L 667.232314 191.225078 
L 668.175513 191.477851 
L 669.118712 191.941051 
L 670.219111 192.74167 
L 671.31951 193.813731 
L 672.577109 195.356278 
L 673.991908 197.47066 
L 675.563907 200.248341 
L 677.293105 203.758674 
L 679.336703 208.40815 
L 682.009101 215.061955 
L 690.183494 235.839076 
L 692.384292 240.662378 
L 694.27069 244.306715 
L 695.999889 247.188092 
L 697.571887 249.392922 
L 698.986686 251.023653 
L 700.401485 252.312532 
L 701.659084 253.171138 
L 702.916683 253.763914 
L 704.174282 254.099018 
L 705.431881 254.188291 
L 706.689479 254.047031 
L 707.947078 253.693717 
L 709.361877 253.069446 
L 710.933876 252.134461 
L 712.820274 250.747899 
L 715.492672 248.468841 
L 720.680267 243.979136 
L 722.723865 242.534691 
L 724.453064 241.577569 
L 726.025063 240.964907 
L 727.439861 240.650091 
L 728.85466 240.577505 
L 729.640659 240.646472 
L 729.640659 240.646472 
" clip-path="url(#p3e37301f1a)" style="fill: none; stroke: #414487; stroke-opacity: 0.8; stroke-width: 2; stroke-linecap: round"/>
   </g>
   <g id="line2d_42">
    <path d="M 550.786516 254.680559 
L 552.633614 254.7831 
L 554.480713 255.107723 
L 556.327811 255.648324 
L 558.380143 256.490429 
L 560.432474 257.569056 
L 562.690039 259.001451 
L 565.35807 260.978263 
L 568.436567 263.556582 
L 572.746463 267.490297 
L 579.929624 274.063265 
L 583.213354 276.743559 
L 585.881385 278.651005 
L 588.344183 280.145266 
L 590.601748 281.258039 
L 592.654079 282.035861 
L 594.706411 282.576103 
L 596.553509 282.84978 
L 598.400608 282.91567 
L 600.247706 282.769579 
L 602.094804 282.409245 
L 603.941903 281.834313 
L 605.994234 280.945744 
L 608.046566 279.799002 
L 610.098897 278.401749 
L 612.356462 276.588021 
L 614.81926 274.299292 
L 617.487291 271.487145 
L 620.360555 268.120631 
L 623.644285 263.923709 
L 627.954182 258.024403 
L 639.036772 242.649775 
L 642.320502 238.558106 
L 645.193767 235.320826 
L 647.656564 232.85499 
L 649.914129 230.87917 
L 652.171694 229.201126 
L 654.224025 227.951527 
L 656.276357 226.977667 
L 658.123455 226.34484 
L 659.970554 225.947847 
L 661.817652 225.789408 
L 663.66475 225.870167 
L 665.511849 226.188668 
L 667.358947 226.741342 
L 669.206046 227.522495 
L 671.258377 228.648825 
L 673.310709 230.033707 
L 675.568273 231.835306 
L 678.031071 234.102065 
L 680.699102 236.866001 
L 683.777599 240.376758 
L 687.882263 245.420193 
L 697.528221 257.413963 
L 700.606718 260.832911 
L 703.274749 263.485288 
L 705.737547 265.621595 
L 707.995112 267.281158 
L 710.047443 268.520461 
L 712.099775 269.489284 
L 713.946873 270.123067 
L 715.793971 270.528792 
L 717.64107 270.707853 
L 719.488168 270.665327 
L 721.335267 270.409943 
L 723.387598 269.891607 
L 725.43993 269.147526 
L 727.697494 268.100157 
L 730.365525 266.608636 
L 733.649256 264.505885 
L 743.70568 257.878134 
L 746.373711 256.487053 
L 748.631276 255.543213 
L 750.683608 254.903297 
L 752.735939 254.493642 
L 754.583038 254.335213 
L 755.814436 254.344389 
L 755.814436 254.344389 
" clip-path="url(#p3e37301f1a)" style="fill: none; stroke: #2a788e; stroke-opacity: 0.8; stroke-width: 2; stroke-linecap: round"/>
   </g>
   <g id="line2d_43">
    <path d="M 528.975035 262.992842 
L 531.507699 263.076436 
L 534.040364 263.373262 
L 536.826295 263.936058 
L 539.612226 264.72967 
L 542.651423 265.831451 
L 545.943887 267.260877 
L 549.99615 269.276499 
L 556.074545 272.588383 
L 563.166005 276.394394 
L 567.218268 278.309944 
L 570.510732 279.634993 
L 573.549929 280.629603 
L 576.33586 281.321512 
L 579.121791 281.783874 
L 581.654456 281.99344 
L 584.18712 281.99539 
L 586.719784 281.78666 
L 589.252449 281.367675 
L 592.03838 280.668621 
L 594.824311 279.72955 
L 597.610242 278.564669 
L 600.649439 277.058037 
L 603.941903 275.180903 
L 607.740899 272.752938 
L 612.299695 269.567614 
L 620.657488 263.386332 
L 627.242416 258.649496 
L 631.801212 255.639935 
L 635.853475 253.233669 
L 639.399205 251.373462 
L 642.944935 249.764526 
L 646.237399 248.507384 
L 649.529863 247.484566 
L 652.822327 246.698631 
L 656.11479 246.149898 
L 659.407254 245.83753 
L 662.699718 245.760366 
L 665.992182 245.917406 
L 669.284646 246.307886 
L 672.577109 246.930919 
L 675.869573 247.784749 
L 679.162037 248.865704 
L 682.707767 250.275903 
L 686.253497 251.927254 
L 690.052494 253.93919 
L 694.358024 256.475104 
L 699.929885 260.04027 
L 712.086675 267.91644 
L 716.138938 270.22169 
L 719.684668 271.977984 
L 722.723865 273.244791 
L 725.509796 274.18595 
L 728.295727 274.898632 
L 731.081658 275.371102 
L 733.614323 275.587317 
L 736.400253 275.591018 
L 739.186184 275.356222 
L 741.972115 274.896359 
L 745.011313 274.161394 
L 748.303776 273.128801 
L 752.102773 271.699354 
L 757.674635 269.33326 
L 765.272628 266.132043 
L 769.071625 264.776452 
L 772.364089 263.832415 
L 775.403286 263.197402 
L 778.189217 262.842379 
L 780.975148 262.722599 
L 781.988214 262.739646 
L 781.988214 262.739646 
" clip-path="url(#p3e37301f1a)" style="fill: none; stroke: #22a884; stroke-opacity: 0.8; stroke-width: 2; stroke-linecap: round"/>
   </g>
   <g id="line2d_44">
    <path d="M 511.52585 267.263045 
L 514.696048 267.332291 
L 517.866245 267.619608 
L 521.324642 268.168334 
L 524.783039 268.940837 
L 528.817835 270.085364 
L 533.429031 271.643372 
L 540.057625 274.156031 
L 549.280017 277.635048 
L 553.891213 279.131398 
L 557.92601 280.208084 
L 561.672606 280.966726 
L 565.131003 281.432636 
L 568.301201 281.6463 
L 571.471398 281.647183 
L 574.641595 281.432221 
L 577.811792 281.003512 
L 581.270189 280.300532 
L 584.728586 279.367333 
L 588.475183 278.121825 
L 592.509979 276.546485 
L 597.409375 274.378788 
L 604.037969 271.171006 
L 616.430558 265.137282 
L 621.906354 262.756016 
L 626.51755 260.98076 
L 631.128746 259.447204 
L 635.451742 258.240617 
L 639.774738 257.257543 
L 644.385934 256.446058 
L 648.99713 255.864228 
L 653.896526 255.479215 
L 658.795921 255.318904 
L 663.695317 255.375317 
L 668.594713 255.65021 
L 673.494109 256.154194 
L 678.105304 256.852193 
L 682.7165 257.781057 
L 687.327696 258.949917 
L 691.938892 260.358645 
L 696.838288 262.102994 
L 702.314083 264.310044 
L 709.230877 267.359018 
L 720.758867 272.463358 
L 725.658263 274.371554 
L 729.693059 275.720651 
L 733.439656 276.747838 
L 736.898053 277.475124 
L 740.35645 277.9716 
L 743.526647 278.214513 
L 746.696844 278.251672 
L 750.155241 278.061469 
L 753.613638 277.642389 
L 757.360235 276.953565 
L 761.395032 275.978586 
L 766.294427 274.549105 
L 774.65222 271.817865 
L 781.280814 269.758869 
L 785.60381 268.634791 
L 789.350407 267.872154 
L 792.808804 267.380595 
L 796.267201 267.118906 
L 799.437398 267.095757 
L 799.437398 267.095757 
" clip-path="url(#p3e37301f1a)" style="fill: none; stroke: #7ad151; stroke-opacity: 0.8; stroke-width: 2; stroke-linecap: round"/>
   </g>
   <g id="line2d_45">
    <path d="M 498.438962 270.500353 
L 502.316558 270.528253 
L 506.194155 270.772482 
L 510.394885 271.262757 
L 514.918747 272.020288 
L 520.088876 273.117733 
L 527.197803 274.878374 
L 539.153726 277.858861 
L 544.646988 278.969633 
L 549.170851 279.664838 
L 553.37158 280.094586 
L 557.57231 280.293071 
L 561.449907 280.259711 
L 565.327503 280.015734 
L 569.528233 279.519506 
L 573.728963 278.797136 
L 578.252825 277.793836 
L 583.422954 276.410654 
L 589.885615 274.430369 
L 610.889263 267.781544 
L 616.705658 266.281766 
L 622.19892 265.094763 
L 627.692182 264.141001 
L 633.185444 263.411554 
L 639.001839 262.858307 
L 645.4645 262.465169 
L 652.89656 262.241865 
L 660.974886 262.224976 
L 668.730079 262.426594 
L 675.515873 262.81634 
L 681.655401 263.388752 
L 687.148663 264.115583 
L 692.641925 265.071787 
L 697.812054 266.192636 
L 703.305316 267.613388 
L 709.121711 269.34724 
L 716.553771 271.814073 
L 733.033556 277.382134 
L 738.526818 278.94363 
L 743.050681 280.012226 
L 747.251411 280.790974 
L 751.45214 281.338704 
L 755.329737 281.624874 
L 759.207333 281.693989 
L 763.08493 281.546914 
L 767.28566 281.153008 
L 771.486389 280.534128 
L 776.010252 279.648686 
L 781.503514 278.333591 
L 789.258707 276.21477 
L 799.598965 273.417981 
L 804.769094 272.246769 
L 809.292956 271.437076 
L 813.493686 270.907489 
L 817.371283 270.633764 
L 821.248879 270.581982 
L 821.248879 270.581982 
" clip-path="url(#p3e37301f1a)" style="fill: none; stroke: #fde725; stroke-opacity: 0.8; stroke-width: 2; stroke-linecap: round"/>
   </g>
   <g id="patch_9">
    <path d="M 482.298466 302.0575 
L 482.298466 24.8575 
" style="fill: none; stroke: #cccccc; stroke-width: 0.8; stroke-linejoin: miter; stroke-linecap: square"/>
   </g>
   <g id="patch_10">
    <path d="M 837.389375 302.0575 
L 837.389375 24.8575 
" style="fill: none; stroke: #cccccc; stroke-width: 0.8; stroke-linejoin: miter; stroke-linecap: square"/>
   </g>
   <g id="patch_11">
    <path d="M 482.298466 302.0575 
L 837.389375 302.0575 
" style="fill: none; stroke: #cccccc; stroke-width: 0.8; stroke-linejoin: miter; stroke-linecap: square"/>
   </g>
   <g id="patch_12">
    <path d="M 482.298466 24.8575 
L 837.389375 24.8575 
" style="fill: none; stroke: #cccccc; stroke-width: 0.8; stroke-linejoin: miter; stroke-linecap: square"/>
   </g>
   <g id="text_40">
    <!-- Distribution of Capacities - SOURCE (PDF) -->
    <g style="fill: #262626" transform="translate(506.47767 18.8575) scale(0.16 -0.16)">
     <defs>
      <path id="ArialMT-53" d="M 288 1472 
L 859 1522 
Q 900 1178 1048 958 
Q 1197 738 1509 602 
Q 1822 466 2213 466 
Q 2559 466 2825 569 
Q 3091 672 3220 851 
Q 3350 1031 3350 1244 
Q 3350 1459 3225 1620 
Q 3100 1781 2813 1891 
Q 2628 1963 1997 2114 
Q 1366 2266 1113 2400 
Q 784 2572 623 2826 
Q 463 3081 463 3397 
Q 463 3744 659 4045 
Q 856 4347 1234 4503 
Q 1613 4659 2075 4659 
Q 2584 4659 2973 4495 
Q 3363 4331 3572 4012 
Q 3781 3694 3797 3291 
L 3216 3247 
Q 3169 3681 2898 3903 
Q 2628 4125 2100 4125 
Q 1550 4125 1298 3923 
Q 1047 3722 1047 3438 
Q 1047 3191 1225 3031 
Q 1400 2872 2139 2705 
Q 2878 2538 3153 2413 
Q 3553 2228 3743 1945 
Q 3934 1663 3934 1294 
Q 3934 928 3725 604 
Q 3516 281 3123 101 
Q 2731 -78 2241 -78 
Q 1619 -78 1198 103 
Q 778 284 539 648 
Q 300 1013 288 1472 
z
" transform="scale(0.015625)"/>
      <path id="ArialMT-4f" d="M 309 2231 
Q 309 3372 921 4017 
Q 1534 4663 2503 4663 
Q 3138 4663 3647 4359 
Q 4156 4056 4423 3514 
Q 4691 2972 4691 2284 
Q 4691 1588 4409 1038 
Q 4128 488 3612 205 
Q 3097 -78 2500 -78 
Q 1853 -78 1343 234 
Q 834 547 571 1087 
Q 309 1628 309 2231 
z
M 934 2222 
Q 934 1394 1379 917 
Q 1825 441 2497 441 
Q 3181 441 3623 922 
Q 4066 1403 4066 2288 
Q 4066 2847 3877 3264 
Q 3688 3681 3323 3911 
Q 2959 4141 2506 4141 
Q 1863 4141 1398 3698 
Q 934 3256 934 2222 
z
" transform="scale(0.015625)"/>
      <path id="ArialMT-55" d="M 3500 4581 
L 4106 4581 
L 4106 1934 
Q 4106 1244 3950 837 
Q 3794 431 3386 176 
Q 2978 -78 2316 -78 
Q 1672 -78 1262 144 
Q 853 366 678 786 
Q 503 1206 503 1934 
L 503 4581 
L 1109 4581 
L 1109 1938 
Q 1109 1341 1220 1058 
Q 1331 775 1601 622 
Q 1872 469 2263 469 
Q 2931 469 3215 772 
Q 3500 1075 3500 1938 
L 3500 4581 
z
" transform="scale(0.015625)"/>
      <path id="ArialMT-52" d="M 503 0 
L 503 4581 
L 2534 4581 
Q 3147 4581 3465 4457 
Q 3784 4334 3975 4021 
Q 4166 3709 4166 3331 
Q 4166 2844 3850 2509 
Q 3534 2175 2875 2084 
Q 3116 1969 3241 1856 
Q 3506 1613 3744 1247 
L 4541 0 
L 3778 0 
L 3172 953 
Q 2906 1366 2734 1584 
Q 2563 1803 2427 1890 
Q 2291 1978 2150 2013 
Q 2047 2034 1813 2034 
L 1109 2034 
L 1109 0 
L 503 0 
z
M 1109 2559 
L 2413 2559 
Q 2828 2559 3062 2645 
Q 3297 2731 3419 2920 
Q 3541 3109 3541 3331 
Q 3541 3656 3305 3865 
Q 3069 4075 2559 4075 
L 1109 4075 
L 1109 2559 
z
" transform="scale(0.015625)"/>
      <path id="ArialMT-45" d="M 506 0 
L 506 4581 
L 3819 4581 
L 3819 4041 
L 1113 4041 
L 1113 2638 
L 3647 2638 
L 3647 2100 
L 1113 2100 
L 1113 541 
L 3925 541 
L 3925 0 
L 506 0 
z
" transform="scale(0.015625)"/>
     </defs>
     <use xlink:href="#ArialMT-44"/>
     <use xlink:href="#ArialMT-69" x="72.216797"/>
     <use xlink:href="#ArialMT-73" x="94.433594"/>
     <use xlink:href="#ArialMT-74" x="144.433594"/>
     <use xlink:href="#ArialMT-72" x="172.216797"/>
     <use xlink:href="#ArialMT-69" x="205.517578"/>
     <use xlink:href="#ArialMT-62" x="227.734375"/>
     <use xlink:href="#ArialMT-75" x="283.349609"/>
     <use xlink:href="#ArialMT-74" x="338.964844"/>
     <use xlink:href="#ArialMT-69" x="366.748047"/>
     <use xlink:href="#ArialMT-6f" x="388.964844"/>
     <use xlink:href="#ArialMT-6e" x="444.580078"/>
     <use xlink:href="#ArialMT-20" x="500.195312"/>
     <use xlink:href="#ArialMT-6f" x="527.978516"/>
     <use xlink:href="#ArialMT-66" x="583.59375"/>
     <use xlink:href="#ArialMT-20" x="611.376953"/>
     <use xlink:href="#ArialMT-43" x="639.160156"/>
     <use xlink:href="#ArialMT-61" x="711.376953"/>
     <use xlink:href="#ArialMT-70" x="766.992188"/>
     <use xlink:href="#ArialMT-61" x="822.607422"/>
     <use xlink:href="#ArialMT-63" x="878.222656"/>
     <use xlink:href="#ArialMT-69" x="928.222656"/>
     <use xlink:href="#ArialMT-74" x="950.439453"/>
     <use xlink:href="#ArialMT-69" x="978.222656"/>
     <use xlink:href="#ArialMT-65" x="1000.439453"/>
     <use xlink:href="#ArialMT-73" x="1056.054688"/>
     <use xlink:href="#ArialMT-20" x="1106.054688"/>
     <use xlink:href="#ArialMT-2d" x="1133.837891"/>
     <use xlink:href="#ArialMT-20" x="1167.138672"/>
     <use xlink:href="#ArialMT-53" x="1194.921875"/>
     <use xlink:href="#ArialMT-4f" x="1261.621094"/>
     <use xlink:href="#ArialMT-55" x="1339.404297"/>
     <use xlink:href="#ArialMT-52" x="1411.621094"/>
     <use xlink:href="#ArialMT-43" x="1483.837891"/>
     <use xlink:href="#ArialMT-45" x="1556.054688"/>
     <use xlink:href="#ArialMT-20" x="1622.753906"/>
     <use xlink:href="#ArialMT-28" x="1650.537109"/>
     <use xlink:href="#ArialMT-50" x="1683.837891"/>
     <use xlink:href="#ArialMT-44" x="1750.537109"/>
     <use xlink:href="#ArialMT-46" x="1822.753906"/>
     <use xlink:href="#ArialMT-29" x="1883.837891"/>
    </g>
   </g>
   <g id="legend_2">
    <g id="patch_13">
     <path d="M 777.243125 151.449063 
L 828.989375 151.449063 
Q 831.389375 151.449063 831.389375 149.049063 
L 831.389375 33.2575 
Q 831.389375 30.8575 828.989375 30.8575 
L 777.243125 30.8575 
Q 774.843125 30.8575 774.843125 33.2575 
L 774.843125 149.049063 
Q 774.843125 151.449063 777.243125 151.449063 
z
" style="fill: #ffffff; opacity: 0.8; stroke: #cccccc; stroke-linejoin: miter"/>
    </g>
    <g id="text_41">
     <!-- median -->
     <g style="fill: #262626" transform="translate(786.718594 42.815313) scale(0.1 -0.1)">
      <use xlink:href="#ArialMT-6d"/>
      <use xlink:href="#ArialMT-65" x="83.300781"/>
      <use xlink:href="#ArialMT-64" x="138.916016"/>
      <use xlink:href="#ArialMT-69" x="194.53125"/>
      <use xlink:href="#ArialMT-61" x="216.748047"/>
      <use xlink:href="#ArialMT-6e" x="272.363281"/>
     </g>
    </g>
    <g id="line2d_46">
     <path d="M 779.643125 55.192188 
L 791.643125 55.192188 
L 803.643125 55.192188 
" style="fill: none; stroke: #440154; stroke-opacity: 0.8; stroke-width: 2; stroke-linecap: round"/>
    </g>
    <g id="text_42">
     <!-- 42 -->
     <g style="fill: #262626" transform="translate(813.243125 59.392188) scale(0.12 -0.12)">
      <use xlink:href="#ArialMT-34"/>
      <use xlink:href="#ArialMT-32" x="55.615234"/>
     </g>
    </g>
    <g id="line2d_47">
     <path d="M 779.643125 72.166563 
L 791.643125 72.166563 
L 803.643125 72.166563 
" style="fill: none; stroke: #414487; stroke-opacity: 0.8; stroke-width: 2; stroke-linecap: round"/>
    </g>
    <g id="text_43">
     <!-- 41 -->
     <g style="fill: #262626" transform="translate(813.243125 76.366563) scale(0.12 -0.12)">
      <use xlink:href="#ArialMT-34"/>
      <use xlink:href="#ArialMT-31" x="55.615234"/>
     </g>
    </g>
    <g id="line2d_48">
     <path d="M 779.643125 89.140938 
L 791.643125 89.140938 
L 803.643125 89.140938 
" style="fill: none; stroke: #2a788e; stroke-opacity: 0.8; stroke-width: 2; stroke-linecap: round"/>
    </g>
    <g id="text_44">
     <!-- 40 -->
     <g style="fill: #262626" transform="translate(813.243125 93.340938) scale(0.12 -0.12)">
      <use xlink:href="#ArialMT-34"/>
      <use xlink:href="#ArialMT-30" x="55.615234"/>
     </g>
    </g>
    <g id="line2d_49">
     <path d="M 779.643125 106.115313 
L 791.643125 106.115313 
L 803.643125 106.115313 
" style="fill: none; stroke: #22a884; stroke-opacity: 0.8; stroke-width: 2; stroke-linecap: round"/>
    </g>
    <g id="text_45">
     <!-- 40 -->
     <g style="fill: #262626" transform="translate(813.243125 110.315313) scale(0.12 -0.12)">
      <use xlink:href="#ArialMT-34"/>
      <use xlink:href="#ArialMT-30" x="55.615234"/>
     </g>
    </g>
    <g id="line2d_50">
     <path d="M 779.643125 123.089688 
L 791.643125 123.089688 
L 803.643125 123.089688 
" style="fill: none; stroke: #7ad151; stroke-opacity: 0.8; stroke-width: 2; stroke-linecap: round"/>
    </g>
    <g id="text_46">
     <!-- 40 -->
     <g style="fill: #262626" transform="translate(813.243125 127.289688) scale(0.12 -0.12)">
      <use xlink:href="#ArialMT-34"/>
      <use xlink:href="#ArialMT-30" x="55.615234"/>
     </g>
    </g>
    <g id="line2d_51">
     <path d="M 779.643125 140.064063 
L 791.643125 140.064063 
L 803.643125 140.064063 
" style="fill: none; stroke: #fde725; stroke-opacity: 0.8; stroke-width: 2; stroke-linecap: round"/>
    </g>
    <g id="text_47">
     <!-- 39 -->
     <g style="fill: #262626" transform="translate(813.243125 144.264063) scale(0.12 -0.12)">
      <defs>
       <path id="ArialMT-39" d="M 350 1059 
L 891 1109 
Q 959 728 1153 556 
Q 1347 384 1650 384 
Q 1909 384 2104 503 
Q 2300 622 2425 820 
Q 2550 1019 2634 1356 
Q 2719 1694 2719 2044 
Q 2719 2081 2716 2156 
Q 2547 1888 2255 1720 
Q 1963 1553 1622 1553 
Q 1053 1553 659 1965 
Q 266 2378 266 3053 
Q 266 3750 677 4175 
Q 1088 4600 1706 4600 
Q 2153 4600 2523 4359 
Q 2894 4119 3086 3673 
Q 3278 3228 3278 2384 
Q 3278 1506 3087 986 
Q 2897 466 2520 194 
Q 2144 -78 1638 -78 
Q 1100 -78 759 220 
Q 419 519 350 1059 
z
M 2653 3081 
Q 2653 3566 2395 3850 
Q 2138 4134 1775 4134 
Q 1400 4134 1122 3828 
Q 844 3522 844 3034 
Q 844 2597 1108 2323 
Q 1372 2050 1759 2050 
Q 2150 2050 2401 2323 
Q 2653 2597 2653 3081 
z
" transform="scale(0.015625)"/>
      </defs>
      <use xlink:href="#ArialMT-33"/>
      <use xlink:href="#ArialMT-39" x="55.615234"/>
     </g>
    </g>
   </g>
  </g>
 </g>
 <defs>
  <clipPath id="p21f6309771">
   <rect x="56.189375" y="24.8575" width="355.090909" height="277.2"/>
  </clipPath>
  <clipPath id="p3e37301f1a">
   <rect x="482.298466" y="24.8575" width="355.090909" height="277.2"/>
  </clipPath>
 </defs>
</svg>
