<?xml version="1.0" encoding="utf-8" standalone="no"?>
<!DOCTYPE svg PUBLIC "-//W3C//DTD SVG 1.1//EN"
  "http://www.w3.org/Graphics/SVG/1.1/DTD/svg11.dtd">
<svg xmlns:xlink="http://www.w3.org/1999/xlink" width="209.7pt" height="208.44pt" viewBox="0 0 209.7 208.44" xmlns="http://www.w3.org/2000/svg" version="1.1">
 <metadata>
  <rdf:RDF xmlns:dc="http://purl.org/dc/elements/1.1/" xmlns:cc="http://creativecommons.org/ns#" xmlns:rdf="http://www.w3.org/1999/02/22-rdf-syntax-ns#">
   <cc:Work>
    <dc:type rdf:resource="http://purl.org/dc/dcmitype/StillImage"/>
    <dc:date>2025-03-03T15:13:23.180723</dc:date>
    <dc:format>image/svg+xml</dc:format>
    <dc:creator>
     <cc:Agent>
      <dc:title>Matplotlib v3.9.0, https://matplotlib.org/</dc:title>
     </cc:Agent>
    </dc:creator>
   </cc:Work>
  </rdf:RDF>
 </metadata>
 <defs>
  <style type="text/css">*{stroke-linejoin: round; stroke-linecap: butt}</style>
 </defs>
 <g id="figure_1">
  <g id="patch_1">
   <path d="M 0 208.44 
L 209.7 208.44 
L 209.7 0 
L 0 0 
z
" style="fill: #ffffff"/>
  </g>
  <g id="axes_1">
   <g id="patch_2">
    <path d="M 24.147521 39.850404 
Q 24.147521 64.128475 24.147521 87.288512 
" clip-path="url(#pc700cd6782)" style="fill: none; stroke: #000000; stroke-linecap: round"/>
    <path d="M 26.147521 83.288512 
L 24.147521 87.288512 
L 22.147521 83.288512 
z
" clip-path="url(#pc700cd6782)" style="stroke: #000000; stroke-linecap: round"/>
   </g>
   <g id="patch_3">
    <path d="M 174.334224 35.184061 
Q 145.199748 64.130573 116.858397 92.289077 
" clip-path="url(#pc700cd6782)" style="fill: none; stroke: #000000; stroke-linecap: round"/>
    <path d="M 121.105592 90.888601 
L 116.858397 92.289077 
L 118.286333 88.051035 
z
" clip-path="url(#pc700cd6782)" style="stroke: #000000; stroke-linecap: round"/>
   </g>
   <g id="patch_4">
    <path d="M 93.631745 35.184061 
Q 64.497269 64.130573 36.155917 92.289077 
" clip-path="url(#pc700cd6782)" style="fill: none; stroke: #000000; stroke-linecap: round"/>
    <path d="M 40.403112 90.888601 
L 36.155917 92.289077 
L 37.583854 88.051035 
z
" clip-path="url(#pc700cd6782)" style="stroke: #000000; stroke-linecap: round"/>
   </g>
   <g id="patch_5">
    <path d="M 104.85 39.850404 
Q 104.85 64.128475 104.85 87.288512 
" clip-path="url(#pc700cd6782)" style="fill: none; stroke: #000000; stroke-linecap: round"/>
    <path d="M 106.85 83.288512 
L 104.85 87.288512 
L 102.85 83.288512 
z
" clip-path="url(#pc700cd6782)" style="stroke: #000000; stroke-linecap: round"/>
   </g>
   <g id="patch_6">
    <path d="M 24.147521 120.032223 
Q 24.147521 144.310294 24.147521 167.470331 
" clip-path="url(#pc700cd6782)" style="fill: none; stroke: #000000; stroke-linecap: round"/>
    <path d="M 26.147521 163.470331 
L 24.147521 167.470331 
L 22.147521 163.470331 
z
" clip-path="url(#pc700cd6782)" style="stroke: #000000; stroke-linecap: round"/>
   </g>
   <g id="patch_7">
    <path d="M 93.631745 115.36588 
Q 64.497269 144.312391 36.155917 172.470895 
" clip-path="url(#pc700cd6782)" style="fill: none; stroke: #000000; stroke-linecap: round"/>
    <path d="M 40.403112 171.070419 
L 36.155917 172.470895 
L 37.583854 168.232853 
z
" clip-path="url(#pc700cd6782)" style="stroke: #000000; stroke-linecap: round"/>
   </g>
   <g id="text_1">
    <g id="patch_8">
     <path d="M 13.545802 56.34404 
L 13.545802 71.914665 
Q 13.545802 76.114665 17.745802 76.114665 
L 30.549239 76.114665 
Q 34.749239 76.114665 34.749239 71.914665 
L 34.749239 56.34404 
Q 34.749239 52.14404 30.549239 52.14404 
L 17.745802 52.14404 
Q 13.545802 52.14404 13.545802 56.34404 
z
" clip-path="url(#pc700cd6782)" style="fill: #ffffff; stroke: #ffffff; stroke-linejoin: miter"/>
    </g>
    <g clip-path="url(#pc700cd6782)">
     <!-- 21 -->
     <g transform="translate(20.528302 56.34404) rotate(-270) scale(0.14 -0.14)">
      <defs>
       <path id="ArialMT-32" d="M 3222 541 
L 3222 0 
L 194 0 
Q 188 203 259 391 
Q 375 700 629 1000 
Q 884 1300 1366 1694 
Q 2113 2306 2375 2664 
Q 2638 3022 2638 3341 
Q 2638 3675 2398 3904 
Q 2159 4134 1775 4134 
Q 1369 4134 1125 3890 
Q 881 3647 878 3216 
L 300 3275 
Q 359 3922 746 4261 
Q 1134 4600 1788 4600 
Q 2447 4600 2831 4234 
Q 3216 3869 3216 3328 
Q 3216 3053 3103 2787 
Q 2991 2522 2730 2228 
Q 2469 1934 1863 1422 
Q 1356 997 1212 845 
Q 1069 694 975 541 
L 3222 541 
z
" transform="scale(0.015625)"/>
       <path id="ArialMT-31" d="M 2384 0 
L 1822 0 
L 1822 3584 
Q 1619 3391 1289 3197 
Q 959 3003 697 2906 
L 697 3450 
Q 1169 3672 1522 3987 
Q 1875 4303 2022 4600 
L 2384 4600 
L 2384 0 
z
" transform="scale(0.015625)"/>
      </defs>
      <use xlink:href="#ArialMT-32"/>
      <use xlink:href="#ArialMT-31" x="55.615234"/>
     </g>
    </g>
   </g>
   <g id="text_2">
    <g id="patch_9">
     <path d="M 147.517298 76.772783 
L 157.830519 66.526099 
Q 160.809963 63.565877 157.849741 60.586433 
L 148.82569 51.503784 
Q 145.865468 48.52434 142.886024 51.484561 
L 132.572803 61.731246 
Q 129.593359 64.691468 132.553581 67.670912 
L 141.577632 76.753561 
Q 144.537854 79.733005 147.517298 76.772783 
z
" clip-path="url(#pc700cd6782)" style="fill: #ffffff; stroke: #ffffff; stroke-linejoin: miter"/>
    </g>
    <g clip-path="url(#pc700cd6782)">
     <!-- 11 -->
     <g transform="translate(142.595929 71.819457) rotate(-44.814577) scale(0.14 -0.14)">
      <use xlink:href="#ArialMT-31"/>
      <use xlink:href="#ArialMT-31" x="48.240234"/>
     </g>
    </g>
   </g>
   <g id="text_3">
    <g id="patch_10">
     <path d="M 66.448595 77.136644 
L 77.494263 66.162238 
Q 80.473707 63.202016 77.513485 60.222572 
L 68.489434 51.139923 
Q 65.529212 48.160479 62.549768 51.120701 
L 51.5041 62.095107 
Q 48.524656 65.055328 51.484878 68.034772 
L 60.508929 77.117421 
Q 63.469151 80.096865 66.448595 77.136644 
z
" clip-path="url(#pc700cd6782)" style="fill: #ffffff; stroke: #ffffff; stroke-linejoin: miter"/>
    </g>
    <g clip-path="url(#pc700cd6782)">
     <!-- 30 -->
     <g transform="translate(61.527226 72.183318) rotate(-44.814577) scale(0.14 -0.14)">
      <defs>
       <path id="ArialMT-33" d="M 269 1209 
L 831 1284 
Q 928 806 1161 595 
Q 1394 384 1728 384 
Q 2125 384 2398 659 
Q 2672 934 2672 1341 
Q 2672 1728 2419 1979 
Q 2166 2231 1775 2231 
Q 1616 2231 1378 2169 
L 1441 2663 
Q 1497 2656 1531 2656 
Q 1891 2656 2178 2843 
Q 2466 3031 2466 3422 
Q 2466 3731 2256 3934 
Q 2047 4138 1716 4138 
Q 1388 4138 1169 3931 
Q 950 3725 888 3313 
L 325 3413 
Q 428 3978 793 4289 
Q 1159 4600 1703 4600 
Q 2078 4600 2393 4439 
Q 2709 4278 2876 4000 
Q 3044 3722 3044 3409 
Q 3044 3113 2884 2869 
Q 2725 2625 2413 2481 
Q 2819 2388 3044 2092 
Q 3269 1797 3269 1353 
Q 3269 753 2831 336 
Q 2394 -81 1725 -81 
Q 1122 -81 723 278 
Q 325 638 269 1209 
z
" transform="scale(0.015625)"/>
       <path id="ArialMT-30" d="M 266 2259 
Q 266 3072 433 3567 
Q 600 4063 929 4331 
Q 1259 4600 1759 4600 
Q 2128 4600 2406 4451 
Q 2684 4303 2865 4023 
Q 3047 3744 3150 3342 
Q 3253 2941 3253 2259 
Q 3253 1453 3087 958 
Q 2922 463 2592 192 
Q 2263 -78 1759 -78 
Q 1097 -78 719 397 
Q 266 969 266 2259 
z
M 844 2259 
Q 844 1131 1108 757 
Q 1372 384 1759 384 
Q 2147 384 2411 759 
Q 2675 1134 2675 2259 
Q 2675 3391 2411 3762 
Q 2147 4134 1753 4134 
Q 1366 4134 1134 3806 
Q 844 3388 844 2259 
z
" transform="scale(0.015625)"/>
      </defs>
      <use xlink:href="#ArialMT-33"/>
      <use xlink:href="#ArialMT-30" x="55.615234"/>
     </g>
    </g>
   </g>
   <g id="text_4">
    <g id="patch_11">
     <path d="M 115.451719 71.914665 
L 115.451719 56.34404 
Q 115.451719 52.14404 111.251719 52.14404 
L 98.448281 52.14404 
Q 94.248281 52.14404 94.248281 56.34404 
L 94.248281 71.914665 
Q 94.248281 76.114665 98.448281 76.114665 
L 111.251719 76.114665 
Q 115.451719 76.114665 115.451719 71.914665 
z
" clip-path="url(#pc700cd6782)" style="fill: #ffffff; stroke: #ffffff; stroke-linejoin: miter"/>
    </g>
    <g clip-path="url(#pc700cd6782)">
     <!-- 30 -->
     <g transform="translate(108.469219 71.914665) rotate(-90) scale(0.14 -0.14)">
      <use xlink:href="#ArialMT-33"/>
      <use xlink:href="#ArialMT-30" x="55.615234"/>
     </g>
    </g>
   </g>
   <g id="text_5">
    <g id="patch_12">
     <path d="M 13.545802 137.042108 
L 13.545802 151.580233 
Q 13.545802 155.780233 17.745802 155.780233 
L 30.549239 155.780233 
Q 34.749239 155.780233 34.749239 151.580233 
L 34.749239 137.042108 
Q 34.749239 132.842108 30.549239 132.842108 
L 17.745802 132.842108 
Q 13.545802 132.842108 13.545802 137.042108 
z
" clip-path="url(#pc700cd6782)" style="fill: #ffffff; stroke: #ffffff; stroke-linejoin: miter"/>
    </g>
    <g clip-path="url(#pc700cd6782)">
     <!-- 11 -->
     <g transform="translate(20.528302 137.042108) rotate(-270) scale(0.14 -0.14)">
      <use xlink:href="#ArialMT-31"/>
      <use xlink:href="#ArialMT-31" x="48.240234"/>
     </g>
    </g>
   </g>
   <g id="text_6">
    <g id="patch_13">
     <path d="M 69.210012 154.57486 
L 74.732846 149.087658 
Q 77.71229 146.127436 74.752068 143.147992 
L 65.728017 134.065343 
Q 62.767795 131.085899 59.788351 134.04612 
L 54.265517 139.533323 
Q 51.286073 142.493545 54.246295 145.472989 
L 63.270346 154.555638 
Q 66.230568 157.535082 69.210012 154.57486 
z
" clip-path="url(#pc700cd6782)" style="fill: #ffffff; stroke: #ffffff; stroke-linejoin: miter"/>
    </g>
    <g clip-path="url(#pc700cd6782)">
     <!-- 4 -->
     <g transform="translate(64.288643 149.621535) rotate(-44.814577) scale(0.14 -0.14)">
      <defs>
       <path id="ArialMT-34" d="M 2069 0 
L 2069 1097 
L 81 1097 
L 81 1613 
L 2172 4581 
L 2631 4581 
L 2631 1613 
L 3250 1613 
L 3250 1097 
L 2631 1097 
L 2631 0 
L 2069 0 
z
M 2069 1613 
L 2069 3678 
L 634 1613 
L 2069 1613 
z
" transform="scale(0.015625)"/>
      </defs>
      <use xlink:href="#ArialMT-34"/>
     </g>
    </g>
   </g>
   <g id="PathCollection_1">
    <defs>
     <path id="C0_0_1432cc93cb" d="M 0 15.811388 
C 4.193229 15.811388 8.215279 14.145401 11.18034 11.18034 
C 14.145401 8.215279 15.811388 4.193229 15.811388 -0 
C 15.811388 -4.193229 14.145401 -8.215279 11.18034 -11.18034 
C 8.215279 -14.145401 4.193229 -15.811388 0 -15.811388 
C -4.193229 -15.811388 -8.215279 -14.145401 -11.18034 -11.18034 
C -14.145401 -8.215279 -15.811388 -4.193229 -15.811388 0 
C -15.811388 4.193229 -14.145401 8.215279 -11.18034 11.18034 
C -8.215279 14.145401 -4.193229 15.811388 0 15.811388 
z
"/>
    </defs>
    <g clip-path="url(#pc700cd6782)">
     <use xlink:href="#C0_0_1432cc93cb" x="24.147521" y="24.038182" style="fill: none; stroke: #000000"/>
    </g>
    <g clip-path="url(#pc700cd6782)">
     <use xlink:href="#C0_0_1432cc93cb" x="185.552479" y="24.038182" style="fill: none; stroke: #000000"/>
    </g>
    <g clip-path="url(#pc700cd6782)">
     <use xlink:href="#C0_0_1432cc93cb" x="104.85" y="24.038182" style="fill: none; stroke: #000000"/>
    </g>
    <g clip-path="url(#pc700cd6782)">
     <use xlink:href="#C0_0_1432cc93cb" x="24.147521" y="104.22" style="fill: none; stroke: #000000"/>
    </g>
    <g clip-path="url(#pc700cd6782)">
     <use xlink:href="#C0_0_1432cc93cb" x="104.85" y="104.22" style="fill: none; stroke: #000000"/>
    </g>
    <g clip-path="url(#pc700cd6782)">
     <use xlink:href="#C0_0_1432cc93cb" x="24.147521" y="184.401818" style="fill: none; stroke: #000000"/>
    </g>
   </g>
   <g id="text_7">
    <g clip-path="url(#pc700cd6782)">
     <!-- $T_1$ -->
     <g transform="translate(16.517521 27.657401) scale(0.14 -0.14)">
      <defs>
       <path id="DejaVuSans-Oblique-54" d="M 378 4666 
L 4325 4666 
L 4225 4134 
L 2559 4134 
L 1759 0 
L 1125 0 
L 1925 4134 
L 275 4134 
L 378 4666 
z
" transform="scale(0.015625)"/>
       <path id="DejaVuSans-31" d="M 794 531 
L 1825 531 
L 1825 4091 
L 703 3866 
L 703 4441 
L 1819 4666 
L 2450 4666 
L 2450 531 
L 3481 531 
L 3481 0 
L 794 0 
L 794 531 
z
" transform="scale(0.015625)"/>
      </defs>
      <use xlink:href="#DejaVuSans-Oblique-54" transform="translate(0 0.09375)"/>
      <use xlink:href="#DejaVuSans-31" transform="translate(61.083984 -16.3125) scale(0.7)"/>
     </g>
    </g>
   </g>
   <g id="text_8">
    <g clip-path="url(#pc700cd6782)">
     <!-- $T_2$ -->
     <g transform="translate(177.922479 27.657401) scale(0.14 -0.14)">
      <defs>
       <path id="DejaVuSans-32" d="M 1228 531 
L 3431 531 
L 3431 0 
L 469 0 
L 469 531 
Q 828 903 1448 1529 
Q 2069 2156 2228 2338 
Q 2531 2678 2651 2914 
Q 2772 3150 2772 3378 
Q 2772 3750 2511 3984 
Q 2250 4219 1831 4219 
Q 1534 4219 1204 4116 
Q 875 4013 500 3803 
L 500 4441 
Q 881 4594 1212 4672 
Q 1544 4750 1819 4750 
Q 2544 4750 2975 4387 
Q 3406 4025 3406 3419 
Q 3406 3131 3298 2873 
Q 3191 2616 2906 2266 
Q 2828 2175 2409 1742 
Q 1991 1309 1228 531 
z
" transform="scale(0.015625)"/>
      </defs>
      <use xlink:href="#DejaVuSans-Oblique-54" transform="translate(0 0.09375)"/>
      <use xlink:href="#DejaVuSans-32" transform="translate(61.083984 -16.3125) scale(0.7)"/>
     </g>
    </g>
   </g>
   <g id="text_9">
    <g clip-path="url(#pc700cd6782)">
     <!-- $W$ -->
     <g transform="translate(97.92 27.657401) scale(0.14 -0.14)">
      <defs>
       <path id="DejaVuSans-Oblique-57" d="M 616 4666 
L 1228 4666 
L 1453 697 
L 3213 4666 
L 3916 4666 
L 4147 697 
L 5888 4666 
L 6528 4666 
L 4453 0 
L 3659 0 
L 3444 3891 
L 1697 0 
L 903 0 
L 616 4666 
z
" transform="scale(0.015625)"/>
      </defs>
      <use xlink:href="#DejaVuSans-Oblique-57" transform="translate(0 0.09375)"/>
     </g>
    </g>
   </g>
   <g id="text_10">
    <g clip-path="url(#pc700cd6782)">
     <!-- JOIN -->
     <g transform="translate(8.202833 107.839219) scale(0.14 -0.14)">
      <defs>
       <path id="ArialMT-4a" d="M 184 1300 
L 731 1375 
Q 753 850 928 656 
Q 1103 463 1413 463 
Q 1641 463 1806 567 
Q 1972 672 2034 851 
Q 2097 1031 2097 1425 
L 2097 4581 
L 2703 4581 
L 2703 1459 
Q 2703 884 2564 568 
Q 2425 253 2123 87 
Q 1822 -78 1416 -78 
Q 813 -78 492 269 
Q 172 616 184 1300 
z
" transform="scale(0.015625)"/>
       <path id="ArialMT-4f" d="M 309 2231 
Q 309 3372 921 4017 
Q 1534 4663 2503 4663 
Q 3138 4663 3647 4359 
Q 4156 4056 4423 3514 
Q 4691 2972 4691 2284 
Q 4691 1588 4409 1038 
Q 4128 488 3612 205 
Q 3097 -78 2500 -78 
Q 1853 -78 1343 234 
Q 834 547 571 1087 
Q 309 1628 309 2231 
z
M 934 2222 
Q 934 1394 1379 917 
Q 1825 441 2497 441 
Q 3181 441 3623 922 
Q 4066 1403 4066 2288 
Q 4066 2847 3877 3264 
Q 3688 3681 3323 3911 
Q 2959 4141 2506 4141 
Q 1863 4141 1398 3698 
Q 934 3256 934 2222 
z
" transform="scale(0.015625)"/>
       <path id="ArialMT-49" d="M 597 0 
L 597 4581 
L 1203 4581 
L 1203 0 
L 597 0 
z
" transform="scale(0.015625)"/>
       <path id="ArialMT-4e" d="M 488 0 
L 488 4581 
L 1109 4581 
L 3516 984 
L 3516 4581 
L 4097 4581 
L 4097 0 
L 3475 0 
L 1069 3600 
L 1069 0 
L 488 0 
z
" transform="scale(0.015625)"/>
      </defs>
      <use xlink:href="#ArialMT-4a"/>
      <use xlink:href="#ArialMT-4f" x="50"/>
      <use xlink:href="#ArialMT-49" x="127.783203"/>
      <use xlink:href="#ArialMT-4e" x="155.566406"/>
     </g>
    </g>
   </g>
   <g id="text_11">
    <g clip-path="url(#pc700cd6782)">
     <!-- JOIN -->
     <g transform="translate(88.905313 107.839219) scale(0.14 -0.14)">
      <use xlink:href="#ArialMT-4a"/>
      <use xlink:href="#ArialMT-4f" x="50"/>
      <use xlink:href="#ArialMT-49" x="127.783203"/>
      <use xlink:href="#ArialMT-4e" x="155.566406"/>
     </g>
    </g>
   </g>
   <g id="text_12">
    <g clip-path="url(#pc700cd6782)">
     <!-- Z -->
     <g transform="translate(19.872052 188.021037) scale(0.14 -0.14)">
      <defs>
       <path id="ArialMT-5a" d="M 128 0 
L 128 563 
L 2475 3497 
Q 2725 3809 2950 4041 
L 394 4041 
L 394 4581 
L 3675 4581 
L 3675 4041 
L 1103 863 
L 825 541 
L 3750 541 
L 3750 0 
L 128 0 
z
" transform="scale(0.015625)"/>
      </defs>
      <use xlink:href="#ArialMT-5a"/>
     </g>
    </g>
   </g>
  </g>
 </g>
 <defs>
  <clipPath id="pc700cd6782">
   <rect x="7.2" y="7.2" width="195.3" height="194.04"/>
  </clipPath>
 </defs>
</svg>
