<?xml version="1.0" encoding="utf-8" standalone="no"?>
<!DOCTYPE svg PUBLIC "-//W3C//DTD SVG 1.1//EN"
  "http://www.w3.org/Graphics/SVG/1.1/DTD/svg11.dtd">
<svg xmlns:xlink="http://www.w3.org/1999/xlink" width="349.2pt" height="208.44pt" viewBox="0 0 349.2 208.44" xmlns="http://www.w3.org/2000/svg" version="1.1">
 <metadata>
  <rdf:RDF xmlns:dc="http://purl.org/dc/elements/1.1/" xmlns:cc="http://creativecommons.org/ns#" xmlns:rdf="http://www.w3.org/1999/02/22-rdf-syntax-ns#">
   <cc:Work>
    <dc:type rdf:resource="http://purl.org/dc/dcmitype/StillImage"/>
    <dc:date>2025-03-03T15:13:29.065244</dc:date>
    <dc:format>image/svg+xml</dc:format>
    <dc:creator>
     <cc:Agent>
      <dc:title>Matplotlib v3.9.0, https://matplotlib.org/</dc:title>
     </cc:Agent>
    </dc:creator>
   </cc:Work>
  </rdf:RDF>
 </metadata>
 <defs>
  <style type="text/css">*{stroke-linejoin: round; stroke-linecap: butt}</style>
 </defs>
 <g id="figure_1">
  <g id="patch_1">
   <path d="M 0 208.44 
L 349.2 208.44 
L 349.2 0 
L 0 0 
z
" style="fill: #ffffff"/>
  </g>
  <g id="axes_1">
   <g id="patch_2">
    <path d="M 49.936455 31.968763 
Q 105.429766 64.131015 159.955761 95.73264 
" clip-path="url(#p755074a701)" style="fill: none; stroke: #000000; stroke-linecap: round"/>
    <path d="M 157.49787 91.996496 
L 159.955761 95.73264 
L 155.492111 95.457267 
z
" clip-path="url(#p755074a701)" style="stroke: #000000; stroke-linecap: round"/>
   </g>
   <g id="patch_3">
    <path d="M 36.252893 39.850404 
Q 36.252893 64.128475 36.252893 87.288512 
" clip-path="url(#p755074a701)" style="fill: none; stroke: #000000; stroke-linecap: round"/>
    <path d="M 38.252893 83.288512 
L 36.252893 87.288512 
L 34.252893 83.288512 
z
" clip-path="url(#p755074a701)" style="stroke: #000000; stroke-linecap: round"/>
   </g>
   <g id="patch_4">
    <path d="M 188.283562 31.968763 
Q 243.776873 64.131015 298.302869 95.73264 
" clip-path="url(#p755074a701)" style="fill: none; stroke: #000000; stroke-linecap: round"/>
    <path d="M 295.844977 91.996496 
L 298.302869 95.73264 
L 293.839219 95.457267 
z
" clip-path="url(#p755074a701)" style="stroke: #000000; stroke-linecap: round"/>
   </g>
   <g id="patch_5">
    <path d="M 174.6 39.850404 
Q 174.6 64.128475 174.6 87.288512 
" clip-path="url(#p755074a701)" style="fill: none; stroke: #000000; stroke-linecap: round"/>
    <path d="M 176.6 83.288512 
L 174.6 87.288512 
L 172.6 83.288512 
z
" clip-path="url(#p755074a701)" style="stroke: #000000; stroke-linecap: round"/>
   </g>
   <g id="patch_6">
    <path d="M 160.916438 31.968763 
Q 105.423127 64.131015 50.897131 95.73264 
" clip-path="url(#p755074a701)" style="fill: none; stroke: #000000; stroke-linecap: round"/>
    <path d="M 55.360781 95.457267 
L 50.897131 95.73264 
L 53.355023 91.996496 
z
" clip-path="url(#p755074a701)" style="stroke: #000000; stroke-linecap: round"/>
   </g>
   <g id="patch_7">
    <path d="M 312.947107 39.850404 
Q 312.947107 64.128475 312.947107 87.288512 
" clip-path="url(#p755074a701)" style="fill: none; stroke: #000000; stroke-linecap: round"/>
    <path d="M 314.947107 83.288512 
L 312.947107 87.288512 
L 310.947107 83.288512 
z
" clip-path="url(#p755074a701)" style="stroke: #000000; stroke-linecap: round"/>
   </g>
   <g id="patch_8">
    <path d="M 299.263545 112.150581 
Q 243.770234 144.312833 189.244239 175.914458 
" clip-path="url(#p755074a701)" style="fill: none; stroke: #000000; stroke-linecap: round"/>
    <path d="M 193.707889 175.639085 
L 189.244239 175.914458 
L 191.70213 172.178315 
z
" clip-path="url(#p755074a701)" style="stroke: #000000; stroke-linecap: round"/>
   </g>
   <g id="patch_9">
    <path d="M 174.6 120.032223 
Q 174.6 144.310294 174.6 167.470331 
" clip-path="url(#p755074a701)" style="fill: none; stroke: #000000; stroke-linecap: round"/>
    <path d="M 176.6 163.470331 
L 174.6 167.470331 
L 172.6 163.470331 
z
" clip-path="url(#p755074a701)" style="stroke: #000000; stroke-linecap: round"/>
   </g>
   <g id="patch_10">
    <path d="M 49.936455 112.150581 
Q 105.429766 144.312833 159.955761 175.914458 
" clip-path="url(#p755074a701)" style="fill: none; stroke: #000000; stroke-linecap: round"/>
    <path d="M 157.49787 172.178315 
L 159.955761 175.914458 
L 155.492111 175.639085 
z
" clip-path="url(#p755074a701)" style="stroke: #000000; stroke-linecap: round"/>
   </g>
   <g id="text_1">
    <g id="patch_11">
     <path d="M 68.702329 55.098491 
L 82.173919 62.90622 
Q 85.807728 65.012266 87.913775 61.378457 
L 94.333926 50.301017 
Q 96.439972 46.667208 92.806163 44.561161 
L 79.334573 36.753433 
Q 75.700763 34.647387 73.594717 38.281196 
L 67.174566 49.358636 
Q 65.06852 52.992445 68.702329 55.098491 
z
" clip-path="url(#p755074a701)" style="fill: #ffffff; stroke: #ffffff; stroke-linejoin: miter"/>
    </g>
    <g clip-path="url(#p755074a701)">
     <!-- 45 -->
     <g transform="translate(72.203631 49.057284) rotate(-329.90471) scale(0.14 -0.14)">
      <defs>
       <path id="ArialMT-34" d="M 2069 0 
L 2069 1097 
L 81 1097 
L 81 1613 
L 2172 4581 
L 2631 4581 
L 2631 1613 
L 3250 1613 
L 3250 1097 
L 2631 1097 
L 2631 0 
L 2069 0 
z
M 2069 1613 
L 2069 3678 
L 634 1613 
L 2069 1613 
z
" transform="scale(0.015625)"/>
       <path id="ArialMT-35" d="M 266 1200 
L 856 1250 
Q 922 819 1161 601 
Q 1400 384 1738 384 
Q 2144 384 2425 690 
Q 2706 997 2706 1503 
Q 2706 1984 2436 2262 
Q 2166 2541 1728 2541 
Q 1456 2541 1237 2417 
Q 1019 2294 894 2097 
L 366 2166 
L 809 4519 
L 3088 4519 
L 3088 3981 
L 1259 3981 
L 1013 2750 
Q 1425 3038 1878 3038 
Q 2478 3038 2890 2622 
Q 3303 2206 3303 1553 
Q 3303 931 2941 478 
Q 2500 -78 1738 -78 
Q 1113 -78 717 272 
Q 322 622 266 1200 
z
" transform="scale(0.015625)"/>
      </defs>
      <use xlink:href="#ArialMT-34"/>
      <use xlink:href="#ArialMT-35" x="55.615234"/>
     </g>
    </g>
   </g>
   <g id="text_2">
    <g id="patch_12">
     <path d="M 25.651174 47.663159 
L 25.651174 55.448471 
Q 25.651174 59.648471 29.851174 59.648471 
L 42.654611 59.648471 
Q 46.854611 59.648471 46.854611 55.448471 
L 46.854611 47.663159 
Q 46.854611 43.463159 42.654611 43.463159 
L 29.851174 43.463159 
Q 25.651174 43.463159 25.651174 47.663159 
z
" clip-path="url(#p755074a701)" style="fill: #ffffff; stroke: #ffffff; stroke-linejoin: miter"/>
    </g>
    <g clip-path="url(#p755074a701)">
     <!-- 7 -->
     <g transform="translate(32.633674 47.663159) rotate(-270) scale(0.14 -0.14)">
      <defs>
       <path id="ArialMT-37" d="M 303 3981 
L 303 4522 
L 3269 4522 
L 3269 4084 
Q 2831 3619 2401 2847 
Q 1972 2075 1738 1259 
Q 1569 684 1522 0 
L 944 0 
Q 953 541 1156 1306 
Q 1359 2072 1739 2783 
Q 2119 3494 2547 3981 
L 303 3981 
z
" transform="scale(0.015625)"/>
      </defs>
      <use xlink:href="#ArialMT-37"/>
     </g>
    </g>
   </g>
   <g id="text_3">
    <g id="patch_13">
     <path d="M 207.049437 55.098491 
L 220.521027 62.90622 
Q 224.154836 65.012266 226.260882 61.378457 
L 232.681033 50.301017 
Q 234.787079 46.667208 231.15327 44.561161 
L 217.68168 36.753433 
Q 214.047871 34.647387 211.941824 38.281196 
L 205.521674 49.358636 
Q 203.415627 52.992445 207.049437 55.098491 
z
" clip-path="url(#p755074a701)" style="fill: #ffffff; stroke: #ffffff; stroke-linejoin: miter"/>
    </g>
    <g clip-path="url(#p755074a701)">
     <!-- 17 -->
     <g transform="translate(210.550739 49.057284) rotate(-329.90471) scale(0.14 -0.14)">
      <defs>
       <path id="ArialMT-31" d="M 2384 0 
L 1822 0 
L 1822 3584 
Q 1619 3391 1289 3197 
Q 959 3003 697 2906 
L 697 3450 
Q 1169 3672 1522 3987 
Q 1875 4303 2022 4600 
L 2384 4600 
L 2384 0 
z
" transform="scale(0.015625)"/>
      </defs>
      <use xlink:href="#ArialMT-31"/>
      <use xlink:href="#ArialMT-37" x="55.615234"/>
     </g>
    </g>
   </g>
   <g id="text_4">
    <g id="patch_14">
     <path d="M 163.998281 47.663159 
L 163.998281 55.448471 
Q 163.998281 59.648471 168.198281 59.648471 
L 181.001719 59.648471 
Q 185.201719 59.648471 185.201719 55.448471 
L 185.201719 47.663159 
Q 185.201719 43.463159 181.001719 43.463159 
L 168.198281 43.463159 
Q 163.998281 43.463159 163.998281 47.663159 
z
" clip-path="url(#p755074a701)" style="fill: #ffffff; stroke: #ffffff; stroke-linejoin: miter"/>
    </g>
    <g clip-path="url(#p755074a701)">
     <!-- 0 -->
     <g transform="translate(170.980781 47.663159) rotate(-270) scale(0.14 -0.14)">
      <defs>
       <path id="ArialMT-30" d="M 266 2259 
Q 266 3072 433 3567 
Q 600 4063 929 4331 
Q 1259 4600 1759 4600 
Q 2128 4600 2406 4451 
Q 2684 4303 2865 4023 
Q 3047 3744 3150 3342 
Q 3253 2941 3253 2259 
Q 3253 1453 3087 958 
Q 2922 463 2592 192 
Q 2263 -78 1759 -78 
Q 1097 -78 719 397 
Q 266 969 266 2259 
z
M 844 2259 
Q 844 1131 1108 757 
Q 1372 384 1759 384 
Q 2147 384 2411 759 
Q 2675 1134 2675 2259 
Q 2675 3391 2411 3762 
Q 2147 4134 1753 4134 
Q 1366 4134 1134 3806 
Q 844 3388 844 2259 
z
" transform="scale(0.015625)"/>
      </defs>
      <use xlink:href="#ArialMT-30"/>
     </g>
    </g>
   </g>
   <g id="text_5">
    <g id="patch_15">
     <path d="M 128.678973 62.90622 
L 142.150563 55.098491 
Q 145.784373 52.992445 143.678326 49.358636 
L 137.258176 38.281196 
Q 135.152129 34.647387 131.51832 36.753433 
L 118.04673 44.561161 
Q 114.412921 46.667208 116.518967 50.301017 
L 122.939118 61.378457 
Q 125.045164 65.012266 128.678973 62.90622 
z
" clip-path="url(#p755074a701)" style="fill: #ffffff; stroke: #ffffff; stroke-linejoin: miter"/>
    </g>
    <g clip-path="url(#p755074a701)">
     <!-- 38 -->
     <g transform="translate(125.177671 56.865012) rotate(-30.09529) scale(0.14 -0.14)">
      <defs>
       <path id="ArialMT-33" d="M 269 1209 
L 831 1284 
Q 928 806 1161 595 
Q 1394 384 1728 384 
Q 2125 384 2398 659 
Q 2672 934 2672 1341 
Q 2672 1728 2419 1979 
Q 2166 2231 1775 2231 
Q 1616 2231 1378 2169 
L 1441 2663 
Q 1497 2656 1531 2656 
Q 1891 2656 2178 2843 
Q 2466 3031 2466 3422 
Q 2466 3731 2256 3934 
Q 2047 4138 1716 4138 
Q 1388 4138 1169 3931 
Q 950 3725 888 3313 
L 325 3413 
Q 428 3978 793 4289 
Q 1159 4600 1703 4600 
Q 2078 4600 2393 4439 
Q 2709 4278 2876 4000 
Q 3044 3722 3044 3409 
Q 3044 3113 2884 2869 
Q 2725 2625 2413 2481 
Q 2819 2388 3044 2092 
Q 3269 1797 3269 1353 
Q 3269 753 2831 336 
Q 2394 -81 1725 -81 
Q 1122 -81 723 278 
Q 325 638 269 1209 
z
" transform="scale(0.015625)"/>
       <path id="ArialMT-38" d="M 1131 2484 
Q 781 2613 612 2850 
Q 444 3088 444 3419 
Q 444 3919 803 4259 
Q 1163 4600 1759 4600 
Q 2359 4600 2725 4251 
Q 3091 3903 3091 3403 
Q 3091 3084 2923 2848 
Q 2756 2613 2416 2484 
Q 2838 2347 3058 2040 
Q 3278 1734 3278 1309 
Q 3278 722 2862 322 
Q 2447 -78 1769 -78 
Q 1091 -78 675 323 
Q 259 725 259 1325 
Q 259 1772 486 2073 
Q 713 2375 1131 2484 
z
M 1019 3438 
Q 1019 3113 1228 2906 
Q 1438 2700 1772 2700 
Q 2097 2700 2305 2904 
Q 2513 3109 2513 3406 
Q 2513 3716 2298 3927 
Q 2084 4138 1766 4138 
Q 1444 4138 1231 3931 
Q 1019 3725 1019 3438 
z
M 838 1322 
Q 838 1081 952 856 
Q 1066 631 1291 507 
Q 1516 384 1775 384 
Q 2178 384 2440 643 
Q 2703 903 2703 1303 
Q 2703 1709 2433 1975 
Q 2163 2241 1756 2241 
Q 1359 2241 1098 1978 
Q 838 1716 838 1322 
z
" transform="scale(0.015625)"/>
      </defs>
      <use xlink:href="#ArialMT-33"/>
      <use xlink:href="#ArialMT-38" x="55.615234"/>
     </g>
    </g>
   </g>
   <g id="text_6">
    <g id="patch_16">
     <path d="M 302.345389 43.770502 
L 302.345389 59.341127 
Q 302.345389 63.541127 306.545389 63.541127 
L 319.348826 63.541127 
Q 323.548826 63.541127 323.548826 59.341127 
L 323.548826 43.770502 
Q 323.548826 39.570502 319.348826 39.570502 
L 306.545389 39.570502 
Q 302.345389 39.570502 302.345389 43.770502 
z
" clip-path="url(#p755074a701)" style="fill: #ffffff; stroke: #ffffff; stroke-linejoin: miter"/>
    </g>
    <g clip-path="url(#p755074a701)">
     <!-- 44 -->
     <g transform="translate(309.327889 43.770502) rotate(-270) scale(0.14 -0.14)">
      <use xlink:href="#ArialMT-34"/>
      <use xlink:href="#ArialMT-34" x="55.615234"/>
     </g>
    </g>
   </g>
   <g id="text_7">
    <g id="patch_17">
     <path d="M 267.026081 143.088038 
L 280.497671 135.28031 
Q 284.13148 133.174263 282.025434 129.540454 
L 275.605283 118.463014 
Q 273.499237 114.829205 269.865427 116.935251 
L 256.393837 124.74298 
Q 252.760028 126.849026 254.866074 130.482835 
L 261.286225 141.560275 
Q 263.392272 145.194084 267.026081 143.088038 
z
" clip-path="url(#p755074a701)" style="fill: #ffffff; stroke: #ffffff; stroke-linejoin: miter"/>
    </g>
    <g clip-path="url(#p755074a701)">
     <!-- 52 -->
     <g transform="translate(263.524779 137.04683) rotate(-30.09529) scale(0.14 -0.14)">
      <defs>
       <path id="ArialMT-32" d="M 3222 541 
L 3222 0 
L 194 0 
Q 188 203 259 391 
Q 375 700 629 1000 
Q 884 1300 1366 1694 
Q 2113 2306 2375 2664 
Q 2638 3022 2638 3341 
Q 2638 3675 2398 3904 
Q 2159 4134 1775 4134 
Q 1369 4134 1125 3890 
Q 881 3647 878 3216 
L 300 3275 
Q 359 3922 746 4261 
Q 1134 4600 1788 4600 
Q 2447 4600 2831 4234 
Q 3216 3869 3216 3328 
Q 3216 3053 3103 2787 
Q 2991 2522 2730 2228 
Q 2469 1934 1863 1422 
Q 1356 997 1212 845 
Q 1069 694 975 541 
L 3222 541 
z
" transform="scale(0.015625)"/>
      </defs>
      <use xlink:href="#ArialMT-35"/>
      <use xlink:href="#ArialMT-32" x="55.615234"/>
     </g>
    </g>
   </g>
   <g id="text_8">
    <g id="patch_18">
     <path d="M 163.998281 123.95232 
L 163.998281 139.522945 
Q 163.998281 143.722945 168.198281 143.722945 
L 181.001719 143.722945 
Q 185.201719 143.722945 185.201719 139.522945 
L 185.201719 123.95232 
Q 185.201719 119.75232 181.001719 119.75232 
L 168.198281 119.75232 
Q 163.998281 119.75232 163.998281 123.95232 
z
" clip-path="url(#p755074a701)" style="fill: #ffffff; stroke: #ffffff; stroke-linejoin: miter"/>
    </g>
    <g clip-path="url(#p755074a701)">
     <!-- 52 -->
     <g transform="translate(170.980781 123.95232) rotate(-270) scale(0.14 -0.14)">
      <use xlink:href="#ArialMT-35"/>
      <use xlink:href="#ArialMT-32" x="55.615234"/>
     </g>
    </g>
   </g>
   <g id="text_9">
    <g id="patch_19">
     <path d="M 68.702329 135.28031 
L 82.173919 143.088038 
Q 85.807728 145.194084 87.913775 141.560275 
L 94.333926 130.482835 
Q 96.439972 126.849026 92.806163 124.74298 
L 79.334573 116.935251 
Q 75.700763 114.829205 73.594717 118.463014 
L 67.174566 129.540454 
Q 65.06852 133.174263 68.702329 135.28031 
z
" clip-path="url(#p755074a701)" style="fill: #ffffff; stroke: #ffffff; stroke-linejoin: miter"/>
    </g>
    <g clip-path="url(#p755074a701)">
     <!-- 63 -->
     <g transform="translate(72.203631 129.239102) rotate(-329.90471) scale(0.14 -0.14)">
      <defs>
       <path id="ArialMT-36" d="M 3184 3459 
L 2625 3416 
Q 2550 3747 2413 3897 
Q 2184 4138 1850 4138 
Q 1581 4138 1378 3988 
Q 1113 3794 959 3422 
Q 806 3050 800 2363 
Q 1003 2672 1297 2822 
Q 1591 2972 1913 2972 
Q 2475 2972 2870 2558 
Q 3266 2144 3266 1488 
Q 3266 1056 3080 686 
Q 2894 316 2569 119 
Q 2244 -78 1831 -78 
Q 1128 -78 684 439 
Q 241 956 241 2144 
Q 241 3472 731 4075 
Q 1159 4600 1884 4600 
Q 2425 4600 2770 4297 
Q 3116 3994 3184 3459 
z
M 888 1484 
Q 888 1194 1011 928 
Q 1134 663 1356 523 
Q 1578 384 1822 384 
Q 2178 384 2434 671 
Q 2691 959 2691 1453 
Q 2691 1928 2437 2201 
Q 2184 2475 1800 2475 
Q 1419 2475 1153 2201 
Q 888 1928 888 1484 
z
" transform="scale(0.015625)"/>
      </defs>
      <use xlink:href="#ArialMT-36"/>
      <use xlink:href="#ArialMT-33" x="55.615234"/>
     </g>
    </g>
   </g>
   <g id="PathCollection_1">
    <defs>
     <path id="C0_0_281efdb8e2" d="M 0 15.811388 
C 4.193229 15.811388 8.215279 14.145401 11.18034 11.18034 
C 14.145401 8.215279 15.811388 4.193229 15.811388 -0 
C 15.811388 -4.193229 14.145401 -8.215279 11.18034 -11.18034 
C 8.215279 -14.145401 4.193229 -15.811388 0 -15.811388 
C -4.193229 -15.811388 -8.215279 -14.145401 -11.18034 -11.18034 
C -14.145401 -8.215279 -15.811388 -4.193229 -15.811388 0 
C -15.811388 4.193229 -14.145401 8.215279 -11.18034 11.18034 
C -8.215279 14.145401 -4.193229 15.811388 0 15.811388 
z
"/>
    </defs>
    <g clip-path="url(#p755074a701)">
     <use xlink:href="#C0_0_281efdb8e2" x="36.252893" y="24.038182" style="fill: none; stroke: #000000"/>
    </g>
    <g clip-path="url(#p755074a701)">
     <use xlink:href="#C0_0_281efdb8e2" x="174.6" y="24.038182" style="fill: none; stroke: #000000"/>
    </g>
    <g clip-path="url(#p755074a701)">
     <use xlink:href="#C0_0_281efdb8e2" x="312.947107" y="24.038182" style="fill: none; stroke: #000000"/>
    </g>
    <g clip-path="url(#p755074a701)">
     <use xlink:href="#C0_0_281efdb8e2" x="174.6" y="184.401818" style="fill: none; stroke: #000000"/>
    </g>
    <g clip-path="url(#p755074a701)">
     <use xlink:href="#C0_0_281efdb8e2" x="312.947107" y="104.22" style="fill: none; stroke: #000000"/>
    </g>
    <g clip-path="url(#p755074a701)">
     <use xlink:href="#C0_0_281efdb8e2" x="174.6" y="104.22" style="fill: none; stroke: #000000"/>
    </g>
    <g clip-path="url(#p755074a701)">
     <use xlink:href="#C0_0_281efdb8e2" x="36.252893" y="104.22" style="fill: none; stroke: #000000"/>
    </g>
   </g>
   <g id="text_10">
    <g clip-path="url(#p755074a701)">
     <!-- $T_1$ -->
     <g transform="translate(28.622893 27.657401) scale(0.14 -0.14)">
      <defs>
       <path id="DejaVuSans-Oblique-54" d="M 378 4666 
L 4325 4666 
L 4225 4134 
L 2559 4134 
L 1759 0 
L 1125 0 
L 1925 4134 
L 275 4134 
L 378 4666 
z
" transform="scale(0.015625)"/>
       <path id="DejaVuSans-31" d="M 794 531 
L 1825 531 
L 1825 4091 
L 703 3866 
L 703 4441 
L 1819 4666 
L 2450 4666 
L 2450 531 
L 3481 531 
L 3481 0 
L 794 0 
L 794 531 
z
" transform="scale(0.015625)"/>
      </defs>
      <use xlink:href="#DejaVuSans-Oblique-54" transform="translate(0 0.09375)"/>
      <use xlink:href="#DejaVuSans-31" transform="translate(61.083984 -16.3125) scale(0.7)"/>
     </g>
    </g>
   </g>
   <g id="text_11">
    <g clip-path="url(#p755074a701)">
     <!-- $W$ -->
     <g transform="translate(167.67 27.657401) scale(0.14 -0.14)">
      <defs>
       <path id="DejaVuSans-Oblique-57" d="M 616 4666 
L 1228 4666 
L 1453 697 
L 3213 4666 
L 3916 4666 
L 4147 697 
L 5888 4666 
L 6528 4666 
L 4453 0 
L 3659 0 
L 3444 3891 
L 1697 0 
L 903 0 
L 616 4666 
z
" transform="scale(0.015625)"/>
      </defs>
      <use xlink:href="#DejaVuSans-Oblique-57" transform="translate(0 0.09375)"/>
     </g>
    </g>
   </g>
   <g id="text_12">
    <g clip-path="url(#p755074a701)">
     <!-- $T_2$ -->
     <g transform="translate(305.317107 27.657401) scale(0.14 -0.14)">
      <defs>
       <path id="DejaVuSans-32" d="M 1228 531 
L 3431 531 
L 3431 0 
L 469 0 
L 469 531 
Q 828 903 1448 1529 
Q 2069 2156 2228 2338 
Q 2531 2678 2651 2914 
Q 2772 3150 2772 3378 
Q 2772 3750 2511 3984 
Q 2250 4219 1831 4219 
Q 1534 4219 1204 4116 
Q 875 4013 500 3803 
L 500 4441 
Q 881 4594 1212 4672 
Q 1544 4750 1819 4750 
Q 2544 4750 2975 4387 
Q 3406 4025 3406 3419 
Q 3406 3131 3298 2873 
Q 3191 2616 2906 2266 
Q 2828 2175 2409 1742 
Q 1991 1309 1228 531 
z
" transform="scale(0.015625)"/>
      </defs>
      <use xlink:href="#DejaVuSans-Oblique-54" transform="translate(0 0.09375)"/>
      <use xlink:href="#DejaVuSans-32" transform="translate(61.083984 -16.3125) scale(0.7)"/>
     </g>
    </g>
   </g>
   <g id="text_13">
    <g clip-path="url(#p755074a701)">
     <!-- Z -->
     <g transform="translate(170.324531 188.021037) scale(0.14 -0.14)">
      <defs>
       <path id="ArialMT-5a" d="M 128 0 
L 128 563 
L 2475 3497 
Q 2725 3809 2950 4041 
L 394 4041 
L 394 4581 
L 3675 4581 
L 3675 4041 
L 1103 863 
L 825 541 
L 3750 541 
L 3750 0 
L 128 0 
z
" transform="scale(0.015625)"/>
      </defs>
      <use xlink:href="#ArialMT-5a"/>
     </g>
    </g>
   </g>
   <g id="text_14">
    <g clip-path="url(#p755074a701)">
     <!-- JOIN -->
     <g transform="translate(297.00242 107.839219) scale(0.14 -0.14)">
      <defs>
       <path id="ArialMT-4a" d="M 184 1300 
L 731 1375 
Q 753 850 928 656 
Q 1103 463 1413 463 
Q 1641 463 1806 567 
Q 1972 672 2034 851 
Q 2097 1031 2097 1425 
L 2097 4581 
L 2703 4581 
L 2703 1459 
Q 2703 884 2564 568 
Q 2425 253 2123 87 
Q 1822 -78 1416 -78 
Q 813 -78 492 269 
Q 172 616 184 1300 
z
" transform="scale(0.015625)"/>
       <path id="ArialMT-4f" d="M 309 2231 
Q 309 3372 921 4017 
Q 1534 4663 2503 4663 
Q 3138 4663 3647 4359 
Q 4156 4056 4423 3514 
Q 4691 2972 4691 2284 
Q 4691 1588 4409 1038 
Q 4128 488 3612 205 
Q 3097 -78 2500 -78 
Q 1853 -78 1343 234 
Q 834 547 571 1087 
Q 309 1628 309 2231 
z
M 934 2222 
Q 934 1394 1379 917 
Q 1825 441 2497 441 
Q 3181 441 3623 922 
Q 4066 1403 4066 2288 
Q 4066 2847 3877 3264 
Q 3688 3681 3323 3911 
Q 2959 4141 2506 4141 
Q 1863 4141 1398 3698 
Q 934 3256 934 2222 
z
" transform="scale(0.015625)"/>
       <path id="ArialMT-49" d="M 597 0 
L 597 4581 
L 1203 4581 
L 1203 0 
L 597 0 
z
" transform="scale(0.015625)"/>
       <path id="ArialMT-4e" d="M 488 0 
L 488 4581 
L 1109 4581 
L 3516 984 
L 3516 4581 
L 4097 4581 
L 4097 0 
L 3475 0 
L 1069 3600 
L 1069 0 
L 488 0 
z
" transform="scale(0.015625)"/>
      </defs>
      <use xlink:href="#ArialMT-4a"/>
      <use xlink:href="#ArialMT-4f" x="50"/>
      <use xlink:href="#ArialMT-49" x="127.783203"/>
      <use xlink:href="#ArialMT-4e" x="155.566406"/>
     </g>
    </g>
   </g>
   <g id="text_15">
    <g clip-path="url(#p755074a701)">
     <!-- JOIN -->
     <g transform="translate(158.655313 107.839219) scale(0.14 -0.14)">
      <use xlink:href="#ArialMT-4a"/>
      <use xlink:href="#ArialMT-4f" x="50"/>
      <use xlink:href="#ArialMT-49" x="127.783203"/>
      <use xlink:href="#ArialMT-4e" x="155.566406"/>
     </g>
    </g>
   </g>
   <g id="text_16">
    <g clip-path="url(#p755074a701)">
     <!-- JOIN -->
     <g transform="translate(20.308205 107.839219) scale(0.14 -0.14)">
      <use xlink:href="#ArialMT-4a"/>
      <use xlink:href="#ArialMT-4f" x="50"/>
      <use xlink:href="#ArialMT-49" x="127.783203"/>
      <use xlink:href="#ArialMT-4e" x="155.566406"/>
     </g>
    </g>
   </g>
  </g>
 </g>
 <defs>
  <clipPath id="p755074a701">
   <rect x="7.2" y="7.2" width="334.8" height="194.04"/>
  </clipPath>
 </defs>
</svg>
